G04 #@! TF.FileFunction,Copper,L1,Top,Signal*
%FSLAX46Y46*%
G04 Gerber Fmt 4.6, Leading zero omitted, Abs format (unit mm)*
G04 Created by KiCad (PCBNEW 4.0.6) date Sun Jul 30 22:25:41 2017*
%MOMM*%
%LPD*%
G01*
G04 APERTURE LIST*
%ADD10C,0.100000*%
%ADD11R,1.600000X3.500000*%
%ADD12R,1.200000X1.700000*%
%ADD13O,1.200000X1.700000*%
%ADD14R,1.700000X1.200000*%
%ADD15O,1.700000X1.200000*%
%ADD16R,1.500000X0.550000*%
%ADD17R,0.550000X1.500000*%
%ADD18R,1.500000X1.250000*%
%ADD19R,1.250000X1.500000*%
%ADD20R,3.500000X1.600000*%
%ADD21R,1.200000X1.200000*%
%ADD22C,2.400000*%
%ADD23R,2.400000X2.400000*%
%ADD24R,1.727200X1.727200*%
%ADD25O,1.727200X1.727200*%
%ADD26R,2.100000X1.800000*%
%ADD27R,1.500000X1.300000*%
%ADD28R,1.300000X1.500000*%
%ADD29R,2.000000X3.800000*%
%ADD30R,2.000000X1.500000*%
%ADD31R,1.550000X0.600000*%
%ADD32O,1.500000X0.300000*%
%ADD33O,0.300000X1.500000*%
%ADD34R,5.600000X5.600000*%
%ADD35C,0.500000*%
%ADD36C,0.600000*%
%ADD37C,0.800000*%
%ADD38C,5.500000*%
%ADD39C,0.254000*%
%ADD40C,0.508000*%
%ADD41C,0.152400*%
%ADD42C,0.300000*%
G04 APERTURE END LIST*
D10*
D11*
X90937000Y-57902000D03*
X90937000Y-52502000D03*
D12*
X126951411Y-96451671D03*
D13*
X124951411Y-96451671D03*
X122951411Y-96451671D03*
X120951411Y-96451671D03*
D12*
X160479411Y-96451671D03*
D13*
X158479411Y-96451671D03*
X156479411Y-96451671D03*
X154479411Y-96451671D03*
D14*
X159009000Y-72632000D03*
D15*
X159009000Y-70632000D03*
X159009000Y-68632000D03*
X159009000Y-66632000D03*
D12*
X120909000Y-53728800D03*
D13*
X122909000Y-53728800D03*
X124909000Y-53728800D03*
X126909000Y-53728800D03*
D12*
X109733000Y-53728800D03*
D13*
X111733000Y-53728800D03*
X113733000Y-53728800D03*
X115733000Y-53728800D03*
D12*
X98557000Y-53728800D03*
D13*
X100557000Y-53728800D03*
X102557000Y-53728800D03*
X104557000Y-53728800D03*
D16*
X121275000Y-78760000D03*
X121275000Y-77960000D03*
X121275000Y-77160000D03*
X121275000Y-76360000D03*
X121275000Y-75560000D03*
X121275000Y-74760000D03*
X121275000Y-73960000D03*
X121275000Y-73160000D03*
X121275000Y-72360000D03*
X121275000Y-71560000D03*
X121275000Y-70760000D03*
D17*
X119575000Y-69060000D03*
X118775000Y-69060000D03*
X117975000Y-69060000D03*
X117175000Y-69060000D03*
X116375000Y-69060000D03*
X115575000Y-69060000D03*
X114775000Y-69060000D03*
X113975000Y-69060000D03*
X113175000Y-69060000D03*
X112375000Y-69060000D03*
X111575000Y-69060000D03*
D16*
X109875000Y-70760000D03*
X109875000Y-71560000D03*
X109875000Y-72360000D03*
X109875000Y-73160000D03*
X109875000Y-73960000D03*
X109875000Y-74760000D03*
X109875000Y-75560000D03*
X109875000Y-76360000D03*
X109875000Y-77160000D03*
X109875000Y-77960000D03*
X109875000Y-78760000D03*
D17*
X111575000Y-80460000D03*
X112375000Y-80460000D03*
X113175000Y-80460000D03*
X113975000Y-80460000D03*
X114775000Y-80460000D03*
X115575000Y-80460000D03*
X116375000Y-80460000D03*
X117175000Y-80460000D03*
X117975000Y-80460000D03*
X118775000Y-80460000D03*
X119575000Y-80460000D03*
D18*
X90703000Y-68664000D03*
X93203000Y-68664000D03*
D19*
X105161000Y-81384000D03*
X105161000Y-83884000D03*
X128529000Y-73510000D03*
X128529000Y-76010000D03*
X115575000Y-82908000D03*
X115575000Y-85408000D03*
X109479000Y-61064000D03*
X109479000Y-63564000D03*
D18*
X126223000Y-73490000D03*
X123723000Y-73490000D03*
D19*
X86111000Y-81344000D03*
X86111000Y-78844000D03*
X118369000Y-85682000D03*
X118369000Y-83182000D03*
X126751000Y-83182000D03*
X126751000Y-85682000D03*
X80777000Y-57722000D03*
X80777000Y-55222000D03*
X92715000Y-62568000D03*
X92715000Y-65068000D03*
D18*
X96291000Y-58758000D03*
X98791000Y-58758000D03*
D19*
X166375000Y-60770000D03*
X166375000Y-58270000D03*
X166375000Y-89766000D03*
X166375000Y-92266000D03*
D18*
X96291000Y-91524000D03*
X98791000Y-91524000D03*
D20*
X161803000Y-60790000D03*
X156403000Y-60790000D03*
X161803000Y-89746000D03*
X156403000Y-89746000D03*
D11*
X90937000Y-91618000D03*
X90937000Y-97018000D03*
D21*
X92293000Y-79332000D03*
X94493000Y-79332000D03*
X92293000Y-81322443D03*
X94493000Y-81322443D03*
X92293000Y-84412000D03*
X94493000Y-84412000D03*
X92293000Y-86444000D03*
X94493000Y-86444000D03*
D22*
X74681000Y-61806000D03*
D23*
X74681000Y-58306000D03*
D24*
X78999000Y-88984000D03*
D25*
X81539000Y-88984000D03*
X78999000Y-91524000D03*
X81539000Y-91524000D03*
X78999000Y-94064000D03*
X81539000Y-94064000D03*
D26*
X121163000Y-85682000D03*
X124063000Y-85682000D03*
X124063000Y-83382000D03*
X121163000Y-83382000D03*
D27*
X98637000Y-72728000D03*
X95937000Y-72728000D03*
D28*
X81793000Y-78664000D03*
X81793000Y-81364000D03*
D27*
X96873000Y-79332000D03*
X99573000Y-79332000D03*
X96873000Y-81364000D03*
X99573000Y-81364000D03*
X96873000Y-84412000D03*
X99573000Y-84412000D03*
X96873000Y-86444000D03*
X99573000Y-86444000D03*
D29*
X81335000Y-64360000D03*
D30*
X87635000Y-64360000D03*
X87635000Y-62060000D03*
X87635000Y-66660000D03*
D31*
X87287000Y-74125000D03*
X87287000Y-72855000D03*
X87287000Y-71585000D03*
X87287000Y-70315000D03*
X81887000Y-70315000D03*
X81887000Y-71585000D03*
X81887000Y-72855000D03*
X81887000Y-74125000D03*
D21*
X106251000Y-60946000D03*
X106251000Y-63146000D03*
X103663000Y-60946000D03*
X103663000Y-63146000D03*
X101075000Y-60946000D03*
X101075000Y-63146000D03*
X98487000Y-60946000D03*
X98487000Y-63146000D03*
D28*
X106251000Y-65538000D03*
X106251000Y-68238000D03*
X103663000Y-65538000D03*
X103663000Y-68238000D03*
X101075000Y-65538000D03*
X101075000Y-68238000D03*
X98487000Y-65538000D03*
X98487000Y-68238000D03*
D32*
X143955000Y-78010000D03*
X143955000Y-77510000D03*
X143955000Y-77010000D03*
X143955000Y-76510000D03*
X143955000Y-76010000D03*
X143955000Y-75510000D03*
X143955000Y-75010000D03*
X143955000Y-74510000D03*
X143955000Y-74010000D03*
X143955000Y-73510000D03*
X143955000Y-73010000D03*
X143955000Y-72510000D03*
X143955000Y-72010000D03*
X143955000Y-71510000D03*
D33*
X142955000Y-70510000D03*
X142455000Y-70510000D03*
X141955000Y-70510000D03*
X141455000Y-70510000D03*
X140955000Y-70510000D03*
X140455000Y-70510000D03*
X139955000Y-70510000D03*
X139455000Y-70510000D03*
X138955000Y-70510000D03*
X138455000Y-70510000D03*
X137955000Y-70510000D03*
X137455000Y-70510000D03*
X136955000Y-70510000D03*
X136455000Y-70510000D03*
D32*
X135455000Y-71510000D03*
X135455000Y-72010000D03*
X135455000Y-72510000D03*
X135455000Y-73010000D03*
X135455000Y-73510000D03*
X135455000Y-74010000D03*
X135455000Y-74510000D03*
X135455000Y-75010000D03*
X135455000Y-75510000D03*
X135455000Y-76010000D03*
X135455000Y-76510000D03*
X135455000Y-77010000D03*
X135455000Y-77510000D03*
X135455000Y-78010000D03*
D33*
X136455000Y-79010000D03*
X136955000Y-79010000D03*
X137455000Y-79010000D03*
X137955000Y-79010000D03*
X138455000Y-79010000D03*
X138955000Y-79010000D03*
X139455000Y-79010000D03*
X139955000Y-79010000D03*
X140455000Y-79010000D03*
X140955000Y-79010000D03*
X141455000Y-79010000D03*
X141955000Y-79010000D03*
X142455000Y-79010000D03*
X142955000Y-79010000D03*
D34*
X139705000Y-74760000D03*
D35*
X139959000Y-75014000D03*
X139451000Y-75014000D03*
X139451000Y-74506000D03*
X139959000Y-74506000D03*
X140467000Y-74506000D03*
X140467000Y-75014000D03*
X139959000Y-75522000D03*
X139451000Y-75522000D03*
X138943000Y-75522000D03*
X140467000Y-75522000D03*
X138943000Y-75014000D03*
X138943000Y-74506000D03*
X138943000Y-73998000D03*
X139451000Y-73998000D03*
X139959000Y-73998000D03*
X140467000Y-73998000D03*
X138435000Y-75522000D03*
X138435000Y-75014000D03*
X138435000Y-74506000D03*
X138435000Y-73998000D03*
X137927000Y-75522000D03*
X137927000Y-75014000D03*
X137927000Y-74506000D03*
X137927000Y-73998000D03*
X140975000Y-75522000D03*
X141483000Y-75522000D03*
X141483000Y-75014000D03*
X140975000Y-75014000D03*
X140975000Y-74506000D03*
X141483000Y-74506000D03*
X140975000Y-73998000D03*
X141483000Y-73998000D03*
X138943000Y-76030000D03*
X138943000Y-76538000D03*
X138435000Y-76538000D03*
X138435000Y-76030000D03*
X137927000Y-76538000D03*
X137927000Y-76030000D03*
X140975000Y-76030000D03*
X140467000Y-76030000D03*
X139451000Y-76030000D03*
X139959000Y-76030000D03*
X139959000Y-76538000D03*
X140467000Y-76538000D03*
X139451000Y-76538000D03*
X138943000Y-72982000D03*
X138943000Y-73490000D03*
X138435000Y-73490000D03*
X138435000Y-72982000D03*
X137927000Y-73490000D03*
X137927000Y-72982000D03*
X141483000Y-73490000D03*
X140975000Y-72982000D03*
X140467000Y-72982000D03*
X141483000Y-72982000D03*
X139451000Y-72982000D03*
X139959000Y-72982000D03*
X139959000Y-73490000D03*
X140975000Y-73490000D03*
X140467000Y-73490000D03*
X139451000Y-73490000D03*
D12*
X115775411Y-96451671D03*
D13*
X113775411Y-96451671D03*
X111775411Y-96451671D03*
X109775411Y-96451671D03*
D12*
X138127411Y-96451671D03*
D13*
X136127411Y-96451671D03*
X134127411Y-96451671D03*
X132127411Y-96451671D03*
D12*
X149303411Y-96451671D03*
D13*
X147303411Y-96451671D03*
X145303411Y-96451671D03*
X143303411Y-96451671D03*
D12*
X132085000Y-53728800D03*
D13*
X134085000Y-53728800D03*
X136085000Y-53728800D03*
X138085000Y-53728800D03*
D14*
X166375000Y-77872000D03*
D15*
X166375000Y-79872000D03*
X166375000Y-81872000D03*
X166375000Y-83872000D03*
D12*
X143261000Y-53728800D03*
D13*
X145261000Y-53728800D03*
X147261000Y-53728800D03*
X149261000Y-53728800D03*
D12*
X104599411Y-96451671D03*
D13*
X102599411Y-96451671D03*
X100599411Y-96451671D03*
X98599411Y-96451671D03*
D14*
X166375000Y-66696000D03*
D15*
X166375000Y-68696000D03*
X166375000Y-70696000D03*
X166375000Y-72696000D03*
D14*
X159009000Y-83808000D03*
D15*
X159009000Y-81808000D03*
X159009000Y-79808000D03*
X159009000Y-77808000D03*
D12*
X154437000Y-53728800D03*
D13*
X156437000Y-53728800D03*
X158437000Y-53728800D03*
X160437000Y-53728800D03*
D12*
X73189000Y-69680000D03*
D13*
X75189000Y-69680000D03*
D12*
X75189000Y-77300000D03*
D13*
X73189000Y-77300000D03*
D36*
X151643000Y-74506000D03*
X160279000Y-75776000D03*
X147579000Y-66378000D03*
X145293000Y-68664000D03*
D37*
X77221000Y-71966000D03*
X78491000Y-71966000D03*
X79761000Y-71966000D03*
X79761000Y-74252000D03*
X78491000Y-74252000D03*
X77221000Y-74252000D03*
D36*
X89667000Y-75014000D03*
X89667000Y-72728000D03*
X91445000Y-72728000D03*
X91445000Y-75014000D03*
X93223000Y-75014000D03*
X116591000Y-73490000D03*
X118369000Y-73490000D03*
X118369000Y-70950000D03*
X116591000Y-70950000D03*
X114813000Y-77300000D03*
X112781000Y-76284000D03*
D37*
X110495000Y-89746000D03*
X108971000Y-91270000D03*
X107447000Y-92794000D03*
X100589000Y-92794000D03*
X102113000Y-91270000D03*
X103637000Y-89746000D03*
X85349000Y-88730000D03*
X86365000Y-87714000D03*
X87381000Y-86698000D03*
X85603000Y-84920000D03*
X84587000Y-85936000D03*
X83571000Y-86952000D03*
X80015000Y-84412000D03*
X80015000Y-85682000D03*
X80015000Y-86952000D03*
X76713000Y-86952000D03*
X76713000Y-85682000D03*
X76713000Y-84412000D03*
X76713000Y-92032000D03*
X75443000Y-90762000D03*
X74173000Y-89492000D03*
X72903000Y-88222000D03*
D36*
X161803000Y-78316000D03*
X162819000Y-77300000D03*
X163835000Y-76030000D03*
X163835000Y-74760000D03*
X161041000Y-74760000D03*
X144785000Y-64092000D03*
X143007000Y-66124000D03*
X142245000Y-63584000D03*
X131323000Y-66378000D03*
X130307000Y-66378000D03*
X129291000Y-66378000D03*
X127259000Y-66378000D03*
X128275000Y-66378000D03*
X115829000Y-65616000D03*
X125227000Y-64092000D03*
X126243000Y-64092000D03*
X127259000Y-64092000D03*
X128275000Y-64092000D03*
X129291000Y-64092000D03*
X130307000Y-64092000D03*
X131323000Y-64092000D03*
X147833000Y-73998000D03*
D38*
X166375000Y-53424000D03*
X166375000Y-96604000D03*
X72903000Y-96604000D03*
X73411000Y-53424000D03*
D36*
X112781000Y-78570000D03*
X101097000Y-58758000D03*
X106431000Y-77300000D03*
X103637000Y-83142000D03*
X109479000Y-65616000D03*
X123703000Y-75268000D03*
X130561000Y-75522000D03*
X129037000Y-84666000D03*
X114051000Y-85428000D03*
X154437000Y-86698000D03*
X88397000Y-78824000D03*
X93223000Y-72728000D03*
X92715000Y-66886000D03*
X153167000Y-60790000D03*
D37*
X95001000Y-97112000D03*
D36*
X124465000Y-70442000D03*
X124465002Y-77554002D03*
X130306994Y-71712000D03*
X130306994Y-73998000D03*
X126751000Y-77807996D03*
X126764625Y-69485202D03*
X121671000Y-65108004D03*
X151389000Y-72473994D03*
X128529000Y-78824000D03*
X128529000Y-69680000D03*
D39*
X131323000Y-66378000D02*
X130307000Y-66378000D01*
X129291000Y-66378000D02*
X130307000Y-66378000D01*
X128275000Y-66378000D02*
X129291000Y-66378000D01*
X127259000Y-66378000D02*
X128275000Y-66378000D01*
X113975000Y-69060000D02*
X113975000Y-64415000D01*
X113975000Y-64415000D02*
X110624000Y-61064000D01*
X110624000Y-61064000D02*
X109479000Y-61064000D01*
X106251000Y-60946000D02*
X109361000Y-60946000D01*
X109361000Y-60946000D02*
X109479000Y-61064000D01*
X135455000Y-73510000D02*
X131000962Y-73510000D01*
X131000962Y-73510000D02*
X129996962Y-72506000D01*
X129996962Y-72506000D02*
X129408000Y-72506000D01*
X129408000Y-72506000D02*
X128529000Y-73385000D01*
X128529000Y-73385000D02*
X128529000Y-73510000D01*
X121275000Y-72360000D02*
X126205001Y-72360000D01*
X126205001Y-72360000D02*
X126223000Y-72377999D01*
X113972999Y-70231601D02*
X115829000Y-72087602D01*
X121275000Y-72360000D02*
X116101398Y-72360000D01*
X116101398Y-72360000D02*
X115829000Y-72087602D01*
X126243000Y-72357999D02*
X126240999Y-72360000D01*
X113975000Y-69060000D02*
X113975000Y-70229600D01*
X113975000Y-70229600D02*
X113972999Y-70231601D01*
X128380999Y-72357999D02*
X126243000Y-72357999D01*
X126243000Y-72357999D02*
X126223000Y-72377999D01*
X126223000Y-72377999D02*
X126223000Y-73490000D01*
X126223000Y-73490000D02*
X128509000Y-73490000D01*
X128509000Y-73490000D02*
X128529000Y-73510000D01*
X111046601Y-77162001D02*
X113450603Y-77162001D01*
X115577001Y-81631601D02*
X115575000Y-81633602D01*
X115575000Y-81633602D02*
X115575000Y-82908000D01*
X113450603Y-77162001D02*
X115577001Y-79288399D01*
X115577001Y-79288399D02*
X115577001Y-81631601D01*
X108703399Y-77162001D02*
X111046601Y-77162001D01*
X106349000Y-61044000D02*
X106251000Y-60946000D01*
X97633000Y-60946000D02*
X96011000Y-62568000D01*
X96011000Y-62568000D02*
X92715000Y-62568000D01*
X103663000Y-60946000D02*
X106251000Y-60946000D01*
X101075000Y-60946000D02*
X103663000Y-60946000D01*
X98487000Y-60946000D02*
X101075000Y-60946000D01*
X97633000Y-60946000D02*
X98487000Y-60946000D01*
X128529000Y-73510000D02*
X128529000Y-72506000D01*
X128529000Y-72506000D02*
X128380999Y-72357999D01*
X81793000Y-78664000D02*
X80889000Y-78664000D01*
X80889000Y-78664000D02*
X77808399Y-81744601D01*
X77808399Y-81744601D02*
X77808399Y-90109201D01*
X77808399Y-90109201D02*
X77873799Y-90174601D01*
X77873799Y-90174601D02*
X80348399Y-90174601D01*
X80348399Y-90174601D02*
X80675401Y-89847599D01*
X80675401Y-89847599D02*
X81539000Y-88984000D01*
X105161000Y-81384000D02*
X105161000Y-80380000D01*
X105161000Y-80380000D02*
X108378999Y-77162001D01*
X108378999Y-77162001D02*
X108703399Y-77162001D01*
X108703399Y-77162001D02*
X109875000Y-77162001D01*
X92293000Y-82888000D02*
X92293000Y-84412000D01*
X92293000Y-81322443D02*
X92293000Y-82888000D01*
X92293000Y-82888000D02*
X102524000Y-82888000D01*
X104028000Y-81384000D02*
X105161000Y-81384000D01*
X102524000Y-82888000D02*
X104028000Y-81384000D01*
X92293000Y-86444000D02*
X92293000Y-84412000D01*
D40*
X92293000Y-79332000D02*
X92293000Y-81322443D01*
D39*
X81887000Y-76284000D02*
X81887000Y-78570000D01*
X81887000Y-74125000D02*
X81887000Y-76284000D01*
X81887000Y-76284000D02*
X88137000Y-76284000D01*
X88137000Y-76284000D02*
X91185000Y-79332000D01*
X91185000Y-79332000D02*
X92293000Y-79332000D01*
D40*
X81887000Y-78570000D02*
X81793000Y-78664000D01*
D39*
X84841000Y-65646000D02*
X84841000Y-68664000D01*
X84841000Y-68664000D02*
X84841000Y-72454000D01*
X90703000Y-68664000D02*
X89445000Y-68664000D01*
X89445000Y-68664000D02*
X84841000Y-68664000D01*
X84841000Y-72454000D02*
X83170000Y-74125000D01*
X83170000Y-74125000D02*
X81887000Y-74125000D01*
X87635000Y-64360000D02*
X86127000Y-64360000D01*
X86127000Y-64360000D02*
X84841000Y-65646000D01*
X90937000Y-62566000D02*
X90939000Y-62568000D01*
X90939000Y-62568000D02*
X92715000Y-62568000D01*
X87635000Y-64360000D02*
X89143000Y-64360000D01*
X89143000Y-64360000D02*
X90937000Y-62566000D01*
X115529001Y-65915999D02*
X115829000Y-65616000D01*
X114775000Y-66670000D02*
X115529001Y-65915999D01*
X114775000Y-69060000D02*
X114775000Y-66670000D01*
X125227000Y-64092000D02*
X126243000Y-64092000D01*
X126243000Y-64092000D02*
X127259000Y-64092000D01*
X127259000Y-64092000D02*
X128275000Y-64092000D01*
X129291000Y-64092000D02*
X128275000Y-64092000D01*
X130307000Y-64092000D02*
X129291000Y-64092000D01*
X131323000Y-64092000D02*
X130307000Y-64092000D01*
X125227000Y-63076000D02*
X126243000Y-64092000D01*
X101097000Y-58758000D02*
X110495000Y-58758000D01*
X110495000Y-58758000D02*
X114305000Y-62568000D01*
X114305000Y-62568000D02*
X124719000Y-62568000D01*
X124719000Y-62568000D02*
X125227000Y-63076000D01*
X147321000Y-74510000D02*
X147833000Y-73998000D01*
X143955000Y-74510000D02*
X147321000Y-74510000D01*
X166375000Y-58270000D02*
X166375000Y-53170000D01*
X166883000Y-96858000D02*
X166883000Y-92774000D01*
X166883000Y-92774000D02*
X166375000Y-92266000D01*
X86111000Y-98382000D02*
X78491000Y-98382000D01*
X72903000Y-97112000D02*
X76792087Y-97112000D01*
X76792087Y-97112000D02*
X78062087Y-98382000D01*
X78062087Y-98382000D02*
X78491000Y-98382000D01*
X87475000Y-97018000D02*
X86111000Y-98382000D01*
X90937000Y-97018000D02*
X87475000Y-97018000D01*
X78999000Y-53170000D02*
X78745000Y-53170000D01*
X80777000Y-53170000D02*
X78999000Y-53170000D01*
X78999000Y-53170000D02*
X73411000Y-53170000D01*
X80777000Y-55222000D02*
X80777000Y-53170000D01*
X114775000Y-80460000D02*
X114775000Y-79456000D01*
X114775000Y-79456000D02*
X113889000Y-78570000D01*
X113889000Y-78570000D02*
X112781000Y-78570000D01*
X98791000Y-58758000D02*
X101097000Y-58758000D01*
X109875000Y-76360000D02*
X107371000Y-76360000D01*
X107371000Y-76360000D02*
X106431000Y-77300000D01*
X105161000Y-83884000D02*
X104379000Y-83884000D01*
X104379000Y-83884000D02*
X103637000Y-83142000D01*
X109479000Y-63584000D02*
X109479000Y-65636000D01*
X123723000Y-73490000D02*
X123723000Y-75248000D01*
X123723000Y-75248000D02*
X123703000Y-75268000D01*
X121275000Y-73160000D02*
X123393000Y-73160000D01*
X123393000Y-73160000D02*
X123723000Y-73490000D01*
X135455000Y-74510000D02*
X131573000Y-74510000D01*
X131573000Y-74510000D02*
X130561000Y-75522000D01*
X128529000Y-76010000D02*
X130073000Y-76010000D01*
X130073000Y-76010000D02*
X130561000Y-75522000D01*
X126751000Y-85682000D02*
X128021000Y-85682000D01*
X128021000Y-85682000D02*
X129037000Y-84666000D01*
X115575000Y-85408000D02*
X114071000Y-85408000D01*
X114071000Y-85408000D02*
X114051000Y-85428000D01*
X156403000Y-89746000D02*
X156403000Y-88692000D01*
X156403000Y-88692000D02*
X154437000Y-86726000D01*
X154437000Y-86726000D02*
X154437000Y-86698000D01*
X86111000Y-78844000D02*
X88377000Y-78844000D01*
X88377000Y-78844000D02*
X88397000Y-78824000D01*
X95937000Y-72728000D02*
X93223000Y-72728000D01*
X93203000Y-68664000D02*
X93203000Y-67374000D01*
X93203000Y-67374000D02*
X92715000Y-66886000D01*
X92715000Y-65068000D02*
X92715000Y-66886000D01*
X156403000Y-60790000D02*
X153167000Y-60790000D01*
X143955000Y-74510000D02*
X142951000Y-74510000D01*
X142060001Y-73619001D02*
X142060001Y-72705039D01*
X137349999Y-72705039D02*
X137349999Y-76814961D01*
X142951000Y-74510000D02*
X142060001Y-73619001D01*
X142060001Y-72705039D02*
X141759961Y-72404999D01*
X141759961Y-72404999D02*
X137650039Y-72404999D01*
X137650039Y-77115001D02*
X140743961Y-77115001D01*
X137650039Y-72404999D02*
X137349999Y-72705039D01*
X137349999Y-76814961D02*
X137650039Y-77115001D01*
X140743961Y-77115001D02*
X141552001Y-76306961D01*
X141552001Y-76306961D02*
X141552001Y-76099001D01*
X135455000Y-74510000D02*
X136459000Y-74510000D01*
X136459000Y-74510000D02*
X137349999Y-75400999D01*
X137349999Y-75400999D02*
X137349999Y-76306961D01*
D40*
X80777000Y-55222000D02*
X80777000Y-55097000D01*
X90937000Y-97018000D02*
X94907000Y-97018000D01*
X94907000Y-97018000D02*
X95001000Y-97112000D01*
X124063000Y-85682000D02*
X126751000Y-85682000D01*
X118369000Y-83182000D02*
X120963000Y-83182000D01*
X120963000Y-83182000D02*
X121163000Y-83382000D01*
X115575000Y-85408000D02*
X116268000Y-85408000D01*
X116268000Y-85408000D02*
X118369000Y-83307000D01*
X118369000Y-83307000D02*
X118369000Y-83182000D01*
D39*
X86111000Y-83293398D02*
X87483602Y-84666000D01*
X87483602Y-84666000D02*
X90785602Y-87968000D01*
X78999000Y-94064000D02*
X80348399Y-92714601D01*
X80348399Y-92714601D02*
X80348399Y-90952511D01*
X82110489Y-90174601D02*
X87483602Y-84801488D01*
X80348399Y-90952511D02*
X81126309Y-90174601D01*
X81126309Y-90174601D02*
X82110489Y-90174601D01*
X87483602Y-84801488D02*
X87483602Y-84666000D01*
X90785602Y-87968000D02*
X105871000Y-87968000D01*
X105871000Y-87968000D02*
X112375000Y-81464000D01*
X112375000Y-81464000D02*
X112375000Y-80460000D01*
X86111000Y-81344000D02*
X86111000Y-83293398D01*
X86111000Y-81344000D02*
X81813000Y-81344000D01*
X81813000Y-81344000D02*
X81793000Y-81364000D01*
X121163000Y-85682000D02*
X118369000Y-85682000D01*
X113175000Y-86286991D02*
X113573010Y-86685001D01*
X113573010Y-86685001D02*
X116486999Y-86685001D01*
X116486999Y-86685001D02*
X117490000Y-85682000D01*
X117490000Y-85682000D02*
X118369000Y-85682000D01*
X113175000Y-80460000D02*
X113175000Y-86286991D01*
X124063000Y-83382000D02*
X124063000Y-82228000D01*
X124063000Y-82228000D02*
X123739999Y-81904999D01*
X116527001Y-82700397D02*
X116527001Y-83919601D01*
X116461601Y-83985001D02*
X114688399Y-83985001D01*
X123739999Y-81904999D02*
X117322399Y-81904999D01*
X113972999Y-83269601D02*
X113972999Y-80460000D01*
X117322399Y-81904999D02*
X116527001Y-82700397D01*
X116527001Y-83919601D02*
X116461601Y-83985001D01*
X114688399Y-83985001D02*
X113972999Y-83269601D01*
X126751000Y-83182000D02*
X124263000Y-83182000D01*
X124263000Y-83182000D02*
X124063000Y-83382000D01*
D40*
X166375000Y-83872000D02*
X166375000Y-89641000D01*
X166375000Y-89641000D02*
X166375000Y-89766000D01*
X161803000Y-89746000D02*
X161803000Y-97874000D01*
X161803000Y-97874000D02*
X160254999Y-99422001D01*
X160254999Y-99422001D02*
X154437000Y-99422001D01*
X90937000Y-91618000D02*
X89629000Y-91618000D01*
X89629000Y-91618000D02*
X84643000Y-96604000D01*
X84643000Y-96604000D02*
X79588950Y-96604000D01*
X70871000Y-59844000D02*
X72973000Y-57742000D01*
X79588950Y-96604000D02*
X70871000Y-87886050D01*
X70871000Y-87886050D02*
X70871000Y-59844000D01*
X72973000Y-57742000D02*
X74681000Y-57742000D01*
X74681000Y-57742000D02*
X74701000Y-57722000D01*
X74701000Y-57722000D02*
X80777000Y-57722000D01*
X154437000Y-99422001D02*
X143261000Y-99422001D01*
X154479411Y-96451671D02*
X154479411Y-99379590D01*
X154479411Y-99379590D02*
X154437000Y-99422001D01*
X143261000Y-99422001D02*
X132085000Y-99422001D01*
X143303411Y-96451671D02*
X143303411Y-99379590D01*
X143303411Y-99379590D02*
X143261000Y-99422001D01*
X132085000Y-99422001D02*
X120909000Y-99422001D01*
X132127411Y-96451671D02*
X132127411Y-99379590D01*
X132127411Y-99379590D02*
X132085000Y-99422001D01*
X120909000Y-99422001D02*
X109733000Y-99422001D01*
X120951411Y-96451671D02*
X120951411Y-99379590D01*
X120951411Y-99379590D02*
X120909000Y-99422001D01*
X109733000Y-99422001D02*
X100211741Y-99422001D01*
X109775411Y-99379590D02*
X109733000Y-99422001D01*
X109775411Y-96451671D02*
X109775411Y-99379590D01*
X98599411Y-96451671D02*
X97491411Y-96451671D01*
X97491411Y-96451671D02*
X96291000Y-95251260D01*
X96291000Y-95251260D02*
X96291000Y-92657000D01*
X96291000Y-92657000D02*
X96291000Y-91524000D01*
X90937000Y-91618000D02*
X96197000Y-91618000D01*
X96197000Y-91618000D02*
X96291000Y-91524000D01*
X98599411Y-97809671D02*
X98599411Y-96451671D01*
X100211741Y-99422001D02*
X98599411Y-97809671D01*
X162819000Y-68410000D02*
X162819000Y-72728000D01*
X166375000Y-72696000D02*
X162851000Y-72696000D01*
X162819000Y-72728000D02*
X162819000Y-75776000D01*
X162851000Y-72696000D02*
X162819000Y-72728000D01*
X159009000Y-66632000D02*
X161041000Y-66632000D01*
X161041000Y-66632000D02*
X162819000Y-68410000D01*
X162819000Y-75776000D02*
X160787000Y-77808000D01*
X160787000Y-77808000D02*
X159009000Y-77808000D01*
X168915000Y-62177000D02*
X168915000Y-72728000D01*
X166375000Y-72696000D02*
X168883000Y-72696000D01*
X168883000Y-72696000D02*
X168915000Y-72728000D01*
X166375000Y-89766000D02*
X161823000Y-89766000D01*
X161823000Y-89766000D02*
X161803000Y-89746000D01*
X166375000Y-60770000D02*
X167508000Y-60770000D01*
X167508000Y-60770000D02*
X168915000Y-62177000D01*
X161803000Y-60790000D02*
X166355000Y-60790000D01*
X166355000Y-60790000D02*
X166375000Y-60770000D01*
X160437000Y-53728800D02*
X160437000Y-59424000D01*
X160437000Y-59424000D02*
X161803000Y-60790000D01*
X96291000Y-58758000D02*
X95033000Y-58758000D01*
X95033000Y-58758000D02*
X94177000Y-57902000D01*
X94177000Y-57902000D02*
X94079000Y-57902000D01*
X95255000Y-51138000D02*
X104653000Y-51138000D01*
X104557000Y-53728800D02*
X104557000Y-51234000D01*
X104653000Y-51138000D02*
X115829000Y-51138000D01*
X104557000Y-51234000D02*
X104653000Y-51138000D01*
X115829000Y-51138000D02*
X127005000Y-51138000D01*
X127005000Y-51138000D02*
X138181000Y-51138000D01*
X126909000Y-53728800D02*
X126909000Y-51234000D01*
X126909000Y-51234000D02*
X127005000Y-51138000D01*
X115733000Y-53728800D02*
X115733000Y-51234000D01*
X115733000Y-51234000D02*
X115829000Y-51138000D01*
X138181000Y-51138000D02*
X149357000Y-51138000D01*
X138085000Y-53728800D02*
X138085000Y-51234000D01*
X138085000Y-51234000D02*
X138181000Y-51138000D01*
X149261000Y-53728800D02*
X149261000Y-51234000D01*
X149357000Y-51138000D02*
X158096200Y-51138000D01*
X149261000Y-51234000D02*
X149357000Y-51138000D01*
X158096200Y-51138000D02*
X160437000Y-53478800D01*
X160437000Y-53478800D02*
X160437000Y-53728800D01*
X95255000Y-56726000D02*
X95255000Y-51138000D01*
X94079000Y-57902000D02*
X95255000Y-56726000D01*
X90937000Y-57902000D02*
X94079000Y-57902000D01*
X87635000Y-57742000D02*
X90777000Y-57742000D01*
X90777000Y-57742000D02*
X90937000Y-57902000D01*
X87635000Y-57742000D02*
X87615000Y-57722000D01*
X87615000Y-57722000D02*
X80777000Y-57722000D01*
X87635000Y-62060000D02*
X87635000Y-57742000D01*
D39*
X94493000Y-79332000D02*
X96873000Y-79332000D01*
X94493000Y-81322443D02*
X96831443Y-81322443D01*
X96831443Y-81322443D02*
X96873000Y-81364000D01*
X94493000Y-84412000D02*
X96873000Y-84412000D01*
X96873000Y-86444000D02*
X94493000Y-86444000D01*
D41*
X124165001Y-70142001D02*
X124465000Y-70442000D01*
X121671000Y-67648000D02*
X124165001Y-70142001D01*
X119284600Y-67648000D02*
X121671000Y-67648000D01*
X118775000Y-68157600D02*
X119284600Y-67648000D01*
X118775000Y-69060000D02*
X118775000Y-68157600D01*
X126517602Y-79606602D02*
X124765001Y-77854001D01*
X130540398Y-79606602D02*
X126517602Y-79606602D01*
X134137000Y-76010000D02*
X130540398Y-79606602D01*
X135455000Y-76010000D02*
X134137000Y-76010000D01*
X124765001Y-77854001D02*
X124465002Y-77554002D01*
X129882730Y-71712000D02*
X130306994Y-71712000D01*
X117975000Y-68157600D02*
X118992600Y-67140000D01*
X117975000Y-69060000D02*
X117975000Y-68157600D01*
X118992600Y-67140000D02*
X123149225Y-67140000D01*
X127721225Y-71712000D02*
X129882730Y-71712000D01*
X123149225Y-67140000D02*
X127721225Y-71712000D01*
X130318994Y-74010000D02*
X130306994Y-73998000D01*
X135455000Y-74010000D02*
X130318994Y-74010000D01*
X131323004Y-77807996D02*
X127175264Y-77807996D01*
X134117000Y-75014000D02*
X131323004Y-77807996D01*
X134371000Y-75014000D02*
X134117000Y-75014000D01*
X127175264Y-77807996D02*
X126751000Y-77807996D01*
X117175000Y-68157600D02*
X118700600Y-66632000D01*
X123911423Y-66632000D02*
X126464626Y-69185203D01*
X117175000Y-69060000D02*
X117175000Y-68157600D01*
X118700600Y-66632000D02*
X123911423Y-66632000D01*
X126464626Y-69185203D02*
X126764625Y-69485202D01*
X134371000Y-75014000D02*
X134473406Y-75014000D01*
X135455000Y-75010000D02*
X134375000Y-75010000D01*
X134375000Y-75010000D02*
X134371000Y-75014000D01*
X121246736Y-65108004D02*
X121671000Y-65108004D01*
X116375000Y-68157600D02*
X119424596Y-65108004D01*
X119424596Y-65108004D02*
X121246736Y-65108004D01*
X116375000Y-69060000D02*
X116375000Y-68157600D01*
X151089001Y-72773993D02*
X151389000Y-72473994D01*
X148852994Y-75010000D02*
X151089001Y-72773993D01*
X143955000Y-75010000D02*
X148852994Y-75010000D01*
X128953264Y-78824000D02*
X128529000Y-78824000D01*
X130815000Y-78824000D02*
X128953264Y-78824000D01*
X134129000Y-75510000D02*
X130815000Y-78824000D01*
X135455000Y-75510000D02*
X134129000Y-75510000D01*
X128229001Y-69380001D02*
X128529000Y-69680000D01*
X122920399Y-64071399D02*
X128229001Y-69380001D01*
X119661201Y-64071399D02*
X122920399Y-64071399D01*
X115575000Y-68157600D02*
X119661201Y-64071399D01*
X115575000Y-69060000D02*
X115575000Y-68157600D01*
D39*
X100716000Y-70315000D02*
X102761000Y-72360000D01*
X102761000Y-72360000D02*
X109875000Y-72360000D01*
X87287000Y-70315000D02*
X100716000Y-70315000D01*
D41*
X88214400Y-70315000D02*
X87287000Y-70315000D01*
D39*
X87287000Y-71585000D02*
X87287000Y-72855000D01*
X98637000Y-72728000D02*
X98637000Y-71824000D01*
X98637000Y-71824000D02*
X97844000Y-71031000D01*
X97844000Y-71031000D02*
X88316000Y-71031000D01*
X88316000Y-71031000D02*
X87762000Y-71585000D01*
X87762000Y-71585000D02*
X87287000Y-71585000D01*
X100589000Y-72728000D02*
X101021000Y-73160000D01*
X101021000Y-73160000D02*
X109875000Y-73160000D01*
X98637000Y-72728000D02*
X100589000Y-72728000D01*
X109875000Y-73960000D02*
X87452000Y-73960000D01*
X87452000Y-73960000D02*
X87287000Y-74125000D01*
X99573000Y-79332000D02*
X100577000Y-79332000D01*
X100577000Y-79332000D02*
X105149000Y-74760000D01*
X108871000Y-74760000D02*
X109875000Y-74760000D01*
X105149000Y-74760000D02*
X108871000Y-74760000D01*
X99573000Y-81364000D02*
X100577000Y-81364000D01*
X100577000Y-81364000D02*
X106383001Y-75557999D01*
X106383001Y-75557999D02*
X108703399Y-75557999D01*
X108703399Y-75557999D02*
X109875000Y-75557999D01*
X107193000Y-84175602D02*
X107193000Y-79586000D01*
X107193000Y-79586000D02*
X108816999Y-77962001D01*
X108816999Y-77962001D02*
X109875000Y-77962001D01*
X99573000Y-84412000D02*
X103365398Y-84412000D01*
X104114399Y-85161001D02*
X106207601Y-85161001D01*
X103365398Y-84412000D02*
X104114399Y-85161001D01*
X106207601Y-85161001D02*
X107193000Y-84175602D01*
X99573000Y-84412000D02*
X100577000Y-84412000D01*
X107701000Y-79840000D02*
X108781000Y-78760000D01*
X108781000Y-78760000D02*
X109875000Y-78760000D01*
X107701000Y-84309669D02*
X107701000Y-79840000D01*
X99573000Y-86444000D02*
X105566669Y-86444000D01*
X105566669Y-86444000D02*
X107701000Y-84309669D01*
X99573000Y-86444000D02*
X99673000Y-86444000D01*
X111575000Y-80460000D02*
X111575000Y-81464000D01*
X90293334Y-83562732D02*
X86997601Y-80266999D01*
X111575000Y-81464000D02*
X105617999Y-87421001D01*
X105617999Y-87421001D02*
X90880669Y-87421001D01*
X90880669Y-87421001D02*
X90293334Y-86833666D01*
X78999000Y-82169398D02*
X78999000Y-87866400D01*
X90293334Y-86833666D02*
X90293334Y-83562732D01*
X86997601Y-80266999D02*
X80901399Y-80266999D01*
X80901399Y-80266999D02*
X78999000Y-82169398D01*
X78999000Y-87866400D02*
X78999000Y-88984000D01*
D41*
X111575000Y-80460000D02*
X111575000Y-81005894D01*
D42*
X135455000Y-78010000D02*
X135455000Y-87646000D01*
X135455000Y-87646000D02*
X133609000Y-89492000D01*
X133609000Y-89492000D02*
X115575000Y-89492000D01*
X115575000Y-89492000D02*
X110851621Y-94215379D01*
X110825401Y-97095178D02*
X111381904Y-97651681D01*
X111381904Y-97651681D02*
X114825401Y-97651681D01*
X110851621Y-94215379D02*
X110851621Y-95781944D01*
X110825401Y-95808164D02*
X110825401Y-97095178D01*
X110851621Y-95781944D02*
X110825401Y-95808164D01*
X114825401Y-97651681D02*
X115775411Y-96701671D01*
X115775411Y-96701671D02*
X115775411Y-96451671D01*
X136955000Y-79010000D02*
X136955000Y-88178000D01*
X136955000Y-88178000D02*
X134117000Y-91016000D01*
X113775411Y-96201671D02*
X113775411Y-96451671D01*
X134117000Y-91016000D02*
X118961082Y-91016000D01*
X118961082Y-91016000D02*
X113775411Y-96201671D01*
X136455000Y-79010000D02*
X136455000Y-87662000D01*
X136455000Y-87662000D02*
X133863000Y-90254000D01*
X133863000Y-90254000D02*
X117723082Y-90254000D01*
X117723082Y-90254000D02*
X111775411Y-96201671D01*
X111775411Y-96201671D02*
X111775411Y-96451671D01*
X160209010Y-71681990D02*
X159259000Y-72632000D01*
X160209010Y-68238493D02*
X160209010Y-71681990D01*
X150901888Y-67681990D02*
X159652507Y-67681990D01*
X145573878Y-73010000D02*
X150901888Y-67681990D01*
X159652507Y-67681990D02*
X160209010Y-68238493D01*
X143955000Y-73010000D02*
X145573878Y-73010000D01*
D41*
X159259000Y-72632000D02*
X159009000Y-72632000D01*
D42*
X159009000Y-70632000D02*
X158945000Y-70696000D01*
X158945000Y-70696000D02*
X149357000Y-70696000D01*
X149357000Y-70696000D02*
X146043000Y-74010000D01*
X146043000Y-74010000D02*
X143955000Y-74010000D01*
X143955000Y-73510000D02*
X145781000Y-73510000D01*
X145781000Y-73510000D02*
X149357000Y-69934000D01*
X149357000Y-69934000D02*
X157707000Y-69934000D01*
X157707000Y-69934000D02*
X159009000Y-68632000D01*
X138955000Y-79010000D02*
X138955000Y-89988000D01*
X138955000Y-89988000D02*
X133203621Y-95739379D01*
X133203621Y-95739379D02*
X133203621Y-95781944D01*
X133203621Y-95781944D02*
X133177401Y-95808164D01*
X133177401Y-95808164D02*
X133177401Y-97095178D01*
X133177401Y-97095178D02*
X133733904Y-97651681D01*
X133733904Y-97651681D02*
X137177401Y-97651681D01*
X137177401Y-97651681D02*
X138127411Y-96701671D01*
X138127411Y-96701671D02*
X138127411Y-96451671D01*
X139955000Y-79010000D02*
X139955000Y-92374082D01*
X139955000Y-92374082D02*
X136127411Y-96201671D01*
X136127411Y-96201671D02*
X136127411Y-96451671D01*
X139455000Y-79010000D02*
X139455000Y-91012000D01*
X139455000Y-91012000D02*
X134127411Y-96339589D01*
X134127411Y-96339589D02*
X134127411Y-96451671D01*
X130451244Y-59266000D02*
X115020200Y-59266000D01*
X135455000Y-64269756D02*
X130451244Y-59266000D01*
X135455000Y-71510000D02*
X135455000Y-64269756D01*
X115020200Y-59266000D02*
X109733000Y-53978800D01*
D41*
X109733000Y-53978800D02*
X109733000Y-53728800D01*
D42*
X136955000Y-70510000D02*
X136955000Y-63882000D01*
X136955000Y-63882000D02*
X131323000Y-58250000D01*
X131323000Y-58250000D02*
X118660681Y-58250000D01*
X118660681Y-58250000D02*
X114683010Y-54272329D01*
X114005717Y-52408000D02*
X112803800Y-52408000D01*
X114683010Y-54272329D02*
X114683010Y-53085293D01*
X114683010Y-53085293D02*
X114005717Y-52408000D01*
X112803800Y-52408000D02*
X111733000Y-53478800D01*
D41*
X111733000Y-53478800D02*
X111733000Y-53728800D01*
D42*
X136455000Y-70510000D02*
X136455000Y-64144000D01*
X136455000Y-64144000D02*
X131069000Y-58758000D01*
X118461561Y-58758000D02*
X113733000Y-54029439D01*
X131069000Y-58758000D02*
X118461561Y-58758000D01*
X113733000Y-54029439D02*
X113733000Y-53978800D01*
D41*
X113733000Y-53978800D02*
X113733000Y-53728800D01*
D42*
X140455000Y-79010000D02*
X140455000Y-82114000D01*
X140455000Y-82114000D02*
X144474801Y-86133801D01*
X148474801Y-97530281D02*
X149303411Y-96701671D01*
X144474801Y-86133801D02*
X144474801Y-95686764D01*
X144474801Y-95686764D02*
X144353401Y-95808164D01*
X144909904Y-97651681D02*
X145696918Y-97651681D01*
X144353401Y-95808164D02*
X144353401Y-97095178D01*
X144353401Y-97095178D02*
X144909904Y-97651681D01*
X145818318Y-97530281D02*
X146788504Y-97530281D01*
X145696918Y-97651681D02*
X145818318Y-97530281D01*
X149303411Y-96701671D02*
X149303411Y-96451671D01*
X146788504Y-97530281D02*
X146909904Y-97651681D01*
X146909904Y-97651681D02*
X147696918Y-97651681D01*
X147696918Y-97651681D02*
X147818318Y-97530281D01*
X147818318Y-97530281D02*
X148474801Y-97530281D01*
X141455000Y-79010000D02*
X141455000Y-81590000D01*
X141455000Y-81590000D02*
X147303411Y-87438411D01*
X147303411Y-87438411D02*
X147303411Y-96451671D01*
X140955000Y-79010000D02*
X140955000Y-81852000D01*
X140955000Y-81852000D02*
X145303411Y-86200411D01*
X145303411Y-86200411D02*
X145303411Y-96451671D01*
X132085000Y-53728800D02*
X132085000Y-55710000D01*
X132085000Y-55710000D02*
X138955000Y-62580000D01*
X138955000Y-62580000D02*
X138955000Y-70510000D01*
X134085000Y-53728800D02*
X134085000Y-55424000D01*
X134085000Y-55424000D02*
X139955000Y-61294000D01*
X139955000Y-61294000D02*
X139955000Y-70510000D01*
X136085000Y-53728800D02*
X136085000Y-53478800D01*
X136085000Y-53478800D02*
X135014200Y-52408000D01*
X135014200Y-52408000D02*
X133812283Y-52408000D01*
X133812283Y-52408000D02*
X133134990Y-53085293D01*
X133134990Y-53085293D02*
X133134990Y-55743990D01*
X133134990Y-55743990D02*
X139455000Y-62064000D01*
X139455000Y-62064000D02*
X139455000Y-69607600D01*
X139455000Y-69607600D02*
X139455000Y-70510000D01*
X143955000Y-78010000D02*
X148961634Y-78010000D01*
X148961634Y-78010000D02*
X156887634Y-85936000D01*
X156887634Y-85936000D02*
X161475244Y-85936000D01*
X161475244Y-85936000D02*
X164589234Y-82822010D01*
X164589234Y-82822010D02*
X167018507Y-82822010D01*
X167018507Y-82822010D02*
X167575010Y-82265507D01*
X167575010Y-82265507D02*
X167575010Y-78822010D01*
X167575010Y-78822010D02*
X166625000Y-77872000D01*
D41*
X166625000Y-77872000D02*
X166375000Y-77872000D01*
D42*
X143955000Y-77010000D02*
X149375878Y-77010000D01*
X149375878Y-77010000D02*
X157285878Y-84920000D01*
X161077000Y-84920000D02*
X166125000Y-79872000D01*
X157285878Y-84920000D02*
X161077000Y-84920000D01*
D41*
X166125000Y-79872000D02*
X166375000Y-79872000D01*
D42*
X143955000Y-77510000D02*
X149168756Y-77510000D01*
X149168756Y-77510000D02*
X157086756Y-85428000D01*
X157086756Y-85428000D02*
X161276122Y-85428000D01*
X161276122Y-85428000D02*
X164832122Y-81872000D01*
X164832122Y-81872000D02*
X166125000Y-81872000D01*
D41*
X166125000Y-81872000D02*
X166375000Y-81872000D01*
D42*
X143261000Y-53728800D02*
X143261000Y-54731200D01*
X143261000Y-54731200D02*
X140455000Y-57537200D01*
X140455000Y-57537200D02*
X140455000Y-69607600D01*
X140455000Y-69607600D02*
X140455000Y-70510000D01*
X145261000Y-53728800D02*
X145261000Y-54731200D01*
X145261000Y-54731200D02*
X141455000Y-58537200D01*
X141455000Y-58537200D02*
X141455000Y-69607600D01*
X141455000Y-69607600D02*
X141455000Y-70510000D01*
X147261000Y-53478800D02*
X146432390Y-52650190D01*
X145547000Y-52650190D02*
X144917779Y-52650190D01*
D41*
X147261000Y-53728800D02*
X147261000Y-53478800D01*
D42*
X146432390Y-52650190D02*
X145547000Y-52650190D01*
X144432390Y-54792610D02*
X140955000Y-58270000D01*
X140955000Y-58270000D02*
X140955000Y-70510000D01*
X144917779Y-52650190D02*
X144432390Y-53135579D01*
X144432390Y-53135579D02*
X144432390Y-54792610D01*
X135455000Y-76510000D02*
X134345480Y-76510000D01*
X108145364Y-87312201D02*
X99649401Y-95808164D01*
X134345480Y-76510000D02*
X132854992Y-78000488D01*
X132854992Y-78000488D02*
X132854992Y-85420008D01*
X132854992Y-85420008D02*
X130962799Y-87312201D01*
X130962799Y-87312201D02*
X108145364Y-87312201D01*
X103649401Y-97651681D02*
X104599411Y-96701671D01*
X99649401Y-95808164D02*
X99649401Y-97095178D01*
X99649401Y-97095178D02*
X100205904Y-97651681D01*
X100205904Y-97651681D02*
X103649401Y-97651681D01*
X104599411Y-96701671D02*
X104599411Y-96451671D01*
X135455000Y-77510000D02*
X134819565Y-77510000D01*
X134819565Y-77510000D02*
X134117000Y-78212565D01*
X134117000Y-78212565D02*
X134117000Y-86444000D01*
X134117000Y-86444000D02*
X131831000Y-88730000D01*
X131831000Y-88730000D02*
X110071082Y-88730000D01*
X110071082Y-88730000D02*
X102599411Y-96201671D01*
X102599411Y-96201671D02*
X102599411Y-96451671D01*
X135455000Y-77010000D02*
X134552602Y-77010000D01*
X134552602Y-77010000D02*
X133355003Y-78207599D01*
X133355003Y-78207599D02*
X133355003Y-85935997D01*
X133355003Y-85935997D02*
X131323000Y-87968000D01*
X100599411Y-96201671D02*
X100599411Y-96451671D01*
X131323000Y-87968000D02*
X108833082Y-87968000D01*
X108833082Y-87968000D02*
X100599411Y-96201671D01*
X166375000Y-66696000D02*
X166375000Y-65943600D01*
X164777400Y-64346000D02*
X151897000Y-64346000D01*
X166375000Y-65943600D02*
X164777400Y-64346000D01*
X151897000Y-64346000D02*
X144733000Y-71510000D01*
X144733000Y-71510000D02*
X144555000Y-71510000D01*
D41*
X143955000Y-71510000D02*
X144555000Y-71510000D01*
D42*
X145005000Y-72510000D02*
X143955000Y-72510000D01*
X145366756Y-72510000D02*
X145005000Y-72510000D01*
X161891000Y-65362000D02*
X152514756Y-65362000D01*
X165225000Y-68696000D02*
X161891000Y-65362000D01*
X166375000Y-68696000D02*
X165225000Y-68696000D01*
X152514756Y-65362000D02*
X145366756Y-72510000D01*
X144590435Y-72010000D02*
X144995000Y-72010000D01*
X165033001Y-67576001D02*
X165174999Y-67576001D01*
X165465518Y-67648000D02*
X167137000Y-67648000D01*
X144995000Y-72010000D02*
X152151000Y-64854000D01*
X152151000Y-64854000D02*
X162311000Y-64854000D01*
X162311000Y-64854000D02*
X165033001Y-67576001D01*
X165463519Y-67646001D02*
X165465518Y-67648000D01*
X167575010Y-69745990D02*
X166625000Y-70696000D01*
X165174999Y-67576001D02*
X165244999Y-67646001D01*
X167137000Y-67648000D02*
X167575010Y-68086010D01*
X165244999Y-67646001D02*
X165463519Y-67646001D01*
X167575010Y-68086010D02*
X167575010Y-69745990D01*
D41*
X166625000Y-70696000D02*
X166375000Y-70696000D01*
X143955000Y-72010000D02*
X144590435Y-72010000D01*
D42*
X137455000Y-79010000D02*
X137455000Y-88694000D01*
X137455000Y-88694000D02*
X134371000Y-91778000D01*
X122001401Y-95808164D02*
X122001401Y-97095178D01*
X126001401Y-97651681D02*
X126951411Y-96701671D01*
X134371000Y-91778000D02*
X126031565Y-91778000D01*
X126031565Y-91778000D02*
X122001401Y-95808164D01*
X122001401Y-97095178D02*
X122557904Y-97651681D01*
X122557904Y-97651681D02*
X126001401Y-97651681D01*
X126951411Y-96701671D02*
X126951411Y-96451671D01*
X138455000Y-79010000D02*
X138455000Y-89472000D01*
X138455000Y-89472000D02*
X134625000Y-93302000D01*
X134625000Y-93302000D02*
X127851082Y-93302000D01*
X127851082Y-93302000D02*
X124951411Y-96201671D01*
X124951411Y-96201671D02*
X124951411Y-96451671D01*
X137955000Y-79010000D02*
X137955000Y-88956000D01*
X137955000Y-88956000D02*
X134371000Y-92540000D01*
X134371000Y-92540000D02*
X126613082Y-92540000D01*
X126613082Y-92540000D02*
X122951411Y-96201671D01*
X122951411Y-96201671D02*
X122951411Y-96451671D01*
X141955000Y-79010000D02*
X141955000Y-81328000D01*
X141955000Y-81328000D02*
X155529401Y-94902401D01*
X155529401Y-94902401D02*
X155529401Y-97095178D01*
X155529401Y-97095178D02*
X156085904Y-97651681D01*
X156085904Y-97651681D02*
X159529401Y-97651681D01*
X159529401Y-97651681D02*
X160479411Y-96701671D01*
X160479411Y-96701671D02*
X160479411Y-96451671D01*
X158479411Y-96451671D02*
X158479411Y-96201671D01*
X158479411Y-96201671D02*
X142955000Y-80677260D01*
X142955000Y-80677260D02*
X142955000Y-79912400D01*
X142955000Y-79912400D02*
X142955000Y-79010000D01*
X142455000Y-79010000D02*
X142455000Y-81066000D01*
X142455000Y-81066000D02*
X156479411Y-95090411D01*
X156479411Y-95090411D02*
X156479411Y-96451671D01*
X143955000Y-76510000D02*
X149583000Y-76510000D01*
X156881000Y-83808000D02*
X159009000Y-83808000D01*
X149583000Y-76510000D02*
X156881000Y-83808000D01*
X143955000Y-75510000D02*
X147926024Y-75510000D01*
X147926024Y-75510000D02*
X147926078Y-75509946D01*
X147926078Y-75509946D02*
X150106946Y-75509946D01*
X150106946Y-75509946D02*
X153454990Y-78857990D01*
X153454990Y-78857990D02*
X159804990Y-78857990D01*
X159804990Y-78857990D02*
X160279000Y-79332000D01*
X160279000Y-79332000D02*
X160279000Y-80788000D01*
X160279000Y-80788000D02*
X159259000Y-81808000D01*
D41*
X159259000Y-81808000D02*
X159009000Y-81808000D01*
D42*
X143955000Y-76010000D02*
X149845000Y-76010000D01*
X149845000Y-76010000D02*
X153643000Y-79808000D01*
X153643000Y-79808000D02*
X157859000Y-79808000D01*
X157859000Y-79808000D02*
X159009000Y-79808000D01*
X135455000Y-73010000D02*
X134145000Y-73010000D01*
X134145000Y-73010000D02*
X132847000Y-71712000D01*
X113797000Y-60790000D02*
X111257000Y-58250000D01*
X132847000Y-71712000D02*
X132847000Y-63838000D01*
X129799000Y-60790000D02*
X113797000Y-60790000D01*
X132847000Y-63838000D02*
X129799000Y-60790000D01*
X111257000Y-58250000D02*
X102828200Y-58250000D01*
X102828200Y-58250000D02*
X98557000Y-53978800D01*
D41*
X98557000Y-53978800D02*
X98557000Y-53728800D01*
D42*
X101507010Y-52528790D02*
X102950507Y-52528790D01*
X111787056Y-57234000D02*
X114327056Y-59774000D01*
X100557000Y-53728800D02*
X100557000Y-53478800D01*
X100557000Y-53478800D02*
X101507010Y-52528790D01*
X102950507Y-52528790D02*
X103606990Y-53185273D01*
X106468683Y-57234000D02*
X111787056Y-57234000D01*
X103606990Y-54372307D02*
X106468683Y-57234000D01*
X103606990Y-53185273D02*
X103606990Y-54372307D01*
X114327056Y-59774000D02*
X119385000Y-59774000D01*
X130252122Y-59774000D02*
X119385000Y-59774000D01*
X133863000Y-63384878D02*
X130252122Y-59774000D01*
X133863000Y-71258878D02*
X133863000Y-63384878D01*
X134614122Y-72010000D02*
X133863000Y-71258878D01*
X135455000Y-72010000D02*
X134614122Y-72010000D01*
X119385000Y-59774000D02*
X119639000Y-59774000D01*
X106269561Y-57742000D02*
X102557000Y-54029439D01*
X111587934Y-57742000D02*
X106269561Y-57742000D01*
X114127934Y-60282000D02*
X111587934Y-57742000D01*
X130053000Y-60282000D02*
X114127934Y-60282000D01*
X133355000Y-63584000D02*
X130053000Y-60282000D01*
X133355000Y-71460000D02*
X133355000Y-63584000D01*
X134405000Y-72510000D02*
X133355000Y-71460000D01*
X135455000Y-72510000D02*
X134405000Y-72510000D01*
X102557000Y-54029439D02*
X102557000Y-53978800D01*
D41*
X102557000Y-53728800D02*
X102557000Y-53978800D01*
D42*
X137455000Y-70510000D02*
X137455000Y-63620000D01*
X137455000Y-63620000D02*
X131577000Y-57742000D01*
X131577000Y-57742000D02*
X124672200Y-57742000D01*
X124672200Y-57742000D02*
X120909000Y-53978800D01*
D41*
X120909000Y-53978800D02*
X120909000Y-53728800D01*
D42*
X138455000Y-70510000D02*
X138455000Y-63096000D01*
X138455000Y-63096000D02*
X132085000Y-56726000D01*
X132085000Y-56726000D02*
X128312681Y-56726000D01*
X128312681Y-56726000D02*
X125859010Y-54272329D01*
X125859010Y-54272329D02*
X125859010Y-53085293D01*
X125859010Y-53085293D02*
X125181717Y-52408000D01*
X125181717Y-52408000D02*
X123979800Y-52408000D01*
X123979800Y-52408000D02*
X122909000Y-53478800D01*
D41*
X122909000Y-53478800D02*
X122909000Y-53728800D01*
D42*
X124909000Y-53978800D02*
X124909000Y-54029439D01*
X131831000Y-57234000D02*
X137955000Y-63358000D01*
X124909000Y-54029439D02*
X128113561Y-57234000D01*
X128113561Y-57234000D02*
X131831000Y-57234000D01*
X137955000Y-69460000D02*
X137955000Y-70510000D01*
X137955000Y-63358000D02*
X137955000Y-69460000D01*
D41*
X124909000Y-53728800D02*
X124909000Y-53978800D01*
D42*
X154437000Y-53728800D02*
X153684600Y-53728800D01*
X153684600Y-53728800D02*
X141955000Y-65458400D01*
X141955000Y-65458400D02*
X141955000Y-69607600D01*
X141955000Y-69607600D02*
X141955000Y-70510000D01*
X156437000Y-53728800D02*
X156469000Y-53760800D01*
X156469000Y-53760800D02*
X156469000Y-54948000D01*
X142955000Y-68462000D02*
X142955000Y-70510000D01*
X156469000Y-54948000D02*
X142955000Y-68462000D01*
D41*
X156437000Y-53728800D02*
X156437000Y-53978800D01*
D42*
X142455000Y-70510000D02*
X142455000Y-67946000D01*
X142455000Y-67946000D02*
X155486990Y-54914010D01*
X155486990Y-54914010D02*
X155486990Y-53085293D01*
X155486990Y-53085293D02*
X156043493Y-52528790D01*
X157608390Y-52650190D02*
X158437000Y-53478800D01*
X156043493Y-52528790D02*
X157486990Y-52528790D01*
X157486990Y-52528790D02*
X157608390Y-52650190D01*
D41*
X158437000Y-53728800D02*
X158437000Y-53478800D01*
D42*
X142455000Y-69607600D02*
X142455000Y-70510000D01*
D41*
X73189000Y-69680000D02*
X73189000Y-69430000D01*
X73189000Y-69430000D02*
X74017610Y-68601390D01*
X74017610Y-68601390D02*
X77975990Y-68601390D01*
X77975990Y-68601390D02*
X80959600Y-71585000D01*
X80959600Y-71585000D02*
X81887000Y-71585000D01*
X75189000Y-77300000D02*
X75189000Y-77550000D01*
X75189000Y-77550000D02*
X74360390Y-78378610D01*
X74360390Y-78378610D02*
X72845779Y-78378610D01*
X72845779Y-78378610D02*
X72360390Y-77893221D01*
X72360390Y-77893221D02*
X72360390Y-71511010D01*
X72360390Y-71511010D02*
X73189000Y-70682400D01*
X73189000Y-70682400D02*
X73189000Y-69680000D01*
X81887000Y-72855000D02*
X75824000Y-72855000D01*
X75824000Y-72855000D02*
X75189000Y-72220000D01*
X75189000Y-69680000D02*
X75189000Y-72220000D01*
X75189000Y-72220000D02*
X73189000Y-74220000D01*
X73189000Y-74220000D02*
X73189000Y-77300000D01*
D39*
X106251000Y-65538000D02*
X106251000Y-63146000D01*
X103663000Y-63146000D02*
X103663000Y-65538000D01*
X101075000Y-65538000D02*
X101075000Y-63146000D01*
X98487000Y-63146000D02*
X98487000Y-65538000D01*
X106251000Y-68238000D02*
X107155000Y-68238000D01*
X107155000Y-68238000D02*
X107864011Y-67528989D01*
X107864011Y-67528989D02*
X112647989Y-67528989D01*
X112647989Y-67528989D02*
X113175000Y-68056000D01*
X113175000Y-68056000D02*
X113175000Y-69060000D01*
X107701000Y-69680000D02*
X105005000Y-69680000D01*
X105005000Y-69680000D02*
X103663000Y-68338000D01*
X103663000Y-68338000D02*
X103663000Y-68238000D01*
X109398001Y-67982999D02*
X107701000Y-69680000D01*
X112375000Y-69060000D02*
X112375000Y-68056000D01*
X112301999Y-67982999D02*
X109398001Y-67982999D01*
X112375000Y-68056000D02*
X112301999Y-67982999D01*
X108209000Y-70188000D02*
X109337000Y-69060000D01*
X109337000Y-69060000D02*
X111575000Y-69060000D01*
X101993067Y-70188000D02*
X108209000Y-70188000D01*
X101075000Y-68238000D02*
X101075000Y-69269933D01*
X101075000Y-69269933D02*
X101993067Y-70188000D01*
X101075000Y-68238000D02*
X101075000Y-68338000D01*
X101023990Y-69860990D02*
X101923000Y-70760000D01*
X101923000Y-70760000D02*
X109875000Y-70760000D01*
X98487000Y-68238000D02*
X98487000Y-69242000D01*
X99105990Y-69860990D02*
X101023990Y-69860990D01*
X98487000Y-69242000D02*
X99105990Y-69860990D01*
G36*
X78960332Y-97232618D02*
X79248744Y-97425329D01*
X79588950Y-97493000D01*
X84643000Y-97493000D01*
X84983206Y-97425329D01*
X85271618Y-97232618D01*
X87362545Y-95141691D01*
X89502000Y-95141691D01*
X89502000Y-96732250D01*
X89660750Y-96891000D01*
X90810000Y-96891000D01*
X90810000Y-94791750D01*
X91064000Y-94791750D01*
X91064000Y-96891000D01*
X92213250Y-96891000D01*
X92372000Y-96732250D01*
X92372000Y-95141691D01*
X92275327Y-94908302D01*
X92096699Y-94729673D01*
X91863310Y-94633000D01*
X91222750Y-94633000D01*
X91064000Y-94791750D01*
X90810000Y-94791750D01*
X90651250Y-94633000D01*
X90010690Y-94633000D01*
X89777301Y-94729673D01*
X89598673Y-94908302D01*
X89502000Y-95141691D01*
X87362545Y-95141691D01*
X89489560Y-93014676D01*
X89489560Y-93368000D01*
X89533838Y-93603317D01*
X89672910Y-93819441D01*
X89885110Y-93964431D01*
X90137000Y-94015440D01*
X91737000Y-94015440D01*
X91972317Y-93971162D01*
X92188441Y-93832090D01*
X92333431Y-93619890D01*
X92384440Y-93368000D01*
X92384440Y-92507000D01*
X95016782Y-92507000D01*
X95076910Y-92600441D01*
X95289110Y-92745431D01*
X95402000Y-92768292D01*
X95402000Y-95251260D01*
X95469671Y-95591466D01*
X95596945Y-95781944D01*
X95662382Y-95879878D01*
X96862793Y-97080289D01*
X97151206Y-97273001D01*
X97491411Y-97340671D01*
X97550156Y-97340671D01*
X97710411Y-97580510D01*
X97710411Y-97809671D01*
X97778082Y-98149877D01*
X97969719Y-98436681D01*
X97970793Y-98438289D01*
X98822504Y-99290000D01*
X92113026Y-99290000D01*
X92275327Y-99127698D01*
X92372000Y-98894309D01*
X92372000Y-97303750D01*
X92213250Y-97145000D01*
X91064000Y-97145000D01*
X91064000Y-97165000D01*
X90810000Y-97165000D01*
X90810000Y-97145000D01*
X89660750Y-97145000D01*
X89502000Y-97303750D01*
X89502000Y-98894309D01*
X89598673Y-99127698D01*
X89760974Y-99290000D01*
X70710000Y-99290000D01*
X70710000Y-88982286D01*
X78960332Y-97232618D01*
X78960332Y-97232618D01*
G37*
X78960332Y-97232618D02*
X79248744Y-97425329D01*
X79588950Y-97493000D01*
X84643000Y-97493000D01*
X84983206Y-97425329D01*
X85271618Y-97232618D01*
X87362545Y-95141691D01*
X89502000Y-95141691D01*
X89502000Y-96732250D01*
X89660750Y-96891000D01*
X90810000Y-96891000D01*
X90810000Y-94791750D01*
X91064000Y-94791750D01*
X91064000Y-96891000D01*
X92213250Y-96891000D01*
X92372000Y-96732250D01*
X92372000Y-95141691D01*
X92275327Y-94908302D01*
X92096699Y-94729673D01*
X91863310Y-94633000D01*
X91222750Y-94633000D01*
X91064000Y-94791750D01*
X90810000Y-94791750D01*
X90651250Y-94633000D01*
X90010690Y-94633000D01*
X89777301Y-94729673D01*
X89598673Y-94908302D01*
X89502000Y-95141691D01*
X87362545Y-95141691D01*
X89489560Y-93014676D01*
X89489560Y-93368000D01*
X89533838Y-93603317D01*
X89672910Y-93819441D01*
X89885110Y-93964431D01*
X90137000Y-94015440D01*
X91737000Y-94015440D01*
X91972317Y-93971162D01*
X92188441Y-93832090D01*
X92333431Y-93619890D01*
X92384440Y-93368000D01*
X92384440Y-92507000D01*
X95016782Y-92507000D01*
X95076910Y-92600441D01*
X95289110Y-92745431D01*
X95402000Y-92768292D01*
X95402000Y-95251260D01*
X95469671Y-95591466D01*
X95596945Y-95781944D01*
X95662382Y-95879878D01*
X96862793Y-97080289D01*
X97151206Y-97273001D01*
X97491411Y-97340671D01*
X97550156Y-97340671D01*
X97710411Y-97580510D01*
X97710411Y-97809671D01*
X97778082Y-98149877D01*
X97969719Y-98436681D01*
X97970793Y-98438289D01*
X98822504Y-99290000D01*
X92113026Y-99290000D01*
X92275327Y-99127698D01*
X92372000Y-98894309D01*
X92372000Y-97303750D01*
X92213250Y-97145000D01*
X91064000Y-97145000D01*
X91064000Y-97165000D01*
X90810000Y-97165000D01*
X90810000Y-97145000D01*
X89660750Y-97145000D01*
X89502000Y-97303750D01*
X89502000Y-98894309D01*
X89598673Y-99127698D01*
X89760974Y-99290000D01*
X70710000Y-99290000D01*
X70710000Y-88982286D01*
X78960332Y-97232618D01*
G36*
X169290000Y-99290000D02*
X161644236Y-99290000D01*
X162431618Y-98502618D01*
X162515603Y-98376926D01*
X162624329Y-98214206D01*
X162692000Y-97874000D01*
X162692000Y-92551750D01*
X165115000Y-92551750D01*
X165115000Y-93142309D01*
X165211673Y-93375698D01*
X165390301Y-93554327D01*
X165623690Y-93651000D01*
X166089250Y-93651000D01*
X166248000Y-93492250D01*
X166248000Y-92393000D01*
X166502000Y-92393000D01*
X166502000Y-93492250D01*
X166660750Y-93651000D01*
X167126310Y-93651000D01*
X167359699Y-93554327D01*
X167538327Y-93375698D01*
X167635000Y-93142309D01*
X167635000Y-92551750D01*
X167476250Y-92393000D01*
X166502000Y-92393000D01*
X166248000Y-92393000D01*
X165273750Y-92393000D01*
X165115000Y-92551750D01*
X162692000Y-92551750D01*
X162692000Y-91193440D01*
X163553000Y-91193440D01*
X163788317Y-91149162D01*
X164004441Y-91010090D01*
X164149431Y-90797890D01*
X164178367Y-90655000D01*
X165128715Y-90655000D01*
X165146838Y-90751317D01*
X165285910Y-90967441D01*
X165354006Y-91013969D01*
X165211673Y-91156302D01*
X165115000Y-91389691D01*
X165115000Y-91980250D01*
X165273750Y-92139000D01*
X166248000Y-92139000D01*
X166248000Y-92119000D01*
X166502000Y-92119000D01*
X166502000Y-92139000D01*
X167476250Y-92139000D01*
X167635000Y-91980250D01*
X167635000Y-91389691D01*
X167538327Y-91156302D01*
X167397090Y-91015064D01*
X167451441Y-90980090D01*
X167596431Y-90767890D01*
X167647440Y-90516000D01*
X167647440Y-89016000D01*
X167603162Y-88780683D01*
X167464090Y-88564559D01*
X167264000Y-88427843D01*
X167264000Y-84921255D01*
X167527370Y-84745277D01*
X167795084Y-84344614D01*
X167889093Y-83872000D01*
X167795084Y-83399386D01*
X167697434Y-83253241D01*
X168130089Y-82820586D01*
X168300255Y-82565914D01*
X168360010Y-82265507D01*
X168360010Y-78822010D01*
X168340493Y-78723890D01*
X168300255Y-78521603D01*
X168130089Y-78266931D01*
X167872440Y-78009282D01*
X167872440Y-77272000D01*
X167828162Y-77036683D01*
X167689090Y-76820559D01*
X167476890Y-76675569D01*
X167225000Y-76624560D01*
X165525000Y-76624560D01*
X165289683Y-76668838D01*
X165073559Y-76807910D01*
X164928569Y-77020110D01*
X164877560Y-77272000D01*
X164877560Y-78472000D01*
X164921838Y-78707317D01*
X165060910Y-78923441D01*
X165206475Y-79022901D01*
X164954916Y-79399386D01*
X164860907Y-79872000D01*
X164886447Y-80000395D01*
X160751842Y-84135000D01*
X160506440Y-84135000D01*
X160506440Y-83208000D01*
X160462162Y-82972683D01*
X160323090Y-82756559D01*
X160177525Y-82657099D01*
X160429084Y-82280614D01*
X160523093Y-81808000D01*
X160497553Y-81679605D01*
X160834079Y-81343079D01*
X161004245Y-81088406D01*
X161064000Y-80788000D01*
X161064000Y-79332000D01*
X161048270Y-79252921D01*
X161004245Y-79031593D01*
X160834079Y-78776921D01*
X160754158Y-78697000D01*
X160787000Y-78697000D01*
X161127206Y-78629329D01*
X161415618Y-78436618D01*
X163447618Y-76404618D01*
X163476636Y-76361190D01*
X163640329Y-76116206D01*
X163708000Y-75776000D01*
X163708000Y-73585000D01*
X165246161Y-73585000D01*
X165623293Y-73836991D01*
X166095907Y-73931000D01*
X166654093Y-73931000D01*
X167126707Y-73836991D01*
X167503839Y-73585000D01*
X168754125Y-73585000D01*
X168915000Y-73617000D01*
X169255206Y-73549329D01*
X169290000Y-73526080D01*
X169290000Y-99290000D01*
X169290000Y-99290000D01*
G37*
X169290000Y-99290000D02*
X161644236Y-99290000D01*
X162431618Y-98502618D01*
X162515603Y-98376926D01*
X162624329Y-98214206D01*
X162692000Y-97874000D01*
X162692000Y-92551750D01*
X165115000Y-92551750D01*
X165115000Y-93142309D01*
X165211673Y-93375698D01*
X165390301Y-93554327D01*
X165623690Y-93651000D01*
X166089250Y-93651000D01*
X166248000Y-93492250D01*
X166248000Y-92393000D01*
X166502000Y-92393000D01*
X166502000Y-93492250D01*
X166660750Y-93651000D01*
X167126310Y-93651000D01*
X167359699Y-93554327D01*
X167538327Y-93375698D01*
X167635000Y-93142309D01*
X167635000Y-92551750D01*
X167476250Y-92393000D01*
X166502000Y-92393000D01*
X166248000Y-92393000D01*
X165273750Y-92393000D01*
X165115000Y-92551750D01*
X162692000Y-92551750D01*
X162692000Y-91193440D01*
X163553000Y-91193440D01*
X163788317Y-91149162D01*
X164004441Y-91010090D01*
X164149431Y-90797890D01*
X164178367Y-90655000D01*
X165128715Y-90655000D01*
X165146838Y-90751317D01*
X165285910Y-90967441D01*
X165354006Y-91013969D01*
X165211673Y-91156302D01*
X165115000Y-91389691D01*
X165115000Y-91980250D01*
X165273750Y-92139000D01*
X166248000Y-92139000D01*
X166248000Y-92119000D01*
X166502000Y-92119000D01*
X166502000Y-92139000D01*
X167476250Y-92139000D01*
X167635000Y-91980250D01*
X167635000Y-91389691D01*
X167538327Y-91156302D01*
X167397090Y-91015064D01*
X167451441Y-90980090D01*
X167596431Y-90767890D01*
X167647440Y-90516000D01*
X167647440Y-89016000D01*
X167603162Y-88780683D01*
X167464090Y-88564559D01*
X167264000Y-88427843D01*
X167264000Y-84921255D01*
X167527370Y-84745277D01*
X167795084Y-84344614D01*
X167889093Y-83872000D01*
X167795084Y-83399386D01*
X167697434Y-83253241D01*
X168130089Y-82820586D01*
X168300255Y-82565914D01*
X168360010Y-82265507D01*
X168360010Y-78822010D01*
X168340493Y-78723890D01*
X168300255Y-78521603D01*
X168130089Y-78266931D01*
X167872440Y-78009282D01*
X167872440Y-77272000D01*
X167828162Y-77036683D01*
X167689090Y-76820559D01*
X167476890Y-76675569D01*
X167225000Y-76624560D01*
X165525000Y-76624560D01*
X165289683Y-76668838D01*
X165073559Y-76807910D01*
X164928569Y-77020110D01*
X164877560Y-77272000D01*
X164877560Y-78472000D01*
X164921838Y-78707317D01*
X165060910Y-78923441D01*
X165206475Y-79022901D01*
X164954916Y-79399386D01*
X164860907Y-79872000D01*
X164886447Y-80000395D01*
X160751842Y-84135000D01*
X160506440Y-84135000D01*
X160506440Y-83208000D01*
X160462162Y-82972683D01*
X160323090Y-82756559D01*
X160177525Y-82657099D01*
X160429084Y-82280614D01*
X160523093Y-81808000D01*
X160497553Y-81679605D01*
X160834079Y-81343079D01*
X161004245Y-81088406D01*
X161064000Y-80788000D01*
X161064000Y-79332000D01*
X161048270Y-79252921D01*
X161004245Y-79031593D01*
X160834079Y-78776921D01*
X160754158Y-78697000D01*
X160787000Y-78697000D01*
X161127206Y-78629329D01*
X161415618Y-78436618D01*
X163447618Y-76404618D01*
X163476636Y-76361190D01*
X163640329Y-76116206D01*
X163708000Y-75776000D01*
X163708000Y-73585000D01*
X165246161Y-73585000D01*
X165623293Y-73836991D01*
X166095907Y-73931000D01*
X166654093Y-73931000D01*
X167126707Y-73836991D01*
X167503839Y-73585000D01*
X168754125Y-73585000D01*
X168915000Y-73617000D01*
X169255206Y-73549329D01*
X169290000Y-73526080D01*
X169290000Y-99290000D01*
G36*
X110296542Y-93660300D02*
X110126376Y-93914972D01*
X110086110Y-94117401D01*
X110066621Y-94215379D01*
X110066621Y-94995503D01*
X109775411Y-94937578D01*
X109302797Y-95031587D01*
X108902134Y-95299301D01*
X108634420Y-95699964D01*
X108540411Y-96172578D01*
X108540411Y-96730764D01*
X108634420Y-97203378D01*
X108886411Y-97580510D01*
X108886411Y-98533001D01*
X100579977Y-98533001D01*
X100483657Y-98436681D01*
X103649401Y-98436681D01*
X103949808Y-98376926D01*
X104204480Y-98206760D01*
X104462129Y-97949111D01*
X105199411Y-97949111D01*
X105434728Y-97904833D01*
X105650852Y-97765761D01*
X105795842Y-97553561D01*
X105846851Y-97301671D01*
X105846851Y-95601671D01*
X105802573Y-95366354D01*
X105663501Y-95150230D01*
X105451301Y-95005240D01*
X105199411Y-94954231D01*
X104957009Y-94954231D01*
X110396239Y-89515000D01*
X114441842Y-89515000D01*
X110296542Y-93660300D01*
X110296542Y-93660300D01*
G37*
X110296542Y-93660300D02*
X110126376Y-93914972D01*
X110086110Y-94117401D01*
X110066621Y-94215379D01*
X110066621Y-94995503D01*
X109775411Y-94937578D01*
X109302797Y-95031587D01*
X108902134Y-95299301D01*
X108634420Y-95699964D01*
X108540411Y-96172578D01*
X108540411Y-96730764D01*
X108634420Y-97203378D01*
X108886411Y-97580510D01*
X108886411Y-98533001D01*
X100579977Y-98533001D01*
X100483657Y-98436681D01*
X103649401Y-98436681D01*
X103949808Y-98376926D01*
X104204480Y-98206760D01*
X104462129Y-97949111D01*
X105199411Y-97949111D01*
X105434728Y-97904833D01*
X105650852Y-97765761D01*
X105795842Y-97553561D01*
X105846851Y-97301671D01*
X105846851Y-95601671D01*
X105802573Y-95366354D01*
X105663501Y-95150230D01*
X105451301Y-95005240D01*
X105199411Y-94954231D01*
X104957009Y-94954231D01*
X110396239Y-89515000D01*
X114441842Y-89515000D01*
X110296542Y-93660300D01*
G36*
X90246787Y-88506815D02*
X90493997Y-88671996D01*
X90785602Y-88730000D01*
X105617407Y-88730000D01*
X99218170Y-95129237D01*
X99072025Y-95031587D01*
X98599411Y-94937578D01*
X98126797Y-95031587D01*
X97726134Y-95299301D01*
X97674121Y-95377145D01*
X97180000Y-94883024D01*
X97180000Y-92770285D01*
X97276317Y-92752162D01*
X97492441Y-92613090D01*
X97538969Y-92544994D01*
X97681302Y-92687327D01*
X97914691Y-92784000D01*
X98505250Y-92784000D01*
X98664000Y-92625250D01*
X98664000Y-91651000D01*
X98918000Y-91651000D01*
X98918000Y-92625250D01*
X99076750Y-92784000D01*
X99667309Y-92784000D01*
X99900698Y-92687327D01*
X100079327Y-92508699D01*
X100176000Y-92275310D01*
X100176000Y-91809750D01*
X100017250Y-91651000D01*
X98918000Y-91651000D01*
X98664000Y-91651000D01*
X98644000Y-91651000D01*
X98644000Y-91397000D01*
X98664000Y-91397000D01*
X98664000Y-90422750D01*
X98918000Y-90422750D01*
X98918000Y-91397000D01*
X100017250Y-91397000D01*
X100176000Y-91238250D01*
X100176000Y-90772690D01*
X100079327Y-90539301D01*
X99900698Y-90360673D01*
X99667309Y-90264000D01*
X99076750Y-90264000D01*
X98918000Y-90422750D01*
X98664000Y-90422750D01*
X98505250Y-90264000D01*
X97914691Y-90264000D01*
X97681302Y-90360673D01*
X97540064Y-90501910D01*
X97505090Y-90447559D01*
X97292890Y-90302569D01*
X97041000Y-90251560D01*
X95541000Y-90251560D01*
X95305683Y-90295838D01*
X95089559Y-90434910D01*
X94944569Y-90647110D01*
X94927986Y-90729000D01*
X92384440Y-90729000D01*
X92384440Y-89868000D01*
X92340162Y-89632683D01*
X92201090Y-89416559D01*
X91988890Y-89271569D01*
X91737000Y-89220560D01*
X90137000Y-89220560D01*
X89901683Y-89264838D01*
X89685559Y-89403910D01*
X89540569Y-89616110D01*
X89489560Y-89868000D01*
X89489560Y-90756736D01*
X89288794Y-90796671D01*
X89055563Y-90952511D01*
X89000382Y-90989382D01*
X84274764Y-95715000D01*
X79957186Y-95715000D01*
X79660958Y-95418772D01*
X80058670Y-95153029D01*
X80274664Y-94829772D01*
X80332179Y-94952490D01*
X80764053Y-95346688D01*
X81179974Y-95518958D01*
X81412000Y-95397817D01*
X81412000Y-94191000D01*
X81666000Y-94191000D01*
X81666000Y-95397817D01*
X81898026Y-95518958D01*
X82313947Y-95346688D01*
X82745821Y-94952490D01*
X82993968Y-94423027D01*
X82873469Y-94191000D01*
X81666000Y-94191000D01*
X81412000Y-94191000D01*
X81392000Y-94191000D01*
X81392000Y-93937000D01*
X81412000Y-93937000D01*
X81412000Y-93917000D01*
X81666000Y-93917000D01*
X81666000Y-93937000D01*
X82873469Y-93937000D01*
X82993968Y-93704973D01*
X82745821Y-93175510D01*
X82327839Y-92793992D01*
X82598670Y-92613029D01*
X82923526Y-92126848D01*
X83037600Y-91553359D01*
X83037600Y-91494641D01*
X82923526Y-90921152D01*
X82730481Y-90632239D01*
X87551346Y-85811374D01*
X90246787Y-88506815D01*
X90246787Y-88506815D01*
G37*
X90246787Y-88506815D02*
X90493997Y-88671996D01*
X90785602Y-88730000D01*
X105617407Y-88730000D01*
X99218170Y-95129237D01*
X99072025Y-95031587D01*
X98599411Y-94937578D01*
X98126797Y-95031587D01*
X97726134Y-95299301D01*
X97674121Y-95377145D01*
X97180000Y-94883024D01*
X97180000Y-92770285D01*
X97276317Y-92752162D01*
X97492441Y-92613090D01*
X97538969Y-92544994D01*
X97681302Y-92687327D01*
X97914691Y-92784000D01*
X98505250Y-92784000D01*
X98664000Y-92625250D01*
X98664000Y-91651000D01*
X98918000Y-91651000D01*
X98918000Y-92625250D01*
X99076750Y-92784000D01*
X99667309Y-92784000D01*
X99900698Y-92687327D01*
X100079327Y-92508699D01*
X100176000Y-92275310D01*
X100176000Y-91809750D01*
X100017250Y-91651000D01*
X98918000Y-91651000D01*
X98664000Y-91651000D01*
X98644000Y-91651000D01*
X98644000Y-91397000D01*
X98664000Y-91397000D01*
X98664000Y-90422750D01*
X98918000Y-90422750D01*
X98918000Y-91397000D01*
X100017250Y-91397000D01*
X100176000Y-91238250D01*
X100176000Y-90772690D01*
X100079327Y-90539301D01*
X99900698Y-90360673D01*
X99667309Y-90264000D01*
X99076750Y-90264000D01*
X98918000Y-90422750D01*
X98664000Y-90422750D01*
X98505250Y-90264000D01*
X97914691Y-90264000D01*
X97681302Y-90360673D01*
X97540064Y-90501910D01*
X97505090Y-90447559D01*
X97292890Y-90302569D01*
X97041000Y-90251560D01*
X95541000Y-90251560D01*
X95305683Y-90295838D01*
X95089559Y-90434910D01*
X94944569Y-90647110D01*
X94927986Y-90729000D01*
X92384440Y-90729000D01*
X92384440Y-89868000D01*
X92340162Y-89632683D01*
X92201090Y-89416559D01*
X91988890Y-89271569D01*
X91737000Y-89220560D01*
X90137000Y-89220560D01*
X89901683Y-89264838D01*
X89685559Y-89403910D01*
X89540569Y-89616110D01*
X89489560Y-89868000D01*
X89489560Y-90756736D01*
X89288794Y-90796671D01*
X89055563Y-90952511D01*
X89000382Y-90989382D01*
X84274764Y-95715000D01*
X79957186Y-95715000D01*
X79660958Y-95418772D01*
X80058670Y-95153029D01*
X80274664Y-94829772D01*
X80332179Y-94952490D01*
X80764053Y-95346688D01*
X81179974Y-95518958D01*
X81412000Y-95397817D01*
X81412000Y-94191000D01*
X81666000Y-94191000D01*
X81666000Y-95397817D01*
X81898026Y-95518958D01*
X82313947Y-95346688D01*
X82745821Y-94952490D01*
X82993968Y-94423027D01*
X82873469Y-94191000D01*
X81666000Y-94191000D01*
X81412000Y-94191000D01*
X81392000Y-94191000D01*
X81392000Y-93937000D01*
X81412000Y-93937000D01*
X81412000Y-93917000D01*
X81666000Y-93917000D01*
X81666000Y-93937000D01*
X82873469Y-93937000D01*
X82993968Y-93704973D01*
X82745821Y-93175510D01*
X82327839Y-92793992D01*
X82598670Y-92613029D01*
X82923526Y-92126848D01*
X83037600Y-91553359D01*
X83037600Y-91494641D01*
X82923526Y-90921152D01*
X82730481Y-90632239D01*
X87551346Y-85811374D01*
X90246787Y-88506815D01*
G36*
X156332555Y-86491079D02*
X156587228Y-86661245D01*
X156887634Y-86721000D01*
X161475244Y-86721000D01*
X161775651Y-86661245D01*
X162030323Y-86491079D01*
X164913424Y-83607978D01*
X164860907Y-83872000D01*
X164954916Y-84344614D01*
X165222630Y-84745277D01*
X165486000Y-84921255D01*
X165486000Y-88431295D01*
X165298559Y-88551910D01*
X165153569Y-88764110D01*
X165130708Y-88877000D01*
X164187457Y-88877000D01*
X164156162Y-88710683D01*
X164017090Y-88494559D01*
X163804890Y-88349569D01*
X163553000Y-88298560D01*
X160053000Y-88298560D01*
X159817683Y-88342838D01*
X159601559Y-88481910D01*
X159456569Y-88694110D01*
X159405560Y-88946000D01*
X159405560Y-90546000D01*
X159449838Y-90781317D01*
X159588910Y-90997441D01*
X159801110Y-91142431D01*
X160053000Y-91193440D01*
X160914000Y-91193440D01*
X160914000Y-94954231D01*
X159879411Y-94954231D01*
X159644094Y-94998509D01*
X159427970Y-95137581D01*
X159328510Y-95283146D01*
X158952025Y-95031587D01*
X158479411Y-94937578D01*
X158351016Y-94963118D01*
X154568898Y-91181000D01*
X156117250Y-91181000D01*
X156276000Y-91022250D01*
X156276000Y-89873000D01*
X156530000Y-89873000D01*
X156530000Y-91022250D01*
X156688750Y-91181000D01*
X158279309Y-91181000D01*
X158512698Y-91084327D01*
X158691327Y-90905699D01*
X158788000Y-90672310D01*
X158788000Y-90031750D01*
X158629250Y-89873000D01*
X156530000Y-89873000D01*
X156276000Y-89873000D01*
X154176750Y-89873000D01*
X154018000Y-90031750D01*
X154018000Y-90630102D01*
X152207588Y-88819690D01*
X154018000Y-88819690D01*
X154018000Y-89460250D01*
X154176750Y-89619000D01*
X156276000Y-89619000D01*
X156276000Y-88469750D01*
X156530000Y-88469750D01*
X156530000Y-89619000D01*
X158629250Y-89619000D01*
X158788000Y-89460250D01*
X158788000Y-88819690D01*
X158691327Y-88586301D01*
X158512698Y-88407673D01*
X158279309Y-88311000D01*
X156688750Y-88311000D01*
X156530000Y-88469750D01*
X156276000Y-88469750D01*
X156117250Y-88311000D01*
X154526691Y-88311000D01*
X154293302Y-88407673D01*
X154114673Y-88586301D01*
X154018000Y-88819690D01*
X152207588Y-88819690D01*
X143740000Y-80352102D01*
X143740000Y-78795000D01*
X148636476Y-78795000D01*
X156332555Y-86491079D01*
X156332555Y-86491079D01*
G37*
X156332555Y-86491079D02*
X156587228Y-86661245D01*
X156887634Y-86721000D01*
X161475244Y-86721000D01*
X161775651Y-86661245D01*
X162030323Y-86491079D01*
X164913424Y-83607978D01*
X164860907Y-83872000D01*
X164954916Y-84344614D01*
X165222630Y-84745277D01*
X165486000Y-84921255D01*
X165486000Y-88431295D01*
X165298559Y-88551910D01*
X165153569Y-88764110D01*
X165130708Y-88877000D01*
X164187457Y-88877000D01*
X164156162Y-88710683D01*
X164017090Y-88494559D01*
X163804890Y-88349569D01*
X163553000Y-88298560D01*
X160053000Y-88298560D01*
X159817683Y-88342838D01*
X159601559Y-88481910D01*
X159456569Y-88694110D01*
X159405560Y-88946000D01*
X159405560Y-90546000D01*
X159449838Y-90781317D01*
X159588910Y-90997441D01*
X159801110Y-91142431D01*
X160053000Y-91193440D01*
X160914000Y-91193440D01*
X160914000Y-94954231D01*
X159879411Y-94954231D01*
X159644094Y-94998509D01*
X159427970Y-95137581D01*
X159328510Y-95283146D01*
X158952025Y-95031587D01*
X158479411Y-94937578D01*
X158351016Y-94963118D01*
X154568898Y-91181000D01*
X156117250Y-91181000D01*
X156276000Y-91022250D01*
X156276000Y-89873000D01*
X156530000Y-89873000D01*
X156530000Y-91022250D01*
X156688750Y-91181000D01*
X158279309Y-91181000D01*
X158512698Y-91084327D01*
X158691327Y-90905699D01*
X158788000Y-90672310D01*
X158788000Y-90031750D01*
X158629250Y-89873000D01*
X156530000Y-89873000D01*
X156276000Y-89873000D01*
X154176750Y-89873000D01*
X154018000Y-90031750D01*
X154018000Y-90630102D01*
X152207588Y-88819690D01*
X154018000Y-88819690D01*
X154018000Y-89460250D01*
X154176750Y-89619000D01*
X156276000Y-89619000D01*
X156276000Y-88469750D01*
X156530000Y-88469750D01*
X156530000Y-89619000D01*
X158629250Y-89619000D01*
X158788000Y-89460250D01*
X158788000Y-88819690D01*
X158691327Y-88586301D01*
X158512698Y-88407673D01*
X158279309Y-88311000D01*
X156688750Y-88311000D01*
X156530000Y-88469750D01*
X156276000Y-88469750D01*
X156117250Y-88311000D01*
X154526691Y-88311000D01*
X154293302Y-88407673D01*
X154114673Y-88586301D01*
X154018000Y-88819690D01*
X152207588Y-88819690D01*
X143740000Y-80352102D01*
X143740000Y-78795000D01*
X148636476Y-78795000D01*
X156332555Y-86491079D01*
G36*
X75321106Y-73357895D02*
X75551836Y-73512063D01*
X75824000Y-73566200D01*
X80520290Y-73566200D01*
X80515569Y-73573110D01*
X80464560Y-73825000D01*
X80464560Y-74425000D01*
X80508838Y-74660317D01*
X80647910Y-74876441D01*
X80860110Y-75021431D01*
X81112000Y-75072440D01*
X81125000Y-75072440D01*
X81125000Y-77269947D01*
X80907683Y-77310838D01*
X80691559Y-77449910D01*
X80546569Y-77662110D01*
X80495560Y-77914000D01*
X80495560Y-78028048D01*
X80350185Y-78125184D01*
X77269584Y-81205786D01*
X77104403Y-81452996D01*
X77046399Y-81744601D01*
X77046399Y-90109201D01*
X77104403Y-90400806D01*
X77229034Y-90587329D01*
X77269584Y-90648016D01*
X77334984Y-90713417D01*
X77582195Y-90878598D01*
X77635785Y-90889258D01*
X77614474Y-90921152D01*
X77500400Y-91494641D01*
X77500400Y-91553359D01*
X77614474Y-92126848D01*
X77939330Y-92613029D01*
X78210172Y-92794000D01*
X77939330Y-92974971D01*
X77650068Y-93407882D01*
X71760000Y-87517814D01*
X71760000Y-78250203D01*
X71857496Y-78396115D01*
X72342885Y-78881505D01*
X72573615Y-79035673D01*
X72845779Y-79089810D01*
X74360390Y-79089810D01*
X74632555Y-79035673D01*
X74863284Y-78881504D01*
X74947348Y-78797440D01*
X75789000Y-78797440D01*
X76024317Y-78753162D01*
X76240441Y-78614090D01*
X76385431Y-78401890D01*
X76436440Y-78150000D01*
X76436440Y-76450000D01*
X76392162Y-76214683D01*
X76253090Y-75998559D01*
X76040890Y-75853569D01*
X75789000Y-75802560D01*
X74589000Y-75802560D01*
X74353683Y-75846838D01*
X74137559Y-75985910D01*
X74038099Y-76131475D01*
X73900200Y-76039334D01*
X73900200Y-74514588D01*
X75189000Y-73225788D01*
X75321106Y-73357895D01*
X75321106Y-73357895D01*
G37*
X75321106Y-73357895D02*
X75551836Y-73512063D01*
X75824000Y-73566200D01*
X80520290Y-73566200D01*
X80515569Y-73573110D01*
X80464560Y-73825000D01*
X80464560Y-74425000D01*
X80508838Y-74660317D01*
X80647910Y-74876441D01*
X80860110Y-75021431D01*
X81112000Y-75072440D01*
X81125000Y-75072440D01*
X81125000Y-77269947D01*
X80907683Y-77310838D01*
X80691559Y-77449910D01*
X80546569Y-77662110D01*
X80495560Y-77914000D01*
X80495560Y-78028048D01*
X80350185Y-78125184D01*
X77269584Y-81205786D01*
X77104403Y-81452996D01*
X77046399Y-81744601D01*
X77046399Y-90109201D01*
X77104403Y-90400806D01*
X77229034Y-90587329D01*
X77269584Y-90648016D01*
X77334984Y-90713417D01*
X77582195Y-90878598D01*
X77635785Y-90889258D01*
X77614474Y-90921152D01*
X77500400Y-91494641D01*
X77500400Y-91553359D01*
X77614474Y-92126848D01*
X77939330Y-92613029D01*
X78210172Y-92794000D01*
X77939330Y-92974971D01*
X77650068Y-93407882D01*
X71760000Y-87517814D01*
X71760000Y-78250203D01*
X71857496Y-78396115D01*
X72342885Y-78881505D01*
X72573615Y-79035673D01*
X72845779Y-79089810D01*
X74360390Y-79089810D01*
X74632555Y-79035673D01*
X74863284Y-78881504D01*
X74947348Y-78797440D01*
X75789000Y-78797440D01*
X76024317Y-78753162D01*
X76240441Y-78614090D01*
X76385431Y-78401890D01*
X76436440Y-78150000D01*
X76436440Y-76450000D01*
X76392162Y-76214683D01*
X76253090Y-75998559D01*
X76040890Y-75853569D01*
X75789000Y-75802560D01*
X74589000Y-75802560D01*
X74353683Y-75846838D01*
X74137559Y-75985910D01*
X74038099Y-76131475D01*
X73900200Y-76039334D01*
X73900200Y-74514588D01*
X75189000Y-73225788D01*
X75321106Y-73357895D01*
G36*
X80495560Y-82114000D02*
X80539838Y-82349317D01*
X80678910Y-82565441D01*
X80891110Y-82710431D01*
X81143000Y-82761440D01*
X82443000Y-82761440D01*
X82678317Y-82717162D01*
X82894441Y-82578090D01*
X83039431Y-82365890D01*
X83090440Y-82114000D01*
X83090440Y-82106000D01*
X84840818Y-82106000D01*
X84882838Y-82329317D01*
X85021910Y-82545441D01*
X85234110Y-82690431D01*
X85349000Y-82713697D01*
X85349000Y-83293398D01*
X85407004Y-83585003D01*
X85479431Y-83693397D01*
X85572185Y-83832213D01*
X86473715Y-84733744D01*
X82884586Y-88322874D01*
X82598670Y-87894971D01*
X82112489Y-87570115D01*
X81539000Y-87456041D01*
X80965511Y-87570115D01*
X80479330Y-87894971D01*
X80470195Y-87908642D01*
X80465762Y-87885083D01*
X80326690Y-87668959D01*
X80114490Y-87523969D01*
X79862600Y-87472960D01*
X79761000Y-87472960D01*
X79761000Y-82485028D01*
X80495560Y-81750469D01*
X80495560Y-82114000D01*
X80495560Y-82114000D01*
G37*
X80495560Y-82114000D02*
X80539838Y-82349317D01*
X80678910Y-82565441D01*
X80891110Y-82710431D01*
X81143000Y-82761440D01*
X82443000Y-82761440D01*
X82678317Y-82717162D01*
X82894441Y-82578090D01*
X83039431Y-82365890D01*
X83090440Y-82114000D01*
X83090440Y-82106000D01*
X84840818Y-82106000D01*
X84882838Y-82329317D01*
X85021910Y-82545441D01*
X85234110Y-82690431D01*
X85349000Y-82713697D01*
X85349000Y-83293398D01*
X85407004Y-83585003D01*
X85479431Y-83693397D01*
X85572185Y-83832213D01*
X86473715Y-84733744D01*
X82884586Y-88322874D01*
X82598670Y-87894971D01*
X82112489Y-87570115D01*
X81539000Y-87456041D01*
X80965511Y-87570115D01*
X80479330Y-87894971D01*
X80470195Y-87908642D01*
X80465762Y-87885083D01*
X80326690Y-87668959D01*
X80114490Y-87523969D01*
X79862600Y-87472960D01*
X79761000Y-87472960D01*
X79761000Y-82485028D01*
X80495560Y-81750469D01*
X80495560Y-82114000D01*
G36*
X123850000Y-73363000D02*
X123870000Y-73363000D01*
X123870000Y-73617000D01*
X123850000Y-73617000D01*
X123850000Y-74591250D01*
X124008750Y-74750000D01*
X124599309Y-74750000D01*
X124832698Y-74653327D01*
X124973936Y-74512090D01*
X125008910Y-74566441D01*
X125221110Y-74711431D01*
X125473000Y-74762440D01*
X126973000Y-74762440D01*
X127208317Y-74718162D01*
X127375153Y-74610806D01*
X127439910Y-74711441D01*
X127508006Y-74757969D01*
X127365673Y-74900302D01*
X127269000Y-75133691D01*
X127269000Y-75724250D01*
X127427750Y-75883000D01*
X128402000Y-75883000D01*
X128402000Y-75863000D01*
X128656000Y-75863000D01*
X128656000Y-75883000D01*
X129630250Y-75883000D01*
X129789000Y-75724250D01*
X129789000Y-75133691D01*
X129692327Y-74900302D01*
X129551090Y-74759064D01*
X129605441Y-74724090D01*
X129648204Y-74661504D01*
X129776667Y-74790192D01*
X130120195Y-74932838D01*
X130492161Y-74933162D01*
X130835937Y-74791117D01*
X130905976Y-74721200D01*
X133404012Y-74721200D01*
X131028416Y-77096796D01*
X129701813Y-77096796D01*
X129789000Y-76886309D01*
X129789000Y-76295750D01*
X129630250Y-76137000D01*
X128656000Y-76137000D01*
X128656000Y-76157000D01*
X128402000Y-76157000D01*
X128402000Y-76137000D01*
X127427750Y-76137000D01*
X127269000Y-76295750D01*
X127269000Y-76886309D01*
X127351938Y-77086538D01*
X127281327Y-77015804D01*
X126937799Y-76873158D01*
X126565833Y-76872834D01*
X126222057Y-77014879D01*
X125958808Y-77277669D01*
X125816162Y-77621197D01*
X125815920Y-77899132D01*
X125400064Y-77483276D01*
X125400164Y-77368835D01*
X125258119Y-77025059D01*
X124995329Y-76761810D01*
X124651801Y-76619164D01*
X124279835Y-76618840D01*
X123936059Y-76760885D01*
X123672810Y-77023675D01*
X123530164Y-77367203D01*
X123529840Y-77739169D01*
X123671885Y-78082945D01*
X123934675Y-78346194D01*
X124278203Y-78488840D01*
X124394153Y-78488941D01*
X126014708Y-80109496D01*
X126245437Y-80263665D01*
X126282323Y-80271002D01*
X126517602Y-80317802D01*
X130540398Y-80317802D01*
X130812563Y-80263665D01*
X131043292Y-80109496D01*
X132069992Y-79082796D01*
X132069992Y-85094850D01*
X130637641Y-86527201D01*
X128011000Y-86527201D01*
X128011000Y-85967750D01*
X127852250Y-85809000D01*
X126878000Y-85809000D01*
X126878000Y-85829000D01*
X126624000Y-85829000D01*
X126624000Y-85809000D01*
X125649750Y-85809000D01*
X125619500Y-85839250D01*
X125589250Y-85809000D01*
X124190000Y-85809000D01*
X124190000Y-85829000D01*
X123936000Y-85829000D01*
X123936000Y-85809000D01*
X123916000Y-85809000D01*
X123916000Y-85555000D01*
X123936000Y-85555000D01*
X123936000Y-85535000D01*
X124190000Y-85535000D01*
X124190000Y-85555000D01*
X125589250Y-85555000D01*
X125619500Y-85524750D01*
X125649750Y-85555000D01*
X126624000Y-85555000D01*
X126624000Y-85535000D01*
X126878000Y-85535000D01*
X126878000Y-85555000D01*
X127852250Y-85555000D01*
X128011000Y-85396250D01*
X128011000Y-84805691D01*
X127914327Y-84572302D01*
X127773090Y-84431064D01*
X127827441Y-84396090D01*
X127972431Y-84183890D01*
X128023440Y-83932000D01*
X128023440Y-82432000D01*
X127979162Y-82196683D01*
X127840090Y-81980559D01*
X127627890Y-81835569D01*
X127376000Y-81784560D01*
X126126000Y-81784560D01*
X125890683Y-81828838D01*
X125674559Y-81967910D01*
X125603602Y-82071759D01*
X125577090Y-82030559D01*
X125364890Y-81885569D01*
X125113000Y-81834560D01*
X124698952Y-81834560D01*
X124601815Y-81689184D01*
X124278814Y-81366184D01*
X124205087Y-81316921D01*
X124031604Y-81201003D01*
X123739999Y-81142999D01*
X120497440Y-81142999D01*
X120497440Y-79710000D01*
X120490957Y-79675546D01*
X120525000Y-79682440D01*
X122025000Y-79682440D01*
X122260317Y-79638162D01*
X122476441Y-79499090D01*
X122621431Y-79286890D01*
X122672440Y-79035000D01*
X122672440Y-78485000D01*
X122648056Y-78355411D01*
X122672440Y-78235000D01*
X122672440Y-77685000D01*
X122648056Y-77555411D01*
X122672440Y-77435000D01*
X122672440Y-76885000D01*
X122648056Y-76755411D01*
X122672440Y-76635000D01*
X122672440Y-76085000D01*
X122648056Y-75955411D01*
X122672440Y-75835000D01*
X122672440Y-75285000D01*
X122648056Y-75155411D01*
X122672440Y-75035000D01*
X122672440Y-74677823D01*
X122846691Y-74750000D01*
X123437250Y-74750000D01*
X123596000Y-74591250D01*
X123596000Y-73617000D01*
X123576000Y-73617000D01*
X123576000Y-73363000D01*
X123596000Y-73363000D01*
X123596000Y-73343000D01*
X123850000Y-73343000D01*
X123850000Y-73363000D01*
X123850000Y-73363000D01*
G37*
X123850000Y-73363000D02*
X123870000Y-73363000D01*
X123870000Y-73617000D01*
X123850000Y-73617000D01*
X123850000Y-74591250D01*
X124008750Y-74750000D01*
X124599309Y-74750000D01*
X124832698Y-74653327D01*
X124973936Y-74512090D01*
X125008910Y-74566441D01*
X125221110Y-74711431D01*
X125473000Y-74762440D01*
X126973000Y-74762440D01*
X127208317Y-74718162D01*
X127375153Y-74610806D01*
X127439910Y-74711441D01*
X127508006Y-74757969D01*
X127365673Y-74900302D01*
X127269000Y-75133691D01*
X127269000Y-75724250D01*
X127427750Y-75883000D01*
X128402000Y-75883000D01*
X128402000Y-75863000D01*
X128656000Y-75863000D01*
X128656000Y-75883000D01*
X129630250Y-75883000D01*
X129789000Y-75724250D01*
X129789000Y-75133691D01*
X129692327Y-74900302D01*
X129551090Y-74759064D01*
X129605441Y-74724090D01*
X129648204Y-74661504D01*
X129776667Y-74790192D01*
X130120195Y-74932838D01*
X130492161Y-74933162D01*
X130835937Y-74791117D01*
X130905976Y-74721200D01*
X133404012Y-74721200D01*
X131028416Y-77096796D01*
X129701813Y-77096796D01*
X129789000Y-76886309D01*
X129789000Y-76295750D01*
X129630250Y-76137000D01*
X128656000Y-76137000D01*
X128656000Y-76157000D01*
X128402000Y-76157000D01*
X128402000Y-76137000D01*
X127427750Y-76137000D01*
X127269000Y-76295750D01*
X127269000Y-76886309D01*
X127351938Y-77086538D01*
X127281327Y-77015804D01*
X126937799Y-76873158D01*
X126565833Y-76872834D01*
X126222057Y-77014879D01*
X125958808Y-77277669D01*
X125816162Y-77621197D01*
X125815920Y-77899132D01*
X125400064Y-77483276D01*
X125400164Y-77368835D01*
X125258119Y-77025059D01*
X124995329Y-76761810D01*
X124651801Y-76619164D01*
X124279835Y-76618840D01*
X123936059Y-76760885D01*
X123672810Y-77023675D01*
X123530164Y-77367203D01*
X123529840Y-77739169D01*
X123671885Y-78082945D01*
X123934675Y-78346194D01*
X124278203Y-78488840D01*
X124394153Y-78488941D01*
X126014708Y-80109496D01*
X126245437Y-80263665D01*
X126282323Y-80271002D01*
X126517602Y-80317802D01*
X130540398Y-80317802D01*
X130812563Y-80263665D01*
X131043292Y-80109496D01*
X132069992Y-79082796D01*
X132069992Y-85094850D01*
X130637641Y-86527201D01*
X128011000Y-86527201D01*
X128011000Y-85967750D01*
X127852250Y-85809000D01*
X126878000Y-85809000D01*
X126878000Y-85829000D01*
X126624000Y-85829000D01*
X126624000Y-85809000D01*
X125649750Y-85809000D01*
X125619500Y-85839250D01*
X125589250Y-85809000D01*
X124190000Y-85809000D01*
X124190000Y-85829000D01*
X123936000Y-85829000D01*
X123936000Y-85809000D01*
X123916000Y-85809000D01*
X123916000Y-85555000D01*
X123936000Y-85555000D01*
X123936000Y-85535000D01*
X124190000Y-85535000D01*
X124190000Y-85555000D01*
X125589250Y-85555000D01*
X125619500Y-85524750D01*
X125649750Y-85555000D01*
X126624000Y-85555000D01*
X126624000Y-85535000D01*
X126878000Y-85535000D01*
X126878000Y-85555000D01*
X127852250Y-85555000D01*
X128011000Y-85396250D01*
X128011000Y-84805691D01*
X127914327Y-84572302D01*
X127773090Y-84431064D01*
X127827441Y-84396090D01*
X127972431Y-84183890D01*
X128023440Y-83932000D01*
X128023440Y-82432000D01*
X127979162Y-82196683D01*
X127840090Y-81980559D01*
X127627890Y-81835569D01*
X127376000Y-81784560D01*
X126126000Y-81784560D01*
X125890683Y-81828838D01*
X125674559Y-81967910D01*
X125603602Y-82071759D01*
X125577090Y-82030559D01*
X125364890Y-81885569D01*
X125113000Y-81834560D01*
X124698952Y-81834560D01*
X124601815Y-81689184D01*
X124278814Y-81366184D01*
X124205087Y-81316921D01*
X124031604Y-81201003D01*
X123739999Y-81142999D01*
X120497440Y-81142999D01*
X120497440Y-79710000D01*
X120490957Y-79675546D01*
X120525000Y-79682440D01*
X122025000Y-79682440D01*
X122260317Y-79638162D01*
X122476441Y-79499090D01*
X122621431Y-79286890D01*
X122672440Y-79035000D01*
X122672440Y-78485000D01*
X122648056Y-78355411D01*
X122672440Y-78235000D01*
X122672440Y-77685000D01*
X122648056Y-77555411D01*
X122672440Y-77435000D01*
X122672440Y-76885000D01*
X122648056Y-76755411D01*
X122672440Y-76635000D01*
X122672440Y-76085000D01*
X122648056Y-75955411D01*
X122672440Y-75835000D01*
X122672440Y-75285000D01*
X122648056Y-75155411D01*
X122672440Y-75035000D01*
X122672440Y-74677823D01*
X122846691Y-74750000D01*
X123437250Y-74750000D01*
X123596000Y-74591250D01*
X123596000Y-73617000D01*
X123576000Y-73617000D01*
X123576000Y-73363000D01*
X123596000Y-73363000D01*
X123596000Y-73343000D01*
X123850000Y-73343000D01*
X123850000Y-73363000D01*
G36*
X114149583Y-84523816D02*
X114315000Y-84634344D01*
X114315000Y-85122250D01*
X114473750Y-85281000D01*
X115448000Y-85281000D01*
X115448000Y-85261000D01*
X115702000Y-85261000D01*
X115702000Y-85281000D01*
X115722000Y-85281000D01*
X115722000Y-85535000D01*
X115702000Y-85535000D01*
X115702000Y-85555000D01*
X115448000Y-85555000D01*
X115448000Y-85535000D01*
X114473750Y-85535000D01*
X114315000Y-85693750D01*
X114315000Y-85923001D01*
X113937000Y-85923001D01*
X113937000Y-84311233D01*
X114149583Y-84523816D01*
X114149583Y-84523816D01*
G37*
X114149583Y-84523816D02*
X114315000Y-84634344D01*
X114315000Y-85122250D01*
X114473750Y-85281000D01*
X115448000Y-85281000D01*
X115448000Y-85261000D01*
X115702000Y-85261000D01*
X115702000Y-85281000D01*
X115722000Y-85281000D01*
X115722000Y-85535000D01*
X115702000Y-85535000D01*
X115702000Y-85555000D01*
X115448000Y-85555000D01*
X115448000Y-85535000D01*
X114473750Y-85535000D01*
X114315000Y-85693750D01*
X114315000Y-85923001D01*
X113937000Y-85923001D01*
X113937000Y-84311233D01*
X114149583Y-84523816D01*
G36*
X105288000Y-83757000D02*
X105308000Y-83757000D01*
X105308000Y-84011000D01*
X105288000Y-84011000D01*
X105288000Y-84031000D01*
X105034000Y-84031000D01*
X105034000Y-84011000D01*
X105014000Y-84011000D01*
X105014000Y-83757000D01*
X105034000Y-83757000D01*
X105034000Y-83737000D01*
X105288000Y-83737000D01*
X105288000Y-83757000D01*
X105288000Y-83757000D01*
G37*
X105288000Y-83757000D02*
X105308000Y-83757000D01*
X105308000Y-84011000D01*
X105288000Y-84011000D01*
X105288000Y-84031000D01*
X105034000Y-84031000D01*
X105034000Y-84011000D01*
X105014000Y-84011000D01*
X105014000Y-83757000D01*
X105034000Y-83757000D01*
X105034000Y-83737000D01*
X105288000Y-83737000D01*
X105288000Y-83757000D01*
G36*
X104071910Y-82585441D02*
X104140006Y-82631969D01*
X103997673Y-82774302D01*
X103901000Y-83007691D01*
X103901000Y-83598250D01*
X104059748Y-83756998D01*
X103901000Y-83756998D01*
X103901000Y-83871038D01*
X103657003Y-83708004D01*
X103365398Y-83650000D01*
X102524000Y-83650000D01*
X102815605Y-83591996D01*
X103062815Y-83426815D01*
X104006241Y-82483389D01*
X104071910Y-82585441D01*
X104071910Y-82585441D01*
G37*
X104071910Y-82585441D02*
X104140006Y-82631969D01*
X103997673Y-82774302D01*
X103901000Y-83007691D01*
X103901000Y-83598250D01*
X104059748Y-83756998D01*
X103901000Y-83756998D01*
X103901000Y-83871038D01*
X103657003Y-83708004D01*
X103365398Y-83650000D01*
X102524000Y-83650000D01*
X102815605Y-83591996D01*
X103062815Y-83426815D01*
X104006241Y-82483389D01*
X104071910Y-82585441D01*
G36*
X90646185Y-79870815D02*
X90893395Y-80035996D01*
X91071806Y-80071484D01*
X91089838Y-80167317D01*
X91193592Y-80328555D01*
X91096569Y-80470553D01*
X91045560Y-80722443D01*
X91045560Y-81922443D01*
X91089838Y-82157760D01*
X91228910Y-82373884D01*
X91441110Y-82518874D01*
X91531000Y-82537077D01*
X91531000Y-83195042D01*
X91457683Y-83208838D01*
X91241559Y-83347910D01*
X91096569Y-83560110D01*
X91055334Y-83763735D01*
X91055334Y-83562732D01*
X90997330Y-83271127D01*
X90955150Y-83208000D01*
X90832149Y-83023916D01*
X87536416Y-79728184D01*
X87509202Y-79710000D01*
X87371000Y-79617656D01*
X87371000Y-79129750D01*
X87212250Y-78971000D01*
X86238000Y-78971000D01*
X86238000Y-78991000D01*
X85984000Y-78991000D01*
X85984000Y-78971000D01*
X85009750Y-78971000D01*
X84851000Y-79129750D01*
X84851000Y-79504999D01*
X83072012Y-79504999D01*
X83090440Y-79414000D01*
X83090440Y-77967691D01*
X84851000Y-77967691D01*
X84851000Y-78558250D01*
X85009750Y-78717000D01*
X85984000Y-78717000D01*
X85984000Y-77617750D01*
X86238000Y-77617750D01*
X86238000Y-78717000D01*
X87212250Y-78717000D01*
X87371000Y-78558250D01*
X87371000Y-77967691D01*
X87274327Y-77734302D01*
X87095699Y-77555673D01*
X86862310Y-77459000D01*
X86396750Y-77459000D01*
X86238000Y-77617750D01*
X85984000Y-77617750D01*
X85825250Y-77459000D01*
X85359690Y-77459000D01*
X85126301Y-77555673D01*
X84947673Y-77734302D01*
X84851000Y-77967691D01*
X83090440Y-77967691D01*
X83090440Y-77914000D01*
X83046162Y-77678683D01*
X82907090Y-77462559D01*
X82694890Y-77317569D01*
X82649000Y-77308276D01*
X82649000Y-77046000D01*
X87821370Y-77046000D01*
X90646185Y-79870815D01*
X90646185Y-79870815D01*
G37*
X90646185Y-79870815D02*
X90893395Y-80035996D01*
X91071806Y-80071484D01*
X91089838Y-80167317D01*
X91193592Y-80328555D01*
X91096569Y-80470553D01*
X91045560Y-80722443D01*
X91045560Y-81922443D01*
X91089838Y-82157760D01*
X91228910Y-82373884D01*
X91441110Y-82518874D01*
X91531000Y-82537077D01*
X91531000Y-83195042D01*
X91457683Y-83208838D01*
X91241559Y-83347910D01*
X91096569Y-83560110D01*
X91055334Y-83763735D01*
X91055334Y-83562732D01*
X90997330Y-83271127D01*
X90955150Y-83208000D01*
X90832149Y-83023916D01*
X87536416Y-79728184D01*
X87509202Y-79710000D01*
X87371000Y-79617656D01*
X87371000Y-79129750D01*
X87212250Y-78971000D01*
X86238000Y-78971000D01*
X86238000Y-78991000D01*
X85984000Y-78991000D01*
X85984000Y-78971000D01*
X85009750Y-78971000D01*
X84851000Y-79129750D01*
X84851000Y-79504999D01*
X83072012Y-79504999D01*
X83090440Y-79414000D01*
X83090440Y-77967691D01*
X84851000Y-77967691D01*
X84851000Y-78558250D01*
X85009750Y-78717000D01*
X85984000Y-78717000D01*
X85984000Y-77617750D01*
X86238000Y-77617750D01*
X86238000Y-78717000D01*
X87212250Y-78717000D01*
X87371000Y-78558250D01*
X87371000Y-77967691D01*
X87274327Y-77734302D01*
X87095699Y-77555673D01*
X86862310Y-77459000D01*
X86396750Y-77459000D01*
X86238000Y-77617750D01*
X85984000Y-77617750D01*
X85825250Y-77459000D01*
X85359690Y-77459000D01*
X85126301Y-77555673D01*
X84947673Y-77734302D01*
X84851000Y-77967691D01*
X83090440Y-77967691D01*
X83090440Y-77914000D01*
X83046162Y-77678683D01*
X82907090Y-77462559D01*
X82694890Y-77317569D01*
X82649000Y-77308276D01*
X82649000Y-77046000D01*
X87821370Y-77046000D01*
X90646185Y-79870815D01*
G36*
X121290000Y-83255000D02*
X121310000Y-83255000D01*
X121310000Y-83509000D01*
X121290000Y-83509000D01*
X121290000Y-83529000D01*
X121036000Y-83529000D01*
X121036000Y-83509000D01*
X121016000Y-83509000D01*
X121016000Y-83255000D01*
X121036000Y-83255000D01*
X121036000Y-83235000D01*
X121290000Y-83235000D01*
X121290000Y-83255000D01*
X121290000Y-83255000D01*
G37*
X121290000Y-83255000D02*
X121310000Y-83255000D01*
X121310000Y-83509000D01*
X121290000Y-83509000D01*
X121290000Y-83529000D01*
X121036000Y-83529000D01*
X121036000Y-83509000D01*
X121016000Y-83509000D01*
X121016000Y-83255000D01*
X121036000Y-83255000D01*
X121036000Y-83235000D01*
X121290000Y-83235000D01*
X121290000Y-83255000D01*
G36*
X118496000Y-83055000D02*
X118516000Y-83055000D01*
X118516000Y-83309000D01*
X118496000Y-83309000D01*
X118496000Y-83329000D01*
X118242000Y-83329000D01*
X118242000Y-83309000D01*
X118222000Y-83309000D01*
X118222000Y-83055000D01*
X118242000Y-83055000D01*
X118242000Y-83035000D01*
X118496000Y-83035000D01*
X118496000Y-83055000D01*
X118496000Y-83055000D01*
G37*
X118496000Y-83055000D02*
X118516000Y-83055000D01*
X118516000Y-83309000D01*
X118496000Y-83309000D01*
X118496000Y-83329000D01*
X118242000Y-83329000D01*
X118242000Y-83309000D01*
X118222000Y-83309000D01*
X118222000Y-83055000D01*
X118242000Y-83055000D01*
X118242000Y-83035000D01*
X118496000Y-83035000D01*
X118496000Y-83055000D01*
G36*
X108768397Y-76359884D02*
X108706053Y-76400001D01*
X108378999Y-76400001D01*
X108087394Y-76458005D01*
X107911394Y-76575605D01*
X107840184Y-76623186D01*
X104622185Y-79841185D01*
X104523473Y-79988917D01*
X104300683Y-80030838D01*
X104084559Y-80169910D01*
X103939569Y-80382110D01*
X103888560Y-80634000D01*
X103888560Y-80649736D01*
X103778625Y-80671604D01*
X103736395Y-80680004D01*
X103489184Y-80845185D01*
X102208370Y-82126000D01*
X100947759Y-82126000D01*
X100970440Y-82014000D01*
X100970440Y-81999952D01*
X101115815Y-81902815D01*
X106698632Y-76319999D01*
X108710024Y-76319999D01*
X108768397Y-76359884D01*
X108768397Y-76359884D01*
G37*
X108768397Y-76359884D02*
X108706053Y-76400001D01*
X108378999Y-76400001D01*
X108087394Y-76458005D01*
X107911394Y-76575605D01*
X107840184Y-76623186D01*
X104622185Y-79841185D01*
X104523473Y-79988917D01*
X104300683Y-80030838D01*
X104084559Y-80169910D01*
X103939569Y-80382110D01*
X103888560Y-80634000D01*
X103888560Y-80649736D01*
X103778625Y-80671604D01*
X103736395Y-80680004D01*
X103489184Y-80845185D01*
X102208370Y-82126000D01*
X100947759Y-82126000D01*
X100970440Y-82014000D01*
X100970440Y-81999952D01*
X101115815Y-81902815D01*
X106698632Y-76319999D01*
X108710024Y-76319999D01*
X108768397Y-76359884D01*
G36*
X112900000Y-70457440D02*
X113255922Y-70457440D01*
X113269003Y-70523205D01*
X113434184Y-70770416D01*
X115290185Y-72626418D01*
X115290188Y-72626420D01*
X115562583Y-72898815D01*
X115809793Y-73063996D01*
X116101398Y-73122000D01*
X120112952Y-73122000D01*
X120168397Y-73159884D01*
X120073559Y-73220910D01*
X119984505Y-73351245D01*
X119890000Y-73445750D01*
X119890000Y-73561310D01*
X119898468Y-73581753D01*
X119877560Y-73685000D01*
X119877560Y-74235000D01*
X119901944Y-74364589D01*
X119877560Y-74485000D01*
X119877560Y-75035000D01*
X119901944Y-75164589D01*
X119877560Y-75285000D01*
X119877560Y-75835000D01*
X119901944Y-75964589D01*
X119877560Y-76085000D01*
X119877560Y-76635000D01*
X119901944Y-76764589D01*
X119877560Y-76885000D01*
X119877560Y-77435000D01*
X119901944Y-77564589D01*
X119877560Y-77685000D01*
X119877560Y-78235000D01*
X119901944Y-78364589D01*
X119877560Y-78485000D01*
X119877560Y-79035000D01*
X119884043Y-79069454D01*
X119850000Y-79062560D01*
X119300000Y-79062560D01*
X119170411Y-79086944D01*
X119050000Y-79062560D01*
X118500000Y-79062560D01*
X118370411Y-79086944D01*
X118250000Y-79062560D01*
X117700000Y-79062560D01*
X117570411Y-79086944D01*
X117450000Y-79062560D01*
X116900000Y-79062560D01*
X116770411Y-79086944D01*
X116650000Y-79062560D01*
X116294079Y-79062560D01*
X116280997Y-78996794D01*
X116115816Y-78749584D01*
X113989418Y-76623186D01*
X113918208Y-76575605D01*
X113742208Y-76458005D01*
X113450603Y-76400001D01*
X111039976Y-76400001D01*
X110981603Y-76360116D01*
X111076441Y-76299090D01*
X111165495Y-76168755D01*
X111260000Y-76074250D01*
X111260000Y-75958690D01*
X111251532Y-75938247D01*
X111272440Y-75835000D01*
X111272440Y-75285000D01*
X111248056Y-75155411D01*
X111272440Y-75035000D01*
X111272440Y-74485000D01*
X111248056Y-74355411D01*
X111272440Y-74235000D01*
X111272440Y-73685000D01*
X111248056Y-73555411D01*
X111272440Y-73435000D01*
X111272440Y-72885000D01*
X111248056Y-72755411D01*
X111272440Y-72635000D01*
X111272440Y-72085000D01*
X111248056Y-71955411D01*
X111272440Y-71835000D01*
X111272440Y-71285000D01*
X111248056Y-71155411D01*
X111272440Y-71035000D01*
X111272440Y-70485000D01*
X111265957Y-70450546D01*
X111300000Y-70457440D01*
X111850000Y-70457440D01*
X111979589Y-70433056D01*
X112100000Y-70457440D01*
X112650000Y-70457440D01*
X112779589Y-70433056D01*
X112900000Y-70457440D01*
X112900000Y-70457440D01*
G37*
X112900000Y-70457440D02*
X113255922Y-70457440D01*
X113269003Y-70523205D01*
X113434184Y-70770416D01*
X115290185Y-72626418D01*
X115290188Y-72626420D01*
X115562583Y-72898815D01*
X115809793Y-73063996D01*
X116101398Y-73122000D01*
X120112952Y-73122000D01*
X120168397Y-73159884D01*
X120073559Y-73220910D01*
X119984505Y-73351245D01*
X119890000Y-73445750D01*
X119890000Y-73561310D01*
X119898468Y-73581753D01*
X119877560Y-73685000D01*
X119877560Y-74235000D01*
X119901944Y-74364589D01*
X119877560Y-74485000D01*
X119877560Y-75035000D01*
X119901944Y-75164589D01*
X119877560Y-75285000D01*
X119877560Y-75835000D01*
X119901944Y-75964589D01*
X119877560Y-76085000D01*
X119877560Y-76635000D01*
X119901944Y-76764589D01*
X119877560Y-76885000D01*
X119877560Y-77435000D01*
X119901944Y-77564589D01*
X119877560Y-77685000D01*
X119877560Y-78235000D01*
X119901944Y-78364589D01*
X119877560Y-78485000D01*
X119877560Y-79035000D01*
X119884043Y-79069454D01*
X119850000Y-79062560D01*
X119300000Y-79062560D01*
X119170411Y-79086944D01*
X119050000Y-79062560D01*
X118500000Y-79062560D01*
X118370411Y-79086944D01*
X118250000Y-79062560D01*
X117700000Y-79062560D01*
X117570411Y-79086944D01*
X117450000Y-79062560D01*
X116900000Y-79062560D01*
X116770411Y-79086944D01*
X116650000Y-79062560D01*
X116294079Y-79062560D01*
X116280997Y-78996794D01*
X116115816Y-78749584D01*
X113989418Y-76623186D01*
X113918208Y-76575605D01*
X113742208Y-76458005D01*
X113450603Y-76400001D01*
X111039976Y-76400001D01*
X110981603Y-76360116D01*
X111076441Y-76299090D01*
X111165495Y-76168755D01*
X111260000Y-76074250D01*
X111260000Y-75958690D01*
X111251532Y-75938247D01*
X111272440Y-75835000D01*
X111272440Y-75285000D01*
X111248056Y-75155411D01*
X111272440Y-75035000D01*
X111272440Y-74485000D01*
X111248056Y-74355411D01*
X111272440Y-74235000D01*
X111272440Y-73685000D01*
X111248056Y-73555411D01*
X111272440Y-73435000D01*
X111272440Y-72885000D01*
X111248056Y-72755411D01*
X111272440Y-72635000D01*
X111272440Y-72085000D01*
X111248056Y-71955411D01*
X111272440Y-71835000D01*
X111272440Y-71285000D01*
X111248056Y-71155411D01*
X111272440Y-71035000D01*
X111272440Y-70485000D01*
X111265957Y-70450546D01*
X111300000Y-70457440D01*
X111850000Y-70457440D01*
X111979589Y-70433056D01*
X112100000Y-70457440D01*
X112650000Y-70457440D01*
X112779589Y-70433056D01*
X112900000Y-70457440D01*
G36*
X114279507Y-79068535D02*
X114250000Y-79062560D01*
X113700000Y-79062560D01*
X113570411Y-79086944D01*
X113450000Y-79062560D01*
X112900000Y-79062560D01*
X112770411Y-79086944D01*
X112650000Y-79062560D01*
X112100000Y-79062560D01*
X111970411Y-79086944D01*
X111850000Y-79062560D01*
X111300000Y-79062560D01*
X111265546Y-79069043D01*
X111272440Y-79035000D01*
X111272440Y-78485000D01*
X111248056Y-78355411D01*
X111272440Y-78235000D01*
X111272440Y-77924001D01*
X113134973Y-77924001D01*
X114279507Y-79068535D01*
X114279507Y-79068535D01*
G37*
X114279507Y-79068535D02*
X114250000Y-79062560D01*
X113700000Y-79062560D01*
X113570411Y-79086944D01*
X113450000Y-79062560D01*
X112900000Y-79062560D01*
X112770411Y-79086944D01*
X112650000Y-79062560D01*
X112100000Y-79062560D01*
X111970411Y-79086944D01*
X111850000Y-79062560D01*
X111300000Y-79062560D01*
X111265546Y-79069043D01*
X111272440Y-79035000D01*
X111272440Y-78485000D01*
X111248056Y-78355411D01*
X111272440Y-78235000D01*
X111272440Y-77924001D01*
X113134973Y-77924001D01*
X114279507Y-79068535D01*
G36*
X86060559Y-69550910D02*
X85915569Y-69763110D01*
X85864560Y-70015000D01*
X85864560Y-70615000D01*
X85908838Y-70850317D01*
X85972678Y-70949528D01*
X85915569Y-71033110D01*
X85864560Y-71285000D01*
X85864560Y-71885000D01*
X85908838Y-72120317D01*
X85972678Y-72219528D01*
X85915569Y-72303110D01*
X85864560Y-72555000D01*
X85864560Y-73155000D01*
X85908838Y-73390317D01*
X85972678Y-73489528D01*
X85915569Y-73573110D01*
X85864560Y-73825000D01*
X85864560Y-74425000D01*
X85908838Y-74660317D01*
X86047910Y-74876441D01*
X86260110Y-75021431D01*
X86512000Y-75072440D01*
X88062000Y-75072440D01*
X88297317Y-75028162D01*
X88513441Y-74889090D01*
X88627609Y-74722000D01*
X104109369Y-74722000D01*
X100676425Y-78154945D01*
X100574890Y-78085569D01*
X100323000Y-78034560D01*
X98823000Y-78034560D01*
X98587683Y-78078838D01*
X98371559Y-78217910D01*
X98226569Y-78430110D01*
X98223919Y-78443197D01*
X98087090Y-78230559D01*
X97874890Y-78085569D01*
X97623000Y-78034560D01*
X96123000Y-78034560D01*
X95887683Y-78078838D01*
X95671559Y-78217910D01*
X95591847Y-78334573D01*
X95557090Y-78280559D01*
X95344890Y-78135569D01*
X95093000Y-78084560D01*
X93893000Y-78084560D01*
X93657683Y-78128838D01*
X93441559Y-78267910D01*
X93393866Y-78337711D01*
X93357090Y-78280559D01*
X93144890Y-78135569D01*
X92893000Y-78084560D01*
X91693000Y-78084560D01*
X91457683Y-78128838D01*
X91241559Y-78267910D01*
X91224097Y-78293467D01*
X88675815Y-75745185D01*
X88660939Y-75735245D01*
X88428605Y-75580004D01*
X88137000Y-75522000D01*
X82649000Y-75522000D01*
X82649000Y-75072440D01*
X82662000Y-75072440D01*
X82897317Y-75028162D01*
X83113441Y-74889090D01*
X83114869Y-74887000D01*
X83170000Y-74887000D01*
X83461605Y-74828996D01*
X83708815Y-74663815D01*
X85379815Y-72992815D01*
X85459038Y-72874250D01*
X85544996Y-72745605D01*
X85603000Y-72454000D01*
X85603000Y-69426000D01*
X86254675Y-69426000D01*
X86060559Y-69550910D01*
X86060559Y-69550910D01*
G37*
X86060559Y-69550910D02*
X85915569Y-69763110D01*
X85864560Y-70015000D01*
X85864560Y-70615000D01*
X85908838Y-70850317D01*
X85972678Y-70949528D01*
X85915569Y-71033110D01*
X85864560Y-71285000D01*
X85864560Y-71885000D01*
X85908838Y-72120317D01*
X85972678Y-72219528D01*
X85915569Y-72303110D01*
X85864560Y-72555000D01*
X85864560Y-73155000D01*
X85908838Y-73390317D01*
X85972678Y-73489528D01*
X85915569Y-73573110D01*
X85864560Y-73825000D01*
X85864560Y-74425000D01*
X85908838Y-74660317D01*
X86047910Y-74876441D01*
X86260110Y-75021431D01*
X86512000Y-75072440D01*
X88062000Y-75072440D01*
X88297317Y-75028162D01*
X88513441Y-74889090D01*
X88627609Y-74722000D01*
X104109369Y-74722000D01*
X100676425Y-78154945D01*
X100574890Y-78085569D01*
X100323000Y-78034560D01*
X98823000Y-78034560D01*
X98587683Y-78078838D01*
X98371559Y-78217910D01*
X98226569Y-78430110D01*
X98223919Y-78443197D01*
X98087090Y-78230559D01*
X97874890Y-78085569D01*
X97623000Y-78034560D01*
X96123000Y-78034560D01*
X95887683Y-78078838D01*
X95671559Y-78217910D01*
X95591847Y-78334573D01*
X95557090Y-78280559D01*
X95344890Y-78135569D01*
X95093000Y-78084560D01*
X93893000Y-78084560D01*
X93657683Y-78128838D01*
X93441559Y-78267910D01*
X93393866Y-78337711D01*
X93357090Y-78280559D01*
X93144890Y-78135569D01*
X92893000Y-78084560D01*
X91693000Y-78084560D01*
X91457683Y-78128838D01*
X91241559Y-78267910D01*
X91224097Y-78293467D01*
X88675815Y-75745185D01*
X88660939Y-75735245D01*
X88428605Y-75580004D01*
X88137000Y-75522000D01*
X82649000Y-75522000D01*
X82649000Y-75072440D01*
X82662000Y-75072440D01*
X82897317Y-75028162D01*
X83113441Y-74889090D01*
X83114869Y-74887000D01*
X83170000Y-74887000D01*
X83461605Y-74828996D01*
X83708815Y-74663815D01*
X85379815Y-72992815D01*
X85459038Y-72874250D01*
X85544996Y-72745605D01*
X85603000Y-72454000D01*
X85603000Y-69426000D01*
X86254675Y-69426000D01*
X86060559Y-69550910D01*
G36*
X161930000Y-68778236D02*
X161930000Y-75407764D01*
X160418764Y-76919000D01*
X160137839Y-76919000D01*
X159760707Y-76667009D01*
X159288093Y-76573000D01*
X158729907Y-76573000D01*
X158257293Y-76667009D01*
X157856630Y-76934723D01*
X157588916Y-77335386D01*
X157494907Y-77808000D01*
X157547617Y-78072990D01*
X153780148Y-78072990D01*
X150662025Y-74954867D01*
X150407353Y-74784701D01*
X150137716Y-74731067D01*
X151459727Y-73409056D01*
X151574167Y-73409156D01*
X151917943Y-73267111D01*
X152181192Y-73004321D01*
X152323838Y-72660793D01*
X152324162Y-72288827D01*
X152182117Y-71945051D01*
X151919327Y-71681802D01*
X151575799Y-71539156D01*
X151203833Y-71538832D01*
X150860057Y-71680877D01*
X150596808Y-71943667D01*
X150454162Y-72287195D01*
X150454061Y-72403144D01*
X148558406Y-74298800D01*
X146864358Y-74298800D01*
X149682158Y-71481000D01*
X157840409Y-71481000D01*
X157841074Y-71481996D01*
X157707559Y-71567910D01*
X157562569Y-71780110D01*
X157511560Y-72032000D01*
X157511560Y-73232000D01*
X157555838Y-73467317D01*
X157694910Y-73683441D01*
X157907110Y-73828431D01*
X158159000Y-73879440D01*
X159859000Y-73879440D01*
X160094317Y-73835162D01*
X160310441Y-73696090D01*
X160455431Y-73483890D01*
X160506440Y-73232000D01*
X160506440Y-72494718D01*
X160764089Y-72237069D01*
X160934255Y-71982397D01*
X160994010Y-71681990D01*
X160994010Y-68238493D01*
X160978714Y-68161593D01*
X160934255Y-67938086D01*
X160764089Y-67683414D01*
X160601675Y-67521000D01*
X160672764Y-67521000D01*
X161930000Y-68778236D01*
X161930000Y-68778236D01*
G37*
X161930000Y-68778236D02*
X161930000Y-75407764D01*
X160418764Y-76919000D01*
X160137839Y-76919000D01*
X159760707Y-76667009D01*
X159288093Y-76573000D01*
X158729907Y-76573000D01*
X158257293Y-76667009D01*
X157856630Y-76934723D01*
X157588916Y-77335386D01*
X157494907Y-77808000D01*
X157547617Y-78072990D01*
X153780148Y-78072990D01*
X150662025Y-74954867D01*
X150407353Y-74784701D01*
X150137716Y-74731067D01*
X151459727Y-73409056D01*
X151574167Y-73409156D01*
X151917943Y-73267111D01*
X152181192Y-73004321D01*
X152323838Y-72660793D01*
X152324162Y-72288827D01*
X152182117Y-71945051D01*
X151919327Y-71681802D01*
X151575799Y-71539156D01*
X151203833Y-71538832D01*
X150860057Y-71680877D01*
X150596808Y-71943667D01*
X150454162Y-72287195D01*
X150454061Y-72403144D01*
X148558406Y-74298800D01*
X146864358Y-74298800D01*
X149682158Y-71481000D01*
X157840409Y-71481000D01*
X157841074Y-71481996D01*
X157707559Y-71567910D01*
X157562569Y-71780110D01*
X157511560Y-72032000D01*
X157511560Y-73232000D01*
X157555838Y-73467317D01*
X157694910Y-73683441D01*
X157907110Y-73828431D01*
X158159000Y-73879440D01*
X159859000Y-73879440D01*
X160094317Y-73835162D01*
X160310441Y-73696090D01*
X160455431Y-73483890D01*
X160506440Y-73232000D01*
X160506440Y-72494718D01*
X160764089Y-72237069D01*
X160934255Y-71982397D01*
X160994010Y-71681990D01*
X160994010Y-68238493D01*
X160978714Y-68161593D01*
X160934255Y-67938086D01*
X160764089Y-67683414D01*
X160601675Y-67521000D01*
X160672764Y-67521000D01*
X161930000Y-68778236D01*
G36*
X94552000Y-71951690D02*
X94552000Y-72442250D01*
X94710750Y-72601000D01*
X95810000Y-72601000D01*
X95810000Y-72581000D01*
X96064000Y-72581000D01*
X96064000Y-72601000D01*
X96084000Y-72601000D01*
X96084000Y-72855000D01*
X96064000Y-72855000D01*
X96064000Y-72875000D01*
X95810000Y-72875000D01*
X95810000Y-72855000D01*
X94710750Y-72855000D01*
X94552000Y-73013750D01*
X94552000Y-73198000D01*
X88700732Y-73198000D01*
X88709440Y-73155000D01*
X88709440Y-72555000D01*
X88665162Y-72319683D01*
X88601322Y-72220472D01*
X88658431Y-72136890D01*
X88709440Y-71885000D01*
X88709440Y-71793000D01*
X94617732Y-71793000D01*
X94552000Y-71951690D01*
X94552000Y-71951690D01*
G37*
X94552000Y-71951690D02*
X94552000Y-72442250D01*
X94710750Y-72601000D01*
X95810000Y-72601000D01*
X95810000Y-72581000D01*
X96064000Y-72581000D01*
X96064000Y-72601000D01*
X96084000Y-72601000D01*
X96084000Y-72855000D01*
X96064000Y-72855000D01*
X96064000Y-72875000D01*
X95810000Y-72875000D01*
X95810000Y-72855000D01*
X94710750Y-72855000D01*
X94552000Y-73013750D01*
X94552000Y-73198000D01*
X88700732Y-73198000D01*
X88709440Y-73155000D01*
X88709440Y-72555000D01*
X88665162Y-72319683D01*
X88601322Y-72220472D01*
X88658431Y-72136890D01*
X88709440Y-71885000D01*
X88709440Y-71793000D01*
X94617732Y-71793000D01*
X94552000Y-71951690D01*
G36*
X79548838Y-58707317D02*
X79687910Y-58923441D01*
X79900110Y-59068431D01*
X80152000Y-59119440D01*
X81402000Y-59119440D01*
X81637317Y-59075162D01*
X81853441Y-58936090D01*
X81998431Y-58723890D01*
X82021292Y-58611000D01*
X86746000Y-58611000D01*
X86746000Y-60662560D01*
X86635000Y-60662560D01*
X86399683Y-60706838D01*
X86183559Y-60845910D01*
X86038569Y-61058110D01*
X85987560Y-61310000D01*
X85987560Y-62810000D01*
X86031838Y-63045317D01*
X86138759Y-63211477D01*
X86038569Y-63358110D01*
X85987560Y-63610000D01*
X85987560Y-63625736D01*
X85835395Y-63656004D01*
X85783020Y-63691000D01*
X85588185Y-63821184D01*
X84302185Y-65107185D01*
X84137004Y-65354395D01*
X84079000Y-65646000D01*
X84079000Y-72138370D01*
X83309440Y-72907930D01*
X83309440Y-72555000D01*
X83265162Y-72319683D01*
X83201322Y-72220472D01*
X83258431Y-72136890D01*
X83309440Y-71885000D01*
X83309440Y-71285000D01*
X83265162Y-71049683D01*
X83206822Y-70959020D01*
X83297000Y-70741310D01*
X83297000Y-70600750D01*
X83138250Y-70442000D01*
X82014000Y-70442000D01*
X82014000Y-70462000D01*
X81760000Y-70462000D01*
X81760000Y-70442000D01*
X81740000Y-70442000D01*
X81740000Y-70188000D01*
X81760000Y-70188000D01*
X81760000Y-69538750D01*
X82014000Y-69538750D01*
X82014000Y-70188000D01*
X83138250Y-70188000D01*
X83297000Y-70029250D01*
X83297000Y-69888690D01*
X83200327Y-69655301D01*
X83021698Y-69476673D01*
X82788309Y-69380000D01*
X82172750Y-69380000D01*
X82014000Y-69538750D01*
X81760000Y-69538750D01*
X81601250Y-69380000D01*
X80985691Y-69380000D01*
X80752302Y-69476673D01*
X80573673Y-69655301D01*
X80477000Y-69888690D01*
X80477000Y-70029250D01*
X80635748Y-70187998D01*
X80568387Y-70187998D01*
X78478884Y-68098496D01*
X78248155Y-67944327D01*
X77975990Y-67890190D01*
X74017610Y-67890190D01*
X73745446Y-67944327D01*
X73739340Y-67948407D01*
X73514715Y-68098496D01*
X73430651Y-68182560D01*
X72589000Y-68182560D01*
X72353683Y-68226838D01*
X72137559Y-68365910D01*
X71992569Y-68578110D01*
X71941560Y-68830000D01*
X71941560Y-70530000D01*
X71985838Y-70765317D01*
X72030652Y-70834960D01*
X71857496Y-71008116D01*
X71760000Y-71154028D01*
X71760000Y-63103175D01*
X73563430Y-63103175D01*
X73686565Y-63390788D01*
X74368734Y-63650707D01*
X75098443Y-63629786D01*
X75675435Y-63390788D01*
X75798570Y-63103175D01*
X74681000Y-61985605D01*
X73563430Y-63103175D01*
X71760000Y-63103175D01*
X71760000Y-61493734D01*
X72836293Y-61493734D01*
X72857214Y-62223443D01*
X73096212Y-62800435D01*
X73383825Y-62923570D01*
X74501395Y-61806000D01*
X74860605Y-61806000D01*
X75978175Y-62923570D01*
X76265788Y-62800435D01*
X76395500Y-62460000D01*
X79687560Y-62460000D01*
X79687560Y-66260000D01*
X79731838Y-66495317D01*
X79870910Y-66711441D01*
X80083110Y-66856431D01*
X80335000Y-66907440D01*
X82335000Y-66907440D01*
X82570317Y-66863162D01*
X82786441Y-66724090D01*
X82931431Y-66511890D01*
X82982440Y-66260000D01*
X82982440Y-62460000D01*
X82938162Y-62224683D01*
X82799090Y-62008559D01*
X82586890Y-61863569D01*
X82335000Y-61812560D01*
X80335000Y-61812560D01*
X80099683Y-61856838D01*
X79883559Y-61995910D01*
X79738569Y-62208110D01*
X79687560Y-62460000D01*
X76395500Y-62460000D01*
X76525707Y-62118266D01*
X76504786Y-61388557D01*
X76265788Y-60811565D01*
X75978175Y-60688430D01*
X74860605Y-61806000D01*
X74501395Y-61806000D01*
X73383825Y-60688430D01*
X73096212Y-60811565D01*
X72836293Y-61493734D01*
X71760000Y-61493734D01*
X71760000Y-60212236D01*
X72833560Y-59138676D01*
X72833560Y-59506000D01*
X72877838Y-59741317D01*
X73016910Y-59957441D01*
X73229110Y-60102431D01*
X73481000Y-60153440D01*
X73850181Y-60153440D01*
X73686565Y-60221212D01*
X73563430Y-60508825D01*
X74681000Y-61626395D01*
X75798570Y-60508825D01*
X75675435Y-60221212D01*
X75497564Y-60153440D01*
X75881000Y-60153440D01*
X76116317Y-60109162D01*
X76332441Y-59970090D01*
X76477431Y-59757890D01*
X76528440Y-59506000D01*
X76528440Y-58611000D01*
X79530715Y-58611000D01*
X79548838Y-58707317D01*
X79548838Y-58707317D01*
G37*
X79548838Y-58707317D02*
X79687910Y-58923441D01*
X79900110Y-59068431D01*
X80152000Y-59119440D01*
X81402000Y-59119440D01*
X81637317Y-59075162D01*
X81853441Y-58936090D01*
X81998431Y-58723890D01*
X82021292Y-58611000D01*
X86746000Y-58611000D01*
X86746000Y-60662560D01*
X86635000Y-60662560D01*
X86399683Y-60706838D01*
X86183559Y-60845910D01*
X86038569Y-61058110D01*
X85987560Y-61310000D01*
X85987560Y-62810000D01*
X86031838Y-63045317D01*
X86138759Y-63211477D01*
X86038569Y-63358110D01*
X85987560Y-63610000D01*
X85987560Y-63625736D01*
X85835395Y-63656004D01*
X85783020Y-63691000D01*
X85588185Y-63821184D01*
X84302185Y-65107185D01*
X84137004Y-65354395D01*
X84079000Y-65646000D01*
X84079000Y-72138370D01*
X83309440Y-72907930D01*
X83309440Y-72555000D01*
X83265162Y-72319683D01*
X83201322Y-72220472D01*
X83258431Y-72136890D01*
X83309440Y-71885000D01*
X83309440Y-71285000D01*
X83265162Y-71049683D01*
X83206822Y-70959020D01*
X83297000Y-70741310D01*
X83297000Y-70600750D01*
X83138250Y-70442000D01*
X82014000Y-70442000D01*
X82014000Y-70462000D01*
X81760000Y-70462000D01*
X81760000Y-70442000D01*
X81740000Y-70442000D01*
X81740000Y-70188000D01*
X81760000Y-70188000D01*
X81760000Y-69538750D01*
X82014000Y-69538750D01*
X82014000Y-70188000D01*
X83138250Y-70188000D01*
X83297000Y-70029250D01*
X83297000Y-69888690D01*
X83200327Y-69655301D01*
X83021698Y-69476673D01*
X82788309Y-69380000D01*
X82172750Y-69380000D01*
X82014000Y-69538750D01*
X81760000Y-69538750D01*
X81601250Y-69380000D01*
X80985691Y-69380000D01*
X80752302Y-69476673D01*
X80573673Y-69655301D01*
X80477000Y-69888690D01*
X80477000Y-70029250D01*
X80635748Y-70187998D01*
X80568387Y-70187998D01*
X78478884Y-68098496D01*
X78248155Y-67944327D01*
X77975990Y-67890190D01*
X74017610Y-67890190D01*
X73745446Y-67944327D01*
X73739340Y-67948407D01*
X73514715Y-68098496D01*
X73430651Y-68182560D01*
X72589000Y-68182560D01*
X72353683Y-68226838D01*
X72137559Y-68365910D01*
X71992569Y-68578110D01*
X71941560Y-68830000D01*
X71941560Y-70530000D01*
X71985838Y-70765317D01*
X72030652Y-70834960D01*
X71857496Y-71008116D01*
X71760000Y-71154028D01*
X71760000Y-63103175D01*
X73563430Y-63103175D01*
X73686565Y-63390788D01*
X74368734Y-63650707D01*
X75098443Y-63629786D01*
X75675435Y-63390788D01*
X75798570Y-63103175D01*
X74681000Y-61985605D01*
X73563430Y-63103175D01*
X71760000Y-63103175D01*
X71760000Y-61493734D01*
X72836293Y-61493734D01*
X72857214Y-62223443D01*
X73096212Y-62800435D01*
X73383825Y-62923570D01*
X74501395Y-61806000D01*
X74860605Y-61806000D01*
X75978175Y-62923570D01*
X76265788Y-62800435D01*
X76395500Y-62460000D01*
X79687560Y-62460000D01*
X79687560Y-66260000D01*
X79731838Y-66495317D01*
X79870910Y-66711441D01*
X80083110Y-66856431D01*
X80335000Y-66907440D01*
X82335000Y-66907440D01*
X82570317Y-66863162D01*
X82786441Y-66724090D01*
X82931431Y-66511890D01*
X82982440Y-66260000D01*
X82982440Y-62460000D01*
X82938162Y-62224683D01*
X82799090Y-62008559D01*
X82586890Y-61863569D01*
X82335000Y-61812560D01*
X80335000Y-61812560D01*
X80099683Y-61856838D01*
X79883559Y-61995910D01*
X79738569Y-62208110D01*
X79687560Y-62460000D01*
X76395500Y-62460000D01*
X76525707Y-62118266D01*
X76504786Y-61388557D01*
X76265788Y-60811565D01*
X75978175Y-60688430D01*
X74860605Y-61806000D01*
X74501395Y-61806000D01*
X73383825Y-60688430D01*
X73096212Y-60811565D01*
X72836293Y-61493734D01*
X71760000Y-61493734D01*
X71760000Y-60212236D01*
X72833560Y-59138676D01*
X72833560Y-59506000D01*
X72877838Y-59741317D01*
X73016910Y-59957441D01*
X73229110Y-60102431D01*
X73481000Y-60153440D01*
X73850181Y-60153440D01*
X73686565Y-60221212D01*
X73563430Y-60508825D01*
X74681000Y-61626395D01*
X75798570Y-60508825D01*
X75675435Y-60221212D01*
X75497564Y-60153440D01*
X75881000Y-60153440D01*
X76116317Y-60109162D01*
X76332441Y-59970090D01*
X76477431Y-59757890D01*
X76528440Y-59506000D01*
X76528440Y-58611000D01*
X79530715Y-58611000D01*
X79548838Y-58707317D01*
G36*
X100685395Y-52240247D02*
X100557000Y-52214707D01*
X100084386Y-52308716D01*
X99707004Y-52560874D01*
X99621090Y-52427359D01*
X99408890Y-52282369D01*
X99157000Y-52231360D01*
X97957000Y-52231360D01*
X97721683Y-52275638D01*
X97505559Y-52414710D01*
X97360569Y-52626910D01*
X97309560Y-52878800D01*
X97309560Y-54578800D01*
X97353838Y-54814117D01*
X97492910Y-55030241D01*
X97705110Y-55175231D01*
X97957000Y-55226240D01*
X98694282Y-55226240D01*
X102273121Y-58805079D01*
X102527793Y-58975245D01*
X102828200Y-59035000D01*
X110931842Y-59035000D01*
X113241921Y-61345079D01*
X113496594Y-61515245D01*
X113797000Y-61575000D01*
X129473842Y-61575000D01*
X132062000Y-64163158D01*
X132062000Y-71712000D01*
X132121755Y-72012407D01*
X132291921Y-72267079D01*
X132772842Y-72748000D01*
X131316593Y-72748000D01*
X130954927Y-72386335D01*
X131099186Y-72242327D01*
X131241832Y-71898799D01*
X131242156Y-71526833D01*
X131100111Y-71183057D01*
X130837321Y-70919808D01*
X130493793Y-70777162D01*
X130121827Y-70776838D01*
X129778051Y-70918883D01*
X129695991Y-71000800D01*
X128015814Y-71000800D01*
X127293402Y-70278388D01*
X127293568Y-70278319D01*
X127556817Y-70015529D01*
X127606514Y-69895846D01*
X127735883Y-70208943D01*
X127998673Y-70472192D01*
X128342201Y-70614838D01*
X128714167Y-70615162D01*
X129057943Y-70473117D01*
X129321192Y-70210327D01*
X129463838Y-69866799D01*
X129464162Y-69494833D01*
X129322117Y-69151057D01*
X129059327Y-68887808D01*
X128715799Y-68745162D01*
X128599849Y-68745061D01*
X123423293Y-63568505D01*
X123192564Y-63414336D01*
X122920399Y-63360199D01*
X119661201Y-63360199D01*
X119389036Y-63414336D01*
X119158307Y-63568505D01*
X115072106Y-67654706D01*
X115054108Y-67681642D01*
X114964349Y-67771401D01*
X114848559Y-67845910D01*
X114775116Y-67953397D01*
X114737000Y-67894162D01*
X114737000Y-64415000D01*
X114678996Y-64123395D01*
X114576066Y-63969350D01*
X114513816Y-63876185D01*
X111162815Y-60525185D01*
X111162814Y-60525184D01*
X110915605Y-60360004D01*
X110751440Y-60327349D01*
X110751440Y-60314000D01*
X110707162Y-60078683D01*
X110568090Y-59862559D01*
X110355890Y-59717569D01*
X110104000Y-59666560D01*
X108854000Y-59666560D01*
X108618683Y-59710838D01*
X108402559Y-59849910D01*
X108257569Y-60062110D01*
X108232886Y-60184000D01*
X107467958Y-60184000D01*
X107454162Y-60110683D01*
X107315090Y-59894559D01*
X107102890Y-59749569D01*
X106851000Y-59698560D01*
X105651000Y-59698560D01*
X105415683Y-59742838D01*
X105199559Y-59881910D01*
X105054569Y-60094110D01*
X105036366Y-60184000D01*
X104879958Y-60184000D01*
X104866162Y-60110683D01*
X104727090Y-59894559D01*
X104514890Y-59749569D01*
X104263000Y-59698560D01*
X103063000Y-59698560D01*
X102827683Y-59742838D01*
X102611559Y-59881910D01*
X102466569Y-60094110D01*
X102448366Y-60184000D01*
X102291958Y-60184000D01*
X102278162Y-60110683D01*
X102139090Y-59894559D01*
X101926890Y-59749569D01*
X101675000Y-59698560D01*
X100475000Y-59698560D01*
X100239683Y-59742838D01*
X100023559Y-59881910D01*
X99878569Y-60094110D01*
X99860366Y-60184000D01*
X99703958Y-60184000D01*
X99690162Y-60110683D01*
X99630522Y-60018000D01*
X99667309Y-60018000D01*
X99900698Y-59921327D01*
X100079327Y-59742699D01*
X100176000Y-59509310D01*
X100176000Y-59043750D01*
X100017250Y-58885000D01*
X98918000Y-58885000D01*
X98918000Y-58905000D01*
X98664000Y-58905000D01*
X98664000Y-58885000D01*
X98644000Y-58885000D01*
X98644000Y-58631000D01*
X98664000Y-58631000D01*
X98664000Y-57656750D01*
X98918000Y-57656750D01*
X98918000Y-58631000D01*
X100017250Y-58631000D01*
X100176000Y-58472250D01*
X100176000Y-58006690D01*
X100079327Y-57773301D01*
X99900698Y-57594673D01*
X99667309Y-57498000D01*
X99076750Y-57498000D01*
X98918000Y-57656750D01*
X98664000Y-57656750D01*
X98505250Y-57498000D01*
X97914691Y-57498000D01*
X97681302Y-57594673D01*
X97540064Y-57735910D01*
X97505090Y-57681559D01*
X97292890Y-57536569D01*
X97041000Y-57485560D01*
X95752676Y-57485560D01*
X95883618Y-57354618D01*
X95937898Y-57273382D01*
X96076329Y-57066206D01*
X96144000Y-56726000D01*
X96144000Y-52027000D01*
X100898642Y-52027000D01*
X100685395Y-52240247D01*
X100685395Y-52240247D01*
G37*
X100685395Y-52240247D02*
X100557000Y-52214707D01*
X100084386Y-52308716D01*
X99707004Y-52560874D01*
X99621090Y-52427359D01*
X99408890Y-52282369D01*
X99157000Y-52231360D01*
X97957000Y-52231360D01*
X97721683Y-52275638D01*
X97505559Y-52414710D01*
X97360569Y-52626910D01*
X97309560Y-52878800D01*
X97309560Y-54578800D01*
X97353838Y-54814117D01*
X97492910Y-55030241D01*
X97705110Y-55175231D01*
X97957000Y-55226240D01*
X98694282Y-55226240D01*
X102273121Y-58805079D01*
X102527793Y-58975245D01*
X102828200Y-59035000D01*
X110931842Y-59035000D01*
X113241921Y-61345079D01*
X113496594Y-61515245D01*
X113797000Y-61575000D01*
X129473842Y-61575000D01*
X132062000Y-64163158D01*
X132062000Y-71712000D01*
X132121755Y-72012407D01*
X132291921Y-72267079D01*
X132772842Y-72748000D01*
X131316593Y-72748000D01*
X130954927Y-72386335D01*
X131099186Y-72242327D01*
X131241832Y-71898799D01*
X131242156Y-71526833D01*
X131100111Y-71183057D01*
X130837321Y-70919808D01*
X130493793Y-70777162D01*
X130121827Y-70776838D01*
X129778051Y-70918883D01*
X129695991Y-71000800D01*
X128015814Y-71000800D01*
X127293402Y-70278388D01*
X127293568Y-70278319D01*
X127556817Y-70015529D01*
X127606514Y-69895846D01*
X127735883Y-70208943D01*
X127998673Y-70472192D01*
X128342201Y-70614838D01*
X128714167Y-70615162D01*
X129057943Y-70473117D01*
X129321192Y-70210327D01*
X129463838Y-69866799D01*
X129464162Y-69494833D01*
X129322117Y-69151057D01*
X129059327Y-68887808D01*
X128715799Y-68745162D01*
X128599849Y-68745061D01*
X123423293Y-63568505D01*
X123192564Y-63414336D01*
X122920399Y-63360199D01*
X119661201Y-63360199D01*
X119389036Y-63414336D01*
X119158307Y-63568505D01*
X115072106Y-67654706D01*
X115054108Y-67681642D01*
X114964349Y-67771401D01*
X114848559Y-67845910D01*
X114775116Y-67953397D01*
X114737000Y-67894162D01*
X114737000Y-64415000D01*
X114678996Y-64123395D01*
X114576066Y-63969350D01*
X114513816Y-63876185D01*
X111162815Y-60525185D01*
X111162814Y-60525184D01*
X110915605Y-60360004D01*
X110751440Y-60327349D01*
X110751440Y-60314000D01*
X110707162Y-60078683D01*
X110568090Y-59862559D01*
X110355890Y-59717569D01*
X110104000Y-59666560D01*
X108854000Y-59666560D01*
X108618683Y-59710838D01*
X108402559Y-59849910D01*
X108257569Y-60062110D01*
X108232886Y-60184000D01*
X107467958Y-60184000D01*
X107454162Y-60110683D01*
X107315090Y-59894559D01*
X107102890Y-59749569D01*
X106851000Y-59698560D01*
X105651000Y-59698560D01*
X105415683Y-59742838D01*
X105199559Y-59881910D01*
X105054569Y-60094110D01*
X105036366Y-60184000D01*
X104879958Y-60184000D01*
X104866162Y-60110683D01*
X104727090Y-59894559D01*
X104514890Y-59749569D01*
X104263000Y-59698560D01*
X103063000Y-59698560D01*
X102827683Y-59742838D01*
X102611559Y-59881910D01*
X102466569Y-60094110D01*
X102448366Y-60184000D01*
X102291958Y-60184000D01*
X102278162Y-60110683D01*
X102139090Y-59894559D01*
X101926890Y-59749569D01*
X101675000Y-59698560D01*
X100475000Y-59698560D01*
X100239683Y-59742838D01*
X100023559Y-59881910D01*
X99878569Y-60094110D01*
X99860366Y-60184000D01*
X99703958Y-60184000D01*
X99690162Y-60110683D01*
X99630522Y-60018000D01*
X99667309Y-60018000D01*
X99900698Y-59921327D01*
X100079327Y-59742699D01*
X100176000Y-59509310D01*
X100176000Y-59043750D01*
X100017250Y-58885000D01*
X98918000Y-58885000D01*
X98918000Y-58905000D01*
X98664000Y-58905000D01*
X98664000Y-58885000D01*
X98644000Y-58885000D01*
X98644000Y-58631000D01*
X98664000Y-58631000D01*
X98664000Y-57656750D01*
X98918000Y-57656750D01*
X98918000Y-58631000D01*
X100017250Y-58631000D01*
X100176000Y-58472250D01*
X100176000Y-58006690D01*
X100079327Y-57773301D01*
X99900698Y-57594673D01*
X99667309Y-57498000D01*
X99076750Y-57498000D01*
X98918000Y-57656750D01*
X98664000Y-57656750D01*
X98505250Y-57498000D01*
X97914691Y-57498000D01*
X97681302Y-57594673D01*
X97540064Y-57735910D01*
X97505090Y-57681559D01*
X97292890Y-57536569D01*
X97041000Y-57485560D01*
X95752676Y-57485560D01*
X95883618Y-57354618D01*
X95937898Y-57273382D01*
X96076329Y-57066206D01*
X96144000Y-56726000D01*
X96144000Y-52027000D01*
X100898642Y-52027000D01*
X100685395Y-52240247D01*
G36*
X80456706Y-72087895D02*
X80511560Y-72124547D01*
X80523949Y-72143800D01*
X76118589Y-72143800D01*
X75900200Y-71925412D01*
X75900200Y-70940666D01*
X76062277Y-70832370D01*
X76329991Y-70431707D01*
X76424000Y-69959093D01*
X76424000Y-69400907D01*
X76406433Y-69312590D01*
X77681402Y-69312590D01*
X80456706Y-72087895D01*
X80456706Y-72087895D01*
G37*
X80456706Y-72087895D02*
X80511560Y-72124547D01*
X80523949Y-72143800D01*
X76118589Y-72143800D01*
X75900200Y-71925412D01*
X75900200Y-70940666D01*
X76062277Y-70832370D01*
X76329991Y-70431707D01*
X76424000Y-69959093D01*
X76424000Y-69400907D01*
X76406433Y-69312590D01*
X77681402Y-69312590D01*
X80456706Y-72087895D01*
G36*
X119300000Y-70457440D02*
X119850000Y-70457440D01*
X119884454Y-70450957D01*
X119877560Y-70485000D01*
X119877560Y-71035000D01*
X119901944Y-71164589D01*
X119877560Y-71285000D01*
X119877560Y-71598000D01*
X116417028Y-71598000D01*
X116367818Y-71548790D01*
X116367816Y-71548787D01*
X115270493Y-70451465D01*
X115300000Y-70457440D01*
X115850000Y-70457440D01*
X115979589Y-70433056D01*
X116100000Y-70457440D01*
X116650000Y-70457440D01*
X116779589Y-70433056D01*
X116900000Y-70457440D01*
X117450000Y-70457440D01*
X117579589Y-70433056D01*
X117700000Y-70457440D01*
X118250000Y-70457440D01*
X118379589Y-70433056D01*
X118500000Y-70457440D01*
X119050000Y-70457440D01*
X119179589Y-70433056D01*
X119300000Y-70457440D01*
X119300000Y-70457440D01*
G37*
X119300000Y-70457440D02*
X119850000Y-70457440D01*
X119884454Y-70450957D01*
X119877560Y-70485000D01*
X119877560Y-71035000D01*
X119901944Y-71164589D01*
X119877560Y-71285000D01*
X119877560Y-71598000D01*
X116417028Y-71598000D01*
X116367818Y-71548790D01*
X116367816Y-71548787D01*
X115270493Y-70451465D01*
X115300000Y-70457440D01*
X115850000Y-70457440D01*
X115979589Y-70433056D01*
X116100000Y-70457440D01*
X116650000Y-70457440D01*
X116779589Y-70433056D01*
X116900000Y-70457440D01*
X117450000Y-70457440D01*
X117579589Y-70433056D01*
X117700000Y-70457440D01*
X118250000Y-70457440D01*
X118379589Y-70433056D01*
X118500000Y-70457440D01*
X119050000Y-70457440D01*
X119179589Y-70433056D01*
X119300000Y-70457440D01*
G36*
X159548000Y-54857639D02*
X159548000Y-59424000D01*
X159575777Y-59563644D01*
X159456569Y-59738110D01*
X159405560Y-59990000D01*
X159405560Y-61590000D01*
X159449838Y-61825317D01*
X159588910Y-62041441D01*
X159801110Y-62186431D01*
X160053000Y-62237440D01*
X163553000Y-62237440D01*
X163788317Y-62193162D01*
X164004441Y-62054090D01*
X164149431Y-61841890D01*
X164182417Y-61679000D01*
X165132478Y-61679000D01*
X165146838Y-61755317D01*
X165285910Y-61971441D01*
X165498110Y-62116431D01*
X165750000Y-62167440D01*
X167000000Y-62167440D01*
X167235317Y-62123162D01*
X167451441Y-61984090D01*
X167456886Y-61976122D01*
X168026000Y-62545236D01*
X168026000Y-67426842D01*
X167872440Y-67273282D01*
X167872440Y-66096000D01*
X167828162Y-65860683D01*
X167689090Y-65644559D01*
X167476890Y-65499569D01*
X167225000Y-65448560D01*
X166970196Y-65448560D01*
X166930079Y-65388521D01*
X165332479Y-63790921D01*
X165077807Y-63620755D01*
X164777400Y-63561000D01*
X151897000Y-63561000D01*
X151596593Y-63620755D01*
X151341921Y-63790921D01*
X144407842Y-70725000D01*
X143740000Y-70725000D01*
X143740000Y-68787158D01*
X151451408Y-61075750D01*
X154018000Y-61075750D01*
X154018000Y-61716310D01*
X154114673Y-61949699D01*
X154293302Y-62128327D01*
X154526691Y-62225000D01*
X156117250Y-62225000D01*
X156276000Y-62066250D01*
X156276000Y-60917000D01*
X156530000Y-60917000D01*
X156530000Y-62066250D01*
X156688750Y-62225000D01*
X158279309Y-62225000D01*
X158512698Y-62128327D01*
X158691327Y-61949699D01*
X158788000Y-61716310D01*
X158788000Y-61075750D01*
X158629250Y-60917000D01*
X156530000Y-60917000D01*
X156276000Y-60917000D01*
X154176750Y-60917000D01*
X154018000Y-61075750D01*
X151451408Y-61075750D01*
X152663468Y-59863690D01*
X154018000Y-59863690D01*
X154018000Y-60504250D01*
X154176750Y-60663000D01*
X156276000Y-60663000D01*
X156276000Y-59513750D01*
X156530000Y-59513750D01*
X156530000Y-60663000D01*
X158629250Y-60663000D01*
X158788000Y-60504250D01*
X158788000Y-59863690D01*
X158691327Y-59630301D01*
X158512698Y-59451673D01*
X158279309Y-59355000D01*
X156688750Y-59355000D01*
X156530000Y-59513750D01*
X156276000Y-59513750D01*
X156117250Y-59355000D01*
X154526691Y-59355000D01*
X154293302Y-59451673D01*
X154114673Y-59630301D01*
X154018000Y-59863690D01*
X152663468Y-59863690D01*
X157024079Y-55503079D01*
X157194245Y-55248407D01*
X157254000Y-54948000D01*
X157254000Y-54918773D01*
X157310277Y-54881170D01*
X157437000Y-54691515D01*
X157563723Y-54881170D01*
X157964386Y-55148884D01*
X158437000Y-55242893D01*
X158909614Y-55148884D01*
X159310277Y-54881170D01*
X159437000Y-54691515D01*
X159548000Y-54857639D01*
X159548000Y-54857639D01*
G37*
X159548000Y-54857639D02*
X159548000Y-59424000D01*
X159575777Y-59563644D01*
X159456569Y-59738110D01*
X159405560Y-59990000D01*
X159405560Y-61590000D01*
X159449838Y-61825317D01*
X159588910Y-62041441D01*
X159801110Y-62186431D01*
X160053000Y-62237440D01*
X163553000Y-62237440D01*
X163788317Y-62193162D01*
X164004441Y-62054090D01*
X164149431Y-61841890D01*
X164182417Y-61679000D01*
X165132478Y-61679000D01*
X165146838Y-61755317D01*
X165285910Y-61971441D01*
X165498110Y-62116431D01*
X165750000Y-62167440D01*
X167000000Y-62167440D01*
X167235317Y-62123162D01*
X167451441Y-61984090D01*
X167456886Y-61976122D01*
X168026000Y-62545236D01*
X168026000Y-67426842D01*
X167872440Y-67273282D01*
X167872440Y-66096000D01*
X167828162Y-65860683D01*
X167689090Y-65644559D01*
X167476890Y-65499569D01*
X167225000Y-65448560D01*
X166970196Y-65448560D01*
X166930079Y-65388521D01*
X165332479Y-63790921D01*
X165077807Y-63620755D01*
X164777400Y-63561000D01*
X151897000Y-63561000D01*
X151596593Y-63620755D01*
X151341921Y-63790921D01*
X144407842Y-70725000D01*
X143740000Y-70725000D01*
X143740000Y-68787158D01*
X151451408Y-61075750D01*
X154018000Y-61075750D01*
X154018000Y-61716310D01*
X154114673Y-61949699D01*
X154293302Y-62128327D01*
X154526691Y-62225000D01*
X156117250Y-62225000D01*
X156276000Y-62066250D01*
X156276000Y-60917000D01*
X156530000Y-60917000D01*
X156530000Y-62066250D01*
X156688750Y-62225000D01*
X158279309Y-62225000D01*
X158512698Y-62128327D01*
X158691327Y-61949699D01*
X158788000Y-61716310D01*
X158788000Y-61075750D01*
X158629250Y-60917000D01*
X156530000Y-60917000D01*
X156276000Y-60917000D01*
X154176750Y-60917000D01*
X154018000Y-61075750D01*
X151451408Y-61075750D01*
X152663468Y-59863690D01*
X154018000Y-59863690D01*
X154018000Y-60504250D01*
X154176750Y-60663000D01*
X156276000Y-60663000D01*
X156276000Y-59513750D01*
X156530000Y-59513750D01*
X156530000Y-60663000D01*
X158629250Y-60663000D01*
X158788000Y-60504250D01*
X158788000Y-59863690D01*
X158691327Y-59630301D01*
X158512698Y-59451673D01*
X158279309Y-59355000D01*
X156688750Y-59355000D01*
X156530000Y-59513750D01*
X156276000Y-59513750D01*
X156117250Y-59355000D01*
X154526691Y-59355000D01*
X154293302Y-59451673D01*
X154114673Y-59630301D01*
X154018000Y-59863690D01*
X152663468Y-59863690D01*
X157024079Y-55503079D01*
X157194245Y-55248407D01*
X157254000Y-54948000D01*
X157254000Y-54918773D01*
X157310277Y-54881170D01*
X157437000Y-54691515D01*
X157563723Y-54881170D01*
X157964386Y-55148884D01*
X158437000Y-55242893D01*
X158909614Y-55148884D01*
X159310277Y-54881170D01*
X159437000Y-54691515D01*
X159548000Y-54857639D01*
G36*
X97239560Y-62546000D02*
X97239560Y-63746000D01*
X97283838Y-63981317D01*
X97422910Y-64197441D01*
X97500117Y-64250194D01*
X97385559Y-64323910D01*
X97240569Y-64536110D01*
X97189560Y-64788000D01*
X97189560Y-66288000D01*
X97233838Y-66523317D01*
X97372910Y-66739441D01*
X97585110Y-66884431D01*
X97598197Y-66887081D01*
X97385559Y-67023910D01*
X97240569Y-67236110D01*
X97189560Y-67488000D01*
X97189560Y-68988000D01*
X97233838Y-69223317D01*
X97372910Y-69439441D01*
X97539109Y-69553000D01*
X94530967Y-69553000D01*
X94588000Y-69415310D01*
X94588000Y-68949750D01*
X94429250Y-68791000D01*
X93330000Y-68791000D01*
X93330000Y-68811000D01*
X93076000Y-68811000D01*
X93076000Y-68791000D01*
X93056000Y-68791000D01*
X93056000Y-68537000D01*
X93076000Y-68537000D01*
X93076000Y-67562750D01*
X93330000Y-67562750D01*
X93330000Y-68537000D01*
X94429250Y-68537000D01*
X94588000Y-68378250D01*
X94588000Y-67912690D01*
X94491327Y-67679301D01*
X94312698Y-67500673D01*
X94079309Y-67404000D01*
X93488750Y-67404000D01*
X93330000Y-67562750D01*
X93076000Y-67562750D01*
X92917250Y-67404000D01*
X92326691Y-67404000D01*
X92093302Y-67500673D01*
X91952064Y-67641910D01*
X91917090Y-67587559D01*
X91704890Y-67442569D01*
X91453000Y-67391560D01*
X89953000Y-67391560D01*
X89717683Y-67435838D01*
X89501559Y-67574910D01*
X89356569Y-67787110D01*
X89333303Y-67902000D01*
X89041025Y-67902000D01*
X89173327Y-67769699D01*
X89270000Y-67536310D01*
X89270000Y-66945750D01*
X89111250Y-66787000D01*
X87762000Y-66787000D01*
X87762000Y-66807000D01*
X87508000Y-66807000D01*
X87508000Y-66787000D01*
X86158750Y-66787000D01*
X86000000Y-66945750D01*
X86000000Y-67536310D01*
X86096673Y-67769699D01*
X86228975Y-67902000D01*
X85603000Y-67902000D01*
X85603000Y-65961630D01*
X86105241Y-65459389D01*
X86137482Y-65509492D01*
X86096673Y-65550301D01*
X86000000Y-65783690D01*
X86000000Y-66374250D01*
X86158750Y-66533000D01*
X87508000Y-66533000D01*
X87508000Y-66513000D01*
X87762000Y-66513000D01*
X87762000Y-66533000D01*
X89111250Y-66533000D01*
X89270000Y-66374250D01*
X89270000Y-65783690D01*
X89173327Y-65550301D01*
X89131366Y-65508340D01*
X89231431Y-65361890D01*
X89233079Y-65353750D01*
X91455000Y-65353750D01*
X91455000Y-65944309D01*
X91551673Y-66177698D01*
X91730301Y-66356327D01*
X91963690Y-66453000D01*
X92429250Y-66453000D01*
X92588000Y-66294250D01*
X92588000Y-65195000D01*
X92842000Y-65195000D01*
X92842000Y-66294250D01*
X93000750Y-66453000D01*
X93466310Y-66453000D01*
X93699699Y-66356327D01*
X93878327Y-66177698D01*
X93975000Y-65944309D01*
X93975000Y-65353750D01*
X93816250Y-65195000D01*
X92842000Y-65195000D01*
X92588000Y-65195000D01*
X91613750Y-65195000D01*
X91455000Y-65353750D01*
X89233079Y-65353750D01*
X89282440Y-65110000D01*
X89282440Y-65094264D01*
X89434605Y-65063996D01*
X89681815Y-64898815D01*
X91250630Y-63330000D01*
X91444818Y-63330000D01*
X91486838Y-63553317D01*
X91625910Y-63769441D01*
X91694006Y-63815969D01*
X91551673Y-63958302D01*
X91455000Y-64191691D01*
X91455000Y-64782250D01*
X91613750Y-64941000D01*
X92588000Y-64941000D01*
X92588000Y-64921000D01*
X92842000Y-64921000D01*
X92842000Y-64941000D01*
X93816250Y-64941000D01*
X93975000Y-64782250D01*
X93975000Y-64191691D01*
X93878327Y-63958302D01*
X93737090Y-63817064D01*
X93791441Y-63782090D01*
X93936431Y-63569890D01*
X93985010Y-63330000D01*
X96011000Y-63330000D01*
X96302605Y-63271996D01*
X96549815Y-63106815D01*
X97272299Y-62384332D01*
X97239560Y-62546000D01*
X97239560Y-62546000D01*
G37*
X97239560Y-62546000D02*
X97239560Y-63746000D01*
X97283838Y-63981317D01*
X97422910Y-64197441D01*
X97500117Y-64250194D01*
X97385559Y-64323910D01*
X97240569Y-64536110D01*
X97189560Y-64788000D01*
X97189560Y-66288000D01*
X97233838Y-66523317D01*
X97372910Y-66739441D01*
X97585110Y-66884431D01*
X97598197Y-66887081D01*
X97385559Y-67023910D01*
X97240569Y-67236110D01*
X97189560Y-67488000D01*
X97189560Y-68988000D01*
X97233838Y-69223317D01*
X97372910Y-69439441D01*
X97539109Y-69553000D01*
X94530967Y-69553000D01*
X94588000Y-69415310D01*
X94588000Y-68949750D01*
X94429250Y-68791000D01*
X93330000Y-68791000D01*
X93330000Y-68811000D01*
X93076000Y-68811000D01*
X93076000Y-68791000D01*
X93056000Y-68791000D01*
X93056000Y-68537000D01*
X93076000Y-68537000D01*
X93076000Y-67562750D01*
X93330000Y-67562750D01*
X93330000Y-68537000D01*
X94429250Y-68537000D01*
X94588000Y-68378250D01*
X94588000Y-67912690D01*
X94491327Y-67679301D01*
X94312698Y-67500673D01*
X94079309Y-67404000D01*
X93488750Y-67404000D01*
X93330000Y-67562750D01*
X93076000Y-67562750D01*
X92917250Y-67404000D01*
X92326691Y-67404000D01*
X92093302Y-67500673D01*
X91952064Y-67641910D01*
X91917090Y-67587559D01*
X91704890Y-67442569D01*
X91453000Y-67391560D01*
X89953000Y-67391560D01*
X89717683Y-67435838D01*
X89501559Y-67574910D01*
X89356569Y-67787110D01*
X89333303Y-67902000D01*
X89041025Y-67902000D01*
X89173327Y-67769699D01*
X89270000Y-67536310D01*
X89270000Y-66945750D01*
X89111250Y-66787000D01*
X87762000Y-66787000D01*
X87762000Y-66807000D01*
X87508000Y-66807000D01*
X87508000Y-66787000D01*
X86158750Y-66787000D01*
X86000000Y-66945750D01*
X86000000Y-67536310D01*
X86096673Y-67769699D01*
X86228975Y-67902000D01*
X85603000Y-67902000D01*
X85603000Y-65961630D01*
X86105241Y-65459389D01*
X86137482Y-65509492D01*
X86096673Y-65550301D01*
X86000000Y-65783690D01*
X86000000Y-66374250D01*
X86158750Y-66533000D01*
X87508000Y-66533000D01*
X87508000Y-66513000D01*
X87762000Y-66513000D01*
X87762000Y-66533000D01*
X89111250Y-66533000D01*
X89270000Y-66374250D01*
X89270000Y-65783690D01*
X89173327Y-65550301D01*
X89131366Y-65508340D01*
X89231431Y-65361890D01*
X89233079Y-65353750D01*
X91455000Y-65353750D01*
X91455000Y-65944309D01*
X91551673Y-66177698D01*
X91730301Y-66356327D01*
X91963690Y-66453000D01*
X92429250Y-66453000D01*
X92588000Y-66294250D01*
X92588000Y-65195000D01*
X92842000Y-65195000D01*
X92842000Y-66294250D01*
X93000750Y-66453000D01*
X93466310Y-66453000D01*
X93699699Y-66356327D01*
X93878327Y-66177698D01*
X93975000Y-65944309D01*
X93975000Y-65353750D01*
X93816250Y-65195000D01*
X92842000Y-65195000D01*
X92588000Y-65195000D01*
X91613750Y-65195000D01*
X91455000Y-65353750D01*
X89233079Y-65353750D01*
X89282440Y-65110000D01*
X89282440Y-65094264D01*
X89434605Y-65063996D01*
X89681815Y-64898815D01*
X91250630Y-63330000D01*
X91444818Y-63330000D01*
X91486838Y-63553317D01*
X91625910Y-63769441D01*
X91694006Y-63815969D01*
X91551673Y-63958302D01*
X91455000Y-64191691D01*
X91455000Y-64782250D01*
X91613750Y-64941000D01*
X92588000Y-64941000D01*
X92588000Y-64921000D01*
X92842000Y-64921000D01*
X92842000Y-64941000D01*
X93816250Y-64941000D01*
X93975000Y-64782250D01*
X93975000Y-64191691D01*
X93878327Y-63958302D01*
X93737090Y-63817064D01*
X93791441Y-63782090D01*
X93936431Y-63569890D01*
X93985010Y-63330000D01*
X96011000Y-63330000D01*
X96302605Y-63271996D01*
X96549815Y-63106815D01*
X97272299Y-62384332D01*
X97239560Y-62546000D01*
G36*
X108206560Y-61814000D02*
X108250838Y-62049317D01*
X108389910Y-62265441D01*
X108458006Y-62311969D01*
X108315673Y-62454302D01*
X108219000Y-62687691D01*
X108219000Y-63278250D01*
X108377750Y-63437000D01*
X109352000Y-63437000D01*
X109352000Y-63417000D01*
X109606000Y-63417000D01*
X109606000Y-63437000D01*
X110580250Y-63437000D01*
X110739000Y-63278250D01*
X110739000Y-62687691D01*
X110642327Y-62454302D01*
X110501090Y-62313064D01*
X110555441Y-62278090D01*
X110638662Y-62156292D01*
X113213000Y-64730631D01*
X113213000Y-67016370D01*
X113186804Y-66990174D01*
X113159913Y-66972206D01*
X112939594Y-66824993D01*
X112647989Y-66766989D01*
X107864011Y-66766989D01*
X107572406Y-66824993D01*
X107352087Y-66972206D01*
X107325196Y-66990174D01*
X107313833Y-67001537D01*
X107152890Y-66891569D01*
X107139803Y-66888919D01*
X107352441Y-66752090D01*
X107497431Y-66539890D01*
X107548440Y-66288000D01*
X107548440Y-64788000D01*
X107504162Y-64552683D01*
X107365090Y-64336559D01*
X107239383Y-64250667D01*
X107302441Y-64210090D01*
X107447431Y-63997890D01*
X107477430Y-63849750D01*
X108219000Y-63849750D01*
X108219000Y-64440309D01*
X108315673Y-64673698D01*
X108494301Y-64852327D01*
X108727690Y-64949000D01*
X109193250Y-64949000D01*
X109352000Y-64790250D01*
X109352000Y-63691000D01*
X109606000Y-63691000D01*
X109606000Y-64790250D01*
X109764750Y-64949000D01*
X110230310Y-64949000D01*
X110463699Y-64852327D01*
X110642327Y-64673698D01*
X110739000Y-64440309D01*
X110739000Y-63849750D01*
X110580250Y-63691000D01*
X109606000Y-63691000D01*
X109352000Y-63691000D01*
X108377750Y-63691000D01*
X108219000Y-63849750D01*
X107477430Y-63849750D01*
X107498440Y-63746000D01*
X107498440Y-62546000D01*
X107454162Y-62310683D01*
X107315090Y-62094559D01*
X107245289Y-62046866D01*
X107302441Y-62010090D01*
X107447431Y-61797890D01*
X107465634Y-61708000D01*
X108206560Y-61708000D01*
X108206560Y-61814000D01*
X108206560Y-61814000D01*
G37*
X108206560Y-61814000D02*
X108250838Y-62049317D01*
X108389910Y-62265441D01*
X108458006Y-62311969D01*
X108315673Y-62454302D01*
X108219000Y-62687691D01*
X108219000Y-63278250D01*
X108377750Y-63437000D01*
X109352000Y-63437000D01*
X109352000Y-63417000D01*
X109606000Y-63417000D01*
X109606000Y-63437000D01*
X110580250Y-63437000D01*
X110739000Y-63278250D01*
X110739000Y-62687691D01*
X110642327Y-62454302D01*
X110501090Y-62313064D01*
X110555441Y-62278090D01*
X110638662Y-62156292D01*
X113213000Y-64730631D01*
X113213000Y-67016370D01*
X113186804Y-66990174D01*
X113159913Y-66972206D01*
X112939594Y-66824993D01*
X112647989Y-66766989D01*
X107864011Y-66766989D01*
X107572406Y-66824993D01*
X107352087Y-66972206D01*
X107325196Y-66990174D01*
X107313833Y-67001537D01*
X107152890Y-66891569D01*
X107139803Y-66888919D01*
X107352441Y-66752090D01*
X107497431Y-66539890D01*
X107548440Y-66288000D01*
X107548440Y-64788000D01*
X107504162Y-64552683D01*
X107365090Y-64336559D01*
X107239383Y-64250667D01*
X107302441Y-64210090D01*
X107447431Y-63997890D01*
X107477430Y-63849750D01*
X108219000Y-63849750D01*
X108219000Y-64440309D01*
X108315673Y-64673698D01*
X108494301Y-64852327D01*
X108727690Y-64949000D01*
X109193250Y-64949000D01*
X109352000Y-64790250D01*
X109352000Y-63691000D01*
X109606000Y-63691000D01*
X109606000Y-64790250D01*
X109764750Y-64949000D01*
X110230310Y-64949000D01*
X110463699Y-64852327D01*
X110642327Y-64673698D01*
X110739000Y-64440309D01*
X110739000Y-63849750D01*
X110580250Y-63691000D01*
X109606000Y-63691000D01*
X109352000Y-63691000D01*
X108377750Y-63691000D01*
X108219000Y-63849750D01*
X107477430Y-63849750D01*
X107498440Y-63746000D01*
X107498440Y-62546000D01*
X107454162Y-62310683D01*
X107315090Y-62094559D01*
X107245289Y-62046866D01*
X107302441Y-62010090D01*
X107447431Y-61797890D01*
X107465634Y-61708000D01*
X108206560Y-61708000D01*
X108206560Y-61814000D01*
G36*
X153585110Y-55175231D02*
X153837000Y-55226240D01*
X154064602Y-55226240D01*
X142740000Y-66550842D01*
X142740000Y-65783558D01*
X153444442Y-55079116D01*
X153585110Y-55175231D01*
X153585110Y-55175231D01*
G37*
X153585110Y-55175231D02*
X153837000Y-55226240D01*
X154064602Y-55226240D01*
X142740000Y-66550842D01*
X142740000Y-65783558D01*
X153444442Y-55079116D01*
X153585110Y-55175231D01*
G36*
X155198134Y-52263991D02*
X155037000Y-52231360D01*
X153837000Y-52231360D01*
X153601683Y-52275638D01*
X153385559Y-52414710D01*
X153240569Y-52626910D01*
X153189560Y-52878800D01*
X153189560Y-53133605D01*
X153129521Y-53173721D01*
X142240000Y-64063242D01*
X142240000Y-58862358D01*
X145816079Y-55286279D01*
X145986245Y-55031606D01*
X145998065Y-54972184D01*
X146134277Y-54881170D01*
X146261000Y-54691515D01*
X146387723Y-54881170D01*
X146788386Y-55148884D01*
X147261000Y-55242893D01*
X147733614Y-55148884D01*
X148134277Y-54881170D01*
X148261000Y-54691515D01*
X148387723Y-54881170D01*
X148788386Y-55148884D01*
X149261000Y-55242893D01*
X149733614Y-55148884D01*
X150134277Y-54881170D01*
X150401991Y-54480507D01*
X150496000Y-54007893D01*
X150496000Y-53449707D01*
X150401991Y-52977093D01*
X150150000Y-52599961D01*
X150150000Y-52027000D01*
X155435125Y-52027000D01*
X155198134Y-52263991D01*
X155198134Y-52263991D01*
G37*
X155198134Y-52263991D02*
X155037000Y-52231360D01*
X153837000Y-52231360D01*
X153601683Y-52275638D01*
X153385559Y-52414710D01*
X153240569Y-52626910D01*
X153189560Y-52878800D01*
X153189560Y-53133605D01*
X153129521Y-53173721D01*
X142240000Y-64063242D01*
X142240000Y-58862358D01*
X145816079Y-55286279D01*
X145986245Y-55031606D01*
X145998065Y-54972184D01*
X146134277Y-54881170D01*
X146261000Y-54691515D01*
X146387723Y-54881170D01*
X146788386Y-55148884D01*
X147261000Y-55242893D01*
X147733614Y-55148884D01*
X148134277Y-54881170D01*
X148261000Y-54691515D01*
X148387723Y-54881170D01*
X148788386Y-55148884D01*
X149261000Y-55242893D01*
X149733614Y-55148884D01*
X150134277Y-54881170D01*
X150401991Y-54480507D01*
X150496000Y-54007893D01*
X150496000Y-53449707D01*
X150401991Y-52977093D01*
X150150000Y-52599961D01*
X150150000Y-52027000D01*
X155435125Y-52027000D01*
X155198134Y-52263991D01*
G36*
X169290000Y-61294764D02*
X168136618Y-60141382D01*
X168078324Y-60102431D01*
X167848206Y-59948671D01*
X167625690Y-59904410D01*
X167603162Y-59784683D01*
X167464090Y-59568559D01*
X167395994Y-59522031D01*
X167538327Y-59379698D01*
X167635000Y-59146309D01*
X167635000Y-58555750D01*
X167476250Y-58397000D01*
X166502000Y-58397000D01*
X166502000Y-58417000D01*
X166248000Y-58417000D01*
X166248000Y-58397000D01*
X165273750Y-58397000D01*
X165115000Y-58555750D01*
X165115000Y-59146309D01*
X165211673Y-59379698D01*
X165352910Y-59520936D01*
X165298559Y-59555910D01*
X165153569Y-59768110D01*
X165126658Y-59901000D01*
X164183693Y-59901000D01*
X164156162Y-59754683D01*
X164017090Y-59538559D01*
X163804890Y-59393569D01*
X163553000Y-59342560D01*
X161612796Y-59342560D01*
X161326000Y-59055764D01*
X161326000Y-57393691D01*
X165115000Y-57393691D01*
X165115000Y-57984250D01*
X165273750Y-58143000D01*
X166248000Y-58143000D01*
X166248000Y-57043750D01*
X166502000Y-57043750D01*
X166502000Y-58143000D01*
X167476250Y-58143000D01*
X167635000Y-57984250D01*
X167635000Y-57393691D01*
X167538327Y-57160302D01*
X167359699Y-56981673D01*
X167126310Y-56885000D01*
X166660750Y-56885000D01*
X166502000Y-57043750D01*
X166248000Y-57043750D01*
X166089250Y-56885000D01*
X165623690Y-56885000D01*
X165390301Y-56981673D01*
X165211673Y-57160302D01*
X165115000Y-57393691D01*
X161326000Y-57393691D01*
X161326000Y-54857639D01*
X161577991Y-54480507D01*
X161672000Y-54007893D01*
X161672000Y-53449707D01*
X161577991Y-52977093D01*
X161310277Y-52576430D01*
X160909614Y-52308716D01*
X160437000Y-52214707D01*
X160431281Y-52215845D01*
X158925436Y-50710000D01*
X169290000Y-50710000D01*
X169290000Y-61294764D01*
X169290000Y-61294764D01*
G37*
X169290000Y-61294764D02*
X168136618Y-60141382D01*
X168078324Y-60102431D01*
X167848206Y-59948671D01*
X167625690Y-59904410D01*
X167603162Y-59784683D01*
X167464090Y-59568559D01*
X167395994Y-59522031D01*
X167538327Y-59379698D01*
X167635000Y-59146309D01*
X167635000Y-58555750D01*
X167476250Y-58397000D01*
X166502000Y-58397000D01*
X166502000Y-58417000D01*
X166248000Y-58417000D01*
X166248000Y-58397000D01*
X165273750Y-58397000D01*
X165115000Y-58555750D01*
X165115000Y-59146309D01*
X165211673Y-59379698D01*
X165352910Y-59520936D01*
X165298559Y-59555910D01*
X165153569Y-59768110D01*
X165126658Y-59901000D01*
X164183693Y-59901000D01*
X164156162Y-59754683D01*
X164017090Y-59538559D01*
X163804890Y-59393569D01*
X163553000Y-59342560D01*
X161612796Y-59342560D01*
X161326000Y-59055764D01*
X161326000Y-57393691D01*
X165115000Y-57393691D01*
X165115000Y-57984250D01*
X165273750Y-58143000D01*
X166248000Y-58143000D01*
X166248000Y-57043750D01*
X166502000Y-57043750D01*
X166502000Y-58143000D01*
X167476250Y-58143000D01*
X167635000Y-57984250D01*
X167635000Y-57393691D01*
X167538327Y-57160302D01*
X167359699Y-56981673D01*
X167126310Y-56885000D01*
X166660750Y-56885000D01*
X166502000Y-57043750D01*
X166248000Y-57043750D01*
X166089250Y-56885000D01*
X165623690Y-56885000D01*
X165390301Y-56981673D01*
X165211673Y-57160302D01*
X165115000Y-57393691D01*
X161326000Y-57393691D01*
X161326000Y-54857639D01*
X161577991Y-54480507D01*
X161672000Y-54007893D01*
X161672000Y-53449707D01*
X161577991Y-52977093D01*
X161310277Y-52576430D01*
X160909614Y-52308716D01*
X160437000Y-52214707D01*
X160431281Y-52215845D01*
X158925436Y-50710000D01*
X169290000Y-50710000D01*
X169290000Y-61294764D01*
G36*
X89502000Y-52216250D02*
X89660750Y-52375000D01*
X90810000Y-52375000D01*
X90810000Y-52355000D01*
X91064000Y-52355000D01*
X91064000Y-52375000D01*
X92213250Y-52375000D01*
X92372000Y-52216250D01*
X92372000Y-50710000D01*
X94492333Y-50710000D01*
X94433671Y-50797794D01*
X94366000Y-51138000D01*
X94366000Y-56357764D01*
X93710764Y-57013000D01*
X92384440Y-57013000D01*
X92384440Y-56152000D01*
X92340162Y-55916683D01*
X92201090Y-55700559D01*
X91988890Y-55555569D01*
X91737000Y-55504560D01*
X90137000Y-55504560D01*
X89901683Y-55548838D01*
X89685559Y-55687910D01*
X89540569Y-55900110D01*
X89489560Y-56152000D01*
X89489560Y-56853000D01*
X87715547Y-56853000D01*
X87615000Y-56833000D01*
X82023285Y-56833000D01*
X82005162Y-56736683D01*
X81866090Y-56520559D01*
X81797994Y-56474031D01*
X81940327Y-56331698D01*
X82037000Y-56098309D01*
X82037000Y-55507750D01*
X81878250Y-55349000D01*
X80904000Y-55349000D01*
X80904000Y-55369000D01*
X80650000Y-55369000D01*
X80650000Y-55349000D01*
X79675750Y-55349000D01*
X79517000Y-55507750D01*
X79517000Y-56098309D01*
X79613673Y-56331698D01*
X79754910Y-56472936D01*
X79700559Y-56507910D01*
X79555569Y-56720110D01*
X79532708Y-56833000D01*
X76459914Y-56833000D01*
X76345090Y-56654559D01*
X76132890Y-56509569D01*
X75881000Y-56458560D01*
X73481000Y-56458560D01*
X73245683Y-56502838D01*
X73029559Y-56641910D01*
X72884569Y-56854110D01*
X72881092Y-56871282D01*
X72632794Y-56920671D01*
X72374314Y-57093382D01*
X72344382Y-57113382D01*
X70710000Y-58747764D01*
X70710000Y-54345691D01*
X79517000Y-54345691D01*
X79517000Y-54936250D01*
X79675750Y-55095000D01*
X80650000Y-55095000D01*
X80650000Y-53995750D01*
X80904000Y-53995750D01*
X80904000Y-55095000D01*
X81878250Y-55095000D01*
X82037000Y-54936250D01*
X82037000Y-54345691D01*
X81940327Y-54112302D01*
X81761699Y-53933673D01*
X81528310Y-53837000D01*
X81062750Y-53837000D01*
X80904000Y-53995750D01*
X80650000Y-53995750D01*
X80491250Y-53837000D01*
X80025690Y-53837000D01*
X79792301Y-53933673D01*
X79613673Y-54112302D01*
X79517000Y-54345691D01*
X70710000Y-54345691D01*
X70710000Y-52787750D01*
X89502000Y-52787750D01*
X89502000Y-54378309D01*
X89598673Y-54611698D01*
X89777301Y-54790327D01*
X90010690Y-54887000D01*
X90651250Y-54887000D01*
X90810000Y-54728250D01*
X90810000Y-52629000D01*
X91064000Y-52629000D01*
X91064000Y-54728250D01*
X91222750Y-54887000D01*
X91863310Y-54887000D01*
X92096699Y-54790327D01*
X92275327Y-54611698D01*
X92372000Y-54378309D01*
X92372000Y-52787750D01*
X92213250Y-52629000D01*
X91064000Y-52629000D01*
X90810000Y-52629000D01*
X89660750Y-52629000D01*
X89502000Y-52787750D01*
X70710000Y-52787750D01*
X70710000Y-50710000D01*
X89502000Y-50710000D01*
X89502000Y-52216250D01*
X89502000Y-52216250D01*
G37*
X89502000Y-52216250D02*
X89660750Y-52375000D01*
X90810000Y-52375000D01*
X90810000Y-52355000D01*
X91064000Y-52355000D01*
X91064000Y-52375000D01*
X92213250Y-52375000D01*
X92372000Y-52216250D01*
X92372000Y-50710000D01*
X94492333Y-50710000D01*
X94433671Y-50797794D01*
X94366000Y-51138000D01*
X94366000Y-56357764D01*
X93710764Y-57013000D01*
X92384440Y-57013000D01*
X92384440Y-56152000D01*
X92340162Y-55916683D01*
X92201090Y-55700559D01*
X91988890Y-55555569D01*
X91737000Y-55504560D01*
X90137000Y-55504560D01*
X89901683Y-55548838D01*
X89685559Y-55687910D01*
X89540569Y-55900110D01*
X89489560Y-56152000D01*
X89489560Y-56853000D01*
X87715547Y-56853000D01*
X87615000Y-56833000D01*
X82023285Y-56833000D01*
X82005162Y-56736683D01*
X81866090Y-56520559D01*
X81797994Y-56474031D01*
X81940327Y-56331698D01*
X82037000Y-56098309D01*
X82037000Y-55507750D01*
X81878250Y-55349000D01*
X80904000Y-55349000D01*
X80904000Y-55369000D01*
X80650000Y-55369000D01*
X80650000Y-55349000D01*
X79675750Y-55349000D01*
X79517000Y-55507750D01*
X79517000Y-56098309D01*
X79613673Y-56331698D01*
X79754910Y-56472936D01*
X79700559Y-56507910D01*
X79555569Y-56720110D01*
X79532708Y-56833000D01*
X76459914Y-56833000D01*
X76345090Y-56654559D01*
X76132890Y-56509569D01*
X75881000Y-56458560D01*
X73481000Y-56458560D01*
X73245683Y-56502838D01*
X73029559Y-56641910D01*
X72884569Y-56854110D01*
X72881092Y-56871282D01*
X72632794Y-56920671D01*
X72374314Y-57093382D01*
X72344382Y-57113382D01*
X70710000Y-58747764D01*
X70710000Y-54345691D01*
X79517000Y-54345691D01*
X79517000Y-54936250D01*
X79675750Y-55095000D01*
X80650000Y-55095000D01*
X80650000Y-53995750D01*
X80904000Y-53995750D01*
X80904000Y-55095000D01*
X81878250Y-55095000D01*
X82037000Y-54936250D01*
X82037000Y-54345691D01*
X81940327Y-54112302D01*
X81761699Y-53933673D01*
X81528310Y-53837000D01*
X81062750Y-53837000D01*
X80904000Y-53995750D01*
X80650000Y-53995750D01*
X80491250Y-53837000D01*
X80025690Y-53837000D01*
X79792301Y-53933673D01*
X79613673Y-54112302D01*
X79517000Y-54345691D01*
X70710000Y-54345691D01*
X70710000Y-52787750D01*
X89502000Y-52787750D01*
X89502000Y-54378309D01*
X89598673Y-54611698D01*
X89777301Y-54790327D01*
X90010690Y-54887000D01*
X90651250Y-54887000D01*
X90810000Y-54728250D01*
X90810000Y-52629000D01*
X91064000Y-52629000D01*
X91064000Y-54728250D01*
X91222750Y-54887000D01*
X91863310Y-54887000D01*
X92096699Y-54790327D01*
X92275327Y-54611698D01*
X92372000Y-54378309D01*
X92372000Y-52787750D01*
X92213250Y-52629000D01*
X91064000Y-52629000D01*
X90810000Y-52629000D01*
X89660750Y-52629000D01*
X89502000Y-52787750D01*
X70710000Y-52787750D01*
X70710000Y-50710000D01*
X89502000Y-50710000D01*
X89502000Y-52216250D01*
M02*
