G04 #@! TF.GenerationSoftware,KiCad,Pcbnew,(5.0.0)*
G04 #@! TF.CreationDate,2019-08-07T23:03:13+02:00*
G04 #@! TF.ProjectId,minireklame,6D696E6972656B6C616D652E6B696361,rev?*
G04 #@! TF.SameCoordinates,Original*
G04 #@! TF.FileFunction,Soldermask,Top*
G04 #@! TF.FilePolarity,Negative*
%FSLAX46Y46*%
G04 Gerber Fmt 4.6, Leading zero omitted, Abs format (unit mm)*
G04 Created by KiCad (PCBNEW (5.0.0)) date 08/07/19 23:03:13*
%MOMM*%
%LPD*%
G01*
G04 APERTURE LIST*
%ADD10R,2.127200X2.127200*%
%ADD11O,2.127200X2.127200*%
%ADD12R,4.000000X2.480000*%
%ADD13O,4.000000X2.480000*%
%ADD14C,0.100000*%
%ADD15C,1.550000*%
%ADD16R,1.600000X2.100000*%
%ADD17O,1.600000X2.100000*%
%ADD18R,2.100000X1.600000*%
%ADD19O,2.100000X1.600000*%
%ADD20O,1.900000X0.700000*%
%ADD21O,0.700000X1.900000*%
%ADD22R,6.000000X6.000000*%
%ADD23R,1.700000X1.900000*%
%ADD24R,1.600000X1.600000*%
%ADD25R,1.950000X1.000000*%
%ADD26R,2.400000X4.200000*%
%ADD27R,2.400000X1.900000*%
%ADD28R,1.900000X1.700000*%
%ADD29R,2.500000X2.200000*%
%ADD30R,2.000000X3.900000*%
%ADD31R,3.900000X2.000000*%
%ADD32R,1.900000X1.650000*%
%ADD33R,1.650000X1.900000*%
%ADD34R,1.900000X0.950000*%
%ADD35R,0.950000X1.900000*%
G04 APERTURE END LIST*
D10*
G04 #@! TO.C,P18*
X78999000Y-88984000D03*
D11*
X81539000Y-88984000D03*
X78999000Y-91524000D03*
X81539000Y-91524000D03*
X78999000Y-94064000D03*
X81539000Y-94064000D03*
G04 #@! TD*
D12*
G04 #@! TO.C,P17*
X74681000Y-58306000D03*
D13*
X74681000Y-63386000D03*
G04 #@! TD*
D14*
G04 #@! TO.C,R12*
G36*
X94456071Y-70051623D02*
X94488781Y-70056475D01*
X94520857Y-70064509D01*
X94551991Y-70075649D01*
X94581884Y-70089787D01*
X94610247Y-70106787D01*
X94636807Y-70126485D01*
X94661308Y-70148692D01*
X94683515Y-70173193D01*
X94703213Y-70199753D01*
X94720213Y-70228116D01*
X94734351Y-70258009D01*
X94745491Y-70289143D01*
X94753525Y-70321219D01*
X94758377Y-70353929D01*
X94760000Y-70386956D01*
X94760000Y-71513044D01*
X94758377Y-71546071D01*
X94753525Y-71578781D01*
X94745491Y-71610857D01*
X94734351Y-71641991D01*
X94720213Y-71671884D01*
X94703213Y-71700247D01*
X94683515Y-71726807D01*
X94661308Y-71751308D01*
X94636807Y-71773515D01*
X94610247Y-71793213D01*
X94581884Y-71810213D01*
X94551991Y-71824351D01*
X94520857Y-71835491D01*
X94488781Y-71843525D01*
X94456071Y-71848377D01*
X94423044Y-71850000D01*
X93546956Y-71850000D01*
X93513929Y-71848377D01*
X93481219Y-71843525D01*
X93449143Y-71835491D01*
X93418009Y-71824351D01*
X93388116Y-71810213D01*
X93359753Y-71793213D01*
X93333193Y-71773515D01*
X93308692Y-71751308D01*
X93286485Y-71726807D01*
X93266787Y-71700247D01*
X93249787Y-71671884D01*
X93235649Y-71641991D01*
X93224509Y-71610857D01*
X93216475Y-71578781D01*
X93211623Y-71546071D01*
X93210000Y-71513044D01*
X93210000Y-70386956D01*
X93211623Y-70353929D01*
X93216475Y-70321219D01*
X93224509Y-70289143D01*
X93235649Y-70258009D01*
X93249787Y-70228116D01*
X93266787Y-70199753D01*
X93286485Y-70173193D01*
X93308692Y-70148692D01*
X93333193Y-70126485D01*
X93359753Y-70106787D01*
X93388116Y-70089787D01*
X93418009Y-70075649D01*
X93449143Y-70064509D01*
X93481219Y-70056475D01*
X93513929Y-70051623D01*
X93546956Y-70050000D01*
X94423044Y-70050000D01*
X94456071Y-70051623D01*
X94456071Y-70051623D01*
G37*
D15*
X93985000Y-70950000D03*
D14*
G36*
X96506071Y-70051623D02*
X96538781Y-70056475D01*
X96570857Y-70064509D01*
X96601991Y-70075649D01*
X96631884Y-70089787D01*
X96660247Y-70106787D01*
X96686807Y-70126485D01*
X96711308Y-70148692D01*
X96733515Y-70173193D01*
X96753213Y-70199753D01*
X96770213Y-70228116D01*
X96784351Y-70258009D01*
X96795491Y-70289143D01*
X96803525Y-70321219D01*
X96808377Y-70353929D01*
X96810000Y-70386956D01*
X96810000Y-71513044D01*
X96808377Y-71546071D01*
X96803525Y-71578781D01*
X96795491Y-71610857D01*
X96784351Y-71641991D01*
X96770213Y-71671884D01*
X96753213Y-71700247D01*
X96733515Y-71726807D01*
X96711308Y-71751308D01*
X96686807Y-71773515D01*
X96660247Y-71793213D01*
X96631884Y-71810213D01*
X96601991Y-71824351D01*
X96570857Y-71835491D01*
X96538781Y-71843525D01*
X96506071Y-71848377D01*
X96473044Y-71850000D01*
X95596956Y-71850000D01*
X95563929Y-71848377D01*
X95531219Y-71843525D01*
X95499143Y-71835491D01*
X95468009Y-71824351D01*
X95438116Y-71810213D01*
X95409753Y-71793213D01*
X95383193Y-71773515D01*
X95358692Y-71751308D01*
X95336485Y-71726807D01*
X95316787Y-71700247D01*
X95299787Y-71671884D01*
X95285649Y-71641991D01*
X95274509Y-71610857D01*
X95266475Y-71578781D01*
X95261623Y-71546071D01*
X95260000Y-71513044D01*
X95260000Y-70386956D01*
X95261623Y-70353929D01*
X95266475Y-70321219D01*
X95274509Y-70289143D01*
X95285649Y-70258009D01*
X95299787Y-70228116D01*
X95316787Y-70199753D01*
X95336485Y-70173193D01*
X95358692Y-70148692D01*
X95383193Y-70126485D01*
X95409753Y-70106787D01*
X95438116Y-70089787D01*
X95468009Y-70075649D01*
X95499143Y-70064509D01*
X95531219Y-70056475D01*
X95563929Y-70051623D01*
X95596956Y-70050000D01*
X96473044Y-70050000D01*
X96506071Y-70051623D01*
X96506071Y-70051623D01*
G37*
D15*
X96035000Y-70950000D03*
G04 #@! TD*
D14*
G04 #@! TO.C,R11*
G36*
X91916071Y-61161623D02*
X91948781Y-61166475D01*
X91980857Y-61174509D01*
X92011991Y-61185649D01*
X92041884Y-61199787D01*
X92070247Y-61216787D01*
X92096807Y-61236485D01*
X92121308Y-61258692D01*
X92143515Y-61283193D01*
X92163213Y-61309753D01*
X92180213Y-61338116D01*
X92194351Y-61368009D01*
X92205491Y-61399143D01*
X92213525Y-61431219D01*
X92218377Y-61463929D01*
X92220000Y-61496956D01*
X92220000Y-62623044D01*
X92218377Y-62656071D01*
X92213525Y-62688781D01*
X92205491Y-62720857D01*
X92194351Y-62751991D01*
X92180213Y-62781884D01*
X92163213Y-62810247D01*
X92143515Y-62836807D01*
X92121308Y-62861308D01*
X92096807Y-62883515D01*
X92070247Y-62903213D01*
X92041884Y-62920213D01*
X92011991Y-62934351D01*
X91980857Y-62945491D01*
X91948781Y-62953525D01*
X91916071Y-62958377D01*
X91883044Y-62960000D01*
X91006956Y-62960000D01*
X90973929Y-62958377D01*
X90941219Y-62953525D01*
X90909143Y-62945491D01*
X90878009Y-62934351D01*
X90848116Y-62920213D01*
X90819753Y-62903213D01*
X90793193Y-62883515D01*
X90768692Y-62861308D01*
X90746485Y-62836807D01*
X90726787Y-62810247D01*
X90709787Y-62781884D01*
X90695649Y-62751991D01*
X90684509Y-62720857D01*
X90676475Y-62688781D01*
X90671623Y-62656071D01*
X90670000Y-62623044D01*
X90670000Y-61496956D01*
X90671623Y-61463929D01*
X90676475Y-61431219D01*
X90684509Y-61399143D01*
X90695649Y-61368009D01*
X90709787Y-61338116D01*
X90726787Y-61309753D01*
X90746485Y-61283193D01*
X90768692Y-61258692D01*
X90793193Y-61236485D01*
X90819753Y-61216787D01*
X90848116Y-61199787D01*
X90878009Y-61185649D01*
X90909143Y-61174509D01*
X90941219Y-61166475D01*
X90973929Y-61161623D01*
X91006956Y-61160000D01*
X91883044Y-61160000D01*
X91916071Y-61161623D01*
X91916071Y-61161623D01*
G37*
D15*
X91445000Y-62060000D03*
D14*
G36*
X93966071Y-61161623D02*
X93998781Y-61166475D01*
X94030857Y-61174509D01*
X94061991Y-61185649D01*
X94091884Y-61199787D01*
X94120247Y-61216787D01*
X94146807Y-61236485D01*
X94171308Y-61258692D01*
X94193515Y-61283193D01*
X94213213Y-61309753D01*
X94230213Y-61338116D01*
X94244351Y-61368009D01*
X94255491Y-61399143D01*
X94263525Y-61431219D01*
X94268377Y-61463929D01*
X94270000Y-61496956D01*
X94270000Y-62623044D01*
X94268377Y-62656071D01*
X94263525Y-62688781D01*
X94255491Y-62720857D01*
X94244351Y-62751991D01*
X94230213Y-62781884D01*
X94213213Y-62810247D01*
X94193515Y-62836807D01*
X94171308Y-62861308D01*
X94146807Y-62883515D01*
X94120247Y-62903213D01*
X94091884Y-62920213D01*
X94061991Y-62934351D01*
X94030857Y-62945491D01*
X93998781Y-62953525D01*
X93966071Y-62958377D01*
X93933044Y-62960000D01*
X93056956Y-62960000D01*
X93023929Y-62958377D01*
X92991219Y-62953525D01*
X92959143Y-62945491D01*
X92928009Y-62934351D01*
X92898116Y-62920213D01*
X92869753Y-62903213D01*
X92843193Y-62883515D01*
X92818692Y-62861308D01*
X92796485Y-62836807D01*
X92776787Y-62810247D01*
X92759787Y-62781884D01*
X92745649Y-62751991D01*
X92734509Y-62720857D01*
X92726475Y-62688781D01*
X92721623Y-62656071D01*
X92720000Y-62623044D01*
X92720000Y-61496956D01*
X92721623Y-61463929D01*
X92726475Y-61431219D01*
X92734509Y-61399143D01*
X92745649Y-61368009D01*
X92759787Y-61338116D01*
X92776787Y-61309753D01*
X92796485Y-61283193D01*
X92818692Y-61258692D01*
X92843193Y-61236485D01*
X92869753Y-61216787D01*
X92898116Y-61199787D01*
X92928009Y-61185649D01*
X92959143Y-61174509D01*
X92991219Y-61166475D01*
X93023929Y-61161623D01*
X93056956Y-61160000D01*
X93933044Y-61160000D01*
X93966071Y-61161623D01*
X93966071Y-61161623D01*
G37*
D15*
X93495000Y-62060000D03*
G04 #@! TD*
D16*
G04 #@! TO.C,P20*
X75189000Y-77300000D03*
D17*
X73189000Y-77300000D03*
G04 #@! TD*
D16*
G04 #@! TO.C,P19*
X73189000Y-69680000D03*
D17*
X75189000Y-69680000D03*
G04 #@! TD*
D16*
G04 #@! TO.C,P10*
X154437000Y-53728800D03*
D17*
X156437000Y-53728800D03*
X158437000Y-53728800D03*
X160437000Y-53728800D03*
G04 #@! TD*
D18*
G04 #@! TO.C,P7*
X159009000Y-83808000D03*
D19*
X159009000Y-81808000D03*
X159009000Y-79808000D03*
X159009000Y-77808000D03*
G04 #@! TD*
D18*
G04 #@! TO.C,P15*
X166375000Y-66696000D03*
D19*
X166375000Y-68696000D03*
X166375000Y-70696000D03*
X166375000Y-72696000D03*
G04 #@! TD*
D16*
G04 #@! TO.C,P4*
X104599411Y-96451671D03*
D17*
X102599411Y-96451671D03*
X100599411Y-96451671D03*
X98599411Y-96451671D03*
G04 #@! TD*
D16*
G04 #@! TO.C,P14*
X143261000Y-53728800D03*
D17*
X145261000Y-53728800D03*
X147261000Y-53728800D03*
X149261000Y-53728800D03*
G04 #@! TD*
D18*
G04 #@! TO.C,P3*
X166375000Y-77872000D03*
D19*
X166375000Y-79872000D03*
X166375000Y-81872000D03*
X166375000Y-83872000D03*
G04 #@! TD*
D16*
G04 #@! TO.C,P13*
X132085000Y-53728800D03*
D17*
X134085000Y-53728800D03*
X136085000Y-53728800D03*
X138085000Y-53728800D03*
G04 #@! TD*
D16*
G04 #@! TO.C,P2*
X149303411Y-96451671D03*
D17*
X147303411Y-96451671D03*
X145303411Y-96451671D03*
X143303411Y-96451671D03*
G04 #@! TD*
D16*
G04 #@! TO.C,P1*
X138127411Y-96451671D03*
D17*
X136127411Y-96451671D03*
X134127411Y-96451671D03*
X132127411Y-96451671D03*
G04 #@! TD*
D16*
G04 #@! TO.C,P0*
X115775411Y-96451671D03*
D17*
X113775411Y-96451671D03*
X111775411Y-96451671D03*
X109775411Y-96451671D03*
G04 #@! TD*
D20*
G04 #@! TO.C,U3*
X143955000Y-78010000D03*
X143955000Y-77510000D03*
X143955000Y-77010000D03*
X143955000Y-76510000D03*
X143955000Y-76010000D03*
X143955000Y-75510000D03*
X143955000Y-75010000D03*
X143955000Y-74510000D03*
X143955000Y-74010000D03*
X143955000Y-73510000D03*
X143955000Y-73010000D03*
X143955000Y-72510000D03*
X143955000Y-72010000D03*
X143955000Y-71510000D03*
D21*
X142955000Y-70510000D03*
X142455000Y-70510000D03*
X141955000Y-70510000D03*
X141455000Y-70510000D03*
X140955000Y-70510000D03*
X140455000Y-70510000D03*
X139955000Y-70510000D03*
X139455000Y-70510000D03*
X138955000Y-70510000D03*
X138455000Y-70510000D03*
X137955000Y-70510000D03*
X137455000Y-70510000D03*
X136955000Y-70510000D03*
X136455000Y-70510000D03*
D20*
X135455000Y-71510000D03*
X135455000Y-72010000D03*
X135455000Y-72510000D03*
X135455000Y-73010000D03*
X135455000Y-73510000D03*
X135455000Y-74010000D03*
X135455000Y-74510000D03*
X135455000Y-75010000D03*
X135455000Y-75510000D03*
X135455000Y-76010000D03*
X135455000Y-76510000D03*
X135455000Y-77010000D03*
X135455000Y-77510000D03*
X135455000Y-78010000D03*
D21*
X136455000Y-79010000D03*
X136955000Y-79010000D03*
X137455000Y-79010000D03*
X137955000Y-79010000D03*
X138455000Y-79010000D03*
X138955000Y-79010000D03*
X139455000Y-79010000D03*
X139955000Y-79010000D03*
X140455000Y-79010000D03*
X140955000Y-79010000D03*
X141455000Y-79010000D03*
X141955000Y-79010000D03*
X142455000Y-79010000D03*
X142955000Y-79010000D03*
D22*
X139705000Y-74760000D03*
G04 #@! TD*
D23*
G04 #@! TO.C,R10*
X98487000Y-65538000D03*
X98487000Y-68238000D03*
G04 #@! TD*
G04 #@! TO.C,R9*
X101075000Y-65538000D03*
X101075000Y-68238000D03*
G04 #@! TD*
G04 #@! TO.C,R8*
X103663000Y-65538000D03*
X103663000Y-68238000D03*
G04 #@! TD*
G04 #@! TO.C,R7*
X106251000Y-65538000D03*
X106251000Y-68238000D03*
G04 #@! TD*
D24*
G04 #@! TO.C,D8*
X98487000Y-60946000D03*
X98487000Y-63146000D03*
G04 #@! TD*
G04 #@! TO.C,D7*
X101075000Y-60946000D03*
X101075000Y-63146000D03*
G04 #@! TD*
G04 #@! TO.C,D6*
X103663000Y-60946000D03*
X103663000Y-63146000D03*
G04 #@! TD*
G04 #@! TO.C,D5*
X106251000Y-60946000D03*
X106251000Y-63146000D03*
G04 #@! TD*
D25*
G04 #@! TO.C,U2*
X87287000Y-74125000D03*
X87287000Y-72855000D03*
X87287000Y-71585000D03*
X87287000Y-70315000D03*
X81887000Y-70315000D03*
X81887000Y-71585000D03*
X81887000Y-72855000D03*
X81887000Y-74125000D03*
G04 #@! TD*
D26*
G04 #@! TO.C,U1*
X81335000Y-64360000D03*
D27*
X87635000Y-64360000D03*
X87635000Y-62060000D03*
X87635000Y-66660000D03*
G04 #@! TD*
D28*
G04 #@! TO.C,R6*
X96873000Y-86444000D03*
X99573000Y-86444000D03*
G04 #@! TD*
G04 #@! TO.C,R5*
X96873000Y-84412000D03*
X99573000Y-84412000D03*
G04 #@! TD*
G04 #@! TO.C,R4*
X96873000Y-81364000D03*
X99573000Y-81364000D03*
G04 #@! TD*
G04 #@! TO.C,R3*
X96873000Y-79332000D03*
X99573000Y-79332000D03*
G04 #@! TD*
D23*
G04 #@! TO.C,R2*
X81793000Y-78664000D03*
X81793000Y-81364000D03*
G04 #@! TD*
D28*
G04 #@! TO.C,R1*
X96685000Y-72855000D03*
X93985000Y-72855000D03*
G04 #@! TD*
D29*
G04 #@! TO.C,Q1*
X121163000Y-85682000D03*
X124063000Y-85682000D03*
X124063000Y-83382000D03*
X121163000Y-83382000D03*
G04 #@! TD*
D24*
G04 #@! TO.C,D4*
X92293000Y-86444000D03*
X94493000Y-86444000D03*
G04 #@! TD*
G04 #@! TO.C,D3*
X92293000Y-84412000D03*
X94493000Y-84412000D03*
G04 #@! TD*
G04 #@! TO.C,D2*
X92293000Y-81322443D03*
X94493000Y-81322443D03*
G04 #@! TD*
G04 #@! TO.C,D1*
X92293000Y-79332000D03*
X94493000Y-79332000D03*
G04 #@! TD*
D30*
G04 #@! TO.C,C19*
X91445000Y-92220000D03*
X91445000Y-97620000D03*
G04 #@! TD*
D31*
G04 #@! TO.C,C18*
X161803000Y-89746000D03*
X156403000Y-89746000D03*
G04 #@! TD*
G04 #@! TO.C,C17*
X161803000Y-60790000D03*
X156403000Y-60790000D03*
G04 #@! TD*
D32*
G04 #@! TO.C,C15*
X96291000Y-91524000D03*
X98791000Y-91524000D03*
G04 #@! TD*
D33*
G04 #@! TO.C,C14*
X166375000Y-89766000D03*
X166375000Y-92266000D03*
G04 #@! TD*
G04 #@! TO.C,C13*
X166375000Y-60770000D03*
X166375000Y-58270000D03*
G04 #@! TD*
D32*
G04 #@! TO.C,C12*
X96291000Y-58758000D03*
X98791000Y-58758000D03*
G04 #@! TD*
G04 #@! TO.C,C11*
X91465000Y-65870000D03*
X93965000Y-65870000D03*
G04 #@! TD*
D33*
G04 #@! TO.C,C10*
X80777000Y-57722000D03*
X80777000Y-55222000D03*
G04 #@! TD*
G04 #@! TO.C,C9*
X126751000Y-83182000D03*
X126751000Y-85682000D03*
G04 #@! TD*
G04 #@! TO.C,C8*
X118369000Y-85682000D03*
X118369000Y-83182000D03*
G04 #@! TD*
G04 #@! TO.C,C7*
X86111000Y-81344000D03*
X86111000Y-78844000D03*
G04 #@! TD*
D32*
G04 #@! TO.C,C6*
X126223000Y-73490000D03*
X123723000Y-73490000D03*
G04 #@! TD*
D33*
G04 #@! TO.C,C5*
X109479000Y-61064000D03*
X109479000Y-63564000D03*
G04 #@! TD*
G04 #@! TO.C,C4*
X115575000Y-82908000D03*
X115575000Y-85408000D03*
G04 #@! TD*
G04 #@! TO.C,C3*
X128529000Y-73510000D03*
X128529000Y-76010000D03*
G04 #@! TD*
G04 #@! TO.C,C2*
X105161000Y-81384000D03*
X105161000Y-83884000D03*
G04 #@! TD*
D32*
G04 #@! TO.C,C1*
X91445000Y-68664000D03*
X93945000Y-68664000D03*
G04 #@! TD*
D16*
G04 #@! TO.C,P8*
X98557000Y-53728800D03*
D17*
X100557000Y-53728800D03*
X102557000Y-53728800D03*
X104557000Y-53728800D03*
G04 #@! TD*
D16*
G04 #@! TO.C,P12*
X109733000Y-53728800D03*
D17*
X111733000Y-53728800D03*
X113733000Y-53728800D03*
X115733000Y-53728800D03*
G04 #@! TD*
D16*
G04 #@! TO.C,P9*
X120909000Y-53728800D03*
D17*
X122909000Y-53728800D03*
X124909000Y-53728800D03*
X126909000Y-53728800D03*
G04 #@! TD*
D18*
G04 #@! TO.C,P11*
X159009000Y-72632000D03*
D19*
X159009000Y-70632000D03*
X159009000Y-68632000D03*
X159009000Y-66632000D03*
G04 #@! TD*
D16*
G04 #@! TO.C,P6*
X160479411Y-96451671D03*
D17*
X158479411Y-96451671D03*
X156479411Y-96451671D03*
X154479411Y-96451671D03*
G04 #@! TD*
D16*
G04 #@! TO.C,P5*
X126951411Y-96451671D03*
D17*
X124951411Y-96451671D03*
X122951411Y-96451671D03*
X120951411Y-96451671D03*
G04 #@! TD*
D30*
G04 #@! TO.C,C16*
X90937000Y-57902000D03*
X90937000Y-52502000D03*
G04 #@! TD*
D34*
G04 #@! TO.C,IC1*
X121275000Y-78760000D03*
X121275000Y-77960000D03*
X121275000Y-77160000D03*
X121275000Y-76360000D03*
X121275000Y-75560000D03*
X121275000Y-74760000D03*
X121275000Y-73960000D03*
X121275000Y-73160000D03*
X121275000Y-72360000D03*
X121275000Y-71560000D03*
X121275000Y-70760000D03*
D35*
X119575000Y-69060000D03*
X118775000Y-69060000D03*
X117975000Y-69060000D03*
X117175000Y-69060000D03*
X116375000Y-69060000D03*
X115575000Y-69060000D03*
X114775000Y-69060000D03*
X113975000Y-69060000D03*
X113175000Y-69060000D03*
X112375000Y-69060000D03*
X111575000Y-69060000D03*
D34*
X109875000Y-70760000D03*
X109875000Y-71560000D03*
X109875000Y-72360000D03*
X109875000Y-73160000D03*
X109875000Y-73960000D03*
X109875000Y-74760000D03*
X109875000Y-75560000D03*
X109875000Y-76360000D03*
X109875000Y-77160000D03*
X109875000Y-77960000D03*
X109875000Y-78760000D03*
D35*
X111575000Y-80460000D03*
X112375000Y-80460000D03*
X113175000Y-80460000D03*
X113975000Y-80460000D03*
X114775000Y-80460000D03*
X115575000Y-80460000D03*
X116375000Y-80460000D03*
X117175000Y-80460000D03*
X117975000Y-80460000D03*
X118775000Y-80460000D03*
X119575000Y-80460000D03*
G04 #@! TD*
M02*
