M48
;DRILL file {KiCad 4.0.6} date Sun Jul 30 23:32:13 2017
;FORMAT={-:-/ absolute / inch / decimal}
FMAT,2
INCH,TZ
T1C0.016
T2C0.030
T3C0.040
T4C0.047
T5C0.126
T6C0.142
%
G90
G05
M72
T1
X2.8902Y-3.1933
X2.8902Y-3.3533
X2.8902Y-3.5233
X2.9802Y-3.6033
X3.2902Y-3.2533
X3.3602Y-3.3633
X3.4794Y-3.1041
X3.4802Y-3.2933
X3.4802Y-3.4533
X3.6502Y-2.6333
X3.6702Y-2.8633
X3.6702Y-2.9433
X3.6702Y-3.0533
X3.7365Y-3.8196
X3.7902Y-2.3833
X3.9802Y-2.9433
X3.9802Y-3.0533
X3.9902Y-3.6033
X4.0802Y-3.2733
X4.1902Y-3.0433
X4.3102Y-2.5833
X4.4502Y-2.8933
X4.4502Y-2.9933
X4.4502Y-3.0933
X4.4902Y-3.3633
X4.5502Y-2.8933
X4.5502Y-2.9933
X4.5602Y-2.5833
X4.6502Y-2.8933
X4.6502Y-2.9933
X4.7902Y-2.5633
X4.8502Y-2.9633
X4.9002Y-2.7733
X4.9002Y-3.0533
X4.9402Y-2.9633
X4.9402Y-3.1833
X4.9602Y-2.5133
X4.9902Y-3.0633
X4.9907Y-2.7356
X5.0402Y-2.5133
X5.0402Y-2.6133
X5.0602Y-2.7433
X5.0602Y-3.1033
X5.1102Y-2.5133
X5.1102Y-2.6133
X5.1302Y-2.8233
X5.1302Y-2.9133
X5.1302Y-2.9933
X5.1302Y-3.1833
X5.1302Y-3.3733
X5.1802Y-2.6133
X5.4302Y-2.8733
X5.4302Y-2.9206
X5.4302Y-2.9678
X5.4302Y-3.015
X5.4774Y-2.8733
X5.4774Y-2.9206
X5.4774Y-2.9678
X5.4774Y-3.015
X5.5247Y-2.8733
X5.5247Y-2.9206
X5.5247Y-2.9678
X5.5247Y-3.015
X5.5719Y-2.8733
X5.5719Y-2.9206
X5.5719Y-2.9678
X5.5719Y-3.015
X5.6102Y-2.5033
X5.6302Y-2.6033
X5.7002Y-2.5333
X5.7202Y-2.6933
X5.8002Y-2.6233
X5.8002Y-3.1433
X5.8402Y-2.9033
X5.9502Y-2.7133
X5.9602Y-2.8533
X6.0002Y-3.3133
X6.0102Y-2.6233
X6.0302Y-2.3933
X6.0802Y-3.4133
X6.1002Y-2.6233
X6.1002Y-2.7133
X6.1002Y-2.8433
X6.1002Y-3.0433
X6.1302Y-3.1833
T2
X2.8815Y-2.7433
X2.8815Y-3.0433
X2.9602Y-2.7433
X2.9602Y-3.0433
X3.8802Y-2.1153
X3.8819Y-3.7973
X3.9589Y-2.1153
X3.9606Y-3.7973
X4.0377Y-2.1153
X4.0393Y-3.7973
X4.1164Y-2.1153
X4.1181Y-3.7973
X4.3202Y-2.1153
X4.3219Y-3.7973
X4.3989Y-2.1153
X4.4006Y-3.7973
X4.4777Y-2.1153
X4.4793Y-3.7973
X4.5564Y-2.1153
X4.5581Y-3.7973
X4.7602Y-2.1153
X4.7619Y-3.7973
X4.8389Y-2.1153
X4.8406Y-3.7973
X4.9177Y-2.1153
X4.9193Y-3.7973
X4.9964Y-2.1153
X4.9981Y-3.7973
X5.2002Y-2.1153
X5.2019Y-3.7973
X5.2789Y-2.1153
X5.2806Y-3.7973
X5.3577Y-2.1153
X5.3593Y-3.7973
X5.4364Y-2.1153
X5.4381Y-3.7973
X5.6402Y-2.1153
X5.6419Y-3.7973
X5.7189Y-2.1153
X5.7206Y-3.7973
X5.7977Y-2.1153
X5.7993Y-3.7973
X5.8764Y-2.1153
X5.8781Y-3.7973
X6.0802Y-2.1153
X6.0819Y-3.7973
X6.1589Y-2.1153
X6.1606Y-3.7973
X6.2377Y-2.1153
X6.2393Y-3.7973
X6.2602Y-2.6233
X6.2602Y-2.702
X6.2602Y-2.7808
X6.2602Y-2.8595
X6.2602Y-3.0633
X6.2602Y-3.142
X6.2602Y-3.2208
X6.2602Y-3.2995
X6.3164Y-2.1153
X6.3181Y-3.7973
X6.5502Y-2.6258
X6.5502Y-2.7046
X6.5502Y-2.7833
X6.5502Y-2.862
X6.5502Y-3.0658
X6.5502Y-3.1446
X6.5502Y-3.2233
X6.5502Y-3.302
T3
X3.1102Y-3.5033
X3.1102Y-3.6033
X3.1102Y-3.7033
X3.2102Y-3.5033
X3.2102Y-3.6033
X3.2102Y-3.7033
T4
X2.9402Y-2.2955
X2.9402Y-2.4333
T5
X2.8902Y-2.1033
X2.8902Y-3.8033
X6.5502Y-3.8033
T6
X6.5502Y-2.1033
T0
M30
