G04 #@! TF.FileFunction,Legend,Top*
%FSLAX46Y46*%
G04 Gerber Fmt 4.6, Leading zero omitted, Abs format (unit mm)*
G04 Created by KiCad (PCBNEW 4.0.6) date Sun Jul 30 22:25:41 2017*
%MOMM*%
%LPD*%
G01*
G04 APERTURE LIST*
%ADD10C,0.100000*%
%ADD11C,0.120000*%
%ADD12C,0.150000*%
G04 APERTURE END LIST*
D10*
D11*
X93477000Y-58502000D02*
X92057000Y-58502000D01*
X94237000Y-51902000D02*
X92057000Y-51902000D01*
X87637000Y-51902000D02*
X89817000Y-51902000D01*
X88397000Y-58502000D02*
X89817000Y-58502000D01*
X94237000Y-51902000D02*
X94237000Y-57742000D01*
X94237000Y-57742000D02*
X93477000Y-58502000D01*
X88397000Y-58502000D02*
X87637000Y-57742000D01*
X87637000Y-57742000D02*
X87637000Y-51902000D01*
X129001411Y-98251671D02*
X129001411Y-93551671D01*
X129001411Y-93551671D02*
X118901411Y-93551671D01*
X118901411Y-93551671D02*
X118901411Y-98251671D01*
X118901411Y-98251671D02*
X129001411Y-98251671D01*
X126451411Y-98251671D02*
X126451411Y-97651671D01*
X126451411Y-97651671D02*
X128401411Y-97651671D01*
X128401411Y-97651671D02*
X128401411Y-94151671D01*
X128401411Y-94151671D02*
X119501411Y-94151671D01*
X119501411Y-94151671D02*
X119501411Y-97651671D01*
X119501411Y-97651671D02*
X121451411Y-97651671D01*
X121451411Y-97651671D02*
X121451411Y-98251671D01*
X129001411Y-96951671D02*
X128401411Y-96951671D01*
X129001411Y-95651671D02*
X128401411Y-95651671D01*
X118901411Y-96951671D02*
X119501411Y-96951671D01*
X118901411Y-95651671D02*
X119501411Y-95651671D01*
X127251411Y-98251671D02*
X127251411Y-98451671D01*
X127251411Y-98451671D02*
X127551411Y-98451671D01*
X127551411Y-98451671D02*
X127551411Y-98251671D01*
X127251411Y-98351671D02*
X127551411Y-98351671D01*
X126051411Y-94151671D02*
X126051411Y-94651671D01*
X126051411Y-94651671D02*
X125851411Y-94651671D01*
X125851411Y-94651671D02*
X125851411Y-94151671D01*
X125951411Y-94151671D02*
X125951411Y-94651671D01*
X124051411Y-94151671D02*
X124051411Y-94651671D01*
X124051411Y-94651671D02*
X123851411Y-94651671D01*
X123851411Y-94651671D02*
X123851411Y-94151671D01*
X123951411Y-94151671D02*
X123951411Y-94651671D01*
X122051411Y-94151671D02*
X122051411Y-94651671D01*
X122051411Y-94651671D02*
X121851411Y-94651671D01*
X121851411Y-94651671D02*
X121851411Y-94151671D01*
X121951411Y-94151671D02*
X121951411Y-94651671D01*
X128051411Y-98551671D02*
X129301411Y-98551671D01*
X129301411Y-98551671D02*
X129301411Y-97301671D01*
X162529411Y-98251671D02*
X162529411Y-93551671D01*
X162529411Y-93551671D02*
X152429411Y-93551671D01*
X152429411Y-93551671D02*
X152429411Y-98251671D01*
X152429411Y-98251671D02*
X162529411Y-98251671D01*
X159979411Y-98251671D02*
X159979411Y-97651671D01*
X159979411Y-97651671D02*
X161929411Y-97651671D01*
X161929411Y-97651671D02*
X161929411Y-94151671D01*
X161929411Y-94151671D02*
X153029411Y-94151671D01*
X153029411Y-94151671D02*
X153029411Y-97651671D01*
X153029411Y-97651671D02*
X154979411Y-97651671D01*
X154979411Y-97651671D02*
X154979411Y-98251671D01*
X162529411Y-96951671D02*
X161929411Y-96951671D01*
X162529411Y-95651671D02*
X161929411Y-95651671D01*
X152429411Y-96951671D02*
X153029411Y-96951671D01*
X152429411Y-95651671D02*
X153029411Y-95651671D01*
X160779411Y-98251671D02*
X160779411Y-98451671D01*
X160779411Y-98451671D02*
X161079411Y-98451671D01*
X161079411Y-98451671D02*
X161079411Y-98251671D01*
X160779411Y-98351671D02*
X161079411Y-98351671D01*
X159579411Y-94151671D02*
X159579411Y-94651671D01*
X159579411Y-94651671D02*
X159379411Y-94651671D01*
X159379411Y-94651671D02*
X159379411Y-94151671D01*
X159479411Y-94151671D02*
X159479411Y-94651671D01*
X157579411Y-94151671D02*
X157579411Y-94651671D01*
X157579411Y-94651671D02*
X157379411Y-94651671D01*
X157379411Y-94651671D02*
X157379411Y-94151671D01*
X157479411Y-94151671D02*
X157479411Y-94651671D01*
X155579411Y-94151671D02*
X155579411Y-94651671D01*
X155579411Y-94651671D02*
X155379411Y-94651671D01*
X155379411Y-94651671D02*
X155379411Y-94151671D01*
X155479411Y-94151671D02*
X155479411Y-94651671D01*
X161579411Y-98551671D02*
X162829411Y-98551671D01*
X162829411Y-98551671D02*
X162829411Y-97301671D01*
X157209000Y-74682000D02*
X161909000Y-74682000D01*
X161909000Y-74682000D02*
X161909000Y-64582000D01*
X161909000Y-64582000D02*
X157209000Y-64582000D01*
X157209000Y-64582000D02*
X157209000Y-74682000D01*
X157209000Y-72132000D02*
X157809000Y-72132000D01*
X157809000Y-72132000D02*
X157809000Y-74082000D01*
X157809000Y-74082000D02*
X161309000Y-74082000D01*
X161309000Y-74082000D02*
X161309000Y-65182000D01*
X161309000Y-65182000D02*
X157809000Y-65182000D01*
X157809000Y-65182000D02*
X157809000Y-67132000D01*
X157809000Y-67132000D02*
X157209000Y-67132000D01*
X158509000Y-74682000D02*
X158509000Y-74082000D01*
X159809000Y-74682000D02*
X159809000Y-74082000D01*
X158509000Y-64582000D02*
X158509000Y-65182000D01*
X159809000Y-64582000D02*
X159809000Y-65182000D01*
X157209000Y-72932000D02*
X157009000Y-72932000D01*
X157009000Y-72932000D02*
X157009000Y-73232000D01*
X157009000Y-73232000D02*
X157209000Y-73232000D01*
X157109000Y-72932000D02*
X157109000Y-73232000D01*
X161309000Y-71732000D02*
X160809000Y-71732000D01*
X160809000Y-71732000D02*
X160809000Y-71532000D01*
X160809000Y-71532000D02*
X161309000Y-71532000D01*
X161309000Y-71632000D02*
X160809000Y-71632000D01*
X161309000Y-69732000D02*
X160809000Y-69732000D01*
X160809000Y-69732000D02*
X160809000Y-69532000D01*
X160809000Y-69532000D02*
X161309000Y-69532000D01*
X161309000Y-69632000D02*
X160809000Y-69632000D01*
X161309000Y-67732000D02*
X160809000Y-67732000D01*
X160809000Y-67732000D02*
X160809000Y-67532000D01*
X160809000Y-67532000D02*
X161309000Y-67532000D01*
X161309000Y-67632000D02*
X160809000Y-67632000D01*
X156909000Y-73732000D02*
X156909000Y-74982000D01*
X156909000Y-74982000D02*
X158159000Y-74982000D01*
X118859000Y-51928800D02*
X118859000Y-56628800D01*
X118859000Y-56628800D02*
X128959000Y-56628800D01*
X128959000Y-56628800D02*
X128959000Y-51928800D01*
X128959000Y-51928800D02*
X118859000Y-51928800D01*
X121409000Y-51928800D02*
X121409000Y-52528800D01*
X121409000Y-52528800D02*
X119459000Y-52528800D01*
X119459000Y-52528800D02*
X119459000Y-56028800D01*
X119459000Y-56028800D02*
X128359000Y-56028800D01*
X128359000Y-56028800D02*
X128359000Y-52528800D01*
X128359000Y-52528800D02*
X126409000Y-52528800D01*
X126409000Y-52528800D02*
X126409000Y-51928800D01*
X118859000Y-53228800D02*
X119459000Y-53228800D01*
X118859000Y-54528800D02*
X119459000Y-54528800D01*
X128959000Y-53228800D02*
X128359000Y-53228800D01*
X128959000Y-54528800D02*
X128359000Y-54528800D01*
X120609000Y-51928800D02*
X120609000Y-51728800D01*
X120609000Y-51728800D02*
X120309000Y-51728800D01*
X120309000Y-51728800D02*
X120309000Y-51928800D01*
X120609000Y-51828800D02*
X120309000Y-51828800D01*
X121809000Y-56028800D02*
X121809000Y-55528800D01*
X121809000Y-55528800D02*
X122009000Y-55528800D01*
X122009000Y-55528800D02*
X122009000Y-56028800D01*
X121909000Y-56028800D02*
X121909000Y-55528800D01*
X123809000Y-56028800D02*
X123809000Y-55528800D01*
X123809000Y-55528800D02*
X124009000Y-55528800D01*
X124009000Y-55528800D02*
X124009000Y-56028800D01*
X123909000Y-56028800D02*
X123909000Y-55528800D01*
X125809000Y-56028800D02*
X125809000Y-55528800D01*
X125809000Y-55528800D02*
X126009000Y-55528800D01*
X126009000Y-55528800D02*
X126009000Y-56028800D01*
X125909000Y-56028800D02*
X125909000Y-55528800D01*
X119809000Y-51628800D02*
X118559000Y-51628800D01*
X118559000Y-51628800D02*
X118559000Y-52878800D01*
X107683000Y-51928800D02*
X107683000Y-56628800D01*
X107683000Y-56628800D02*
X117783000Y-56628800D01*
X117783000Y-56628800D02*
X117783000Y-51928800D01*
X117783000Y-51928800D02*
X107683000Y-51928800D01*
X110233000Y-51928800D02*
X110233000Y-52528800D01*
X110233000Y-52528800D02*
X108283000Y-52528800D01*
X108283000Y-52528800D02*
X108283000Y-56028800D01*
X108283000Y-56028800D02*
X117183000Y-56028800D01*
X117183000Y-56028800D02*
X117183000Y-52528800D01*
X117183000Y-52528800D02*
X115233000Y-52528800D01*
X115233000Y-52528800D02*
X115233000Y-51928800D01*
X107683000Y-53228800D02*
X108283000Y-53228800D01*
X107683000Y-54528800D02*
X108283000Y-54528800D01*
X117783000Y-53228800D02*
X117183000Y-53228800D01*
X117783000Y-54528800D02*
X117183000Y-54528800D01*
X109433000Y-51928800D02*
X109433000Y-51728800D01*
X109433000Y-51728800D02*
X109133000Y-51728800D01*
X109133000Y-51728800D02*
X109133000Y-51928800D01*
X109433000Y-51828800D02*
X109133000Y-51828800D01*
X110633000Y-56028800D02*
X110633000Y-55528800D01*
X110633000Y-55528800D02*
X110833000Y-55528800D01*
X110833000Y-55528800D02*
X110833000Y-56028800D01*
X110733000Y-56028800D02*
X110733000Y-55528800D01*
X112633000Y-56028800D02*
X112633000Y-55528800D01*
X112633000Y-55528800D02*
X112833000Y-55528800D01*
X112833000Y-55528800D02*
X112833000Y-56028800D01*
X112733000Y-56028800D02*
X112733000Y-55528800D01*
X114633000Y-56028800D02*
X114633000Y-55528800D01*
X114633000Y-55528800D02*
X114833000Y-55528800D01*
X114833000Y-55528800D02*
X114833000Y-56028800D01*
X114733000Y-56028800D02*
X114733000Y-55528800D01*
X108633000Y-51628800D02*
X107383000Y-51628800D01*
X107383000Y-51628800D02*
X107383000Y-52878800D01*
X96507000Y-51928800D02*
X96507000Y-56628800D01*
X96507000Y-56628800D02*
X106607000Y-56628800D01*
X106607000Y-56628800D02*
X106607000Y-51928800D01*
X106607000Y-51928800D02*
X96507000Y-51928800D01*
X99057000Y-51928800D02*
X99057000Y-52528800D01*
X99057000Y-52528800D02*
X97107000Y-52528800D01*
X97107000Y-52528800D02*
X97107000Y-56028800D01*
X97107000Y-56028800D02*
X106007000Y-56028800D01*
X106007000Y-56028800D02*
X106007000Y-52528800D01*
X106007000Y-52528800D02*
X104057000Y-52528800D01*
X104057000Y-52528800D02*
X104057000Y-51928800D01*
X96507000Y-53228800D02*
X97107000Y-53228800D01*
X96507000Y-54528800D02*
X97107000Y-54528800D01*
X106607000Y-53228800D02*
X106007000Y-53228800D01*
X106607000Y-54528800D02*
X106007000Y-54528800D01*
X98257000Y-51928800D02*
X98257000Y-51728800D01*
X98257000Y-51728800D02*
X97957000Y-51728800D01*
X97957000Y-51728800D02*
X97957000Y-51928800D01*
X98257000Y-51828800D02*
X97957000Y-51828800D01*
X99457000Y-56028800D02*
X99457000Y-55528800D01*
X99457000Y-55528800D02*
X99657000Y-55528800D01*
X99657000Y-55528800D02*
X99657000Y-56028800D01*
X99557000Y-56028800D02*
X99557000Y-55528800D01*
X101457000Y-56028800D02*
X101457000Y-55528800D01*
X101457000Y-55528800D02*
X101657000Y-55528800D01*
X101657000Y-55528800D02*
X101657000Y-56028800D01*
X101557000Y-56028800D02*
X101557000Y-55528800D01*
X103457000Y-56028800D02*
X103457000Y-55528800D01*
X103457000Y-55528800D02*
X103657000Y-55528800D01*
X103657000Y-55528800D02*
X103657000Y-56028800D01*
X103557000Y-56028800D02*
X103557000Y-55528800D01*
X97457000Y-51628800D02*
X96207000Y-51628800D01*
X96207000Y-51628800D02*
X96207000Y-52878800D01*
D12*
X120750000Y-79935000D02*
X120750000Y-79360000D01*
X110400000Y-79935000D02*
X110400000Y-79260000D01*
X110400000Y-69585000D02*
X110400000Y-70260000D01*
X120750000Y-69585000D02*
X120750000Y-70260000D01*
X120750000Y-79935000D02*
X120075000Y-79935000D01*
X120750000Y-69585000D02*
X120075000Y-69585000D01*
X110400000Y-69585000D02*
X111075000Y-69585000D01*
X110400000Y-79935000D02*
X111075000Y-79935000D01*
X120750000Y-79360000D02*
X122025000Y-79360000D01*
D11*
X92453000Y-67814000D02*
X91453000Y-67814000D01*
X91453000Y-69514000D02*
X92453000Y-69514000D01*
X106011000Y-83134000D02*
X106011000Y-82134000D01*
X104311000Y-82134000D02*
X104311000Y-83134000D01*
X129379000Y-75260000D02*
X129379000Y-74260000D01*
X127679000Y-74260000D02*
X127679000Y-75260000D01*
X116425000Y-84658000D02*
X116425000Y-83658000D01*
X114725000Y-83658000D02*
X114725000Y-84658000D01*
X110329000Y-62814000D02*
X110329000Y-61814000D01*
X108629000Y-61814000D02*
X108629000Y-62814000D01*
X124473000Y-74340000D02*
X125473000Y-74340000D01*
X125473000Y-72640000D02*
X124473000Y-72640000D01*
X85261000Y-79594000D02*
X85261000Y-80594000D01*
X86961000Y-80594000D02*
X86961000Y-79594000D01*
X117519000Y-83932000D02*
X117519000Y-84932000D01*
X119219000Y-84932000D02*
X119219000Y-83932000D01*
X127601000Y-84932000D02*
X127601000Y-83932000D01*
X125901000Y-83932000D02*
X125901000Y-84932000D01*
X79927000Y-55972000D02*
X79927000Y-56972000D01*
X81627000Y-56972000D02*
X81627000Y-55972000D01*
X93565000Y-64318000D02*
X93565000Y-63318000D01*
X91865000Y-63318000D02*
X91865000Y-64318000D01*
X98041000Y-57908000D02*
X97041000Y-57908000D01*
X97041000Y-59608000D02*
X98041000Y-59608000D01*
X165525000Y-59020000D02*
X165525000Y-60020000D01*
X167225000Y-60020000D02*
X167225000Y-59020000D01*
X167225000Y-91516000D02*
X167225000Y-90516000D01*
X165525000Y-90516000D02*
X165525000Y-91516000D01*
X98041000Y-90674000D02*
X97041000Y-90674000D01*
X97041000Y-92374000D02*
X98041000Y-92374000D01*
X162403000Y-58250000D02*
X162403000Y-59670000D01*
X155803000Y-57490000D02*
X155803000Y-59670000D01*
X155803000Y-64090000D02*
X155803000Y-61910000D01*
X162403000Y-63330000D02*
X162403000Y-61910000D01*
X155803000Y-57490000D02*
X161643000Y-57490000D01*
X161643000Y-57490000D02*
X162403000Y-58250000D01*
X162403000Y-63330000D02*
X161643000Y-64090000D01*
X161643000Y-64090000D02*
X155803000Y-64090000D01*
X162403000Y-87206000D02*
X162403000Y-88626000D01*
X155803000Y-86446000D02*
X155803000Y-88626000D01*
X155803000Y-93046000D02*
X155803000Y-90866000D01*
X162403000Y-92286000D02*
X162403000Y-90866000D01*
X155803000Y-86446000D02*
X161643000Y-86446000D01*
X161643000Y-86446000D02*
X162403000Y-87206000D01*
X162403000Y-92286000D02*
X161643000Y-93046000D01*
X161643000Y-93046000D02*
X155803000Y-93046000D01*
X88397000Y-91018000D02*
X89817000Y-91018000D01*
X87637000Y-97618000D02*
X89817000Y-97618000D01*
X94237000Y-97618000D02*
X92057000Y-97618000D01*
X93477000Y-91018000D02*
X92057000Y-91018000D01*
X87637000Y-97618000D02*
X87637000Y-91778000D01*
X87637000Y-91778000D02*
X88397000Y-91018000D01*
X93477000Y-91018000D02*
X94237000Y-91778000D01*
X94237000Y-91778000D02*
X94237000Y-97618000D01*
X95193000Y-80032000D02*
X95193000Y-78632000D01*
X95193000Y-78632000D02*
X92393000Y-78632000D01*
X95193000Y-80032000D02*
X92393000Y-80032000D01*
X95193000Y-82022443D02*
X95193000Y-80622443D01*
X95193000Y-80622443D02*
X92393000Y-80622443D01*
X95193000Y-82022443D02*
X92393000Y-82022443D01*
X95193000Y-85112000D02*
X95193000Y-83712000D01*
X95193000Y-83712000D02*
X92393000Y-83712000D01*
X95193000Y-85112000D02*
X92393000Y-85112000D01*
X95193000Y-87144000D02*
X95193000Y-85744000D01*
X95193000Y-85744000D02*
X92393000Y-85744000D01*
X95193000Y-87144000D02*
X92393000Y-87144000D01*
D12*
X70581000Y-60056000D02*
X70181000Y-60056000D01*
X71681000Y-56556000D02*
X71681000Y-63556000D01*
X70581000Y-56556000D02*
X70581000Y-63556000D01*
X77781000Y-56556000D02*
X70181000Y-56556000D01*
X70181000Y-63556000D02*
X77781000Y-63556000D01*
X77781000Y-63556000D02*
X77781000Y-56556000D01*
D11*
X85069000Y-83654000D02*
X85069000Y-99394000D01*
X85069000Y-99394000D02*
X75469000Y-99394000D01*
X75469000Y-99394000D02*
X75469000Y-83654000D01*
X75469000Y-83654000D02*
X85069000Y-83654000D01*
X119913000Y-82282000D02*
X119913000Y-86782000D01*
X119913000Y-86782000D02*
X125313000Y-86782000D01*
X96687000Y-71848000D02*
X97887000Y-71848000D01*
X97887000Y-73608000D02*
X96687000Y-73608000D01*
X80913000Y-80614000D02*
X80913000Y-79414000D01*
X82673000Y-79414000D02*
X82673000Y-80614000D01*
X98823000Y-80212000D02*
X97623000Y-80212000D01*
X97623000Y-78452000D02*
X98823000Y-78452000D01*
X98823000Y-82244000D02*
X97623000Y-82244000D01*
X97623000Y-80484000D02*
X98823000Y-80484000D01*
X98823000Y-85292000D02*
X97623000Y-85292000D01*
X97623000Y-83532000D02*
X98823000Y-83532000D01*
X98823000Y-87324000D02*
X97623000Y-87324000D01*
X97623000Y-85564000D02*
X98823000Y-85564000D01*
X82575000Y-60950000D02*
X82575000Y-62210000D01*
X82575000Y-67770000D02*
X82575000Y-66510000D01*
X86335000Y-60950000D02*
X82575000Y-60950000D01*
X88585000Y-67770000D02*
X82575000Y-67770000D01*
D12*
X86662000Y-74795000D02*
X86662000Y-74745000D01*
X82512000Y-74795000D02*
X82512000Y-74650000D01*
X82512000Y-69645000D02*
X82512000Y-69790000D01*
X86662000Y-69645000D02*
X86662000Y-69790000D01*
X86662000Y-74795000D02*
X82512000Y-74795000D01*
X86662000Y-69645000D02*
X82512000Y-69645000D01*
X86662000Y-74745000D02*
X88062000Y-74745000D01*
D11*
X105551000Y-63846000D02*
X106951000Y-63846000D01*
X106951000Y-63846000D02*
X106951000Y-61046000D01*
X105551000Y-63846000D02*
X105551000Y-61046000D01*
X102963000Y-63846000D02*
X104363000Y-63846000D01*
X104363000Y-63846000D02*
X104363000Y-61046000D01*
X102963000Y-63846000D02*
X102963000Y-61046000D01*
X100375000Y-63846000D02*
X101775000Y-63846000D01*
X101775000Y-63846000D02*
X101775000Y-61046000D01*
X100375000Y-63846000D02*
X100375000Y-61046000D01*
X97787000Y-63846000D02*
X99187000Y-63846000D01*
X99187000Y-63846000D02*
X99187000Y-61046000D01*
X97787000Y-63846000D02*
X97787000Y-61046000D01*
X105371000Y-67488000D02*
X105371000Y-66288000D01*
X107131000Y-66288000D02*
X107131000Y-67488000D01*
X102783000Y-67488000D02*
X102783000Y-66288000D01*
X104543000Y-66288000D02*
X104543000Y-67488000D01*
X100195000Y-67488000D02*
X100195000Y-66288000D01*
X101955000Y-66288000D02*
X101955000Y-67488000D01*
X97607000Y-67488000D02*
X97607000Y-66288000D01*
X99367000Y-66288000D02*
X99367000Y-67488000D01*
D12*
X143705000Y-78510000D02*
X143455000Y-78760000D01*
X135955000Y-78760000D02*
X135705000Y-78760000D01*
X135705000Y-78760000D02*
X135705000Y-78510000D01*
X143455000Y-70760000D02*
X143705000Y-70760000D01*
X143705000Y-70760000D02*
X143705000Y-71010000D01*
X135955000Y-70760000D02*
X135705000Y-70760000D01*
X135705000Y-70760000D02*
X135705000Y-71010000D01*
D11*
X117825411Y-98251671D02*
X117825411Y-93551671D01*
X117825411Y-93551671D02*
X107725411Y-93551671D01*
X107725411Y-93551671D02*
X107725411Y-98251671D01*
X107725411Y-98251671D02*
X117825411Y-98251671D01*
X115275411Y-98251671D02*
X115275411Y-97651671D01*
X115275411Y-97651671D02*
X117225411Y-97651671D01*
X117225411Y-97651671D02*
X117225411Y-94151671D01*
X117225411Y-94151671D02*
X108325411Y-94151671D01*
X108325411Y-94151671D02*
X108325411Y-97651671D01*
X108325411Y-97651671D02*
X110275411Y-97651671D01*
X110275411Y-97651671D02*
X110275411Y-98251671D01*
X117825411Y-96951671D02*
X117225411Y-96951671D01*
X117825411Y-95651671D02*
X117225411Y-95651671D01*
X107725411Y-96951671D02*
X108325411Y-96951671D01*
X107725411Y-95651671D02*
X108325411Y-95651671D01*
X116075411Y-98251671D02*
X116075411Y-98451671D01*
X116075411Y-98451671D02*
X116375411Y-98451671D01*
X116375411Y-98451671D02*
X116375411Y-98251671D01*
X116075411Y-98351671D02*
X116375411Y-98351671D01*
X114875411Y-94151671D02*
X114875411Y-94651671D01*
X114875411Y-94651671D02*
X114675411Y-94651671D01*
X114675411Y-94651671D02*
X114675411Y-94151671D01*
X114775411Y-94151671D02*
X114775411Y-94651671D01*
X112875411Y-94151671D02*
X112875411Y-94651671D01*
X112875411Y-94651671D02*
X112675411Y-94651671D01*
X112675411Y-94651671D02*
X112675411Y-94151671D01*
X112775411Y-94151671D02*
X112775411Y-94651671D01*
X110875411Y-94151671D02*
X110875411Y-94651671D01*
X110875411Y-94651671D02*
X110675411Y-94651671D01*
X110675411Y-94651671D02*
X110675411Y-94151671D01*
X110775411Y-94151671D02*
X110775411Y-94651671D01*
X116875411Y-98551671D02*
X118125411Y-98551671D01*
X118125411Y-98551671D02*
X118125411Y-97301671D01*
X140177411Y-98251671D02*
X140177411Y-93551671D01*
X140177411Y-93551671D02*
X130077411Y-93551671D01*
X130077411Y-93551671D02*
X130077411Y-98251671D01*
X130077411Y-98251671D02*
X140177411Y-98251671D01*
X137627411Y-98251671D02*
X137627411Y-97651671D01*
X137627411Y-97651671D02*
X139577411Y-97651671D01*
X139577411Y-97651671D02*
X139577411Y-94151671D01*
X139577411Y-94151671D02*
X130677411Y-94151671D01*
X130677411Y-94151671D02*
X130677411Y-97651671D01*
X130677411Y-97651671D02*
X132627411Y-97651671D01*
X132627411Y-97651671D02*
X132627411Y-98251671D01*
X140177411Y-96951671D02*
X139577411Y-96951671D01*
X140177411Y-95651671D02*
X139577411Y-95651671D01*
X130077411Y-96951671D02*
X130677411Y-96951671D01*
X130077411Y-95651671D02*
X130677411Y-95651671D01*
X138427411Y-98251671D02*
X138427411Y-98451671D01*
X138427411Y-98451671D02*
X138727411Y-98451671D01*
X138727411Y-98451671D02*
X138727411Y-98251671D01*
X138427411Y-98351671D02*
X138727411Y-98351671D01*
X137227411Y-94151671D02*
X137227411Y-94651671D01*
X137227411Y-94651671D02*
X137027411Y-94651671D01*
X137027411Y-94651671D02*
X137027411Y-94151671D01*
X137127411Y-94151671D02*
X137127411Y-94651671D01*
X135227411Y-94151671D02*
X135227411Y-94651671D01*
X135227411Y-94651671D02*
X135027411Y-94651671D01*
X135027411Y-94651671D02*
X135027411Y-94151671D01*
X135127411Y-94151671D02*
X135127411Y-94651671D01*
X133227411Y-94151671D02*
X133227411Y-94651671D01*
X133227411Y-94651671D02*
X133027411Y-94651671D01*
X133027411Y-94651671D02*
X133027411Y-94151671D01*
X133127411Y-94151671D02*
X133127411Y-94651671D01*
X139227411Y-98551671D02*
X140477411Y-98551671D01*
X140477411Y-98551671D02*
X140477411Y-97301671D01*
X151353411Y-98251671D02*
X151353411Y-93551671D01*
X151353411Y-93551671D02*
X141253411Y-93551671D01*
X141253411Y-93551671D02*
X141253411Y-98251671D01*
X141253411Y-98251671D02*
X151353411Y-98251671D01*
X148803411Y-98251671D02*
X148803411Y-97651671D01*
X148803411Y-97651671D02*
X150753411Y-97651671D01*
X150753411Y-97651671D02*
X150753411Y-94151671D01*
X150753411Y-94151671D02*
X141853411Y-94151671D01*
X141853411Y-94151671D02*
X141853411Y-97651671D01*
X141853411Y-97651671D02*
X143803411Y-97651671D01*
X143803411Y-97651671D02*
X143803411Y-98251671D01*
X151353411Y-96951671D02*
X150753411Y-96951671D01*
X151353411Y-95651671D02*
X150753411Y-95651671D01*
X141253411Y-96951671D02*
X141853411Y-96951671D01*
X141253411Y-95651671D02*
X141853411Y-95651671D01*
X149603411Y-98251671D02*
X149603411Y-98451671D01*
X149603411Y-98451671D02*
X149903411Y-98451671D01*
X149903411Y-98451671D02*
X149903411Y-98251671D01*
X149603411Y-98351671D02*
X149903411Y-98351671D01*
X148403411Y-94151671D02*
X148403411Y-94651671D01*
X148403411Y-94651671D02*
X148203411Y-94651671D01*
X148203411Y-94651671D02*
X148203411Y-94151671D01*
X148303411Y-94151671D02*
X148303411Y-94651671D01*
X146403411Y-94151671D02*
X146403411Y-94651671D01*
X146403411Y-94651671D02*
X146203411Y-94651671D01*
X146203411Y-94651671D02*
X146203411Y-94151671D01*
X146303411Y-94151671D02*
X146303411Y-94651671D01*
X144403411Y-94151671D02*
X144403411Y-94651671D01*
X144403411Y-94651671D02*
X144203411Y-94651671D01*
X144203411Y-94651671D02*
X144203411Y-94151671D01*
X144303411Y-94151671D02*
X144303411Y-94651671D01*
X150403411Y-98551671D02*
X151653411Y-98551671D01*
X151653411Y-98551671D02*
X151653411Y-97301671D01*
X130035000Y-51928800D02*
X130035000Y-56628800D01*
X130035000Y-56628800D02*
X140135000Y-56628800D01*
X140135000Y-56628800D02*
X140135000Y-51928800D01*
X140135000Y-51928800D02*
X130035000Y-51928800D01*
X132585000Y-51928800D02*
X132585000Y-52528800D01*
X132585000Y-52528800D02*
X130635000Y-52528800D01*
X130635000Y-52528800D02*
X130635000Y-56028800D01*
X130635000Y-56028800D02*
X139535000Y-56028800D01*
X139535000Y-56028800D02*
X139535000Y-52528800D01*
X139535000Y-52528800D02*
X137585000Y-52528800D01*
X137585000Y-52528800D02*
X137585000Y-51928800D01*
X130035000Y-53228800D02*
X130635000Y-53228800D01*
X130035000Y-54528800D02*
X130635000Y-54528800D01*
X140135000Y-53228800D02*
X139535000Y-53228800D01*
X140135000Y-54528800D02*
X139535000Y-54528800D01*
X131785000Y-51928800D02*
X131785000Y-51728800D01*
X131785000Y-51728800D02*
X131485000Y-51728800D01*
X131485000Y-51728800D02*
X131485000Y-51928800D01*
X131785000Y-51828800D02*
X131485000Y-51828800D01*
X132985000Y-56028800D02*
X132985000Y-55528800D01*
X132985000Y-55528800D02*
X133185000Y-55528800D01*
X133185000Y-55528800D02*
X133185000Y-56028800D01*
X133085000Y-56028800D02*
X133085000Y-55528800D01*
X134985000Y-56028800D02*
X134985000Y-55528800D01*
X134985000Y-55528800D02*
X135185000Y-55528800D01*
X135185000Y-55528800D02*
X135185000Y-56028800D01*
X135085000Y-56028800D02*
X135085000Y-55528800D01*
X136985000Y-56028800D02*
X136985000Y-55528800D01*
X136985000Y-55528800D02*
X137185000Y-55528800D01*
X137185000Y-55528800D02*
X137185000Y-56028800D01*
X137085000Y-56028800D02*
X137085000Y-55528800D01*
X130985000Y-51628800D02*
X129735000Y-51628800D01*
X129735000Y-51628800D02*
X129735000Y-52878800D01*
X168175000Y-75822000D02*
X163475000Y-75822000D01*
X163475000Y-75822000D02*
X163475000Y-85922000D01*
X163475000Y-85922000D02*
X168175000Y-85922000D01*
X168175000Y-85922000D02*
X168175000Y-75822000D01*
X168175000Y-78372000D02*
X167575000Y-78372000D01*
X167575000Y-78372000D02*
X167575000Y-76422000D01*
X167575000Y-76422000D02*
X164075000Y-76422000D01*
X164075000Y-76422000D02*
X164075000Y-85322000D01*
X164075000Y-85322000D02*
X167575000Y-85322000D01*
X167575000Y-85322000D02*
X167575000Y-83372000D01*
X167575000Y-83372000D02*
X168175000Y-83372000D01*
X166875000Y-75822000D02*
X166875000Y-76422000D01*
X165575000Y-75822000D02*
X165575000Y-76422000D01*
X166875000Y-85922000D02*
X166875000Y-85322000D01*
X165575000Y-85922000D02*
X165575000Y-85322000D01*
X168175000Y-77572000D02*
X168375000Y-77572000D01*
X168375000Y-77572000D02*
X168375000Y-77272000D01*
X168375000Y-77272000D02*
X168175000Y-77272000D01*
X168275000Y-77572000D02*
X168275000Y-77272000D01*
X164075000Y-78772000D02*
X164575000Y-78772000D01*
X164575000Y-78772000D02*
X164575000Y-78972000D01*
X164575000Y-78972000D02*
X164075000Y-78972000D01*
X164075000Y-78872000D02*
X164575000Y-78872000D01*
X164075000Y-80772000D02*
X164575000Y-80772000D01*
X164575000Y-80772000D02*
X164575000Y-80972000D01*
X164575000Y-80972000D02*
X164075000Y-80972000D01*
X164075000Y-80872000D02*
X164575000Y-80872000D01*
X164075000Y-82772000D02*
X164575000Y-82772000D01*
X164575000Y-82772000D02*
X164575000Y-82972000D01*
X164575000Y-82972000D02*
X164075000Y-82972000D01*
X164075000Y-82872000D02*
X164575000Y-82872000D01*
X168475000Y-76772000D02*
X168475000Y-75522000D01*
X168475000Y-75522000D02*
X167225000Y-75522000D01*
X141211000Y-51928800D02*
X141211000Y-56628800D01*
X141211000Y-56628800D02*
X151311000Y-56628800D01*
X151311000Y-56628800D02*
X151311000Y-51928800D01*
X151311000Y-51928800D02*
X141211000Y-51928800D01*
X143761000Y-51928800D02*
X143761000Y-52528800D01*
X143761000Y-52528800D02*
X141811000Y-52528800D01*
X141811000Y-52528800D02*
X141811000Y-56028800D01*
X141811000Y-56028800D02*
X150711000Y-56028800D01*
X150711000Y-56028800D02*
X150711000Y-52528800D01*
X150711000Y-52528800D02*
X148761000Y-52528800D01*
X148761000Y-52528800D02*
X148761000Y-51928800D01*
X141211000Y-53228800D02*
X141811000Y-53228800D01*
X141211000Y-54528800D02*
X141811000Y-54528800D01*
X151311000Y-53228800D02*
X150711000Y-53228800D01*
X151311000Y-54528800D02*
X150711000Y-54528800D01*
X142961000Y-51928800D02*
X142961000Y-51728800D01*
X142961000Y-51728800D02*
X142661000Y-51728800D01*
X142661000Y-51728800D02*
X142661000Y-51928800D01*
X142961000Y-51828800D02*
X142661000Y-51828800D01*
X144161000Y-56028800D02*
X144161000Y-55528800D01*
X144161000Y-55528800D02*
X144361000Y-55528800D01*
X144361000Y-55528800D02*
X144361000Y-56028800D01*
X144261000Y-56028800D02*
X144261000Y-55528800D01*
X146161000Y-56028800D02*
X146161000Y-55528800D01*
X146161000Y-55528800D02*
X146361000Y-55528800D01*
X146361000Y-55528800D02*
X146361000Y-56028800D01*
X146261000Y-56028800D02*
X146261000Y-55528800D01*
X148161000Y-56028800D02*
X148161000Y-55528800D01*
X148161000Y-55528800D02*
X148361000Y-55528800D01*
X148361000Y-55528800D02*
X148361000Y-56028800D01*
X148261000Y-56028800D02*
X148261000Y-55528800D01*
X142161000Y-51628800D02*
X140911000Y-51628800D01*
X140911000Y-51628800D02*
X140911000Y-52878800D01*
X106649411Y-98251671D02*
X106649411Y-93551671D01*
X106649411Y-93551671D02*
X96549411Y-93551671D01*
X96549411Y-93551671D02*
X96549411Y-98251671D01*
X96549411Y-98251671D02*
X106649411Y-98251671D01*
X104099411Y-98251671D02*
X104099411Y-97651671D01*
X104099411Y-97651671D02*
X106049411Y-97651671D01*
X106049411Y-97651671D02*
X106049411Y-94151671D01*
X106049411Y-94151671D02*
X97149411Y-94151671D01*
X97149411Y-94151671D02*
X97149411Y-97651671D01*
X97149411Y-97651671D02*
X99099411Y-97651671D01*
X99099411Y-97651671D02*
X99099411Y-98251671D01*
X106649411Y-96951671D02*
X106049411Y-96951671D01*
X106649411Y-95651671D02*
X106049411Y-95651671D01*
X96549411Y-96951671D02*
X97149411Y-96951671D01*
X96549411Y-95651671D02*
X97149411Y-95651671D01*
X104899411Y-98251671D02*
X104899411Y-98451671D01*
X104899411Y-98451671D02*
X105199411Y-98451671D01*
X105199411Y-98451671D02*
X105199411Y-98251671D01*
X104899411Y-98351671D02*
X105199411Y-98351671D01*
X103699411Y-94151671D02*
X103699411Y-94651671D01*
X103699411Y-94651671D02*
X103499411Y-94651671D01*
X103499411Y-94651671D02*
X103499411Y-94151671D01*
X103599411Y-94151671D02*
X103599411Y-94651671D01*
X101699411Y-94151671D02*
X101699411Y-94651671D01*
X101699411Y-94651671D02*
X101499411Y-94651671D01*
X101499411Y-94651671D02*
X101499411Y-94151671D01*
X101599411Y-94151671D02*
X101599411Y-94651671D01*
X99699411Y-94151671D02*
X99699411Y-94651671D01*
X99699411Y-94651671D02*
X99499411Y-94651671D01*
X99499411Y-94651671D02*
X99499411Y-94151671D01*
X99599411Y-94151671D02*
X99599411Y-94651671D01*
X105699411Y-98551671D02*
X106949411Y-98551671D01*
X106949411Y-98551671D02*
X106949411Y-97301671D01*
X168175000Y-64646000D02*
X163475000Y-64646000D01*
X163475000Y-64646000D02*
X163475000Y-74746000D01*
X163475000Y-74746000D02*
X168175000Y-74746000D01*
X168175000Y-74746000D02*
X168175000Y-64646000D01*
X168175000Y-67196000D02*
X167575000Y-67196000D01*
X167575000Y-67196000D02*
X167575000Y-65246000D01*
X167575000Y-65246000D02*
X164075000Y-65246000D01*
X164075000Y-65246000D02*
X164075000Y-74146000D01*
X164075000Y-74146000D02*
X167575000Y-74146000D01*
X167575000Y-74146000D02*
X167575000Y-72196000D01*
X167575000Y-72196000D02*
X168175000Y-72196000D01*
X166875000Y-64646000D02*
X166875000Y-65246000D01*
X165575000Y-64646000D02*
X165575000Y-65246000D01*
X166875000Y-74746000D02*
X166875000Y-74146000D01*
X165575000Y-74746000D02*
X165575000Y-74146000D01*
X168175000Y-66396000D02*
X168375000Y-66396000D01*
X168375000Y-66396000D02*
X168375000Y-66096000D01*
X168375000Y-66096000D02*
X168175000Y-66096000D01*
X168275000Y-66396000D02*
X168275000Y-66096000D01*
X164075000Y-67596000D02*
X164575000Y-67596000D01*
X164575000Y-67596000D02*
X164575000Y-67796000D01*
X164575000Y-67796000D02*
X164075000Y-67796000D01*
X164075000Y-67696000D02*
X164575000Y-67696000D01*
X164075000Y-69596000D02*
X164575000Y-69596000D01*
X164575000Y-69596000D02*
X164575000Y-69796000D01*
X164575000Y-69796000D02*
X164075000Y-69796000D01*
X164075000Y-69696000D02*
X164575000Y-69696000D01*
X164075000Y-71596000D02*
X164575000Y-71596000D01*
X164575000Y-71596000D02*
X164575000Y-71796000D01*
X164575000Y-71796000D02*
X164075000Y-71796000D01*
X164075000Y-71696000D02*
X164575000Y-71696000D01*
X168475000Y-65596000D02*
X168475000Y-64346000D01*
X168475000Y-64346000D02*
X167225000Y-64346000D01*
X157209000Y-85858000D02*
X161909000Y-85858000D01*
X161909000Y-85858000D02*
X161909000Y-75758000D01*
X161909000Y-75758000D02*
X157209000Y-75758000D01*
X157209000Y-75758000D02*
X157209000Y-85858000D01*
X157209000Y-83308000D02*
X157809000Y-83308000D01*
X157809000Y-83308000D02*
X157809000Y-85258000D01*
X157809000Y-85258000D02*
X161309000Y-85258000D01*
X161309000Y-85258000D02*
X161309000Y-76358000D01*
X161309000Y-76358000D02*
X157809000Y-76358000D01*
X157809000Y-76358000D02*
X157809000Y-78308000D01*
X157809000Y-78308000D02*
X157209000Y-78308000D01*
X158509000Y-85858000D02*
X158509000Y-85258000D01*
X159809000Y-85858000D02*
X159809000Y-85258000D01*
X158509000Y-75758000D02*
X158509000Y-76358000D01*
X159809000Y-75758000D02*
X159809000Y-76358000D01*
X157209000Y-84108000D02*
X157009000Y-84108000D01*
X157009000Y-84108000D02*
X157009000Y-84408000D01*
X157009000Y-84408000D02*
X157209000Y-84408000D01*
X157109000Y-84108000D02*
X157109000Y-84408000D01*
X161309000Y-82908000D02*
X160809000Y-82908000D01*
X160809000Y-82908000D02*
X160809000Y-82708000D01*
X160809000Y-82708000D02*
X161309000Y-82708000D01*
X161309000Y-82808000D02*
X160809000Y-82808000D01*
X161309000Y-80908000D02*
X160809000Y-80908000D01*
X160809000Y-80908000D02*
X160809000Y-80708000D01*
X160809000Y-80708000D02*
X161309000Y-80708000D01*
X161309000Y-80808000D02*
X160809000Y-80808000D01*
X161309000Y-78908000D02*
X160809000Y-78908000D01*
X160809000Y-78908000D02*
X160809000Y-78708000D01*
X160809000Y-78708000D02*
X161309000Y-78708000D01*
X161309000Y-78808000D02*
X160809000Y-78808000D01*
X156909000Y-84908000D02*
X156909000Y-86158000D01*
X156909000Y-86158000D02*
X158159000Y-86158000D01*
X152387000Y-51928800D02*
X152387000Y-56628800D01*
X152387000Y-56628800D02*
X162487000Y-56628800D01*
X162487000Y-56628800D02*
X162487000Y-51928800D01*
X162487000Y-51928800D02*
X152387000Y-51928800D01*
X154937000Y-51928800D02*
X154937000Y-52528800D01*
X154937000Y-52528800D02*
X152987000Y-52528800D01*
X152987000Y-52528800D02*
X152987000Y-56028800D01*
X152987000Y-56028800D02*
X161887000Y-56028800D01*
X161887000Y-56028800D02*
X161887000Y-52528800D01*
X161887000Y-52528800D02*
X159937000Y-52528800D01*
X159937000Y-52528800D02*
X159937000Y-51928800D01*
X152387000Y-53228800D02*
X152987000Y-53228800D01*
X152387000Y-54528800D02*
X152987000Y-54528800D01*
X162487000Y-53228800D02*
X161887000Y-53228800D01*
X162487000Y-54528800D02*
X161887000Y-54528800D01*
X154137000Y-51928800D02*
X154137000Y-51728800D01*
X154137000Y-51728800D02*
X153837000Y-51728800D01*
X153837000Y-51728800D02*
X153837000Y-51928800D01*
X154137000Y-51828800D02*
X153837000Y-51828800D01*
X155337000Y-56028800D02*
X155337000Y-55528800D01*
X155337000Y-55528800D02*
X155537000Y-55528800D01*
X155537000Y-55528800D02*
X155537000Y-56028800D01*
X155437000Y-56028800D02*
X155437000Y-55528800D01*
X157337000Y-56028800D02*
X157337000Y-55528800D01*
X157337000Y-55528800D02*
X157537000Y-55528800D01*
X157537000Y-55528800D02*
X157537000Y-56028800D01*
X157437000Y-56028800D02*
X157437000Y-55528800D01*
X159337000Y-56028800D02*
X159337000Y-55528800D01*
X159337000Y-55528800D02*
X159537000Y-55528800D01*
X159537000Y-55528800D02*
X159537000Y-56028800D01*
X159437000Y-56028800D02*
X159437000Y-55528800D01*
X153337000Y-51628800D02*
X152087000Y-51628800D01*
X152087000Y-51628800D02*
X152087000Y-52878800D01*
X71139000Y-67880000D02*
X71139000Y-72580000D01*
X71139000Y-72580000D02*
X77239000Y-72580000D01*
X77239000Y-72580000D02*
X77239000Y-67880000D01*
X77239000Y-67880000D02*
X71139000Y-67880000D01*
X73689000Y-67880000D02*
X73689000Y-68480000D01*
X73689000Y-68480000D02*
X71739000Y-68480000D01*
X71739000Y-68480000D02*
X71739000Y-71980000D01*
X71739000Y-71980000D02*
X76639000Y-71980000D01*
X76639000Y-71980000D02*
X76639000Y-68480000D01*
X76639000Y-68480000D02*
X74689000Y-68480000D01*
X74689000Y-68480000D02*
X74689000Y-67880000D01*
X71139000Y-69180000D02*
X71739000Y-69180000D01*
X71139000Y-70480000D02*
X71739000Y-70480000D01*
X77239000Y-69180000D02*
X76639000Y-69180000D01*
X77239000Y-70480000D02*
X76639000Y-70480000D01*
X72889000Y-67880000D02*
X72889000Y-67680000D01*
X72889000Y-67680000D02*
X72589000Y-67680000D01*
X72589000Y-67680000D02*
X72589000Y-67880000D01*
X72889000Y-67780000D02*
X72589000Y-67780000D01*
X74089000Y-71980000D02*
X74089000Y-71480000D01*
X74089000Y-71480000D02*
X74289000Y-71480000D01*
X74289000Y-71480000D02*
X74289000Y-71980000D01*
X74189000Y-71980000D02*
X74189000Y-71480000D01*
X72089000Y-67580000D02*
X70839000Y-67580000D01*
X70839000Y-67580000D02*
X70839000Y-68830000D01*
X77239000Y-79100000D02*
X77239000Y-74400000D01*
X77239000Y-74400000D02*
X71139000Y-74400000D01*
X71139000Y-74400000D02*
X71139000Y-79100000D01*
X71139000Y-79100000D02*
X77239000Y-79100000D01*
X74689000Y-79100000D02*
X74689000Y-78500000D01*
X74689000Y-78500000D02*
X76639000Y-78500000D01*
X76639000Y-78500000D02*
X76639000Y-75000000D01*
X76639000Y-75000000D02*
X71739000Y-75000000D01*
X71739000Y-75000000D02*
X71739000Y-78500000D01*
X71739000Y-78500000D02*
X73689000Y-78500000D01*
X73689000Y-78500000D02*
X73689000Y-79100000D01*
X77239000Y-77800000D02*
X76639000Y-77800000D01*
X77239000Y-76500000D02*
X76639000Y-76500000D01*
X71139000Y-77800000D02*
X71739000Y-77800000D01*
X71139000Y-76500000D02*
X71739000Y-76500000D01*
X75489000Y-79100000D02*
X75489000Y-79300000D01*
X75489000Y-79300000D02*
X75789000Y-79300000D01*
X75789000Y-79300000D02*
X75789000Y-79100000D01*
X75489000Y-79200000D02*
X75789000Y-79200000D01*
X74289000Y-75000000D02*
X74289000Y-75500000D01*
X74289000Y-75500000D02*
X74089000Y-75500000D01*
X74089000Y-75500000D02*
X74089000Y-75000000D01*
X74189000Y-75000000D02*
X74189000Y-75500000D01*
X76289000Y-79400000D02*
X77539000Y-79400000D01*
X77539000Y-79400000D02*
X77539000Y-78150000D01*
D12*
X95724143Y-55844857D02*
X95771762Y-55892476D01*
X95819381Y-56035333D01*
X95819381Y-56130571D01*
X95771762Y-56273429D01*
X95676524Y-56368667D01*
X95581286Y-56416286D01*
X95390810Y-56463905D01*
X95247952Y-56463905D01*
X95057476Y-56416286D01*
X94962238Y-56368667D01*
X94867000Y-56273429D01*
X94819381Y-56130571D01*
X94819381Y-56035333D01*
X94867000Y-55892476D01*
X94914619Y-55844857D01*
X95819381Y-54892476D02*
X95819381Y-55463905D01*
X95819381Y-55178191D02*
X94819381Y-55178191D01*
X94962238Y-55273429D01*
X95057476Y-55368667D01*
X95105095Y-55463905D01*
X94819381Y-54035333D02*
X94819381Y-54225810D01*
X94867000Y-54321048D01*
X94914619Y-54368667D01*
X95057476Y-54463905D01*
X95247952Y-54511524D01*
X95628905Y-54511524D01*
X95724143Y-54463905D01*
X95771762Y-54416286D01*
X95819381Y-54321048D01*
X95819381Y-54130571D01*
X95771762Y-54035333D01*
X95724143Y-53987714D01*
X95628905Y-53940095D01*
X95390810Y-53940095D01*
X95295571Y-53987714D01*
X95247952Y-54035333D01*
X95200333Y-54130571D01*
X95200333Y-54321048D01*
X95247952Y-54416286D01*
X95295571Y-54463905D01*
X95390810Y-54511524D01*
X93918429Y-59862952D02*
X93918429Y-59101047D01*
X94299381Y-59481999D02*
X93537476Y-59481999D01*
X122742714Y-99704052D02*
X122742714Y-98704052D01*
X123123667Y-98704052D01*
X123218905Y-98751671D01*
X123266524Y-98799290D01*
X123314143Y-98894528D01*
X123314143Y-99037385D01*
X123266524Y-99132623D01*
X123218905Y-99180242D01*
X123123667Y-99227861D01*
X122742714Y-99227861D01*
X124266524Y-99704052D02*
X123695095Y-99704052D01*
X123980809Y-99704052D02*
X123980809Y-98704052D01*
X123885571Y-98846909D01*
X123790333Y-98942147D01*
X123695095Y-98989766D01*
X125218905Y-99704052D02*
X124647476Y-99704052D01*
X124933190Y-99704052D02*
X124933190Y-98704052D01*
X124837952Y-98846909D01*
X124742714Y-98942147D01*
X124647476Y-98989766D01*
X156270714Y-99596381D02*
X156270714Y-98596381D01*
X156651667Y-98596381D01*
X156746905Y-98644000D01*
X156794524Y-98691619D01*
X156842143Y-98786857D01*
X156842143Y-98929714D01*
X156794524Y-99024952D01*
X156746905Y-99072571D01*
X156651667Y-99120190D01*
X156270714Y-99120190D01*
X157794524Y-99596381D02*
X157223095Y-99596381D01*
X157508809Y-99596381D02*
X157508809Y-98596381D01*
X157413571Y-98739238D01*
X157318333Y-98834476D01*
X157223095Y-98882095D01*
X158175476Y-98691619D02*
X158223095Y-98644000D01*
X158318333Y-98596381D01*
X158556429Y-98596381D01*
X158651667Y-98644000D01*
X158699286Y-98691619D01*
X158746905Y-98786857D01*
X158746905Y-98882095D01*
X158699286Y-99024952D01*
X158127857Y-99596381D01*
X158746905Y-99596381D01*
X156661381Y-70418095D02*
X155661381Y-70418095D01*
X155661381Y-70037142D01*
X155709000Y-69941904D01*
X155756619Y-69894285D01*
X155851857Y-69846666D01*
X155994714Y-69846666D01*
X156089952Y-69894285D01*
X156137571Y-69941904D01*
X156185190Y-70037142D01*
X156185190Y-70418095D01*
X155756619Y-69465714D02*
X155709000Y-69418095D01*
X155661381Y-69322857D01*
X155661381Y-69084761D01*
X155709000Y-68989523D01*
X155756619Y-68941904D01*
X155851857Y-68894285D01*
X155947095Y-68894285D01*
X156089952Y-68941904D01*
X156661381Y-69513333D01*
X156661381Y-68894285D01*
X122488714Y-51336381D02*
X122488714Y-50336381D01*
X122869667Y-50336381D01*
X122964905Y-50384000D01*
X123012524Y-50431619D01*
X123060143Y-50526857D01*
X123060143Y-50669714D01*
X123012524Y-50764952D01*
X122964905Y-50812571D01*
X122869667Y-50860190D01*
X122488714Y-50860190D01*
X124012524Y-51336381D02*
X123441095Y-51336381D01*
X123726809Y-51336381D02*
X123726809Y-50336381D01*
X123631571Y-50479238D01*
X123536333Y-50574476D01*
X123441095Y-50622095D01*
X124917286Y-50336381D02*
X124441095Y-50336381D01*
X124393476Y-50812571D01*
X124441095Y-50764952D01*
X124536333Y-50717333D01*
X124774429Y-50717333D01*
X124869667Y-50764952D01*
X124917286Y-50812571D01*
X124964905Y-50907810D01*
X124964905Y-51145905D01*
X124917286Y-51241143D01*
X124869667Y-51288762D01*
X124774429Y-51336381D01*
X124536333Y-51336381D01*
X124441095Y-51288762D01*
X124393476Y-51241143D01*
X112042905Y-51381181D02*
X112042905Y-50381181D01*
X112423858Y-50381181D01*
X112519096Y-50428800D01*
X112566715Y-50476419D01*
X112614334Y-50571657D01*
X112614334Y-50714514D01*
X112566715Y-50809752D01*
X112519096Y-50857371D01*
X112423858Y-50904990D01*
X112042905Y-50904990D01*
X113471477Y-50714514D02*
X113471477Y-51381181D01*
X113233381Y-50333562D02*
X112995286Y-51047848D01*
X113614334Y-51047848D01*
X100390714Y-51336381D02*
X100390714Y-50336381D01*
X100771667Y-50336381D01*
X100866905Y-50384000D01*
X100914524Y-50431619D01*
X100962143Y-50526857D01*
X100962143Y-50669714D01*
X100914524Y-50764952D01*
X100866905Y-50812571D01*
X100771667Y-50860190D01*
X100390714Y-50860190D01*
X101914524Y-51336381D02*
X101343095Y-51336381D01*
X101628809Y-51336381D02*
X101628809Y-50336381D01*
X101533571Y-50479238D01*
X101438333Y-50574476D01*
X101343095Y-50622095D01*
X102771667Y-50669714D02*
X102771667Y-51336381D01*
X102533571Y-50288762D02*
X102295476Y-51003048D01*
X102914524Y-51003048D01*
X114598810Y-67338381D02*
X114598810Y-66338381D01*
X115646429Y-67243143D02*
X115598810Y-67290762D01*
X115455953Y-67338381D01*
X115360715Y-67338381D01*
X115217857Y-67290762D01*
X115122619Y-67195524D01*
X115075000Y-67100286D01*
X115027381Y-66909810D01*
X115027381Y-66766952D01*
X115075000Y-66576476D01*
X115122619Y-66481238D01*
X115217857Y-66386000D01*
X115360715Y-66338381D01*
X115455953Y-66338381D01*
X115598810Y-66386000D01*
X115646429Y-66433619D01*
X116598810Y-67338381D02*
X116027381Y-67338381D01*
X116313095Y-67338381D02*
X116313095Y-66338381D01*
X116217857Y-66481238D01*
X116122619Y-66576476D01*
X116027381Y-66624095D01*
X91786334Y-67271143D02*
X91738715Y-67318762D01*
X91595858Y-67366381D01*
X91500620Y-67366381D01*
X91357762Y-67318762D01*
X91262524Y-67223524D01*
X91214905Y-67128286D01*
X91167286Y-66937810D01*
X91167286Y-66794952D01*
X91214905Y-66604476D01*
X91262524Y-66509238D01*
X91357762Y-66414000D01*
X91500620Y-66366381D01*
X91595858Y-66366381D01*
X91738715Y-66414000D01*
X91786334Y-66461619D01*
X92738715Y-67366381D02*
X92167286Y-67366381D01*
X92453000Y-67366381D02*
X92453000Y-66366381D01*
X92357762Y-66509238D01*
X92262524Y-66604476D01*
X92167286Y-66652095D01*
X107268143Y-82800666D02*
X107315762Y-82848285D01*
X107363381Y-82991142D01*
X107363381Y-83086380D01*
X107315762Y-83229238D01*
X107220524Y-83324476D01*
X107125286Y-83372095D01*
X106934810Y-83419714D01*
X106791952Y-83419714D01*
X106601476Y-83372095D01*
X106506238Y-83324476D01*
X106411000Y-83229238D01*
X106363381Y-83086380D01*
X106363381Y-82991142D01*
X106411000Y-82848285D01*
X106458619Y-82800666D01*
X106458619Y-82419714D02*
X106411000Y-82372095D01*
X106363381Y-82276857D01*
X106363381Y-82038761D01*
X106411000Y-81943523D01*
X106458619Y-81895904D01*
X106553857Y-81848285D01*
X106649095Y-81848285D01*
X106791952Y-81895904D01*
X107363381Y-82467333D01*
X107363381Y-81848285D01*
X130636143Y-74926666D02*
X130683762Y-74974285D01*
X130731381Y-75117142D01*
X130731381Y-75212380D01*
X130683762Y-75355238D01*
X130588524Y-75450476D01*
X130493286Y-75498095D01*
X130302810Y-75545714D01*
X130159952Y-75545714D01*
X129969476Y-75498095D01*
X129874238Y-75450476D01*
X129779000Y-75355238D01*
X129731381Y-75212380D01*
X129731381Y-75117142D01*
X129779000Y-74974285D01*
X129826619Y-74926666D01*
X129731381Y-74593333D02*
X129731381Y-73974285D01*
X130112333Y-74307619D01*
X130112333Y-74164761D01*
X130159952Y-74069523D01*
X130207571Y-74021904D01*
X130302810Y-73974285D01*
X130540905Y-73974285D01*
X130636143Y-74021904D01*
X130683762Y-74069523D01*
X130731381Y-74164761D01*
X130731381Y-74450476D01*
X130683762Y-74545714D01*
X130636143Y-74593333D01*
X115932143Y-88134666D02*
X115979762Y-88182285D01*
X116027381Y-88325142D01*
X116027381Y-88420380D01*
X115979762Y-88563238D01*
X115884524Y-88658476D01*
X115789286Y-88706095D01*
X115598810Y-88753714D01*
X115455952Y-88753714D01*
X115265476Y-88706095D01*
X115170238Y-88658476D01*
X115075000Y-88563238D01*
X115027381Y-88420380D01*
X115027381Y-88325142D01*
X115075000Y-88182285D01*
X115122619Y-88134666D01*
X115360714Y-87277523D02*
X116027381Y-87277523D01*
X114979762Y-87515619D02*
X115694048Y-87753714D01*
X115694048Y-87134666D01*
X111586143Y-62480666D02*
X111633762Y-62528285D01*
X111681381Y-62671142D01*
X111681381Y-62766380D01*
X111633762Y-62909238D01*
X111538524Y-63004476D01*
X111443286Y-63052095D01*
X111252810Y-63099714D01*
X111109952Y-63099714D01*
X110919476Y-63052095D01*
X110824238Y-63004476D01*
X110729000Y-62909238D01*
X110681381Y-62766380D01*
X110681381Y-62671142D01*
X110729000Y-62528285D01*
X110776619Y-62480666D01*
X110681381Y-61575904D02*
X110681381Y-62052095D01*
X111157571Y-62099714D01*
X111109952Y-62052095D01*
X111062333Y-61956857D01*
X111062333Y-61718761D01*
X111109952Y-61623523D01*
X111157571Y-61575904D01*
X111252810Y-61528285D01*
X111490905Y-61528285D01*
X111586143Y-61575904D01*
X111633762Y-61623523D01*
X111681381Y-61718761D01*
X111681381Y-61956857D01*
X111633762Y-62052095D01*
X111586143Y-62099714D01*
X124806334Y-75597143D02*
X124758715Y-75644762D01*
X124615858Y-75692381D01*
X124520620Y-75692381D01*
X124377762Y-75644762D01*
X124282524Y-75549524D01*
X124234905Y-75454286D01*
X124187286Y-75263810D01*
X124187286Y-75120952D01*
X124234905Y-74930476D01*
X124282524Y-74835238D01*
X124377762Y-74740000D01*
X124520620Y-74692381D01*
X124615858Y-74692381D01*
X124758715Y-74740000D01*
X124806334Y-74787619D01*
X125663477Y-74692381D02*
X125473000Y-74692381D01*
X125377762Y-74740000D01*
X125330143Y-74787619D01*
X125234905Y-74930476D01*
X125187286Y-75120952D01*
X125187286Y-75501905D01*
X125234905Y-75597143D01*
X125282524Y-75644762D01*
X125377762Y-75692381D01*
X125568239Y-75692381D01*
X125663477Y-75644762D01*
X125711096Y-75597143D01*
X125758715Y-75501905D01*
X125758715Y-75263810D01*
X125711096Y-75168571D01*
X125663477Y-75120952D01*
X125568239Y-75073333D01*
X125377762Y-75073333D01*
X125282524Y-75120952D01*
X125234905Y-75168571D01*
X125187286Y-75263810D01*
X86468143Y-83562666D02*
X86515762Y-83610285D01*
X86563381Y-83753142D01*
X86563381Y-83848380D01*
X86515762Y-83991238D01*
X86420524Y-84086476D01*
X86325286Y-84134095D01*
X86134810Y-84181714D01*
X85991952Y-84181714D01*
X85801476Y-84134095D01*
X85706238Y-84086476D01*
X85611000Y-83991238D01*
X85563381Y-83848380D01*
X85563381Y-83753142D01*
X85611000Y-83610285D01*
X85658619Y-83562666D01*
X85563381Y-83229333D02*
X85563381Y-82562666D01*
X86563381Y-82991238D01*
X118726143Y-88134666D02*
X118773762Y-88182285D01*
X118821381Y-88325142D01*
X118821381Y-88420380D01*
X118773762Y-88563238D01*
X118678524Y-88658476D01*
X118583286Y-88706095D01*
X118392810Y-88753714D01*
X118249952Y-88753714D01*
X118059476Y-88706095D01*
X117964238Y-88658476D01*
X117869000Y-88563238D01*
X117821381Y-88420380D01*
X117821381Y-88325142D01*
X117869000Y-88182285D01*
X117916619Y-88134666D01*
X118249952Y-87563238D02*
X118202333Y-87658476D01*
X118154714Y-87706095D01*
X118059476Y-87753714D01*
X118011857Y-87753714D01*
X117916619Y-87706095D01*
X117869000Y-87658476D01*
X117821381Y-87563238D01*
X117821381Y-87372761D01*
X117869000Y-87277523D01*
X117916619Y-87229904D01*
X118011857Y-87182285D01*
X118059476Y-87182285D01*
X118154714Y-87229904D01*
X118202333Y-87277523D01*
X118249952Y-87372761D01*
X118249952Y-87563238D01*
X118297571Y-87658476D01*
X118345190Y-87706095D01*
X118440429Y-87753714D01*
X118630905Y-87753714D01*
X118726143Y-87706095D01*
X118773762Y-87658476D01*
X118821381Y-87563238D01*
X118821381Y-87372761D01*
X118773762Y-87277523D01*
X118726143Y-87229904D01*
X118630905Y-87182285D01*
X118440429Y-87182285D01*
X118345190Y-87229904D01*
X118297571Y-87277523D01*
X118249952Y-87372761D01*
X128858143Y-84598666D02*
X128905762Y-84646285D01*
X128953381Y-84789142D01*
X128953381Y-84884380D01*
X128905762Y-85027238D01*
X128810524Y-85122476D01*
X128715286Y-85170095D01*
X128524810Y-85217714D01*
X128381952Y-85217714D01*
X128191476Y-85170095D01*
X128096238Y-85122476D01*
X128001000Y-85027238D01*
X127953381Y-84884380D01*
X127953381Y-84789142D01*
X128001000Y-84646285D01*
X128048619Y-84598666D01*
X128953381Y-84122476D02*
X128953381Y-83932000D01*
X128905762Y-83836761D01*
X128858143Y-83789142D01*
X128715286Y-83693904D01*
X128524810Y-83646285D01*
X128143857Y-83646285D01*
X128048619Y-83693904D01*
X128001000Y-83741523D01*
X127953381Y-83836761D01*
X127953381Y-84027238D01*
X128001000Y-84122476D01*
X128048619Y-84170095D01*
X128143857Y-84217714D01*
X128381952Y-84217714D01*
X128477190Y-84170095D01*
X128524810Y-84122476D01*
X128572429Y-84027238D01*
X128572429Y-83836761D01*
X128524810Y-83741523D01*
X128477190Y-83693904D01*
X128381952Y-83646285D01*
X82912143Y-57114857D02*
X82959762Y-57162476D01*
X83007381Y-57305333D01*
X83007381Y-57400571D01*
X82959762Y-57543429D01*
X82864524Y-57638667D01*
X82769286Y-57686286D01*
X82578810Y-57733905D01*
X82435952Y-57733905D01*
X82245476Y-57686286D01*
X82150238Y-57638667D01*
X82055000Y-57543429D01*
X82007381Y-57400571D01*
X82007381Y-57305333D01*
X82055000Y-57162476D01*
X82102619Y-57114857D01*
X83007381Y-56162476D02*
X83007381Y-56733905D01*
X83007381Y-56448191D02*
X82007381Y-56448191D01*
X82150238Y-56543429D01*
X82245476Y-56638667D01*
X82293095Y-56733905D01*
X82007381Y-55543429D02*
X82007381Y-55448190D01*
X82055000Y-55352952D01*
X82102619Y-55305333D01*
X82197857Y-55257714D01*
X82388333Y-55210095D01*
X82626429Y-55210095D01*
X82816905Y-55257714D01*
X82912143Y-55305333D01*
X82959762Y-55352952D01*
X83007381Y-55448190D01*
X83007381Y-55543429D01*
X82959762Y-55638667D01*
X82912143Y-55686286D01*
X82816905Y-55733905D01*
X82626429Y-55781524D01*
X82388333Y-55781524D01*
X82197857Y-55733905D01*
X82102619Y-55686286D01*
X82055000Y-55638667D01*
X82007381Y-55543429D01*
X94822143Y-64460857D02*
X94869762Y-64508476D01*
X94917381Y-64651333D01*
X94917381Y-64746571D01*
X94869762Y-64889429D01*
X94774524Y-64984667D01*
X94679286Y-65032286D01*
X94488810Y-65079905D01*
X94345952Y-65079905D01*
X94155476Y-65032286D01*
X94060238Y-64984667D01*
X93965000Y-64889429D01*
X93917381Y-64746571D01*
X93917381Y-64651333D01*
X93965000Y-64508476D01*
X94012619Y-64460857D01*
X94917381Y-63508476D02*
X94917381Y-64079905D01*
X94917381Y-63794191D02*
X93917381Y-63794191D01*
X94060238Y-63889429D01*
X94155476Y-63984667D01*
X94203095Y-64079905D01*
X94917381Y-62556095D02*
X94917381Y-63127524D01*
X94917381Y-62841810D02*
X93917381Y-62841810D01*
X94060238Y-62937048D01*
X94155476Y-63032286D01*
X94203095Y-63127524D01*
X95374143Y-60893143D02*
X95326524Y-60940762D01*
X95183667Y-60988381D01*
X95088429Y-60988381D01*
X94945571Y-60940762D01*
X94850333Y-60845524D01*
X94802714Y-60750286D01*
X94755095Y-60559810D01*
X94755095Y-60416952D01*
X94802714Y-60226476D01*
X94850333Y-60131238D01*
X94945571Y-60036000D01*
X95088429Y-59988381D01*
X95183667Y-59988381D01*
X95326524Y-60036000D01*
X95374143Y-60083619D01*
X96326524Y-60988381D02*
X95755095Y-60988381D01*
X96040809Y-60988381D02*
X96040809Y-59988381D01*
X95945571Y-60131238D01*
X95850333Y-60226476D01*
X95755095Y-60274095D01*
X96707476Y-60083619D02*
X96755095Y-60036000D01*
X96850333Y-59988381D01*
X97088429Y-59988381D01*
X97183667Y-60036000D01*
X97231286Y-60083619D01*
X97278905Y-60178857D01*
X97278905Y-60274095D01*
X97231286Y-60416952D01*
X96659857Y-60988381D01*
X97278905Y-60988381D01*
X168510143Y-60162857D02*
X168557762Y-60210476D01*
X168605381Y-60353333D01*
X168605381Y-60448571D01*
X168557762Y-60591429D01*
X168462524Y-60686667D01*
X168367286Y-60734286D01*
X168176810Y-60781905D01*
X168033952Y-60781905D01*
X167843476Y-60734286D01*
X167748238Y-60686667D01*
X167653000Y-60591429D01*
X167605381Y-60448571D01*
X167605381Y-60353333D01*
X167653000Y-60210476D01*
X167700619Y-60162857D01*
X168605381Y-59210476D02*
X168605381Y-59781905D01*
X168605381Y-59496191D02*
X167605381Y-59496191D01*
X167748238Y-59591429D01*
X167843476Y-59686667D01*
X167891095Y-59781905D01*
X167605381Y-58877143D02*
X167605381Y-58258095D01*
X167986333Y-58591429D01*
X167986333Y-58448571D01*
X168033952Y-58353333D01*
X168081571Y-58305714D01*
X168176810Y-58258095D01*
X168414905Y-58258095D01*
X168510143Y-58305714D01*
X168557762Y-58353333D01*
X168605381Y-58448571D01*
X168605381Y-58734286D01*
X168557762Y-58829524D01*
X168510143Y-58877143D01*
X168510143Y-91658857D02*
X168557762Y-91706476D01*
X168605381Y-91849333D01*
X168605381Y-91944571D01*
X168557762Y-92087429D01*
X168462524Y-92182667D01*
X168367286Y-92230286D01*
X168176810Y-92277905D01*
X168033952Y-92277905D01*
X167843476Y-92230286D01*
X167748238Y-92182667D01*
X167653000Y-92087429D01*
X167605381Y-91944571D01*
X167605381Y-91849333D01*
X167653000Y-91706476D01*
X167700619Y-91658857D01*
X168605381Y-90706476D02*
X168605381Y-91277905D01*
X168605381Y-90992191D02*
X167605381Y-90992191D01*
X167748238Y-91087429D01*
X167843476Y-91182667D01*
X167891095Y-91277905D01*
X167938714Y-89849333D02*
X168605381Y-89849333D01*
X167557762Y-90087429D02*
X168272048Y-90325524D01*
X168272048Y-89706476D01*
X96898143Y-90131143D02*
X96850524Y-90178762D01*
X96707667Y-90226381D01*
X96612429Y-90226381D01*
X96469571Y-90178762D01*
X96374333Y-90083524D01*
X96326714Y-89988286D01*
X96279095Y-89797810D01*
X96279095Y-89654952D01*
X96326714Y-89464476D01*
X96374333Y-89369238D01*
X96469571Y-89274000D01*
X96612429Y-89226381D01*
X96707667Y-89226381D01*
X96850524Y-89274000D01*
X96898143Y-89321619D01*
X97850524Y-90226381D02*
X97279095Y-90226381D01*
X97564809Y-90226381D02*
X97564809Y-89226381D01*
X97469571Y-89369238D01*
X97374333Y-89464476D01*
X97279095Y-89512095D01*
X98755286Y-89226381D02*
X98279095Y-89226381D01*
X98231476Y-89702571D01*
X98279095Y-89654952D01*
X98374333Y-89607333D01*
X98612429Y-89607333D01*
X98707667Y-89654952D01*
X98755286Y-89702571D01*
X98802905Y-89797810D01*
X98802905Y-90035905D01*
X98755286Y-90131143D01*
X98707667Y-90178762D01*
X98612429Y-90226381D01*
X98374333Y-90226381D01*
X98279095Y-90178762D01*
X98231476Y-90131143D01*
X151762143Y-61147143D02*
X151714524Y-61194762D01*
X151571667Y-61242381D01*
X151476429Y-61242381D01*
X151333571Y-61194762D01*
X151238333Y-61099524D01*
X151190714Y-61004286D01*
X151143095Y-60813810D01*
X151143095Y-60670952D01*
X151190714Y-60480476D01*
X151238333Y-60385238D01*
X151333571Y-60290000D01*
X151476429Y-60242381D01*
X151571667Y-60242381D01*
X151714524Y-60290000D01*
X151762143Y-60337619D01*
X152714524Y-61242381D02*
X152143095Y-61242381D01*
X152428809Y-61242381D02*
X152428809Y-60242381D01*
X152333571Y-60385238D01*
X152238333Y-60480476D01*
X152143095Y-60528095D01*
X153047857Y-60242381D02*
X153714524Y-60242381D01*
X153285952Y-61242381D01*
X163002048Y-57951429D02*
X163763953Y-57951429D01*
X163383001Y-58332381D02*
X163383001Y-57570476D01*
X152016143Y-90103143D02*
X151968524Y-90150762D01*
X151825667Y-90198381D01*
X151730429Y-90198381D01*
X151587571Y-90150762D01*
X151492333Y-90055524D01*
X151444714Y-89960286D01*
X151397095Y-89769810D01*
X151397095Y-89626952D01*
X151444714Y-89436476D01*
X151492333Y-89341238D01*
X151587571Y-89246000D01*
X151730429Y-89198381D01*
X151825667Y-89198381D01*
X151968524Y-89246000D01*
X152016143Y-89293619D01*
X152968524Y-90198381D02*
X152397095Y-90198381D01*
X152682809Y-90198381D02*
X152682809Y-89198381D01*
X152587571Y-89341238D01*
X152492333Y-89436476D01*
X152397095Y-89484095D01*
X153539952Y-89626952D02*
X153444714Y-89579333D01*
X153397095Y-89531714D01*
X153349476Y-89436476D01*
X153349476Y-89388857D01*
X153397095Y-89293619D01*
X153444714Y-89246000D01*
X153539952Y-89198381D01*
X153730429Y-89198381D01*
X153825667Y-89246000D01*
X153873286Y-89293619D01*
X153920905Y-89388857D01*
X153920905Y-89436476D01*
X153873286Y-89531714D01*
X153825667Y-89579333D01*
X153730429Y-89626952D01*
X153539952Y-89626952D01*
X153444714Y-89674571D01*
X153397095Y-89722190D01*
X153349476Y-89817429D01*
X153349476Y-90007905D01*
X153397095Y-90103143D01*
X153444714Y-90150762D01*
X153539952Y-90198381D01*
X153730429Y-90198381D01*
X153825667Y-90150762D01*
X153873286Y-90103143D01*
X153920905Y-90007905D01*
X153920905Y-89817429D01*
X153873286Y-89722190D01*
X153825667Y-89674571D01*
X153730429Y-89626952D01*
X163002048Y-86907429D02*
X163763953Y-86907429D01*
X163383001Y-87288381D02*
X163383001Y-86526476D01*
X86864143Y-94960857D02*
X86911762Y-95008476D01*
X86959381Y-95151333D01*
X86959381Y-95246571D01*
X86911762Y-95389429D01*
X86816524Y-95484667D01*
X86721286Y-95532286D01*
X86530810Y-95579905D01*
X86387952Y-95579905D01*
X86197476Y-95532286D01*
X86102238Y-95484667D01*
X86007000Y-95389429D01*
X85959381Y-95246571D01*
X85959381Y-95151333D01*
X86007000Y-95008476D01*
X86054619Y-94960857D01*
X86959381Y-94008476D02*
X86959381Y-94579905D01*
X86959381Y-94294191D02*
X85959381Y-94294191D01*
X86102238Y-94389429D01*
X86197476Y-94484667D01*
X86245095Y-94579905D01*
X86959381Y-93532286D02*
X86959381Y-93341810D01*
X86911762Y-93246571D01*
X86864143Y-93198952D01*
X86721286Y-93103714D01*
X86530810Y-93056095D01*
X86149857Y-93056095D01*
X86054619Y-93103714D01*
X86007000Y-93151333D01*
X85959381Y-93246571D01*
X85959381Y-93437048D01*
X86007000Y-93532286D01*
X86054619Y-93579905D01*
X86149857Y-93627524D01*
X86387952Y-93627524D01*
X86483190Y-93579905D01*
X86530810Y-93532286D01*
X86578429Y-93437048D01*
X86578429Y-93246571D01*
X86530810Y-93151333D01*
X86483190Y-93103714D01*
X86387952Y-93056095D01*
X88098429Y-90418952D02*
X88098429Y-89657047D01*
X88479381Y-90037999D02*
X87717476Y-90037999D01*
X89690905Y-79784381D02*
X89690905Y-78784381D01*
X89929000Y-78784381D01*
X90071858Y-78832000D01*
X90167096Y-78927238D01*
X90214715Y-79022476D01*
X90262334Y-79212952D01*
X90262334Y-79355810D01*
X90214715Y-79546286D01*
X90167096Y-79641524D01*
X90071858Y-79736762D01*
X89929000Y-79784381D01*
X89690905Y-79784381D01*
X91214715Y-79784381D02*
X90643286Y-79784381D01*
X90929000Y-79784381D02*
X90929000Y-78784381D01*
X90833762Y-78927238D01*
X90738524Y-79022476D01*
X90643286Y-79070095D01*
X89690905Y-81816381D02*
X89690905Y-80816381D01*
X89929000Y-80816381D01*
X90071858Y-80864000D01*
X90167096Y-80959238D01*
X90214715Y-81054476D01*
X90262334Y-81244952D01*
X90262334Y-81387810D01*
X90214715Y-81578286D01*
X90167096Y-81673524D01*
X90071858Y-81768762D01*
X89929000Y-81816381D01*
X89690905Y-81816381D01*
X90643286Y-80911619D02*
X90690905Y-80864000D01*
X90786143Y-80816381D01*
X91024239Y-80816381D01*
X91119477Y-80864000D01*
X91167096Y-80911619D01*
X91214715Y-81006857D01*
X91214715Y-81102095D01*
X91167096Y-81244952D01*
X90595667Y-81816381D01*
X91214715Y-81816381D01*
X89690905Y-84864381D02*
X89690905Y-83864381D01*
X89929000Y-83864381D01*
X90071858Y-83912000D01*
X90167096Y-84007238D01*
X90214715Y-84102476D01*
X90262334Y-84292952D01*
X90262334Y-84435810D01*
X90214715Y-84626286D01*
X90167096Y-84721524D01*
X90071858Y-84816762D01*
X89929000Y-84864381D01*
X89690905Y-84864381D01*
X90595667Y-83864381D02*
X91214715Y-83864381D01*
X90881381Y-84245333D01*
X91024239Y-84245333D01*
X91119477Y-84292952D01*
X91167096Y-84340571D01*
X91214715Y-84435810D01*
X91214715Y-84673905D01*
X91167096Y-84769143D01*
X91119477Y-84816762D01*
X91024239Y-84864381D01*
X90738524Y-84864381D01*
X90643286Y-84816762D01*
X90595667Y-84769143D01*
X89690905Y-86896381D02*
X89690905Y-85896381D01*
X89929000Y-85896381D01*
X90071858Y-85944000D01*
X90167096Y-86039238D01*
X90214715Y-86134476D01*
X90262334Y-86324952D01*
X90262334Y-86467810D01*
X90214715Y-86658286D01*
X90167096Y-86753524D01*
X90071858Y-86848762D01*
X89929000Y-86896381D01*
X89690905Y-86896381D01*
X91119477Y-86229714D02*
X91119477Y-86896381D01*
X90881381Y-85848762D02*
X90643286Y-86563048D01*
X91262334Y-86563048D01*
X79433381Y-61270286D02*
X78433381Y-61270286D01*
X78433381Y-60889333D01*
X78481000Y-60794095D01*
X78528619Y-60746476D01*
X78623857Y-60698857D01*
X78766714Y-60698857D01*
X78861952Y-60746476D01*
X78909571Y-60794095D01*
X78957190Y-60889333D01*
X78957190Y-61270286D01*
X79433381Y-59746476D02*
X79433381Y-60317905D01*
X79433381Y-60032191D02*
X78433381Y-60032191D01*
X78576238Y-60127429D01*
X78671476Y-60222667D01*
X78719095Y-60317905D01*
X78433381Y-59413143D02*
X78433381Y-58746476D01*
X79433381Y-59175048D01*
X74879381Y-90198286D02*
X73879381Y-90198286D01*
X73879381Y-89817333D01*
X73927000Y-89722095D01*
X73974619Y-89674476D01*
X74069857Y-89626857D01*
X74212714Y-89626857D01*
X74307952Y-89674476D01*
X74355571Y-89722095D01*
X74403190Y-89817333D01*
X74403190Y-90198286D01*
X74879381Y-88674476D02*
X74879381Y-89245905D01*
X74879381Y-88960191D02*
X73879381Y-88960191D01*
X74022238Y-89055429D01*
X74117476Y-89150667D01*
X74165095Y-89245905D01*
X74307952Y-88103048D02*
X74260333Y-88198286D01*
X74212714Y-88245905D01*
X74117476Y-88293524D01*
X74069857Y-88293524D01*
X73974619Y-88245905D01*
X73927000Y-88198286D01*
X73879381Y-88103048D01*
X73879381Y-87912571D01*
X73927000Y-87817333D01*
X73974619Y-87769714D01*
X74069857Y-87722095D01*
X74117476Y-87722095D01*
X74212714Y-87769714D01*
X74260333Y-87817333D01*
X74307952Y-87912571D01*
X74307952Y-88103048D01*
X74355571Y-88198286D01*
X74403190Y-88245905D01*
X74498429Y-88293524D01*
X74688905Y-88293524D01*
X74784143Y-88245905D01*
X74831762Y-88198286D01*
X74879381Y-88103048D01*
X74879381Y-87912571D01*
X74831762Y-87817333D01*
X74784143Y-87769714D01*
X74688905Y-87722095D01*
X74498429Y-87722095D01*
X74403190Y-87769714D01*
X74355571Y-87817333D01*
X74307952Y-87912571D01*
D11*
X77731381Y-88718285D02*
X77731381Y-89289714D01*
X77731381Y-89004000D02*
X76731381Y-89004000D01*
X76874238Y-89099238D01*
X76969476Y-89194476D01*
X77017095Y-89289714D01*
D12*
X122517762Y-88515619D02*
X122422524Y-88468000D01*
X122327286Y-88372762D01*
X122184429Y-88229905D01*
X122089190Y-88182286D01*
X121993952Y-88182286D01*
X122041571Y-88420381D02*
X121946333Y-88372762D01*
X121851095Y-88277524D01*
X121803476Y-88087048D01*
X121803476Y-87753714D01*
X121851095Y-87563238D01*
X121946333Y-87468000D01*
X122041571Y-87420381D01*
X122232048Y-87420381D01*
X122327286Y-87468000D01*
X122422524Y-87563238D01*
X122470143Y-87753714D01*
X122470143Y-88087048D01*
X122422524Y-88277524D01*
X122327286Y-88372762D01*
X122232048Y-88420381D01*
X122041571Y-88420381D01*
X123422524Y-88420381D02*
X122851095Y-88420381D01*
X123136809Y-88420381D02*
X123136809Y-87420381D01*
X123041571Y-87563238D01*
X122946333Y-87658476D01*
X122851095Y-87706095D01*
X101104334Y-73180381D02*
X100771000Y-72704190D01*
X100532905Y-73180381D02*
X100532905Y-72180381D01*
X100913858Y-72180381D01*
X101009096Y-72228000D01*
X101056715Y-72275619D01*
X101104334Y-72370857D01*
X101104334Y-72513714D01*
X101056715Y-72608952D01*
X101009096Y-72656571D01*
X100913858Y-72704190D01*
X100532905Y-72704190D01*
X102056715Y-73180381D02*
X101485286Y-73180381D01*
X101771000Y-73180381D02*
X101771000Y-72180381D01*
X101675762Y-72323238D01*
X101580524Y-72418476D01*
X101485286Y-72466095D01*
X80467381Y-80180666D02*
X79991190Y-80514000D01*
X80467381Y-80752095D02*
X79467381Y-80752095D01*
X79467381Y-80371142D01*
X79515000Y-80275904D01*
X79562619Y-80228285D01*
X79657857Y-80180666D01*
X79800714Y-80180666D01*
X79895952Y-80228285D01*
X79943571Y-80275904D01*
X79991190Y-80371142D01*
X79991190Y-80752095D01*
X79562619Y-79799714D02*
X79515000Y-79752095D01*
X79467381Y-79656857D01*
X79467381Y-79418761D01*
X79515000Y-79323523D01*
X79562619Y-79275904D01*
X79657857Y-79228285D01*
X79753095Y-79228285D01*
X79895952Y-79275904D01*
X80467381Y-79847333D01*
X80467381Y-79228285D01*
X101692334Y-79784381D02*
X101359000Y-79308190D01*
X101120905Y-79784381D02*
X101120905Y-78784381D01*
X101501858Y-78784381D01*
X101597096Y-78832000D01*
X101644715Y-78879619D01*
X101692334Y-78974857D01*
X101692334Y-79117714D01*
X101644715Y-79212952D01*
X101597096Y-79260571D01*
X101501858Y-79308190D01*
X101120905Y-79308190D01*
X102025667Y-78784381D02*
X102644715Y-78784381D01*
X102311381Y-79165333D01*
X102454239Y-79165333D01*
X102549477Y-79212952D01*
X102597096Y-79260571D01*
X102644715Y-79355810D01*
X102644715Y-79593905D01*
X102597096Y-79689143D01*
X102549477Y-79736762D01*
X102454239Y-79784381D01*
X102168524Y-79784381D01*
X102073286Y-79736762D01*
X102025667Y-79689143D01*
X101692334Y-81816381D02*
X101359000Y-81340190D01*
X101120905Y-81816381D02*
X101120905Y-80816381D01*
X101501858Y-80816381D01*
X101597096Y-80864000D01*
X101644715Y-80911619D01*
X101692334Y-81006857D01*
X101692334Y-81149714D01*
X101644715Y-81244952D01*
X101597096Y-81292571D01*
X101501858Y-81340190D01*
X101120905Y-81340190D01*
X102549477Y-81149714D02*
X102549477Y-81816381D01*
X102311381Y-80768762D02*
X102073286Y-81483048D01*
X102692334Y-81483048D01*
X101438334Y-84864381D02*
X101105000Y-84388190D01*
X100866905Y-84864381D02*
X100866905Y-83864381D01*
X101247858Y-83864381D01*
X101343096Y-83912000D01*
X101390715Y-83959619D01*
X101438334Y-84054857D01*
X101438334Y-84197714D01*
X101390715Y-84292952D01*
X101343096Y-84340571D01*
X101247858Y-84388190D01*
X100866905Y-84388190D01*
X102343096Y-83864381D02*
X101866905Y-83864381D01*
X101819286Y-84340571D01*
X101866905Y-84292952D01*
X101962143Y-84245333D01*
X102200239Y-84245333D01*
X102295477Y-84292952D01*
X102343096Y-84340571D01*
X102390715Y-84435810D01*
X102390715Y-84673905D01*
X102343096Y-84769143D01*
X102295477Y-84816762D01*
X102200239Y-84864381D01*
X101962143Y-84864381D01*
X101866905Y-84816762D01*
X101819286Y-84769143D01*
X101438334Y-86896381D02*
X101105000Y-86420190D01*
X100866905Y-86896381D02*
X100866905Y-85896381D01*
X101247858Y-85896381D01*
X101343096Y-85944000D01*
X101390715Y-85991619D01*
X101438334Y-86086857D01*
X101438334Y-86229714D01*
X101390715Y-86324952D01*
X101343096Y-86372571D01*
X101247858Y-86420190D01*
X100866905Y-86420190D01*
X102295477Y-85896381D02*
X102105000Y-85896381D01*
X102009762Y-85944000D01*
X101962143Y-85991619D01*
X101866905Y-86134476D01*
X101819286Y-86324952D01*
X101819286Y-86705905D01*
X101866905Y-86801143D01*
X101914524Y-86848762D01*
X102009762Y-86896381D01*
X102200239Y-86896381D01*
X102295477Y-86848762D01*
X102343096Y-86801143D01*
X102390715Y-86705905D01*
X102390715Y-86467810D01*
X102343096Y-86372571D01*
X102295477Y-86324952D01*
X102200239Y-86277333D01*
X102009762Y-86277333D01*
X101914524Y-86324952D01*
X101866905Y-86372571D01*
X101819286Y-86467810D01*
X83723095Y-68312381D02*
X83723095Y-69121905D01*
X83770714Y-69217143D01*
X83818333Y-69264762D01*
X83913571Y-69312381D01*
X84104048Y-69312381D01*
X84199286Y-69264762D01*
X84246905Y-69217143D01*
X84294524Y-69121905D01*
X84294524Y-68312381D01*
X85294524Y-69312381D02*
X84723095Y-69312381D01*
X85008809Y-69312381D02*
X85008809Y-68312381D01*
X84913571Y-68455238D01*
X84818333Y-68550476D01*
X84723095Y-68598095D01*
X83825095Y-75172381D02*
X83825095Y-75981905D01*
X83872714Y-76077143D01*
X83920333Y-76124762D01*
X84015571Y-76172381D01*
X84206048Y-76172381D01*
X84301286Y-76124762D01*
X84348905Y-76077143D01*
X84396524Y-75981905D01*
X84396524Y-75172381D01*
X84825095Y-75267619D02*
X84872714Y-75220000D01*
X84967952Y-75172381D01*
X85206048Y-75172381D01*
X85301286Y-75220000D01*
X85348905Y-75267619D01*
X85396524Y-75362857D01*
X85396524Y-75458095D01*
X85348905Y-75600952D01*
X84777476Y-76172381D01*
X85396524Y-76172381D01*
X106629381Y-59750095D02*
X105629381Y-59750095D01*
X105629381Y-59512000D01*
X105677000Y-59369142D01*
X105772238Y-59273904D01*
X105867476Y-59226285D01*
X106057952Y-59178666D01*
X106200810Y-59178666D01*
X106391286Y-59226285D01*
X106486524Y-59273904D01*
X106581762Y-59369142D01*
X106629381Y-59512000D01*
X106629381Y-59750095D01*
X105629381Y-58273904D02*
X105629381Y-58750095D01*
X106105571Y-58797714D01*
X106057952Y-58750095D01*
X106010333Y-58654857D01*
X106010333Y-58416761D01*
X106057952Y-58321523D01*
X106105571Y-58273904D01*
X106200810Y-58226285D01*
X106438905Y-58226285D01*
X106534143Y-58273904D01*
X106581762Y-58321523D01*
X106629381Y-58416761D01*
X106629381Y-58654857D01*
X106581762Y-58750095D01*
X106534143Y-58797714D01*
X104089381Y-59750095D02*
X103089381Y-59750095D01*
X103089381Y-59512000D01*
X103137000Y-59369142D01*
X103232238Y-59273904D01*
X103327476Y-59226285D01*
X103517952Y-59178666D01*
X103660810Y-59178666D01*
X103851286Y-59226285D01*
X103946524Y-59273904D01*
X104041762Y-59369142D01*
X104089381Y-59512000D01*
X104089381Y-59750095D01*
X103089381Y-58321523D02*
X103089381Y-58512000D01*
X103137000Y-58607238D01*
X103184619Y-58654857D01*
X103327476Y-58750095D01*
X103517952Y-58797714D01*
X103898905Y-58797714D01*
X103994143Y-58750095D01*
X104041762Y-58702476D01*
X104089381Y-58607238D01*
X104089381Y-58416761D01*
X104041762Y-58321523D01*
X103994143Y-58273904D01*
X103898905Y-58226285D01*
X103660810Y-58226285D01*
X103565571Y-58273904D01*
X103517952Y-58321523D01*
X103470333Y-58416761D01*
X103470333Y-58607238D01*
X103517952Y-58702476D01*
X103565571Y-58750095D01*
X103660810Y-58797714D01*
X101549381Y-59750095D02*
X100549381Y-59750095D01*
X100549381Y-59512000D01*
X100597000Y-59369142D01*
X100692238Y-59273904D01*
X100787476Y-59226285D01*
X100977952Y-59178666D01*
X101120810Y-59178666D01*
X101311286Y-59226285D01*
X101406524Y-59273904D01*
X101501762Y-59369142D01*
X101549381Y-59512000D01*
X101549381Y-59750095D01*
X100549381Y-58845333D02*
X100549381Y-58178666D01*
X101549381Y-58607238D01*
X97485381Y-63814095D02*
X96485381Y-63814095D01*
X96485381Y-63576000D01*
X96533000Y-63433142D01*
X96628238Y-63337904D01*
X96723476Y-63290285D01*
X96913952Y-63242666D01*
X97056810Y-63242666D01*
X97247286Y-63290285D01*
X97342524Y-63337904D01*
X97437762Y-63433142D01*
X97485381Y-63576000D01*
X97485381Y-63814095D01*
X96913952Y-62671238D02*
X96866333Y-62766476D01*
X96818714Y-62814095D01*
X96723476Y-62861714D01*
X96675857Y-62861714D01*
X96580619Y-62814095D01*
X96533000Y-62766476D01*
X96485381Y-62671238D01*
X96485381Y-62480761D01*
X96533000Y-62385523D01*
X96580619Y-62337904D01*
X96675857Y-62290285D01*
X96723476Y-62290285D01*
X96818714Y-62337904D01*
X96866333Y-62385523D01*
X96913952Y-62480761D01*
X96913952Y-62671238D01*
X96961571Y-62766476D01*
X97009190Y-62814095D01*
X97104429Y-62861714D01*
X97294905Y-62861714D01*
X97390143Y-62814095D01*
X97437762Y-62766476D01*
X97485381Y-62671238D01*
X97485381Y-62480761D01*
X97437762Y-62385523D01*
X97390143Y-62337904D01*
X97294905Y-62290285D01*
X97104429Y-62290285D01*
X97009190Y-62337904D01*
X96961571Y-62385523D01*
X96913952Y-62480761D01*
X106629381Y-70608666D02*
X106153190Y-70942000D01*
X106629381Y-71180095D02*
X105629381Y-71180095D01*
X105629381Y-70799142D01*
X105677000Y-70703904D01*
X105724619Y-70656285D01*
X105819857Y-70608666D01*
X105962714Y-70608666D01*
X106057952Y-70656285D01*
X106105571Y-70703904D01*
X106153190Y-70799142D01*
X106153190Y-71180095D01*
X105629381Y-70275333D02*
X105629381Y-69608666D01*
X106629381Y-70037238D01*
X104089381Y-70608666D02*
X103613190Y-70942000D01*
X104089381Y-71180095D02*
X103089381Y-71180095D01*
X103089381Y-70799142D01*
X103137000Y-70703904D01*
X103184619Y-70656285D01*
X103279857Y-70608666D01*
X103422714Y-70608666D01*
X103517952Y-70656285D01*
X103565571Y-70703904D01*
X103613190Y-70799142D01*
X103613190Y-71180095D01*
X103517952Y-70037238D02*
X103470333Y-70132476D01*
X103422714Y-70180095D01*
X103327476Y-70227714D01*
X103279857Y-70227714D01*
X103184619Y-70180095D01*
X103137000Y-70132476D01*
X103089381Y-70037238D01*
X103089381Y-69846761D01*
X103137000Y-69751523D01*
X103184619Y-69703904D01*
X103279857Y-69656285D01*
X103327476Y-69656285D01*
X103422714Y-69703904D01*
X103470333Y-69751523D01*
X103517952Y-69846761D01*
X103517952Y-70037238D01*
X103565571Y-70132476D01*
X103613190Y-70180095D01*
X103708429Y-70227714D01*
X103898905Y-70227714D01*
X103994143Y-70180095D01*
X104041762Y-70132476D01*
X104089381Y-70037238D01*
X104089381Y-69846761D01*
X104041762Y-69751523D01*
X103994143Y-69703904D01*
X103898905Y-69656285D01*
X103708429Y-69656285D01*
X103613190Y-69703904D01*
X103565571Y-69751523D01*
X103517952Y-69846761D01*
X101549381Y-70608666D02*
X101073190Y-70942000D01*
X101549381Y-71180095D02*
X100549381Y-71180095D01*
X100549381Y-70799142D01*
X100597000Y-70703904D01*
X100644619Y-70656285D01*
X100739857Y-70608666D01*
X100882714Y-70608666D01*
X100977952Y-70656285D01*
X101025571Y-70703904D01*
X101073190Y-70799142D01*
X101073190Y-71180095D01*
X101549381Y-70132476D02*
X101549381Y-69942000D01*
X101501762Y-69846761D01*
X101454143Y-69799142D01*
X101311286Y-69703904D01*
X101120810Y-69656285D01*
X100739857Y-69656285D01*
X100644619Y-69703904D01*
X100597000Y-69751523D01*
X100549381Y-69846761D01*
X100549381Y-70037238D01*
X100597000Y-70132476D01*
X100644619Y-70180095D01*
X100739857Y-70227714D01*
X100977952Y-70227714D01*
X101073190Y-70180095D01*
X101120810Y-70132476D01*
X101168429Y-70037238D01*
X101168429Y-69846761D01*
X101120810Y-69751523D01*
X101073190Y-69703904D01*
X100977952Y-69656285D01*
X99009381Y-71084857D02*
X98533190Y-71418191D01*
X99009381Y-71656286D02*
X98009381Y-71656286D01*
X98009381Y-71275333D01*
X98057000Y-71180095D01*
X98104619Y-71132476D01*
X98199857Y-71084857D01*
X98342714Y-71084857D01*
X98437952Y-71132476D01*
X98485571Y-71180095D01*
X98533190Y-71275333D01*
X98533190Y-71656286D01*
X99009381Y-70132476D02*
X99009381Y-70703905D01*
X99009381Y-70418191D02*
X98009381Y-70418191D01*
X98152238Y-70513429D01*
X98247476Y-70608667D01*
X98295095Y-70703905D01*
X98009381Y-69513429D02*
X98009381Y-69418190D01*
X98057000Y-69322952D01*
X98104619Y-69275333D01*
X98199857Y-69227714D01*
X98390333Y-69180095D01*
X98628429Y-69180095D01*
X98818905Y-69227714D01*
X98914143Y-69275333D01*
X98961762Y-69322952D01*
X99009381Y-69418190D01*
X99009381Y-69513429D01*
X98961762Y-69608667D01*
X98914143Y-69656286D01*
X98818905Y-69703905D01*
X98628429Y-69751524D01*
X98390333Y-69751524D01*
X98199857Y-69703905D01*
X98104619Y-69656286D01*
X98057000Y-69608667D01*
X98009381Y-69513429D01*
X138790714Y-80706857D02*
X138790714Y-81678286D01*
X138847857Y-81792571D01*
X138905000Y-81849714D01*
X139019286Y-81906857D01*
X139247857Y-81906857D01*
X139362143Y-81849714D01*
X139419286Y-81792571D01*
X139476429Y-81678286D01*
X139476429Y-80706857D01*
X139933572Y-80706857D02*
X140676429Y-80706857D01*
X140276429Y-81164000D01*
X140447857Y-81164000D01*
X140562143Y-81221143D01*
X140619286Y-81278286D01*
X140676429Y-81392571D01*
X140676429Y-81678286D01*
X140619286Y-81792571D01*
X140562143Y-81849714D01*
X140447857Y-81906857D01*
X140105000Y-81906857D01*
X139990714Y-81849714D01*
X139933572Y-81792571D01*
X112042905Y-99704052D02*
X112042905Y-98704052D01*
X112423858Y-98704052D01*
X112519096Y-98751671D01*
X112566715Y-98799290D01*
X112614334Y-98894528D01*
X112614334Y-99037385D01*
X112566715Y-99132623D01*
X112519096Y-99180242D01*
X112423858Y-99227861D01*
X112042905Y-99227861D01*
X113566715Y-99704052D02*
X112995286Y-99704052D01*
X113281000Y-99704052D02*
X113281000Y-98704052D01*
X113185762Y-98846909D01*
X113090524Y-98942147D01*
X112995286Y-98989766D01*
X134394905Y-99704052D02*
X134394905Y-98704052D01*
X134775858Y-98704052D01*
X134871096Y-98751671D01*
X134918715Y-98799290D01*
X134966334Y-98894528D01*
X134966334Y-99037385D01*
X134918715Y-99132623D01*
X134871096Y-99180242D01*
X134775858Y-99227861D01*
X134394905Y-99227861D01*
X135299667Y-98704052D02*
X135918715Y-98704052D01*
X135585381Y-99085004D01*
X135728239Y-99085004D01*
X135823477Y-99132623D01*
X135871096Y-99180242D01*
X135918715Y-99275481D01*
X135918715Y-99513576D01*
X135871096Y-99608814D01*
X135823477Y-99656433D01*
X135728239Y-99704052D01*
X135442524Y-99704052D01*
X135347286Y-99656433D01*
X135299667Y-99608814D01*
X145570905Y-99596381D02*
X145570905Y-98596381D01*
X145951858Y-98596381D01*
X146047096Y-98644000D01*
X146094715Y-98691619D01*
X146142334Y-98786857D01*
X146142334Y-98929714D01*
X146094715Y-99024952D01*
X146047096Y-99072571D01*
X145951858Y-99120190D01*
X145570905Y-99120190D01*
X147047096Y-98596381D02*
X146570905Y-98596381D01*
X146523286Y-99072571D01*
X146570905Y-99024952D01*
X146666143Y-98977333D01*
X146904239Y-98977333D01*
X146999477Y-99024952D01*
X147047096Y-99072571D01*
X147094715Y-99167810D01*
X147094715Y-99405905D01*
X147047096Y-99501143D01*
X146999477Y-99548762D01*
X146904239Y-99596381D01*
X146666143Y-99596381D01*
X146570905Y-99548762D01*
X146523286Y-99501143D01*
X134140905Y-51381181D02*
X134140905Y-50381181D01*
X134521858Y-50381181D01*
X134617096Y-50428800D01*
X134664715Y-50476419D01*
X134712334Y-50571657D01*
X134712334Y-50714514D01*
X134664715Y-50809752D01*
X134617096Y-50857371D01*
X134521858Y-50904990D01*
X134140905Y-50904990D01*
X135569477Y-50381181D02*
X135379000Y-50381181D01*
X135283762Y-50428800D01*
X135236143Y-50476419D01*
X135140905Y-50619276D01*
X135093286Y-50809752D01*
X135093286Y-51190705D01*
X135140905Y-51285943D01*
X135188524Y-51333562D01*
X135283762Y-51381181D01*
X135474239Y-51381181D01*
X135569477Y-51333562D01*
X135617096Y-51285943D01*
X135664715Y-51190705D01*
X135664715Y-50952610D01*
X135617096Y-50857371D01*
X135569477Y-50809752D01*
X135474239Y-50762133D01*
X135283762Y-50762133D01*
X135188524Y-50809752D01*
X135140905Y-50857371D01*
X135093286Y-50952610D01*
X169367381Y-81594095D02*
X168367381Y-81594095D01*
X168367381Y-81213142D01*
X168415000Y-81117904D01*
X168462619Y-81070285D01*
X168557857Y-81022666D01*
X168700714Y-81022666D01*
X168795952Y-81070285D01*
X168843571Y-81117904D01*
X168891190Y-81213142D01*
X168891190Y-81594095D01*
X168367381Y-80689333D02*
X168367381Y-80022666D01*
X169367381Y-80451238D01*
X145570905Y-51336381D02*
X145570905Y-50336381D01*
X145951858Y-50336381D01*
X146047096Y-50384000D01*
X146094715Y-50431619D01*
X146142334Y-50526857D01*
X146142334Y-50669714D01*
X146094715Y-50764952D01*
X146047096Y-50812571D01*
X145951858Y-50860190D01*
X145570905Y-50860190D01*
X146713762Y-50764952D02*
X146618524Y-50717333D01*
X146570905Y-50669714D01*
X146523286Y-50574476D01*
X146523286Y-50526857D01*
X146570905Y-50431619D01*
X146618524Y-50384000D01*
X146713762Y-50336381D01*
X146904239Y-50336381D01*
X146999477Y-50384000D01*
X147047096Y-50431619D01*
X147094715Y-50526857D01*
X147094715Y-50574476D01*
X147047096Y-50669714D01*
X146999477Y-50717333D01*
X146904239Y-50764952D01*
X146713762Y-50764952D01*
X146618524Y-50812571D01*
X146570905Y-50860190D01*
X146523286Y-50955429D01*
X146523286Y-51145905D01*
X146570905Y-51241143D01*
X146618524Y-51288762D01*
X146713762Y-51336381D01*
X146904239Y-51336381D01*
X146999477Y-51288762D01*
X147047096Y-51241143D01*
X147094715Y-51145905D01*
X147094715Y-50955429D01*
X147047096Y-50860190D01*
X146999477Y-50812571D01*
X146904239Y-50764952D01*
X100866905Y-99704052D02*
X100866905Y-98704052D01*
X101247858Y-98704052D01*
X101343096Y-98751671D01*
X101390715Y-98799290D01*
X101438334Y-98894528D01*
X101438334Y-99037385D01*
X101390715Y-99132623D01*
X101343096Y-99180242D01*
X101247858Y-99227861D01*
X100866905Y-99227861D01*
X101914524Y-99704052D02*
X102105000Y-99704052D01*
X102200239Y-99656433D01*
X102247858Y-99608814D01*
X102343096Y-99465957D01*
X102390715Y-99275481D01*
X102390715Y-98894528D01*
X102343096Y-98799290D01*
X102295477Y-98751671D01*
X102200239Y-98704052D01*
X102009762Y-98704052D01*
X101914524Y-98751671D01*
X101866905Y-98799290D01*
X101819286Y-98894528D01*
X101819286Y-99132623D01*
X101866905Y-99227861D01*
X101914524Y-99275481D01*
X102009762Y-99323100D01*
X102200239Y-99323100D01*
X102295477Y-99275481D01*
X102343096Y-99227861D01*
X102390715Y-99132623D01*
X169621381Y-70894286D02*
X168621381Y-70894286D01*
X168621381Y-70513333D01*
X168669000Y-70418095D01*
X168716619Y-70370476D01*
X168811857Y-70322857D01*
X168954714Y-70322857D01*
X169049952Y-70370476D01*
X169097571Y-70418095D01*
X169145190Y-70513333D01*
X169145190Y-70894286D01*
X169621381Y-69370476D02*
X169621381Y-69941905D01*
X169621381Y-69656191D02*
X168621381Y-69656191D01*
X168764238Y-69751429D01*
X168859476Y-69846667D01*
X168907095Y-69941905D01*
X168621381Y-68751429D02*
X168621381Y-68656190D01*
X168669000Y-68560952D01*
X168716619Y-68513333D01*
X168811857Y-68465714D01*
X169002333Y-68418095D01*
X169240429Y-68418095D01*
X169430905Y-68465714D01*
X169526143Y-68513333D01*
X169573762Y-68560952D01*
X169621381Y-68656190D01*
X169621381Y-68751429D01*
X169573762Y-68846667D01*
X169526143Y-68894286D01*
X169430905Y-68941905D01*
X169240429Y-68989524D01*
X169002333Y-68989524D01*
X168811857Y-68941905D01*
X168716619Y-68894286D01*
X168669000Y-68846667D01*
X168621381Y-68751429D01*
X156667381Y-82070286D02*
X155667381Y-82070286D01*
X155667381Y-81689333D01*
X155715000Y-81594095D01*
X155762619Y-81546476D01*
X155857857Y-81498857D01*
X156000714Y-81498857D01*
X156095952Y-81546476D01*
X156143571Y-81594095D01*
X156191190Y-81689333D01*
X156191190Y-82070286D01*
X156667381Y-80546476D02*
X156667381Y-81117905D01*
X156667381Y-80832191D02*
X155667381Y-80832191D01*
X155810238Y-80927429D01*
X155905476Y-81022667D01*
X155953095Y-81117905D01*
X155667381Y-80213143D02*
X155667381Y-79594095D01*
X156048333Y-79927429D01*
X156048333Y-79784571D01*
X156095952Y-79689333D01*
X156143571Y-79641714D01*
X156238810Y-79594095D01*
X156476905Y-79594095D01*
X156572143Y-79641714D01*
X156619762Y-79689333D01*
X156667381Y-79784571D01*
X156667381Y-80070286D01*
X156619762Y-80165524D01*
X156572143Y-80213143D01*
X156270714Y-51336381D02*
X156270714Y-50336381D01*
X156651667Y-50336381D01*
X156746905Y-50384000D01*
X156794524Y-50431619D01*
X156842143Y-50526857D01*
X156842143Y-50669714D01*
X156794524Y-50764952D01*
X156746905Y-50812571D01*
X156651667Y-50860190D01*
X156270714Y-50860190D01*
X157794524Y-51336381D02*
X157223095Y-51336381D01*
X157508809Y-51336381D02*
X157508809Y-50336381D01*
X157413571Y-50479238D01*
X157318333Y-50574476D01*
X157223095Y-50622095D01*
X158651667Y-50336381D02*
X158461190Y-50336381D01*
X158365952Y-50384000D01*
X158318333Y-50431619D01*
X158223095Y-50574476D01*
X158175476Y-50764952D01*
X158175476Y-51145905D01*
X158223095Y-51241143D01*
X158270714Y-51288762D01*
X158365952Y-51336381D01*
X158556429Y-51336381D01*
X158651667Y-51288762D01*
X158699286Y-51241143D01*
X158746905Y-51145905D01*
X158746905Y-50907810D01*
X158699286Y-50812571D01*
X158651667Y-50764952D01*
X158556429Y-50717333D01*
X158365952Y-50717333D01*
X158270714Y-50764952D01*
X158223095Y-50812571D01*
X158175476Y-50907810D01*
X73474714Y-67332381D02*
X73474714Y-66332381D01*
X73855667Y-66332381D01*
X73950905Y-66380000D01*
X73998524Y-66427619D01*
X74046143Y-66522857D01*
X74046143Y-66665714D01*
X73998524Y-66760952D01*
X73950905Y-66808571D01*
X73855667Y-66856190D01*
X73474714Y-66856190D01*
X74998524Y-67332381D02*
X74427095Y-67332381D01*
X74712809Y-67332381D02*
X74712809Y-66332381D01*
X74617571Y-66475238D01*
X74522333Y-66570476D01*
X74427095Y-66618095D01*
X75474714Y-67332381D02*
X75665190Y-67332381D01*
X75760429Y-67284762D01*
X75808048Y-67237143D01*
X75903286Y-67094286D01*
X75950905Y-66903810D01*
X75950905Y-66522857D01*
X75903286Y-66427619D01*
X75855667Y-66380000D01*
X75760429Y-66332381D01*
X75569952Y-66332381D01*
X75474714Y-66380000D01*
X75427095Y-66427619D01*
X75379476Y-66522857D01*
X75379476Y-66760952D01*
X75427095Y-66856190D01*
X75474714Y-66903810D01*
X75569952Y-66951429D01*
X75760429Y-66951429D01*
X75855667Y-66903810D01*
X75903286Y-66856190D01*
X75950905Y-66760952D01*
X72474714Y-80552381D02*
X72474714Y-79552381D01*
X72855667Y-79552381D01*
X72950905Y-79600000D01*
X72998524Y-79647619D01*
X73046143Y-79742857D01*
X73046143Y-79885714D01*
X72998524Y-79980952D01*
X72950905Y-80028571D01*
X72855667Y-80076190D01*
X72474714Y-80076190D01*
X73427095Y-79647619D02*
X73474714Y-79600000D01*
X73569952Y-79552381D01*
X73808048Y-79552381D01*
X73903286Y-79600000D01*
X73950905Y-79647619D01*
X73998524Y-79742857D01*
X73998524Y-79838095D01*
X73950905Y-79980952D01*
X73379476Y-80552381D01*
X73998524Y-80552381D01*
X74617571Y-79552381D02*
X74712810Y-79552381D01*
X74808048Y-79600000D01*
X74855667Y-79647619D01*
X74903286Y-79742857D01*
X74950905Y-79933333D01*
X74950905Y-80171429D01*
X74903286Y-80361905D01*
X74855667Y-80457143D01*
X74808048Y-80504762D01*
X74712810Y-80552381D01*
X74617571Y-80552381D01*
X74522333Y-80504762D01*
X74474714Y-80457143D01*
X74427095Y-80361905D01*
X74379476Y-80171429D01*
X74379476Y-79933333D01*
X74427095Y-79742857D01*
X74474714Y-79647619D01*
X74522333Y-79600000D01*
X74617571Y-79552381D01*
M02*
