M48
;DRILL file {KiCad (5.0.0)} date 08/07/19 23:04:13
;FORMAT={3:3/ absolute / metric / suppress leading zeros}
FMAT,2
METRIC,TZ
T1C0.400
T2C0.750
T3C1.016
T4C1.400
T5C3.200
T6C3.600
%
G90
G05
M71
T1
X72268Y-81491
X72649Y-84412
X72776Y-87714
X75062Y-91651
X78491Y-71204
X83952Y-82380
X86111Y-85174
X88270Y-86825
X88377Y-78844
X88905Y-70315
X90175Y-71585
X90810Y-72855
X92080Y-77427
X92334Y-75268
X93985Y-97493
X95255Y-62060
X96144Y-60663
X96144Y-75141
X96398Y-65235
X96398Y-77300
X96652Y-68791
X99065Y-71560
X99954Y-77554
X100081Y-75014
X100335Y-72360
X101478Y-91143
X103637Y-83142
X104945Y-73960
X106050Y-73160
X106431Y-77300
X109479Y-65636
X112019Y-76157
X112146Y-73617
X113035Y-78570
X114051Y-85428
X115575Y-65235
X115702Y-76157
X115956Y-73744
X118877Y-76411
X119258Y-73871
X121671Y-65108
X124465Y-70442
X124465Y-77554
X124973Y-63711
X125100Y-80221
X126624Y-66886
X126751Y-77808
X126765Y-69485
X127640Y-63838
X128529Y-69680
X128529Y-78824
X129291Y-66886
X130307Y-71712
X130307Y-73998
X130307Y-63711
X130561Y-80729
X130942Y-84793
X131450Y-67013
X137419Y-72474
X137419Y-73490
X137419Y-74510
X137419Y-75776
X137419Y-77046
X138562Y-72474
X138562Y-73490
X138562Y-74510
X138562Y-75776
X138562Y-77046
X139705Y-72474
X139705Y-73490
X139705Y-74510
X139705Y-75776
X139705Y-77046
X140848Y-77046
X140975Y-72474
X140975Y-73490
X140975Y-74510
X140975Y-75776
X141991Y-72474
X141991Y-73490
X141991Y-74510
X141991Y-75776
X141991Y-77046
X142880Y-62441
X143007Y-66378
X145166Y-64219
X145293Y-68410
X146055Y-79840
X147579Y-57742
X147960Y-65997
X150754Y-84031
X151389Y-72474
X152024Y-68664
X152913Y-66505
X153167Y-60790
X154437Y-86698
X154818Y-68664
X155199Y-72347
X155326Y-80729
X155453Y-77046
X155580Y-66632
T2
X159009Y-77808
X159009Y-79808
X159009Y-81808
X159009Y-83808
X73189Y-77300
X75189Y-77300
X109733Y-53729
X111733Y-53729
X113733Y-53729
X115733Y-53729
X73189Y-69680
X75189Y-69680
X159009Y-66632
X159009Y-68632
X159009Y-70632
X159009Y-72632
X109775Y-96452
X111775Y-96452
X113775Y-96452
X115775Y-96452
X143261Y-53729
X145261Y-53729
X147261Y-53729
X149261Y-53729
X154479Y-96452
X156479Y-96452
X158479Y-96452
X160479Y-96452
X120951Y-96452
X122951Y-96452
X124951Y-96452
X126951Y-96452
X132127Y-96452
X134127Y-96452
X136127Y-96452
X138127Y-96452
X143303Y-96452
X145303Y-96452
X147303Y-96452
X149303Y-96452
X98599Y-96452
X100599Y-96452
X102599Y-96452
X104599Y-96452
X120909Y-53729
X122909Y-53729
X124909Y-53729
X126909Y-53729
X98557Y-53729
X100557Y-53729
X102557Y-53729
X104557Y-53729
X166375Y-66696
X166375Y-68696
X166375Y-70696
X166375Y-72696
X154437Y-53729
X156437Y-53729
X158437Y-53729
X160437Y-53729
X166375Y-77872
X166375Y-79872
X166375Y-81872
X166375Y-83872
X132085Y-53729
X134085Y-53729
X136085Y-53729
X138085Y-53729
T3
X78999Y-88984
X78999Y-91524
X78999Y-94064
X81539Y-88984
X81539Y-91524
X81539Y-94064
T4
X74681Y-58306
X74681Y-63386
T5
X73411Y-53424
X73411Y-96604
X166375Y-96604
T6
X166375Y-53424
T0
M30
