%FSLAX45Y45*%
G04 Gerber Fmt 4.5, Leading zero omitted, Abs format (unit mm)*
G04 Created by KiCad (PCBNEW 4.0.6) date Sun Jul 30 22:21:45 2017*
%MOMM*%
%LPD*%
G01*
G04 APERTURE LIST*
%ADD10C,0.127000*%
%ADD11C,0.150000*%
%ADD12C,0.200000*%
%ADD13C,0.300000*%
G04 APERTURE END LIST*
D10*
D11*
X7000000Y-5000000D02*
X7000000Y-10000000D01*
X17000000Y-10000000D02*
X7000000Y-10000000D01*
X17000000Y-5000000D02*
X17000000Y-10000000D01*
X7000000Y-5000000D02*
X17000000Y-5000000D01*
D12*
X8819700Y-7862400D02*
X8859700Y-7902400D01*
X8859700Y-7862400D02*
X8819700Y-7902400D01*
X8946700Y-7252800D02*
X8986700Y-7292800D01*
X8986700Y-7252800D02*
X8946700Y-7292800D01*
X8946700Y-7481400D02*
X8986700Y-7521400D01*
X8986700Y-7481400D02*
X8946700Y-7521400D01*
X9124500Y-7252800D02*
X9164500Y-7292800D01*
X9164500Y-7252800D02*
X9124500Y-7292800D01*
X9124500Y-7481400D02*
X9164500Y-7521400D01*
X9164500Y-7481400D02*
X9124500Y-7521400D01*
X9251500Y-6668600D02*
X9291500Y-6708600D01*
X9291500Y-6668600D02*
X9251500Y-6708600D01*
X9302300Y-7252800D02*
X9342300Y-7292800D01*
X9342300Y-7252800D02*
X9302300Y-7292800D01*
X9302300Y-7481400D02*
X9342300Y-7521400D01*
X9342300Y-7481400D02*
X9302300Y-7521400D01*
X10089700Y-5855800D02*
X10129700Y-5895800D01*
X10129700Y-5855800D02*
X10089700Y-5895800D01*
X10343700Y-8294200D02*
X10383700Y-8334200D01*
X10383700Y-8294200D02*
X10343700Y-8334200D01*
X10623100Y-7710000D02*
X10663100Y-7750000D01*
X10663100Y-7710000D02*
X10623100Y-7750000D01*
X10927900Y-6541600D02*
X10967900Y-6581600D01*
X10967900Y-6541600D02*
X10927900Y-6581600D01*
X11258100Y-7608400D02*
X11298100Y-7648400D01*
X11298100Y-7608400D02*
X11258100Y-7648400D01*
X11258100Y-7837000D02*
X11298100Y-7877000D01*
X11298100Y-7837000D02*
X11258100Y-7877000D01*
X11385100Y-8522800D02*
X11425100Y-8562800D01*
X11425100Y-8522800D02*
X11385100Y-8562800D01*
X11461300Y-7710000D02*
X11501300Y-7750000D01*
X11501300Y-7710000D02*
X11461300Y-7750000D01*
X11562900Y-6541600D02*
X11602900Y-6581600D01*
X11602900Y-6541600D02*
X11562900Y-6581600D01*
X11639100Y-7075000D02*
X11679100Y-7115000D01*
X11679100Y-7075000D02*
X11639100Y-7115000D01*
X11639100Y-7329000D02*
X11679100Y-7369000D01*
X11679100Y-7329000D02*
X11639100Y-7369000D01*
X11816900Y-7075000D02*
X11856900Y-7115000D01*
X11856900Y-7075000D02*
X11816900Y-7115000D01*
X11816900Y-7329000D02*
X11856900Y-7369000D01*
X11856900Y-7329000D02*
X11816900Y-7369000D01*
X12147100Y-6490800D02*
X12187100Y-6530800D01*
X12187100Y-6490800D02*
X12147100Y-6530800D01*
X12350300Y-7506800D02*
X12390300Y-7546800D01*
X12390300Y-7506800D02*
X12350300Y-7546800D01*
X12426500Y-7024200D02*
X12466500Y-7064200D01*
X12466500Y-7024200D02*
X12426500Y-7064200D01*
X12426500Y-7735400D02*
X12466500Y-7775400D01*
X12466500Y-7735400D02*
X12426500Y-7775400D01*
X12502700Y-6389200D02*
X12542700Y-6429200D01*
X12542700Y-6389200D02*
X12502700Y-6429200D01*
X12604300Y-6389200D02*
X12644300Y-6429200D01*
X12644300Y-6389200D02*
X12604300Y-6429200D01*
X12655100Y-7760800D02*
X12695100Y-7800800D01*
X12695100Y-7760800D02*
X12655100Y-7800800D01*
X12656462Y-6928520D02*
X12696462Y-6968520D01*
X12696462Y-6928520D02*
X12656462Y-6968520D01*
X12705900Y-6389200D02*
X12745900Y-6429200D01*
X12745900Y-6389200D02*
X12705900Y-6429200D01*
X12705900Y-6617800D02*
X12745900Y-6657800D01*
X12745900Y-6617800D02*
X12705900Y-6657800D01*
X12807500Y-6389200D02*
X12847500Y-6429200D01*
X12847500Y-6389200D02*
X12807500Y-6429200D01*
X12807500Y-6617800D02*
X12847500Y-6657800D01*
X12847500Y-6617800D02*
X12807500Y-6657800D01*
X12832900Y-6948000D02*
X12872900Y-6988000D01*
X12872900Y-6948000D02*
X12832900Y-6988000D01*
X12832900Y-7862400D02*
X12872900Y-7902400D01*
X12872900Y-7862400D02*
X12832900Y-7902400D01*
X12883700Y-8446600D02*
X12923700Y-8486600D01*
X12923700Y-8446600D02*
X12883700Y-8486600D01*
X12909100Y-6389200D02*
X12949100Y-6429200D01*
X12949100Y-6389200D02*
X12909100Y-6429200D01*
X12909100Y-6617800D02*
X12949100Y-6657800D01*
X12949100Y-6617800D02*
X12909100Y-6657800D01*
X13010699Y-7151200D02*
X13050699Y-7191200D01*
X13050699Y-7151200D02*
X13010699Y-7191200D01*
X13010699Y-7379800D02*
X13050699Y-7419800D01*
X13050699Y-7379800D02*
X13010699Y-7419800D01*
X13010700Y-6389200D02*
X13050700Y-6429200D01*
X13050700Y-6389200D02*
X13010700Y-6429200D01*
X13010700Y-6617800D02*
X13050700Y-6657800D01*
X13050700Y-6617800D02*
X13010700Y-6657800D01*
X13036100Y-7532200D02*
X13076100Y-7572200D01*
X13076100Y-7532200D02*
X13036100Y-7572200D01*
X13112300Y-6389200D02*
X13152300Y-6429200D01*
X13152300Y-6389200D02*
X13112300Y-6429200D01*
X13112300Y-6617800D02*
X13152300Y-6657800D01*
X13152300Y-6617800D02*
X13112300Y-6657800D01*
X14204500Y-6338400D02*
X14244500Y-6378400D01*
X14244500Y-6338400D02*
X14204500Y-6378400D01*
X14280700Y-6592400D02*
X14320700Y-6632400D01*
X14320700Y-6592400D02*
X14280700Y-6632400D01*
X14458500Y-6389200D02*
X14498500Y-6429200D01*
X14498500Y-6389200D02*
X14458500Y-6429200D01*
X14509300Y-6846400D02*
X14549300Y-6886400D01*
X14549300Y-6846400D02*
X14509300Y-6886400D01*
X14737900Y-6617800D02*
X14777900Y-6657800D01*
X14777900Y-6617800D02*
X14737900Y-6657800D01*
X14763300Y-7379800D02*
X14803300Y-7419800D01*
X14803300Y-7379800D02*
X14763300Y-7419800D01*
X15118900Y-7227399D02*
X15158900Y-7267399D01*
X15158900Y-7227399D02*
X15118900Y-7267399D01*
X15144300Y-7430600D02*
X15184300Y-7470600D01*
X15184300Y-7430600D02*
X15144300Y-7470600D01*
X15296700Y-6059000D02*
X15336700Y-6099000D01*
X15336700Y-6059000D02*
X15296700Y-6099000D01*
X15423700Y-8649800D02*
X15463700Y-8689800D01*
X15463700Y-8649800D02*
X15423700Y-8689800D01*
X16007900Y-7557600D02*
X16047900Y-7597600D01*
X16047900Y-7557600D02*
X16007900Y-7597600D01*
X16084100Y-7456000D02*
X16124100Y-7496000D01*
X16124100Y-7456000D02*
X16084100Y-7496000D01*
X16160300Y-7811600D02*
X16200300Y-7851600D01*
X16200300Y-7811600D02*
X16160300Y-7851600D01*
X16261900Y-7710000D02*
X16301900Y-7750000D01*
X16301900Y-7710000D02*
X16261900Y-7750000D01*
X16363500Y-7456000D02*
X16403500Y-7496000D01*
X16403500Y-7456000D02*
X16363500Y-7496000D01*
X16363500Y-7583000D02*
X16403500Y-7623000D01*
X16403500Y-7583000D02*
X16363500Y-7623000D01*
X7320300Y-8822200D02*
G75*
G03X7320300Y-8822200I-30000J0D01*
G01*
X7447300Y-8949200D02*
G75*
G03X7447300Y-8949200I-30000J0D01*
G01*
X7574300Y-9076200D02*
G75*
G03X7574300Y-9076200I-30000J0D01*
G01*
X7701300Y-8441200D02*
G75*
G03X7701300Y-8441200I-30000J0D01*
G01*
X7701300Y-8568200D02*
G75*
G03X7701300Y-8568200I-30000J0D01*
G01*
X7701300Y-8695200D02*
G75*
G03X7701300Y-8695200I-30000J0D01*
G01*
X7701300Y-9203200D02*
G75*
G03X7701300Y-9203200I-30000J0D01*
G01*
X7752100Y-7196600D02*
G75*
G03X7752100Y-7196600I-30000J0D01*
G01*
X7752100Y-7425200D02*
G75*
G03X7752100Y-7425200I-30000J0D01*
G01*
X7879100Y-7196600D02*
G75*
G03X7879100Y-7196600I-30000J0D01*
G01*
X7879100Y-7425200D02*
G75*
G03X7879100Y-7425200I-30000J0D01*
G01*
X8006100Y-7196600D02*
G75*
G03X8006100Y-7196600I-30000J0D01*
G01*
X8006100Y-7425200D02*
G75*
G03X8006100Y-7425200I-30000J0D01*
G01*
X8031500Y-8441200D02*
G75*
G03X8031500Y-8441200I-30000J0D01*
G01*
X8031500Y-8568200D02*
G75*
G03X8031500Y-8568200I-30000J0D01*
G01*
X8031500Y-8695200D02*
G75*
G03X8031500Y-8695200I-30000J0D01*
G01*
X8387100Y-8695200D02*
G75*
G03X8387100Y-8695200I-30000J0D01*
G01*
X8488700Y-8593600D02*
G75*
G03X8488700Y-8593600I-30000J0D01*
G01*
X8564900Y-8873000D02*
G75*
G03X8564900Y-8873000I-30000J0D01*
G01*
X8590300Y-8492000D02*
G75*
G03X8590300Y-8492000I-30000J0D01*
G01*
X8666500Y-8771400D02*
G75*
G03X8666500Y-8771400I-30000J0D01*
G01*
X8768100Y-8669800D02*
G75*
G03X8768100Y-8669800I-30000J0D01*
G01*
X9530100Y-9711200D02*
G75*
G03X9530100Y-9711200I-30000J0D01*
G01*
X10088900Y-9279400D02*
G75*
G03X10088900Y-9279400I-30000J0D01*
G01*
X10241300Y-9127000D02*
G75*
G03X10241300Y-9127000I-30000J0D01*
G01*
X10393700Y-8974600D02*
G75*
G03X10393700Y-8974600I-30000J0D01*
G01*
X10774700Y-9279400D02*
G75*
G03X10774700Y-9279400I-30000J0D01*
G01*
X10927100Y-9127000D02*
G75*
G03X10927100Y-9127000I-30000J0D01*
G01*
X11079500Y-8974600D02*
G75*
G03X11079500Y-8974600I-30000J0D01*
G01*
X7318900Y-6930500D02*
X7318900Y-7005500D01*
X7281400Y-6968000D02*
X7356400Y-6968000D01*
X7318900Y-7692500D02*
X7318900Y-7767500D01*
X7281400Y-7730000D02*
X7356400Y-7730000D01*
X7518900Y-6930500D02*
X7518900Y-7005500D01*
X7481400Y-6968000D02*
X7556400Y-6968000D01*
X7518900Y-7692500D02*
X7518900Y-7767500D01*
X7481400Y-7730000D02*
X7556400Y-7730000D01*
X9855700Y-5335380D02*
X9855700Y-5410380D01*
X9818200Y-5372880D02*
X9893200Y-5372880D01*
X9859941Y-9607667D02*
X9859941Y-9682667D01*
X9822441Y-9645167D02*
X9897441Y-9645167D01*
X10055700Y-5335380D02*
X10055700Y-5410380D01*
X10018200Y-5372880D02*
X10093200Y-5372880D01*
X10059941Y-9607667D02*
X10059941Y-9682667D01*
X10022441Y-9645167D02*
X10097441Y-9645167D01*
X10255700Y-5335380D02*
X10255700Y-5410380D01*
X10218200Y-5372880D02*
X10293200Y-5372880D01*
X10259941Y-9607667D02*
X10259941Y-9682667D01*
X10222441Y-9645167D02*
X10297441Y-9645167D01*
X10455700Y-5335380D02*
X10455700Y-5410380D01*
X10418200Y-5372880D02*
X10493200Y-5372880D01*
X10459941Y-9607667D02*
X10459941Y-9682667D01*
X10422441Y-9645167D02*
X10497441Y-9645167D01*
X10973300Y-5335380D02*
X10973300Y-5410380D01*
X10935800Y-5372880D02*
X11010800Y-5372880D01*
X10977541Y-9607667D02*
X10977541Y-9682667D01*
X10940041Y-9645167D02*
X11015041Y-9645167D01*
X11173300Y-5335380D02*
X11173300Y-5410380D01*
X11135800Y-5372880D02*
X11210800Y-5372880D01*
X11177541Y-9607667D02*
X11177541Y-9682667D01*
X11140041Y-9645167D02*
X11215041Y-9645167D01*
X11373300Y-5335380D02*
X11373300Y-5410380D01*
X11335800Y-5372880D02*
X11410800Y-5372880D01*
X11377541Y-9607667D02*
X11377541Y-9682667D01*
X11340041Y-9645167D02*
X11415041Y-9645167D01*
X11573300Y-5335380D02*
X11573300Y-5410380D01*
X11535800Y-5372880D02*
X11610800Y-5372880D01*
X11577541Y-9607667D02*
X11577541Y-9682667D01*
X11540041Y-9645167D02*
X11615041Y-9645167D01*
X12090900Y-5335380D02*
X12090900Y-5410380D01*
X12053400Y-5372880D02*
X12128400Y-5372880D01*
X12095141Y-9607667D02*
X12095141Y-9682667D01*
X12057641Y-9645167D02*
X12132641Y-9645167D01*
X12290900Y-5335380D02*
X12290900Y-5410380D01*
X12253400Y-5372880D02*
X12328400Y-5372880D01*
X12295141Y-9607667D02*
X12295141Y-9682667D01*
X12257641Y-9645167D02*
X12332641Y-9645167D01*
X12490900Y-5335380D02*
X12490900Y-5410380D01*
X12453400Y-5372880D02*
X12528400Y-5372880D01*
X12495141Y-9607667D02*
X12495141Y-9682667D01*
X12457641Y-9645167D02*
X12532641Y-9645167D01*
X12690900Y-5335380D02*
X12690900Y-5410380D01*
X12653400Y-5372880D02*
X12728400Y-5372880D01*
X12695141Y-9607667D02*
X12695141Y-9682667D01*
X12657641Y-9645167D02*
X12732641Y-9645167D01*
X13208500Y-5335380D02*
X13208500Y-5410380D01*
X13171000Y-5372880D02*
X13246000Y-5372880D01*
X13212741Y-9607667D02*
X13212741Y-9682667D01*
X13175241Y-9645167D02*
X13250241Y-9645167D01*
X13408500Y-5335380D02*
X13408500Y-5410380D01*
X13371000Y-5372880D02*
X13446000Y-5372880D01*
X13412741Y-9607667D02*
X13412741Y-9682667D01*
X13375241Y-9645167D02*
X13450241Y-9645167D01*
X13608500Y-5335380D02*
X13608500Y-5410380D01*
X13571000Y-5372880D02*
X13646000Y-5372880D01*
X13612741Y-9607667D02*
X13612741Y-9682667D01*
X13575241Y-9645167D02*
X13650241Y-9645167D01*
X13808500Y-5335380D02*
X13808500Y-5410380D01*
X13771000Y-5372880D02*
X13846000Y-5372880D01*
X13812741Y-9607667D02*
X13812741Y-9682667D01*
X13775241Y-9645167D02*
X13850241Y-9645167D01*
X14326100Y-5335380D02*
X14326100Y-5410380D01*
X14288600Y-5372880D02*
X14363600Y-5372880D01*
X14330341Y-9607667D02*
X14330341Y-9682667D01*
X14292841Y-9645167D02*
X14367841Y-9645167D01*
X14526100Y-5335380D02*
X14526100Y-5410380D01*
X14488600Y-5372880D02*
X14563600Y-5372880D01*
X14530341Y-9607667D02*
X14530341Y-9682667D01*
X14492841Y-9645167D02*
X14567841Y-9645167D01*
X14726100Y-5335380D02*
X14726100Y-5410380D01*
X14688600Y-5372880D02*
X14763600Y-5372880D01*
X14730341Y-9607667D02*
X14730341Y-9682667D01*
X14692841Y-9645167D02*
X14767841Y-9645167D01*
X14926100Y-5335380D02*
X14926100Y-5410380D01*
X14888600Y-5372880D02*
X14963600Y-5372880D01*
X14930341Y-9607667D02*
X14930341Y-9682667D01*
X14892841Y-9645167D02*
X14967841Y-9645167D01*
X15443700Y-5335380D02*
X15443700Y-5410380D01*
X15406200Y-5372880D02*
X15481200Y-5372880D01*
X15447941Y-9607667D02*
X15447941Y-9682667D01*
X15410441Y-9645167D02*
X15485441Y-9645167D01*
X15643700Y-5335380D02*
X15643700Y-5410380D01*
X15606200Y-5372880D02*
X15681200Y-5372880D01*
X15647941Y-9607667D02*
X15647941Y-9682667D01*
X15610441Y-9645167D02*
X15685441Y-9645167D01*
X15843700Y-5335380D02*
X15843700Y-5410380D01*
X15806200Y-5372880D02*
X15881200Y-5372880D01*
X15847941Y-9607667D02*
X15847941Y-9682667D01*
X15810441Y-9645167D02*
X15885441Y-9645167D01*
X15900900Y-6625700D02*
X15900900Y-6700700D01*
X15863400Y-6663200D02*
X15938400Y-6663200D01*
X15900900Y-6825700D02*
X15900900Y-6900700D01*
X15863400Y-6863200D02*
X15938400Y-6863200D01*
X15900900Y-7025700D02*
X15900900Y-7100700D01*
X15863400Y-7063200D02*
X15938400Y-7063200D01*
X15900900Y-7225700D02*
X15900900Y-7300700D01*
X15863400Y-7263200D02*
X15938400Y-7263200D01*
X15900900Y-7743300D02*
X15900900Y-7818300D01*
X15863400Y-7780800D02*
X15938400Y-7780800D01*
X15900900Y-7943300D02*
X15900900Y-8018300D01*
X15863400Y-7980800D02*
X15938400Y-7980800D01*
X15900900Y-8143300D02*
X15900900Y-8218300D01*
X15863400Y-8180800D02*
X15938400Y-8180800D01*
X15900900Y-8343300D02*
X15900900Y-8418300D01*
X15863400Y-8380800D02*
X15938400Y-8380800D01*
X16043700Y-5335380D02*
X16043700Y-5410380D01*
X16006200Y-5372880D02*
X16081200Y-5372880D01*
X16047941Y-9607667D02*
X16047941Y-9682667D01*
X16010441Y-9645167D02*
X16085441Y-9645167D01*
X16637500Y-6632100D02*
X16637500Y-6707100D01*
X16600000Y-6669600D02*
X16675000Y-6669600D01*
X16637500Y-6832100D02*
X16637500Y-6907100D01*
X16600000Y-6869600D02*
X16675000Y-6869600D01*
X16637500Y-7032100D02*
X16637500Y-7107100D01*
X16600000Y-7069600D02*
X16675000Y-7069600D01*
X16637500Y-7232100D02*
X16637500Y-7307100D01*
X16600000Y-7269600D02*
X16675000Y-7269600D01*
X16637500Y-7749700D02*
X16637500Y-7824700D01*
X16600000Y-7787200D02*
X16675000Y-7787200D01*
X16637500Y-7949700D02*
X16637500Y-8024700D01*
X16600000Y-7987200D02*
X16675000Y-7987200D01*
X16637500Y-8149700D02*
X16637500Y-8224700D01*
X16600000Y-8187200D02*
X16675000Y-8187200D01*
X16637500Y-8349700D02*
X16637500Y-8424700D01*
X16600000Y-8387200D02*
X16675000Y-8387200D01*
X7935821Y-8934321D02*
X7935821Y-8862479D01*
X7863979Y-8862479D01*
X7863979Y-8934321D01*
X7935821Y-8934321D01*
X7935821Y-9188321D02*
X7935821Y-9116479D01*
X7863979Y-9116479D01*
X7863979Y-9188321D01*
X7935821Y-9188321D01*
X7935821Y-9442321D02*
X7935821Y-9370479D01*
X7863979Y-9370479D01*
X7863979Y-9442321D01*
X7935821Y-9442321D01*
X8189821Y-8934321D02*
X8189821Y-8862479D01*
X8117979Y-8862479D01*
X8117979Y-8934321D01*
X8189821Y-8934321D01*
X8189821Y-9188321D02*
X8189821Y-9116479D01*
X8117979Y-9116479D01*
X8117979Y-9188321D01*
X8189821Y-9188321D01*
X8189821Y-9442321D02*
X8189821Y-9370479D01*
X8117979Y-9370479D01*
X8117979Y-9442321D01*
X8189821Y-9442321D01*
X7468100Y-5890600D02*
X7528100Y-5830600D01*
X7468100Y-5770600D01*
X7408100Y-5830600D01*
X7468100Y-5890600D01*
X7468100Y-6240600D02*
X7528100Y-6180600D01*
X7468100Y-6120600D01*
X7408100Y-6180600D01*
X7468100Y-6240600D01*
X7130300Y-9500400D02*
X7450300Y-9820400D01*
X7450300Y-9500400D02*
X7130300Y-9820400D01*
X7450300Y-9660400D02*
G75*
G03X7450300Y-9660400I-160000J0D01*
G01*
X7181100Y-5182400D02*
X7501100Y-5502400D01*
X7501100Y-5182400D02*
X7181100Y-5502400D01*
X7501100Y-5342400D02*
G75*
G03X7501100Y-5342400I-160000J0D01*
G01*
X16477500Y-9500400D02*
X16797500Y-9820400D01*
X16797500Y-9500400D02*
X16477500Y-9820400D01*
X16797500Y-9660400D02*
G75*
G03X16797500Y-9660400I-160000J0D01*
G01*
X16457500Y-5162400D02*
X16817500Y-5522400D01*
X16817500Y-5162400D02*
X16457500Y-5522400D01*
X16637500Y-5162400D02*
X16637500Y-5522400D01*
X16457500Y-5342400D02*
X16817500Y-5342400D01*
D13*
X7263928Y-10473214D02*
X7263928Y-10173214D01*
X7335357Y-10173214D01*
X7378214Y-10187500D01*
X7406786Y-10216072D01*
X7421071Y-10244643D01*
X7435357Y-10301786D01*
X7435357Y-10344643D01*
X7421071Y-10401786D01*
X7406786Y-10430357D01*
X7378214Y-10458929D01*
X7335357Y-10473214D01*
X7263928Y-10473214D01*
X7563928Y-10473214D02*
X7563928Y-10273214D01*
X7563928Y-10330357D02*
X7578214Y-10301786D01*
X7592500Y-10287500D01*
X7621071Y-10273214D01*
X7649643Y-10273214D01*
X7749643Y-10473214D02*
X7749643Y-10273214D01*
X7749643Y-10173214D02*
X7735357Y-10187500D01*
X7749643Y-10201786D01*
X7763928Y-10187500D01*
X7749643Y-10173214D01*
X7749643Y-10201786D01*
X7935357Y-10473214D02*
X7906786Y-10458929D01*
X7892500Y-10430357D01*
X7892500Y-10173214D01*
X8092500Y-10473214D02*
X8063928Y-10458929D01*
X8049643Y-10430357D01*
X8049643Y-10173214D01*
X8435357Y-10473214D02*
X8435357Y-10173214D01*
X8535357Y-10387500D01*
X8635357Y-10173214D01*
X8635357Y-10473214D01*
X8906786Y-10473214D02*
X8906786Y-10316072D01*
X8892500Y-10287500D01*
X8863929Y-10273214D01*
X8806786Y-10273214D01*
X8778214Y-10287500D01*
X8906786Y-10458929D02*
X8878214Y-10473214D01*
X8806786Y-10473214D01*
X8778214Y-10458929D01*
X8763929Y-10430357D01*
X8763929Y-10401786D01*
X8778214Y-10373214D01*
X8806786Y-10358929D01*
X8878214Y-10358929D01*
X8906786Y-10344643D01*
X9049643Y-10273214D02*
X9049643Y-10573214D01*
X9049643Y-10287500D02*
X9078214Y-10273214D01*
X9135357Y-10273214D01*
X9163929Y-10287500D01*
X9178214Y-10301786D01*
X9192500Y-10330357D01*
X9192500Y-10416072D01*
X9178214Y-10444643D01*
X9163929Y-10458929D01*
X9135357Y-10473214D01*
X9078214Y-10473214D01*
X9049643Y-10458929D01*
X9321071Y-10444643D02*
X9335357Y-10458929D01*
X9321071Y-10473214D01*
X9306786Y-10458929D01*
X9321071Y-10444643D01*
X9321071Y-10473214D01*
X9321071Y-10287500D02*
X9335357Y-10301786D01*
X9321071Y-10316072D01*
X9306786Y-10301786D01*
X9321071Y-10287500D01*
X9321071Y-10316072D01*
X6952500Y-10947500D02*
X6992500Y-10987500D01*
X6992500Y-10947500D02*
X6952500Y-10987500D01*
X7321071Y-10803214D02*
X7349643Y-10803214D01*
X7378214Y-10817500D01*
X7392500Y-10831786D01*
X7406786Y-10860357D01*
X7421071Y-10917500D01*
X7421071Y-10988929D01*
X7406786Y-11046072D01*
X7392500Y-11074643D01*
X7378214Y-11088929D01*
X7349643Y-11103214D01*
X7321071Y-11103214D01*
X7292500Y-11088929D01*
X7278214Y-11074643D01*
X7263928Y-11046072D01*
X7249643Y-10988929D01*
X7249643Y-10917500D01*
X7263928Y-10860357D01*
X7278214Y-10831786D01*
X7292500Y-10817500D01*
X7321071Y-10803214D01*
X7549643Y-11074643D02*
X7563928Y-11088929D01*
X7549643Y-11103214D01*
X7535357Y-11088929D01*
X7549643Y-11074643D01*
X7549643Y-11103214D01*
X7821071Y-10903214D02*
X7821071Y-11103214D01*
X7749643Y-10788929D02*
X7678214Y-11003214D01*
X7863928Y-11003214D01*
X8035357Y-10803214D02*
X8063928Y-10803214D01*
X8092500Y-10817500D01*
X8106786Y-10831786D01*
X8121071Y-10860357D01*
X8135357Y-10917500D01*
X8135357Y-10988929D01*
X8121071Y-11046072D01*
X8106786Y-11074643D01*
X8092500Y-11088929D01*
X8063928Y-11103214D01*
X8035357Y-11103214D01*
X8006786Y-11088929D01*
X7992500Y-11074643D01*
X7978214Y-11046072D01*
X7963928Y-10988929D01*
X7963928Y-10917500D01*
X7978214Y-10860357D01*
X7992500Y-10831786D01*
X8006786Y-10817500D01*
X8035357Y-10803214D01*
X8263928Y-11103214D02*
X8263928Y-10903214D01*
X8263928Y-10931786D02*
X8278214Y-10917500D01*
X8306786Y-10903214D01*
X8349643Y-10903214D01*
X8378214Y-10917500D01*
X8392500Y-10946072D01*
X8392500Y-11103214D01*
X8392500Y-10946072D02*
X8406786Y-10917500D01*
X8435357Y-10903214D01*
X8478214Y-10903214D01*
X8506786Y-10917500D01*
X8521071Y-10946072D01*
X8521071Y-11103214D01*
X8663929Y-11103214D02*
X8663929Y-10903214D01*
X8663929Y-10931786D02*
X8678214Y-10917500D01*
X8706786Y-10903214D01*
X8749643Y-10903214D01*
X8778214Y-10917500D01*
X8792500Y-10946072D01*
X8792500Y-11103214D01*
X8792500Y-10946072D02*
X8806786Y-10917500D01*
X8835357Y-10903214D01*
X8878214Y-10903214D01*
X8906786Y-10917500D01*
X8921071Y-10946072D01*
X8921071Y-11103214D01*
X9506786Y-10788929D02*
X9249643Y-11174643D01*
X9892500Y-10803214D02*
X9921071Y-10803214D01*
X9949643Y-10817500D01*
X9963928Y-10831786D01*
X9978214Y-10860357D01*
X9992500Y-10917500D01*
X9992500Y-10988929D01*
X9978214Y-11046072D01*
X9963928Y-11074643D01*
X9949643Y-11088929D01*
X9921071Y-11103214D01*
X9892500Y-11103214D01*
X9863928Y-11088929D01*
X9849643Y-11074643D01*
X9835357Y-11046072D01*
X9821071Y-10988929D01*
X9821071Y-10917500D01*
X9835357Y-10860357D01*
X9849643Y-10831786D01*
X9863928Y-10817500D01*
X9892500Y-10803214D01*
X10121071Y-11074643D02*
X10135357Y-11088929D01*
X10121071Y-11103214D01*
X10106786Y-11088929D01*
X10121071Y-11074643D01*
X10121071Y-11103214D01*
X10321071Y-10803214D02*
X10349643Y-10803214D01*
X10378214Y-10817500D01*
X10392500Y-10831786D01*
X10406786Y-10860357D01*
X10421071Y-10917500D01*
X10421071Y-10988929D01*
X10406786Y-11046072D01*
X10392500Y-11074643D01*
X10378214Y-11088929D01*
X10349643Y-11103214D01*
X10321071Y-11103214D01*
X10292500Y-11088929D01*
X10278214Y-11074643D01*
X10263928Y-11046072D01*
X10249643Y-10988929D01*
X10249643Y-10917500D01*
X10263928Y-10860357D01*
X10278214Y-10831786D01*
X10292500Y-10817500D01*
X10321071Y-10803214D01*
X10706786Y-11103214D02*
X10535357Y-11103214D01*
X10621071Y-11103214D02*
X10621071Y-10803214D01*
X10592500Y-10846072D01*
X10563928Y-10874643D01*
X10535357Y-10888929D01*
X10963928Y-10803214D02*
X10906786Y-10803214D01*
X10878214Y-10817500D01*
X10863928Y-10831786D01*
X10835357Y-10874643D01*
X10821071Y-10931786D01*
X10821071Y-11046072D01*
X10835357Y-11074643D01*
X10849643Y-11088929D01*
X10878214Y-11103214D01*
X10935357Y-11103214D01*
X10963928Y-11088929D01*
X10978214Y-11074643D01*
X10992500Y-11046072D01*
X10992500Y-10974643D01*
X10978214Y-10946072D01*
X10963928Y-10931786D01*
X10935357Y-10917500D01*
X10878214Y-10917500D01*
X10849643Y-10931786D01*
X10835357Y-10946072D01*
X10821071Y-10974643D01*
X11106786Y-10803214D02*
X11106786Y-10860357D01*
X11221071Y-10803214D02*
X11221071Y-10860357D01*
X11663928Y-11217500D02*
X11649643Y-11203214D01*
X11621071Y-11160357D01*
X11606785Y-11131786D01*
X11592500Y-11088929D01*
X11578214Y-11017500D01*
X11578214Y-10960357D01*
X11592500Y-10888929D01*
X11606785Y-10846072D01*
X11621071Y-10817500D01*
X11649643Y-10774643D01*
X11663928Y-10760357D01*
X11906785Y-10803214D02*
X11849643Y-10803214D01*
X11821071Y-10817500D01*
X11806785Y-10831786D01*
X11778214Y-10874643D01*
X11763928Y-10931786D01*
X11763928Y-11046072D01*
X11778214Y-11074643D01*
X11792500Y-11088929D01*
X11821071Y-11103214D01*
X11878214Y-11103214D01*
X11906785Y-11088929D01*
X11921071Y-11074643D01*
X11935357Y-11046072D01*
X11935357Y-10974643D01*
X11921071Y-10946072D01*
X11906785Y-10931786D01*
X11878214Y-10917500D01*
X11821071Y-10917500D01*
X11792500Y-10931786D01*
X11778214Y-10946072D01*
X11763928Y-10974643D01*
X12221071Y-11103214D02*
X12049643Y-11103214D01*
X12135357Y-11103214D02*
X12135357Y-10803214D01*
X12106785Y-10846072D01*
X12078214Y-10874643D01*
X12049643Y-10888929D01*
X12578214Y-11103214D02*
X12578214Y-10803214D01*
X12706785Y-11103214D02*
X12706785Y-10946072D01*
X12692500Y-10917500D01*
X12663928Y-10903214D01*
X12621071Y-10903214D01*
X12592500Y-10917500D01*
X12578214Y-10931786D01*
X12892500Y-11103214D02*
X12863928Y-11088929D01*
X12849643Y-11074643D01*
X12835357Y-11046072D01*
X12835357Y-10960357D01*
X12849643Y-10931786D01*
X12863928Y-10917500D01*
X12892500Y-10903214D01*
X12935357Y-10903214D01*
X12963928Y-10917500D01*
X12978214Y-10931786D01*
X12992500Y-10960357D01*
X12992500Y-11046072D01*
X12978214Y-11074643D01*
X12963928Y-11088929D01*
X12935357Y-11103214D01*
X12892500Y-11103214D01*
X13163928Y-11103214D02*
X13135357Y-11088929D01*
X13121071Y-11060357D01*
X13121071Y-10803214D01*
X13392500Y-11088929D02*
X13363928Y-11103214D01*
X13306786Y-11103214D01*
X13278214Y-11088929D01*
X13263928Y-11060357D01*
X13263928Y-10946072D01*
X13278214Y-10917500D01*
X13306786Y-10903214D01*
X13363928Y-10903214D01*
X13392500Y-10917500D01*
X13406786Y-10946072D01*
X13406786Y-10974643D01*
X13263928Y-11003214D01*
X13521071Y-11088929D02*
X13549643Y-11103214D01*
X13606786Y-11103214D01*
X13635357Y-11088929D01*
X13649643Y-11060357D01*
X13649643Y-11046072D01*
X13635357Y-11017500D01*
X13606786Y-11003214D01*
X13563928Y-11003214D01*
X13535357Y-10988929D01*
X13521071Y-10960357D01*
X13521071Y-10946072D01*
X13535357Y-10917500D01*
X13563928Y-10903214D01*
X13606786Y-10903214D01*
X13635357Y-10917500D01*
X13749643Y-11217500D02*
X13763928Y-11203214D01*
X13792500Y-11160357D01*
X13806786Y-11131786D01*
X13821071Y-11088929D01*
X13835357Y-11017500D01*
X13835357Y-10960357D01*
X13821071Y-10888929D01*
X13806786Y-10846072D01*
X13792500Y-10817500D01*
X13763928Y-10774643D01*
X13749643Y-10760357D01*
X6992500Y-11363500D02*
G75*
G03X6992500Y-11363500I-30000J0D01*
G01*
X7321071Y-11199214D02*
X7349643Y-11199214D01*
X7378214Y-11213500D01*
X7392500Y-11227786D01*
X7406786Y-11256357D01*
X7421071Y-11313500D01*
X7421071Y-11384929D01*
X7406786Y-11442071D01*
X7392500Y-11470643D01*
X7378214Y-11484929D01*
X7349643Y-11499214D01*
X7321071Y-11499214D01*
X7292500Y-11484929D01*
X7278214Y-11470643D01*
X7263928Y-11442071D01*
X7249643Y-11384929D01*
X7249643Y-11313500D01*
X7263928Y-11256357D01*
X7278214Y-11227786D01*
X7292500Y-11213500D01*
X7321071Y-11199214D01*
X7549643Y-11470643D02*
X7563928Y-11484929D01*
X7549643Y-11499214D01*
X7535357Y-11484929D01*
X7549643Y-11470643D01*
X7549643Y-11499214D01*
X7821071Y-11199214D02*
X7763928Y-11199214D01*
X7735357Y-11213500D01*
X7721071Y-11227786D01*
X7692500Y-11270643D01*
X7678214Y-11327786D01*
X7678214Y-11442071D01*
X7692500Y-11470643D01*
X7706786Y-11484929D01*
X7735357Y-11499214D01*
X7792500Y-11499214D01*
X7821071Y-11484929D01*
X7835357Y-11470643D01*
X7849643Y-11442071D01*
X7849643Y-11370643D01*
X7835357Y-11342071D01*
X7821071Y-11327786D01*
X7792500Y-11313500D01*
X7735357Y-11313500D01*
X7706786Y-11327786D01*
X7692500Y-11342071D01*
X7678214Y-11370643D01*
X8035357Y-11199214D02*
X8063928Y-11199214D01*
X8092500Y-11213500D01*
X8106786Y-11227786D01*
X8121071Y-11256357D01*
X8135357Y-11313500D01*
X8135357Y-11384929D01*
X8121071Y-11442071D01*
X8106786Y-11470643D01*
X8092500Y-11484929D01*
X8063928Y-11499214D01*
X8035357Y-11499214D01*
X8006786Y-11484929D01*
X7992500Y-11470643D01*
X7978214Y-11442071D01*
X7963928Y-11384929D01*
X7963928Y-11313500D01*
X7978214Y-11256357D01*
X7992500Y-11227786D01*
X8006786Y-11213500D01*
X8035357Y-11199214D01*
X8263928Y-11499214D02*
X8263928Y-11299214D01*
X8263928Y-11327786D02*
X8278214Y-11313500D01*
X8306786Y-11299214D01*
X8349643Y-11299214D01*
X8378214Y-11313500D01*
X8392500Y-11342071D01*
X8392500Y-11499214D01*
X8392500Y-11342071D02*
X8406786Y-11313500D01*
X8435357Y-11299214D01*
X8478214Y-11299214D01*
X8506786Y-11313500D01*
X8521071Y-11342071D01*
X8521071Y-11499214D01*
X8663929Y-11499214D02*
X8663929Y-11299214D01*
X8663929Y-11327786D02*
X8678214Y-11313500D01*
X8706786Y-11299214D01*
X8749643Y-11299214D01*
X8778214Y-11313500D01*
X8792500Y-11342071D01*
X8792500Y-11499214D01*
X8792500Y-11342071D02*
X8806786Y-11313500D01*
X8835357Y-11299214D01*
X8878214Y-11299214D01*
X8906786Y-11313500D01*
X8921071Y-11342071D01*
X8921071Y-11499214D01*
X9506786Y-11184929D02*
X9249643Y-11570643D01*
X9892500Y-11199214D02*
X9921071Y-11199214D01*
X9949643Y-11213500D01*
X9963928Y-11227786D01*
X9978214Y-11256357D01*
X9992500Y-11313500D01*
X9992500Y-11384929D01*
X9978214Y-11442071D01*
X9963928Y-11470643D01*
X9949643Y-11484929D01*
X9921071Y-11499214D01*
X9892500Y-11499214D01*
X9863928Y-11484929D01*
X9849643Y-11470643D01*
X9835357Y-11442071D01*
X9821071Y-11384929D01*
X9821071Y-11313500D01*
X9835357Y-11256357D01*
X9849643Y-11227786D01*
X9863928Y-11213500D01*
X9892500Y-11199214D01*
X10121071Y-11470643D02*
X10135357Y-11484929D01*
X10121071Y-11499214D01*
X10106786Y-11484929D01*
X10121071Y-11470643D01*
X10121071Y-11499214D01*
X10321071Y-11199214D02*
X10349643Y-11199214D01*
X10378214Y-11213500D01*
X10392500Y-11227786D01*
X10406786Y-11256357D01*
X10421071Y-11313500D01*
X10421071Y-11384929D01*
X10406786Y-11442071D01*
X10392500Y-11470643D01*
X10378214Y-11484929D01*
X10349643Y-11499214D01*
X10321071Y-11499214D01*
X10292500Y-11484929D01*
X10278214Y-11470643D01*
X10263928Y-11442071D01*
X10249643Y-11384929D01*
X10249643Y-11313500D01*
X10263928Y-11256357D01*
X10278214Y-11227786D01*
X10292500Y-11213500D01*
X10321071Y-11199214D01*
X10535357Y-11227786D02*
X10549643Y-11213500D01*
X10578214Y-11199214D01*
X10649643Y-11199214D01*
X10678214Y-11213500D01*
X10692500Y-11227786D01*
X10706786Y-11256357D01*
X10706786Y-11284929D01*
X10692500Y-11327786D01*
X10521071Y-11499214D01*
X10706786Y-11499214D01*
X10963928Y-11299214D02*
X10963928Y-11499214D01*
X10892500Y-11184929D02*
X10821071Y-11399214D01*
X11006786Y-11399214D01*
X11106786Y-11199214D02*
X11106786Y-11256357D01*
X11221071Y-11199214D02*
X11221071Y-11256357D01*
X11663928Y-11613500D02*
X11649643Y-11599214D01*
X11621071Y-11556357D01*
X11606785Y-11527786D01*
X11592500Y-11484929D01*
X11578214Y-11413500D01*
X11578214Y-11356357D01*
X11592500Y-11284929D01*
X11606785Y-11242071D01*
X11621071Y-11213500D01*
X11649643Y-11170643D01*
X11663928Y-11156357D01*
X11763928Y-11227786D02*
X11778214Y-11213500D01*
X11806785Y-11199214D01*
X11878214Y-11199214D01*
X11906785Y-11213500D01*
X11921071Y-11227786D01*
X11935357Y-11256357D01*
X11935357Y-11284929D01*
X11921071Y-11327786D01*
X11749643Y-11499214D01*
X11935357Y-11499214D01*
X12078214Y-11499214D02*
X12135357Y-11499214D01*
X12163928Y-11484929D01*
X12178214Y-11470643D01*
X12206785Y-11427786D01*
X12221071Y-11370643D01*
X12221071Y-11256357D01*
X12206785Y-11227786D01*
X12192500Y-11213500D01*
X12163928Y-11199214D01*
X12106785Y-11199214D01*
X12078214Y-11213500D01*
X12063928Y-11227786D01*
X12049643Y-11256357D01*
X12049643Y-11327786D01*
X12063928Y-11356357D01*
X12078214Y-11370643D01*
X12106785Y-11384929D01*
X12163928Y-11384929D01*
X12192500Y-11370643D01*
X12206785Y-11356357D01*
X12221071Y-11327786D01*
X12578214Y-11499214D02*
X12578214Y-11199214D01*
X12706785Y-11499214D02*
X12706785Y-11342071D01*
X12692500Y-11313500D01*
X12663928Y-11299214D01*
X12621071Y-11299214D01*
X12592500Y-11313500D01*
X12578214Y-11327786D01*
X12892500Y-11499214D02*
X12863928Y-11484929D01*
X12849643Y-11470643D01*
X12835357Y-11442071D01*
X12835357Y-11356357D01*
X12849643Y-11327786D01*
X12863928Y-11313500D01*
X12892500Y-11299214D01*
X12935357Y-11299214D01*
X12963928Y-11313500D01*
X12978214Y-11327786D01*
X12992500Y-11356357D01*
X12992500Y-11442071D01*
X12978214Y-11470643D01*
X12963928Y-11484929D01*
X12935357Y-11499214D01*
X12892500Y-11499214D01*
X13163928Y-11499214D02*
X13135357Y-11484929D01*
X13121071Y-11456357D01*
X13121071Y-11199214D01*
X13392500Y-11484929D02*
X13363928Y-11499214D01*
X13306786Y-11499214D01*
X13278214Y-11484929D01*
X13263928Y-11456357D01*
X13263928Y-11342071D01*
X13278214Y-11313500D01*
X13306786Y-11299214D01*
X13363928Y-11299214D01*
X13392500Y-11313500D01*
X13406786Y-11342071D01*
X13406786Y-11370643D01*
X13263928Y-11399214D01*
X13521071Y-11484929D02*
X13549643Y-11499214D01*
X13606786Y-11499214D01*
X13635357Y-11484929D01*
X13649643Y-11456357D01*
X13649643Y-11442071D01*
X13635357Y-11413500D01*
X13606786Y-11399214D01*
X13563928Y-11399214D01*
X13535357Y-11384929D01*
X13521071Y-11356357D01*
X13521071Y-11342071D01*
X13535357Y-11313500D01*
X13563928Y-11299214D01*
X13606786Y-11299214D01*
X13635357Y-11313500D01*
X13749643Y-11613500D02*
X13763928Y-11599214D01*
X13792500Y-11556357D01*
X13806786Y-11527786D01*
X13821071Y-11484929D01*
X13835357Y-11413500D01*
X13835357Y-11356357D01*
X13821071Y-11284929D01*
X13806786Y-11242071D01*
X13792500Y-11213500D01*
X13763928Y-11170643D01*
X13749643Y-11156357D01*
X6955000Y-11722000D02*
X6955000Y-11797000D01*
X6917500Y-11759500D02*
X6992500Y-11759500D01*
X7321071Y-11595214D02*
X7349643Y-11595214D01*
X7378214Y-11609500D01*
X7392500Y-11623786D01*
X7406786Y-11652357D01*
X7421071Y-11709500D01*
X7421071Y-11780929D01*
X7406786Y-11838071D01*
X7392500Y-11866643D01*
X7378214Y-11880929D01*
X7349643Y-11895214D01*
X7321071Y-11895214D01*
X7292500Y-11880929D01*
X7278214Y-11866643D01*
X7263928Y-11838071D01*
X7249643Y-11780929D01*
X7249643Y-11709500D01*
X7263928Y-11652357D01*
X7278214Y-11623786D01*
X7292500Y-11609500D01*
X7321071Y-11595214D01*
X7549643Y-11866643D02*
X7563928Y-11880929D01*
X7549643Y-11895214D01*
X7535357Y-11880929D01*
X7549643Y-11866643D01*
X7549643Y-11895214D01*
X7663928Y-11595214D02*
X7863928Y-11595214D01*
X7735357Y-11895214D01*
X8121071Y-11595214D02*
X7978214Y-11595214D01*
X7963928Y-11738071D01*
X7978214Y-11723786D01*
X8006786Y-11709500D01*
X8078214Y-11709500D01*
X8106786Y-11723786D01*
X8121071Y-11738071D01*
X8135357Y-11766643D01*
X8135357Y-11838071D01*
X8121071Y-11866643D01*
X8106786Y-11880929D01*
X8078214Y-11895214D01*
X8006786Y-11895214D01*
X7978214Y-11880929D01*
X7963928Y-11866643D01*
X8263928Y-11895214D02*
X8263928Y-11695214D01*
X8263928Y-11723786D02*
X8278214Y-11709500D01*
X8306786Y-11695214D01*
X8349643Y-11695214D01*
X8378214Y-11709500D01*
X8392500Y-11738071D01*
X8392500Y-11895214D01*
X8392500Y-11738071D02*
X8406786Y-11709500D01*
X8435357Y-11695214D01*
X8478214Y-11695214D01*
X8506786Y-11709500D01*
X8521071Y-11738071D01*
X8521071Y-11895214D01*
X8663929Y-11895214D02*
X8663929Y-11695214D01*
X8663929Y-11723786D02*
X8678214Y-11709500D01*
X8706786Y-11695214D01*
X8749643Y-11695214D01*
X8778214Y-11709500D01*
X8792500Y-11738071D01*
X8792500Y-11895214D01*
X8792500Y-11738071D02*
X8806786Y-11709500D01*
X8835357Y-11695214D01*
X8878214Y-11695214D01*
X8906786Y-11709500D01*
X8921071Y-11738071D01*
X8921071Y-11895214D01*
X9506786Y-11580929D02*
X9249643Y-11966643D01*
X9892500Y-11595214D02*
X9921071Y-11595214D01*
X9949643Y-11609500D01*
X9963928Y-11623786D01*
X9978214Y-11652357D01*
X9992500Y-11709500D01*
X9992500Y-11780929D01*
X9978214Y-11838071D01*
X9963928Y-11866643D01*
X9949643Y-11880929D01*
X9921071Y-11895214D01*
X9892500Y-11895214D01*
X9863928Y-11880929D01*
X9849643Y-11866643D01*
X9835357Y-11838071D01*
X9821071Y-11780929D01*
X9821071Y-11709500D01*
X9835357Y-11652357D01*
X9849643Y-11623786D01*
X9863928Y-11609500D01*
X9892500Y-11595214D01*
X10121071Y-11866643D02*
X10135357Y-11880929D01*
X10121071Y-11895214D01*
X10106786Y-11880929D01*
X10121071Y-11866643D01*
X10121071Y-11895214D01*
X10321071Y-11595214D02*
X10349643Y-11595214D01*
X10378214Y-11609500D01*
X10392500Y-11623786D01*
X10406786Y-11652357D01*
X10421071Y-11709500D01*
X10421071Y-11780929D01*
X10406786Y-11838071D01*
X10392500Y-11866643D01*
X10378214Y-11880929D01*
X10349643Y-11895214D01*
X10321071Y-11895214D01*
X10292500Y-11880929D01*
X10278214Y-11866643D01*
X10263928Y-11838071D01*
X10249643Y-11780929D01*
X10249643Y-11709500D01*
X10263928Y-11652357D01*
X10278214Y-11623786D01*
X10292500Y-11609500D01*
X10321071Y-11595214D01*
X10521071Y-11595214D02*
X10706786Y-11595214D01*
X10606786Y-11709500D01*
X10649643Y-11709500D01*
X10678214Y-11723786D01*
X10692500Y-11738071D01*
X10706786Y-11766643D01*
X10706786Y-11838071D01*
X10692500Y-11866643D01*
X10678214Y-11880929D01*
X10649643Y-11895214D01*
X10563928Y-11895214D01*
X10535357Y-11880929D01*
X10521071Y-11866643D01*
X10892500Y-11595214D02*
X10921071Y-11595214D01*
X10949643Y-11609500D01*
X10963928Y-11623786D01*
X10978214Y-11652357D01*
X10992500Y-11709500D01*
X10992500Y-11780929D01*
X10978214Y-11838071D01*
X10963928Y-11866643D01*
X10949643Y-11880929D01*
X10921071Y-11895214D01*
X10892500Y-11895214D01*
X10863928Y-11880929D01*
X10849643Y-11866643D01*
X10835357Y-11838071D01*
X10821071Y-11780929D01*
X10821071Y-11709500D01*
X10835357Y-11652357D01*
X10849643Y-11623786D01*
X10863928Y-11609500D01*
X10892500Y-11595214D01*
X11106786Y-11595214D02*
X11106786Y-11652357D01*
X11221071Y-11595214D02*
X11221071Y-11652357D01*
X11663928Y-12009500D02*
X11649643Y-11995214D01*
X11621071Y-11952357D01*
X11606785Y-11923786D01*
X11592500Y-11880929D01*
X11578214Y-11809500D01*
X11578214Y-11752357D01*
X11592500Y-11680929D01*
X11606785Y-11638071D01*
X11621071Y-11609500D01*
X11649643Y-11566643D01*
X11663928Y-11552357D01*
X11906785Y-11595214D02*
X11849643Y-11595214D01*
X11821071Y-11609500D01*
X11806785Y-11623786D01*
X11778214Y-11666643D01*
X11763928Y-11723786D01*
X11763928Y-11838071D01*
X11778214Y-11866643D01*
X11792500Y-11880929D01*
X11821071Y-11895214D01*
X11878214Y-11895214D01*
X11906785Y-11880929D01*
X11921071Y-11866643D01*
X11935357Y-11838071D01*
X11935357Y-11766643D01*
X11921071Y-11738071D01*
X11906785Y-11723786D01*
X11878214Y-11709500D01*
X11821071Y-11709500D01*
X11792500Y-11723786D01*
X11778214Y-11738071D01*
X11763928Y-11766643D01*
X12106785Y-11723786D02*
X12078214Y-11709500D01*
X12063928Y-11695214D01*
X12049643Y-11666643D01*
X12049643Y-11652357D01*
X12063928Y-11623786D01*
X12078214Y-11609500D01*
X12106785Y-11595214D01*
X12163928Y-11595214D01*
X12192500Y-11609500D01*
X12206785Y-11623786D01*
X12221071Y-11652357D01*
X12221071Y-11666643D01*
X12206785Y-11695214D01*
X12192500Y-11709500D01*
X12163928Y-11723786D01*
X12106785Y-11723786D01*
X12078214Y-11738071D01*
X12063928Y-11752357D01*
X12049643Y-11780929D01*
X12049643Y-11838071D01*
X12063928Y-11866643D01*
X12078214Y-11880929D01*
X12106785Y-11895214D01*
X12163928Y-11895214D01*
X12192500Y-11880929D01*
X12206785Y-11866643D01*
X12221071Y-11838071D01*
X12221071Y-11780929D01*
X12206785Y-11752357D01*
X12192500Y-11738071D01*
X12163928Y-11723786D01*
X12578214Y-11895214D02*
X12578214Y-11595214D01*
X12706785Y-11895214D02*
X12706785Y-11738071D01*
X12692500Y-11709500D01*
X12663928Y-11695214D01*
X12621071Y-11695214D01*
X12592500Y-11709500D01*
X12578214Y-11723786D01*
X12892500Y-11895214D02*
X12863928Y-11880929D01*
X12849643Y-11866643D01*
X12835357Y-11838071D01*
X12835357Y-11752357D01*
X12849643Y-11723786D01*
X12863928Y-11709500D01*
X12892500Y-11695214D01*
X12935357Y-11695214D01*
X12963928Y-11709500D01*
X12978214Y-11723786D01*
X12992500Y-11752357D01*
X12992500Y-11838071D01*
X12978214Y-11866643D01*
X12963928Y-11880929D01*
X12935357Y-11895214D01*
X12892500Y-11895214D01*
X13163928Y-11895214D02*
X13135357Y-11880929D01*
X13121071Y-11852357D01*
X13121071Y-11595214D01*
X13392500Y-11880929D02*
X13363928Y-11895214D01*
X13306786Y-11895214D01*
X13278214Y-11880929D01*
X13263928Y-11852357D01*
X13263928Y-11738071D01*
X13278214Y-11709500D01*
X13306786Y-11695214D01*
X13363928Y-11695214D01*
X13392500Y-11709500D01*
X13406786Y-11738071D01*
X13406786Y-11766643D01*
X13263928Y-11795214D01*
X13521071Y-11880929D02*
X13549643Y-11895214D01*
X13606786Y-11895214D01*
X13635357Y-11880929D01*
X13649643Y-11852357D01*
X13649643Y-11838071D01*
X13635357Y-11809500D01*
X13606786Y-11795214D01*
X13563928Y-11795214D01*
X13535357Y-11780929D01*
X13521071Y-11752357D01*
X13521071Y-11738071D01*
X13535357Y-11709500D01*
X13563928Y-11695214D01*
X13606786Y-11695214D01*
X13635357Y-11709500D01*
X13749643Y-12009500D02*
X13763928Y-11995214D01*
X13792500Y-11952357D01*
X13806786Y-11923786D01*
X13821071Y-11880929D01*
X13835357Y-11809500D01*
X13835357Y-11752357D01*
X13821071Y-11680929D01*
X13806786Y-11638071D01*
X13792500Y-11609500D01*
X13763928Y-11566643D01*
X13749643Y-11552357D01*
X6977621Y-12191421D02*
X6977621Y-12119579D01*
X6905778Y-12119579D01*
X6905778Y-12191421D01*
X6977621Y-12191421D01*
X7421071Y-12291214D02*
X7249643Y-12291214D01*
X7335357Y-12291214D02*
X7335357Y-11991214D01*
X7306786Y-12034071D01*
X7278214Y-12062643D01*
X7249643Y-12076929D01*
X7549643Y-12262643D02*
X7563928Y-12276929D01*
X7549643Y-12291214D01*
X7535357Y-12276929D01*
X7549643Y-12262643D01*
X7549643Y-12291214D01*
X7749643Y-11991214D02*
X7778214Y-11991214D01*
X7806786Y-12005500D01*
X7821071Y-12019786D01*
X7835357Y-12048357D01*
X7849643Y-12105500D01*
X7849643Y-12176929D01*
X7835357Y-12234071D01*
X7821071Y-12262643D01*
X7806786Y-12276929D01*
X7778214Y-12291214D01*
X7749643Y-12291214D01*
X7721071Y-12276929D01*
X7706786Y-12262643D01*
X7692500Y-12234071D01*
X7678214Y-12176929D01*
X7678214Y-12105500D01*
X7692500Y-12048357D01*
X7706786Y-12019786D01*
X7721071Y-12005500D01*
X7749643Y-11991214D01*
X7963928Y-12019786D02*
X7978214Y-12005500D01*
X8006786Y-11991214D01*
X8078214Y-11991214D01*
X8106786Y-12005500D01*
X8121071Y-12019786D01*
X8135357Y-12048357D01*
X8135357Y-12076929D01*
X8121071Y-12119786D01*
X7949643Y-12291214D01*
X8135357Y-12291214D01*
X8263928Y-12291214D02*
X8263928Y-12091214D01*
X8263928Y-12119786D02*
X8278214Y-12105500D01*
X8306786Y-12091214D01*
X8349643Y-12091214D01*
X8378214Y-12105500D01*
X8392500Y-12134071D01*
X8392500Y-12291214D01*
X8392500Y-12134071D02*
X8406786Y-12105500D01*
X8435357Y-12091214D01*
X8478214Y-12091214D01*
X8506786Y-12105500D01*
X8521071Y-12134071D01*
X8521071Y-12291214D01*
X8663929Y-12291214D02*
X8663929Y-12091214D01*
X8663929Y-12119786D02*
X8678214Y-12105500D01*
X8706786Y-12091214D01*
X8749643Y-12091214D01*
X8778214Y-12105500D01*
X8792500Y-12134071D01*
X8792500Y-12291214D01*
X8792500Y-12134071D02*
X8806786Y-12105500D01*
X8835357Y-12091214D01*
X8878214Y-12091214D01*
X8906786Y-12105500D01*
X8921071Y-12134071D01*
X8921071Y-12291214D01*
X9506786Y-11976929D02*
X9249643Y-12362643D01*
X9892500Y-11991214D02*
X9921071Y-11991214D01*
X9949643Y-12005500D01*
X9963928Y-12019786D01*
X9978214Y-12048357D01*
X9992500Y-12105500D01*
X9992500Y-12176929D01*
X9978214Y-12234071D01*
X9963928Y-12262643D01*
X9949643Y-12276929D01*
X9921071Y-12291214D01*
X9892500Y-12291214D01*
X9863928Y-12276929D01*
X9849643Y-12262643D01*
X9835357Y-12234071D01*
X9821071Y-12176929D01*
X9821071Y-12105500D01*
X9835357Y-12048357D01*
X9849643Y-12019786D01*
X9863928Y-12005500D01*
X9892500Y-11991214D01*
X10121071Y-12262643D02*
X10135357Y-12276929D01*
X10121071Y-12291214D01*
X10106786Y-12276929D01*
X10121071Y-12262643D01*
X10121071Y-12291214D01*
X10321071Y-11991214D02*
X10349643Y-11991214D01*
X10378214Y-12005500D01*
X10392500Y-12019786D01*
X10406786Y-12048357D01*
X10421071Y-12105500D01*
X10421071Y-12176929D01*
X10406786Y-12234071D01*
X10392500Y-12262643D01*
X10378214Y-12276929D01*
X10349643Y-12291214D01*
X10321071Y-12291214D01*
X10292500Y-12276929D01*
X10278214Y-12262643D01*
X10263928Y-12234071D01*
X10249643Y-12176929D01*
X10249643Y-12105500D01*
X10263928Y-12048357D01*
X10278214Y-12019786D01*
X10292500Y-12005500D01*
X10321071Y-11991214D01*
X10678214Y-12091214D02*
X10678214Y-12291214D01*
X10606786Y-11976929D02*
X10535357Y-12191214D01*
X10721071Y-12191214D01*
X10892500Y-11991214D02*
X10921071Y-11991214D01*
X10949643Y-12005500D01*
X10963928Y-12019786D01*
X10978214Y-12048357D01*
X10992500Y-12105500D01*
X10992500Y-12176929D01*
X10978214Y-12234071D01*
X10963928Y-12262643D01*
X10949643Y-12276929D01*
X10921071Y-12291214D01*
X10892500Y-12291214D01*
X10863928Y-12276929D01*
X10849643Y-12262643D01*
X10835357Y-12234071D01*
X10821071Y-12176929D01*
X10821071Y-12105500D01*
X10835357Y-12048357D01*
X10849643Y-12019786D01*
X10863928Y-12005500D01*
X10892500Y-11991214D01*
X11106786Y-11991214D02*
X11106786Y-12048357D01*
X11221071Y-11991214D02*
X11221071Y-12048357D01*
X11663928Y-12405500D02*
X11649643Y-12391214D01*
X11621071Y-12348357D01*
X11606785Y-12319786D01*
X11592500Y-12276929D01*
X11578214Y-12205500D01*
X11578214Y-12148357D01*
X11592500Y-12076929D01*
X11606785Y-12034071D01*
X11621071Y-12005500D01*
X11649643Y-11962643D01*
X11663928Y-11948357D01*
X11906785Y-11991214D02*
X11849643Y-11991214D01*
X11821071Y-12005500D01*
X11806785Y-12019786D01*
X11778214Y-12062643D01*
X11763928Y-12119786D01*
X11763928Y-12234071D01*
X11778214Y-12262643D01*
X11792500Y-12276929D01*
X11821071Y-12291214D01*
X11878214Y-12291214D01*
X11906785Y-12276929D01*
X11921071Y-12262643D01*
X11935357Y-12234071D01*
X11935357Y-12162643D01*
X11921071Y-12134071D01*
X11906785Y-12119786D01*
X11878214Y-12105500D01*
X11821071Y-12105500D01*
X11792500Y-12119786D01*
X11778214Y-12134071D01*
X11763928Y-12162643D01*
X12292500Y-12291214D02*
X12292500Y-11991214D01*
X12421071Y-12291214D02*
X12421071Y-12134071D01*
X12406785Y-12105500D01*
X12378214Y-12091214D01*
X12335357Y-12091214D01*
X12306785Y-12105500D01*
X12292500Y-12119786D01*
X12606785Y-12291214D02*
X12578214Y-12276929D01*
X12563928Y-12262643D01*
X12549643Y-12234071D01*
X12549643Y-12148357D01*
X12563928Y-12119786D01*
X12578214Y-12105500D01*
X12606785Y-12091214D01*
X12649643Y-12091214D01*
X12678214Y-12105500D01*
X12692500Y-12119786D01*
X12706785Y-12148357D01*
X12706785Y-12234071D01*
X12692500Y-12262643D01*
X12678214Y-12276929D01*
X12649643Y-12291214D01*
X12606785Y-12291214D01*
X12878214Y-12291214D02*
X12849643Y-12276929D01*
X12835357Y-12248357D01*
X12835357Y-11991214D01*
X13106786Y-12276929D02*
X13078214Y-12291214D01*
X13021071Y-12291214D01*
X12992500Y-12276929D01*
X12978214Y-12248357D01*
X12978214Y-12134071D01*
X12992500Y-12105500D01*
X13021071Y-12091214D01*
X13078214Y-12091214D01*
X13106786Y-12105500D01*
X13121071Y-12134071D01*
X13121071Y-12162643D01*
X12978214Y-12191214D01*
X13235357Y-12276929D02*
X13263928Y-12291214D01*
X13321071Y-12291214D01*
X13349643Y-12276929D01*
X13363928Y-12248357D01*
X13363928Y-12234071D01*
X13349643Y-12205500D01*
X13321071Y-12191214D01*
X13278214Y-12191214D01*
X13249643Y-12176929D01*
X13235357Y-12148357D01*
X13235357Y-12134071D01*
X13249643Y-12105500D01*
X13278214Y-12091214D01*
X13321071Y-12091214D01*
X13349643Y-12105500D01*
X13463928Y-12405500D02*
X13478214Y-12391214D01*
X13506786Y-12348357D01*
X13521071Y-12319786D01*
X13535357Y-12276929D01*
X13549643Y-12205500D01*
X13549643Y-12148357D01*
X13535357Y-12076929D01*
X13521071Y-12034071D01*
X13506786Y-12005500D01*
X13478214Y-11962643D01*
X13463928Y-11948357D01*
X6932500Y-12611500D02*
X6992500Y-12551500D01*
X6932500Y-12491500D01*
X6872500Y-12551500D01*
X6932500Y-12611500D01*
X7421071Y-12687214D02*
X7249643Y-12687214D01*
X7335357Y-12687214D02*
X7335357Y-12387214D01*
X7306786Y-12430071D01*
X7278214Y-12458643D01*
X7249643Y-12472929D01*
X7549643Y-12658643D02*
X7563928Y-12672929D01*
X7549643Y-12687214D01*
X7535357Y-12672929D01*
X7549643Y-12658643D01*
X7549643Y-12687214D01*
X7678214Y-12415786D02*
X7692500Y-12401500D01*
X7721071Y-12387214D01*
X7792500Y-12387214D01*
X7821071Y-12401500D01*
X7835357Y-12415786D01*
X7849643Y-12444357D01*
X7849643Y-12472929D01*
X7835357Y-12515786D01*
X7663928Y-12687214D01*
X7849643Y-12687214D01*
X8035357Y-12387214D02*
X8063928Y-12387214D01*
X8092500Y-12401500D01*
X8106786Y-12415786D01*
X8121071Y-12444357D01*
X8135357Y-12501500D01*
X8135357Y-12572929D01*
X8121071Y-12630071D01*
X8106786Y-12658643D01*
X8092500Y-12672929D01*
X8063928Y-12687214D01*
X8035357Y-12687214D01*
X8006786Y-12672929D01*
X7992500Y-12658643D01*
X7978214Y-12630071D01*
X7963928Y-12572929D01*
X7963928Y-12501500D01*
X7978214Y-12444357D01*
X7992500Y-12415786D01*
X8006786Y-12401500D01*
X8035357Y-12387214D01*
X8263928Y-12687214D02*
X8263928Y-12487214D01*
X8263928Y-12515786D02*
X8278214Y-12501500D01*
X8306786Y-12487214D01*
X8349643Y-12487214D01*
X8378214Y-12501500D01*
X8392500Y-12530071D01*
X8392500Y-12687214D01*
X8392500Y-12530071D02*
X8406786Y-12501500D01*
X8435357Y-12487214D01*
X8478214Y-12487214D01*
X8506786Y-12501500D01*
X8521071Y-12530071D01*
X8521071Y-12687214D01*
X8663929Y-12687214D02*
X8663929Y-12487214D01*
X8663929Y-12515786D02*
X8678214Y-12501500D01*
X8706786Y-12487214D01*
X8749643Y-12487214D01*
X8778214Y-12501500D01*
X8792500Y-12530071D01*
X8792500Y-12687214D01*
X8792500Y-12530071D02*
X8806786Y-12501500D01*
X8835357Y-12487214D01*
X8878214Y-12487214D01*
X8906786Y-12501500D01*
X8921071Y-12530071D01*
X8921071Y-12687214D01*
X9506786Y-12372929D02*
X9249643Y-12758643D01*
X9892500Y-12387214D02*
X9921071Y-12387214D01*
X9949643Y-12401500D01*
X9963928Y-12415786D01*
X9978214Y-12444357D01*
X9992500Y-12501500D01*
X9992500Y-12572929D01*
X9978214Y-12630071D01*
X9963928Y-12658643D01*
X9949643Y-12672929D01*
X9921071Y-12687214D01*
X9892500Y-12687214D01*
X9863928Y-12672929D01*
X9849643Y-12658643D01*
X9835357Y-12630071D01*
X9821071Y-12572929D01*
X9821071Y-12501500D01*
X9835357Y-12444357D01*
X9849643Y-12415786D01*
X9863928Y-12401500D01*
X9892500Y-12387214D01*
X10121071Y-12658643D02*
X10135357Y-12672929D01*
X10121071Y-12687214D01*
X10106786Y-12672929D01*
X10121071Y-12658643D01*
X10121071Y-12687214D01*
X10321071Y-12387214D02*
X10349643Y-12387214D01*
X10378214Y-12401500D01*
X10392500Y-12415786D01*
X10406786Y-12444357D01*
X10421071Y-12501500D01*
X10421071Y-12572929D01*
X10406786Y-12630071D01*
X10392500Y-12658643D01*
X10378214Y-12672929D01*
X10349643Y-12687214D01*
X10321071Y-12687214D01*
X10292500Y-12672929D01*
X10278214Y-12658643D01*
X10263928Y-12630071D01*
X10249643Y-12572929D01*
X10249643Y-12501500D01*
X10263928Y-12444357D01*
X10278214Y-12415786D01*
X10292500Y-12401500D01*
X10321071Y-12387214D01*
X10678214Y-12487214D02*
X10678214Y-12687214D01*
X10606786Y-12372929D02*
X10535357Y-12587214D01*
X10721071Y-12587214D01*
X10806786Y-12387214D02*
X11006786Y-12387214D01*
X10878214Y-12687214D01*
X11106786Y-12387214D02*
X11106786Y-12444357D01*
X11221071Y-12387214D02*
X11221071Y-12444357D01*
X11663928Y-12801500D02*
X11649643Y-12787214D01*
X11621071Y-12744357D01*
X11606785Y-12715786D01*
X11592500Y-12672929D01*
X11578214Y-12601500D01*
X11578214Y-12544357D01*
X11592500Y-12472929D01*
X11606785Y-12430071D01*
X11621071Y-12401500D01*
X11649643Y-12358643D01*
X11663928Y-12344357D01*
X11763928Y-12415786D02*
X11778214Y-12401500D01*
X11806785Y-12387214D01*
X11878214Y-12387214D01*
X11906785Y-12401500D01*
X11921071Y-12415786D01*
X11935357Y-12444357D01*
X11935357Y-12472929D01*
X11921071Y-12515786D01*
X11749643Y-12687214D01*
X11935357Y-12687214D01*
X12292500Y-12687214D02*
X12292500Y-12387214D01*
X12421071Y-12687214D02*
X12421071Y-12530071D01*
X12406785Y-12501500D01*
X12378214Y-12487214D01*
X12335357Y-12487214D01*
X12306785Y-12501500D01*
X12292500Y-12515786D01*
X12606785Y-12687214D02*
X12578214Y-12672929D01*
X12563928Y-12658643D01*
X12549643Y-12630071D01*
X12549643Y-12544357D01*
X12563928Y-12515786D01*
X12578214Y-12501500D01*
X12606785Y-12487214D01*
X12649643Y-12487214D01*
X12678214Y-12501500D01*
X12692500Y-12515786D01*
X12706785Y-12544357D01*
X12706785Y-12630071D01*
X12692500Y-12658643D01*
X12678214Y-12672929D01*
X12649643Y-12687214D01*
X12606785Y-12687214D01*
X12878214Y-12687214D02*
X12849643Y-12672929D01*
X12835357Y-12644357D01*
X12835357Y-12387214D01*
X13106786Y-12672929D02*
X13078214Y-12687214D01*
X13021071Y-12687214D01*
X12992500Y-12672929D01*
X12978214Y-12644357D01*
X12978214Y-12530071D01*
X12992500Y-12501500D01*
X13021071Y-12487214D01*
X13078214Y-12487214D01*
X13106786Y-12501500D01*
X13121071Y-12530071D01*
X13121071Y-12558643D01*
X12978214Y-12587214D01*
X13235357Y-12672929D02*
X13263928Y-12687214D01*
X13321071Y-12687214D01*
X13349643Y-12672929D01*
X13363928Y-12644357D01*
X13363928Y-12630071D01*
X13349643Y-12601500D01*
X13321071Y-12587214D01*
X13278214Y-12587214D01*
X13249643Y-12572929D01*
X13235357Y-12544357D01*
X13235357Y-12530071D01*
X13249643Y-12501500D01*
X13278214Y-12487214D01*
X13321071Y-12487214D01*
X13349643Y-12501500D01*
X13463928Y-12801500D02*
X13478214Y-12787214D01*
X13506786Y-12744357D01*
X13521071Y-12715786D01*
X13535357Y-12672929D01*
X13549643Y-12601500D01*
X13549643Y-12544357D01*
X13535357Y-12472929D01*
X13521071Y-12430071D01*
X13506786Y-12401500D01*
X13478214Y-12358643D01*
X13463928Y-12344357D01*
X6672500Y-12787500D02*
X6992500Y-13107500D01*
X6992500Y-12787500D02*
X6672500Y-13107500D01*
X6992500Y-12947500D02*
G75*
G03X6992500Y-12947500I-160000J0D01*
G01*
X7235357Y-12783214D02*
X7421071Y-12783214D01*
X7321071Y-12897500D01*
X7363928Y-12897500D01*
X7392500Y-12911786D01*
X7406786Y-12926071D01*
X7421071Y-12954643D01*
X7421071Y-13026071D01*
X7406786Y-13054643D01*
X7392500Y-13068929D01*
X7363928Y-13083214D01*
X7278214Y-13083214D01*
X7249643Y-13068929D01*
X7235357Y-13054643D01*
X7549643Y-13054643D02*
X7563928Y-13068929D01*
X7549643Y-13083214D01*
X7535357Y-13068929D01*
X7549643Y-13054643D01*
X7549643Y-13083214D01*
X7678214Y-12811786D02*
X7692500Y-12797500D01*
X7721071Y-12783214D01*
X7792500Y-12783214D01*
X7821071Y-12797500D01*
X7835357Y-12811786D01*
X7849643Y-12840357D01*
X7849643Y-12868929D01*
X7835357Y-12911786D01*
X7663928Y-13083214D01*
X7849643Y-13083214D01*
X8035357Y-12783214D02*
X8063928Y-12783214D01*
X8092500Y-12797500D01*
X8106786Y-12811786D01*
X8121071Y-12840357D01*
X8135357Y-12897500D01*
X8135357Y-12968929D01*
X8121071Y-13026071D01*
X8106786Y-13054643D01*
X8092500Y-13068929D01*
X8063928Y-13083214D01*
X8035357Y-13083214D01*
X8006786Y-13068929D01*
X7992500Y-13054643D01*
X7978214Y-13026071D01*
X7963928Y-12968929D01*
X7963928Y-12897500D01*
X7978214Y-12840357D01*
X7992500Y-12811786D01*
X8006786Y-12797500D01*
X8035357Y-12783214D01*
X8263928Y-13083214D02*
X8263928Y-12883214D01*
X8263928Y-12911786D02*
X8278214Y-12897500D01*
X8306786Y-12883214D01*
X8349643Y-12883214D01*
X8378214Y-12897500D01*
X8392500Y-12926071D01*
X8392500Y-13083214D01*
X8392500Y-12926071D02*
X8406786Y-12897500D01*
X8435357Y-12883214D01*
X8478214Y-12883214D01*
X8506786Y-12897500D01*
X8521071Y-12926071D01*
X8521071Y-13083214D01*
X8663929Y-13083214D02*
X8663929Y-12883214D01*
X8663929Y-12911786D02*
X8678214Y-12897500D01*
X8706786Y-12883214D01*
X8749643Y-12883214D01*
X8778214Y-12897500D01*
X8792500Y-12926071D01*
X8792500Y-13083214D01*
X8792500Y-12926071D02*
X8806786Y-12897500D01*
X8835357Y-12883214D01*
X8878214Y-12883214D01*
X8906786Y-12897500D01*
X8921071Y-12926071D01*
X8921071Y-13083214D01*
X9506786Y-12768929D02*
X9249643Y-13154643D01*
X9892500Y-12783214D02*
X9921071Y-12783214D01*
X9949643Y-12797500D01*
X9963928Y-12811786D01*
X9978214Y-12840357D01*
X9992500Y-12897500D01*
X9992500Y-12968929D01*
X9978214Y-13026071D01*
X9963928Y-13054643D01*
X9949643Y-13068929D01*
X9921071Y-13083214D01*
X9892500Y-13083214D01*
X9863928Y-13068929D01*
X9849643Y-13054643D01*
X9835357Y-13026071D01*
X9821071Y-12968929D01*
X9821071Y-12897500D01*
X9835357Y-12840357D01*
X9849643Y-12811786D01*
X9863928Y-12797500D01*
X9892500Y-12783214D01*
X10121071Y-13054643D02*
X10135357Y-13068929D01*
X10121071Y-13083214D01*
X10106786Y-13068929D01*
X10121071Y-13054643D01*
X10121071Y-13083214D01*
X10421071Y-13083214D02*
X10249643Y-13083214D01*
X10335357Y-13083214D02*
X10335357Y-12783214D01*
X10306786Y-12826071D01*
X10278214Y-12854643D01*
X10249643Y-12868929D01*
X10535357Y-12811786D02*
X10549643Y-12797500D01*
X10578214Y-12783214D01*
X10649643Y-12783214D01*
X10678214Y-12797500D01*
X10692500Y-12811786D01*
X10706786Y-12840357D01*
X10706786Y-12868929D01*
X10692500Y-12911786D01*
X10521071Y-13083214D01*
X10706786Y-13083214D01*
X10963928Y-12783214D02*
X10906786Y-12783214D01*
X10878214Y-12797500D01*
X10863928Y-12811786D01*
X10835357Y-12854643D01*
X10821071Y-12911786D01*
X10821071Y-13026071D01*
X10835357Y-13054643D01*
X10849643Y-13068929D01*
X10878214Y-13083214D01*
X10935357Y-13083214D01*
X10963928Y-13068929D01*
X10978214Y-13054643D01*
X10992500Y-13026071D01*
X10992500Y-12954643D01*
X10978214Y-12926071D01*
X10963928Y-12911786D01*
X10935357Y-12897500D01*
X10878214Y-12897500D01*
X10849643Y-12911786D01*
X10835357Y-12926071D01*
X10821071Y-12954643D01*
X11106786Y-12783214D02*
X11106786Y-12840357D01*
X11221071Y-12783214D02*
X11221071Y-12840357D01*
X11663928Y-13197500D02*
X11649643Y-13183214D01*
X11621071Y-13140357D01*
X11606785Y-13111786D01*
X11592500Y-13068929D01*
X11578214Y-12997500D01*
X11578214Y-12940357D01*
X11592500Y-12868929D01*
X11606785Y-12826071D01*
X11621071Y-12797500D01*
X11649643Y-12754643D01*
X11663928Y-12740357D01*
X11749643Y-12783214D02*
X11935357Y-12783214D01*
X11835357Y-12897500D01*
X11878214Y-12897500D01*
X11906785Y-12911786D01*
X11921071Y-12926071D01*
X11935357Y-12954643D01*
X11935357Y-13026071D01*
X11921071Y-13054643D01*
X11906785Y-13068929D01*
X11878214Y-13083214D01*
X11792500Y-13083214D01*
X11763928Y-13068929D01*
X11749643Y-13054643D01*
X12292500Y-13083214D02*
X12292500Y-12783214D01*
X12421071Y-13083214D02*
X12421071Y-12926071D01*
X12406785Y-12897500D01*
X12378214Y-12883214D01*
X12335357Y-12883214D01*
X12306785Y-12897500D01*
X12292500Y-12911786D01*
X12606785Y-13083214D02*
X12578214Y-13068929D01*
X12563928Y-13054643D01*
X12549643Y-13026071D01*
X12549643Y-12940357D01*
X12563928Y-12911786D01*
X12578214Y-12897500D01*
X12606785Y-12883214D01*
X12649643Y-12883214D01*
X12678214Y-12897500D01*
X12692500Y-12911786D01*
X12706785Y-12940357D01*
X12706785Y-13026071D01*
X12692500Y-13054643D01*
X12678214Y-13068929D01*
X12649643Y-13083214D01*
X12606785Y-13083214D01*
X12878214Y-13083214D02*
X12849643Y-13068929D01*
X12835357Y-13040357D01*
X12835357Y-12783214D01*
X13106786Y-13068929D02*
X13078214Y-13083214D01*
X13021071Y-13083214D01*
X12992500Y-13068929D01*
X12978214Y-13040357D01*
X12978214Y-12926071D01*
X12992500Y-12897500D01*
X13021071Y-12883214D01*
X13078214Y-12883214D01*
X13106786Y-12897500D01*
X13121071Y-12926071D01*
X13121071Y-12954643D01*
X12978214Y-12983214D01*
X13235357Y-13068929D02*
X13263928Y-13083214D01*
X13321071Y-13083214D01*
X13349643Y-13068929D01*
X13363928Y-13040357D01*
X13363928Y-13026071D01*
X13349643Y-12997500D01*
X13321071Y-12983214D01*
X13278214Y-12983214D01*
X13249643Y-12968929D01*
X13235357Y-12940357D01*
X13235357Y-12926071D01*
X13249643Y-12897500D01*
X13278214Y-12883214D01*
X13321071Y-12883214D01*
X13349643Y-12897500D01*
X13463928Y-13197500D02*
X13478214Y-13183214D01*
X13506786Y-13140357D01*
X13521071Y-13111786D01*
X13535357Y-13068929D01*
X13549643Y-12997500D01*
X13549643Y-12940357D01*
X13535357Y-12868929D01*
X13521071Y-12826071D01*
X13506786Y-12797500D01*
X13478214Y-12754643D01*
X13463928Y-12740357D01*
X6632500Y-13217500D02*
X6992500Y-13577500D01*
X6992500Y-13217500D02*
X6632500Y-13577500D01*
X6812500Y-13217500D02*
X6812500Y-13577500D01*
X6632500Y-13397500D02*
X6992500Y-13397500D01*
X7235357Y-13233214D02*
X7421071Y-13233214D01*
X7321071Y-13347500D01*
X7363928Y-13347500D01*
X7392500Y-13361786D01*
X7406786Y-13376071D01*
X7421071Y-13404643D01*
X7421071Y-13476071D01*
X7406786Y-13504643D01*
X7392500Y-13518929D01*
X7363928Y-13533214D01*
X7278214Y-13533214D01*
X7249643Y-13518929D01*
X7235357Y-13504643D01*
X7549643Y-13504643D02*
X7563928Y-13518929D01*
X7549643Y-13533214D01*
X7535357Y-13518929D01*
X7549643Y-13504643D01*
X7549643Y-13533214D01*
X7821071Y-13233214D02*
X7763928Y-13233214D01*
X7735357Y-13247500D01*
X7721071Y-13261786D01*
X7692500Y-13304643D01*
X7678214Y-13361786D01*
X7678214Y-13476071D01*
X7692500Y-13504643D01*
X7706786Y-13518929D01*
X7735357Y-13533214D01*
X7792500Y-13533214D01*
X7821071Y-13518929D01*
X7835357Y-13504643D01*
X7849643Y-13476071D01*
X7849643Y-13404643D01*
X7835357Y-13376071D01*
X7821071Y-13361786D01*
X7792500Y-13347500D01*
X7735357Y-13347500D01*
X7706786Y-13361786D01*
X7692500Y-13376071D01*
X7678214Y-13404643D01*
X8035357Y-13233214D02*
X8063928Y-13233214D01*
X8092500Y-13247500D01*
X8106786Y-13261786D01*
X8121071Y-13290357D01*
X8135357Y-13347500D01*
X8135357Y-13418929D01*
X8121071Y-13476071D01*
X8106786Y-13504643D01*
X8092500Y-13518929D01*
X8063928Y-13533214D01*
X8035357Y-13533214D01*
X8006786Y-13518929D01*
X7992500Y-13504643D01*
X7978214Y-13476071D01*
X7963928Y-13418929D01*
X7963928Y-13347500D01*
X7978214Y-13290357D01*
X7992500Y-13261786D01*
X8006786Y-13247500D01*
X8035357Y-13233214D01*
X8263928Y-13533214D02*
X8263928Y-13333214D01*
X8263928Y-13361786D02*
X8278214Y-13347500D01*
X8306786Y-13333214D01*
X8349643Y-13333214D01*
X8378214Y-13347500D01*
X8392500Y-13376071D01*
X8392500Y-13533214D01*
X8392500Y-13376071D02*
X8406786Y-13347500D01*
X8435357Y-13333214D01*
X8478214Y-13333214D01*
X8506786Y-13347500D01*
X8521071Y-13376071D01*
X8521071Y-13533214D01*
X8663929Y-13533214D02*
X8663929Y-13333214D01*
X8663929Y-13361786D02*
X8678214Y-13347500D01*
X8706786Y-13333214D01*
X8749643Y-13333214D01*
X8778214Y-13347500D01*
X8792500Y-13376071D01*
X8792500Y-13533214D01*
X8792500Y-13376071D02*
X8806786Y-13347500D01*
X8835357Y-13333214D01*
X8878214Y-13333214D01*
X8906786Y-13347500D01*
X8921071Y-13376071D01*
X8921071Y-13533214D01*
X9506786Y-13218929D02*
X9249643Y-13604643D01*
X9892500Y-13233214D02*
X9921071Y-13233214D01*
X9949643Y-13247500D01*
X9963928Y-13261786D01*
X9978214Y-13290357D01*
X9992500Y-13347500D01*
X9992500Y-13418929D01*
X9978214Y-13476071D01*
X9963928Y-13504643D01*
X9949643Y-13518929D01*
X9921071Y-13533214D01*
X9892500Y-13533214D01*
X9863928Y-13518929D01*
X9849643Y-13504643D01*
X9835357Y-13476071D01*
X9821071Y-13418929D01*
X9821071Y-13347500D01*
X9835357Y-13290357D01*
X9849643Y-13261786D01*
X9863928Y-13247500D01*
X9892500Y-13233214D01*
X10121071Y-13504643D02*
X10135357Y-13518929D01*
X10121071Y-13533214D01*
X10106786Y-13518929D01*
X10121071Y-13504643D01*
X10121071Y-13533214D01*
X10421071Y-13533214D02*
X10249643Y-13533214D01*
X10335357Y-13533214D02*
X10335357Y-13233214D01*
X10306786Y-13276071D01*
X10278214Y-13304643D01*
X10249643Y-13318929D01*
X10678214Y-13333214D02*
X10678214Y-13533214D01*
X10606786Y-13218929D02*
X10535357Y-13433214D01*
X10721071Y-13433214D01*
X10821071Y-13261786D02*
X10835357Y-13247500D01*
X10863928Y-13233214D01*
X10935357Y-13233214D01*
X10963928Y-13247500D01*
X10978214Y-13261786D01*
X10992500Y-13290357D01*
X10992500Y-13318929D01*
X10978214Y-13361786D01*
X10806786Y-13533214D01*
X10992500Y-13533214D01*
X11106786Y-13233214D02*
X11106786Y-13290357D01*
X11221071Y-13233214D02*
X11221071Y-13290357D01*
X11663928Y-13647500D02*
X11649643Y-13633214D01*
X11621071Y-13590357D01*
X11606785Y-13561786D01*
X11592500Y-13518929D01*
X11578214Y-13447500D01*
X11578214Y-13390357D01*
X11592500Y-13318929D01*
X11606785Y-13276071D01*
X11621071Y-13247500D01*
X11649643Y-13204643D01*
X11663928Y-13190357D01*
X11935357Y-13533214D02*
X11763928Y-13533214D01*
X11849643Y-13533214D02*
X11849643Y-13233214D01*
X11821071Y-13276071D01*
X11792500Y-13304643D01*
X11763928Y-13318929D01*
X12292500Y-13533214D02*
X12292500Y-13233214D01*
X12421071Y-13533214D02*
X12421071Y-13376071D01*
X12406785Y-13347500D01*
X12378214Y-13333214D01*
X12335357Y-13333214D01*
X12306785Y-13347500D01*
X12292500Y-13361786D01*
X12606785Y-13533214D02*
X12578214Y-13518929D01*
X12563928Y-13504643D01*
X12549643Y-13476071D01*
X12549643Y-13390357D01*
X12563928Y-13361786D01*
X12578214Y-13347500D01*
X12606785Y-13333214D01*
X12649643Y-13333214D01*
X12678214Y-13347500D01*
X12692500Y-13361786D01*
X12706785Y-13390357D01*
X12706785Y-13476071D01*
X12692500Y-13504643D01*
X12678214Y-13518929D01*
X12649643Y-13533214D01*
X12606785Y-13533214D01*
X12878214Y-13533214D02*
X12849643Y-13518929D01*
X12835357Y-13490357D01*
X12835357Y-13233214D01*
X13106786Y-13518929D02*
X13078214Y-13533214D01*
X13021071Y-13533214D01*
X12992500Y-13518929D01*
X12978214Y-13490357D01*
X12978214Y-13376071D01*
X12992500Y-13347500D01*
X13021071Y-13333214D01*
X13078214Y-13333214D01*
X13106786Y-13347500D01*
X13121071Y-13376071D01*
X13121071Y-13404643D01*
X12978214Y-13433214D01*
X13221071Y-13647500D02*
X13235357Y-13633214D01*
X13263928Y-13590357D01*
X13278214Y-13561786D01*
X13292500Y-13518929D01*
X13306786Y-13447500D01*
X13306786Y-13390357D01*
X13292500Y-13318929D01*
X13278214Y-13276071D01*
X13263928Y-13247500D01*
X13235357Y-13204643D01*
X13221071Y-13190357D01*
M02*
