G04 #@! TF.GenerationSoftware,KiCad,Pcbnew,(5.0.0)*
G04 #@! TF.CreationDate,2019-08-07T23:03:13+02:00*
G04 #@! TF.ProjectId,minireklame,6D696E6972656B6C616D652E6B696361,rev?*
G04 #@! TF.SameCoordinates,Original*
G04 #@! TF.FileFunction,Copper,L2,Bot,Signal*
G04 #@! TF.FilePolarity,Positive*
%FSLAX46Y46*%
G04 Gerber Fmt 4.6, Leading zero omitted, Abs format (unit mm)*
G04 Created by KiCad (PCBNEW (5.0.0)) date 08/07/19 23:03:13*
%MOMM*%
%LPD*%
G01*
G04 APERTURE LIST*
G04 #@! TA.AperFunction,ComponentPad*
%ADD10R,1.727200X1.727200*%
G04 #@! TD*
G04 #@! TA.AperFunction,ComponentPad*
%ADD11O,1.727200X1.727200*%
G04 #@! TD*
G04 #@! TA.AperFunction,ComponentPad*
%ADD12R,3.600000X2.080000*%
G04 #@! TD*
G04 #@! TA.AperFunction,ComponentPad*
%ADD13O,3.600000X2.080000*%
G04 #@! TD*
G04 #@! TA.AperFunction,ComponentPad*
%ADD14R,1.200000X1.700000*%
G04 #@! TD*
G04 #@! TA.AperFunction,ComponentPad*
%ADD15O,1.200000X1.700000*%
G04 #@! TD*
G04 #@! TA.AperFunction,ComponentPad*
%ADD16R,1.700000X1.200000*%
G04 #@! TD*
G04 #@! TA.AperFunction,ComponentPad*
%ADD17O,1.700000X1.200000*%
G04 #@! TD*
G04 #@! TA.AperFunction,ViaPad*
%ADD18C,0.600000*%
G04 #@! TD*
G04 #@! TA.AperFunction,ViaPad*
%ADD19C,5.500000*%
G04 #@! TD*
G04 #@! TA.AperFunction,Conductor*
%ADD20C,0.152400*%
G04 #@! TD*
G04 #@! TA.AperFunction,Conductor*
%ADD21C,0.254000*%
G04 #@! TD*
G04 APERTURE END LIST*
D10*
G04 #@! TO.P,P18,1*
G04 #@! TO.N,Net-(IC1-Pad34)*
X78999000Y-88984000D03*
D11*
G04 #@! TO.P,P18,2*
G04 #@! TO.N,+3V3*
X81539000Y-88984000D03*
G04 #@! TO.P,P18,3*
G04 #@! TO.N,Net-(P18-Pad3)*
X78999000Y-91524000D03*
G04 #@! TO.P,P18,4*
G04 #@! TO.N,Net-(P18-Pad4)*
X81539000Y-91524000D03*
G04 #@! TO.P,P18,5*
G04 #@! TO.N,Net-(C7-Pad1)*
X78999000Y-94064000D03*
G04 #@! TO.P,P18,6*
G04 #@! TO.N,GND*
X81539000Y-94064000D03*
G04 #@! TD*
D12*
G04 #@! TO.P,P17,1*
G04 #@! TO.N,Net-(P17-Pad1)*
X74681000Y-58306000D03*
D13*
G04 #@! TO.P,P17,2*
G04 #@! TO.N,GND*
X74681000Y-63386000D03*
G04 #@! TD*
D14*
G04 #@! TO.P,P20,1*
G04 #@! TO.N,Net-(P19-Pad1)*
X75189000Y-77300000D03*
D15*
G04 #@! TO.P,P20,2*
G04 #@! TO.N,Net-(P19-Pad2)*
X73189000Y-77300000D03*
G04 #@! TD*
D14*
G04 #@! TO.P,P19,1*
G04 #@! TO.N,Net-(P19-Pad1)*
X73189000Y-69680000D03*
D15*
G04 #@! TO.P,P19,2*
G04 #@! TO.N,Net-(P19-Pad2)*
X75189000Y-69680000D03*
G04 #@! TD*
D14*
G04 #@! TO.P,P10,1*
G04 #@! TO.N,Net-(P10-Pad1)*
X154437000Y-53728800D03*
D15*
G04 #@! TO.P,P10,2*
G04 #@! TO.N,Net-(P10-Pad2)*
X156437000Y-53728800D03*
G04 #@! TO.P,P10,3*
G04 #@! TO.N,Net-(P10-Pad3)*
X158437000Y-53728800D03*
G04 #@! TO.P,P10,4*
G04 #@! TO.N,+5V*
X160437000Y-53728800D03*
G04 #@! TD*
D16*
G04 #@! TO.P,P7,1*
G04 #@! TO.N,Net-(P7-Pad1)*
X159009000Y-83808000D03*
D17*
G04 #@! TO.P,P7,2*
G04 #@! TO.N,Net-(P7-Pad2)*
X159009000Y-81808000D03*
G04 #@! TO.P,P7,3*
G04 #@! TO.N,Net-(P7-Pad3)*
X159009000Y-79808000D03*
G04 #@! TO.P,P7,4*
G04 #@! TO.N,+5V*
X159009000Y-77808000D03*
G04 #@! TD*
D16*
G04 #@! TO.P,P15,1*
G04 #@! TO.N,Net-(P15-Pad1)*
X166375000Y-66696000D03*
D17*
G04 #@! TO.P,P15,2*
G04 #@! TO.N,Net-(P15-Pad2)*
X166375000Y-68696000D03*
G04 #@! TO.P,P15,3*
G04 #@! TO.N,Net-(P15-Pad3)*
X166375000Y-70696000D03*
G04 #@! TO.P,P15,4*
G04 #@! TO.N,+5V*
X166375000Y-72696000D03*
G04 #@! TD*
D14*
G04 #@! TO.P,P4,1*
G04 #@! TO.N,Net-(P4-Pad1)*
X104599411Y-96451671D03*
D15*
G04 #@! TO.P,P4,2*
G04 #@! TO.N,Net-(P4-Pad2)*
X102599411Y-96451671D03*
G04 #@! TO.P,P4,3*
G04 #@! TO.N,Net-(P4-Pad3)*
X100599411Y-96451671D03*
G04 #@! TO.P,P4,4*
G04 #@! TO.N,+5V*
X98599411Y-96451671D03*
G04 #@! TD*
D14*
G04 #@! TO.P,P14,1*
G04 #@! TO.N,Net-(P14-Pad1)*
X143261000Y-53728800D03*
D15*
G04 #@! TO.P,P14,2*
G04 #@! TO.N,Net-(P14-Pad2)*
X145261000Y-53728800D03*
G04 #@! TO.P,P14,3*
G04 #@! TO.N,Net-(P14-Pad3)*
X147261000Y-53728800D03*
G04 #@! TO.P,P14,4*
G04 #@! TO.N,+5V*
X149261000Y-53728800D03*
G04 #@! TD*
D16*
G04 #@! TO.P,P3,1*
G04 #@! TO.N,Net-(P3-Pad1)*
X166375000Y-77872000D03*
D17*
G04 #@! TO.P,P3,2*
G04 #@! TO.N,Net-(P3-Pad2)*
X166375000Y-79872000D03*
G04 #@! TO.P,P3,3*
G04 #@! TO.N,Net-(P3-Pad3)*
X166375000Y-81872000D03*
G04 #@! TO.P,P3,4*
G04 #@! TO.N,+5V*
X166375000Y-83872000D03*
G04 #@! TD*
D14*
G04 #@! TO.P,P13,1*
G04 #@! TO.N,Net-(P13-Pad1)*
X132085000Y-53728800D03*
D15*
G04 #@! TO.P,P13,2*
G04 #@! TO.N,Net-(P13-Pad2)*
X134085000Y-53728800D03*
G04 #@! TO.P,P13,3*
G04 #@! TO.N,Net-(P13-Pad3)*
X136085000Y-53728800D03*
G04 #@! TO.P,P13,4*
G04 #@! TO.N,+5V*
X138085000Y-53728800D03*
G04 #@! TD*
D14*
G04 #@! TO.P,P2,1*
G04 #@! TO.N,Net-(P2-Pad1)*
X149303411Y-96451671D03*
D15*
G04 #@! TO.P,P2,2*
G04 #@! TO.N,Net-(P2-Pad2)*
X147303411Y-96451671D03*
G04 #@! TO.P,P2,3*
G04 #@! TO.N,Net-(P2-Pad3)*
X145303411Y-96451671D03*
G04 #@! TO.P,P2,4*
G04 #@! TO.N,+5V*
X143303411Y-96451671D03*
G04 #@! TD*
D14*
G04 #@! TO.P,P1,1*
G04 #@! TO.N,Net-(P1-Pad1)*
X138127411Y-96451671D03*
D15*
G04 #@! TO.P,P1,2*
G04 #@! TO.N,Net-(P1-Pad2)*
X136127411Y-96451671D03*
G04 #@! TO.P,P1,3*
G04 #@! TO.N,Net-(P1-Pad3)*
X134127411Y-96451671D03*
G04 #@! TO.P,P1,4*
G04 #@! TO.N,+5V*
X132127411Y-96451671D03*
G04 #@! TD*
D14*
G04 #@! TO.P,P0,1*
G04 #@! TO.N,Net-(P0-Pad1)*
X115775411Y-96451671D03*
D15*
G04 #@! TO.P,P0,2*
G04 #@! TO.N,Net-(P0-Pad2)*
X113775411Y-96451671D03*
G04 #@! TO.P,P0,3*
G04 #@! TO.N,Net-(P0-Pad3)*
X111775411Y-96451671D03*
G04 #@! TO.P,P0,4*
G04 #@! TO.N,+5V*
X109775411Y-96451671D03*
G04 #@! TD*
D14*
G04 #@! TO.P,P8,1*
G04 #@! TO.N,Net-(P8-Pad1)*
X98557000Y-53728800D03*
D15*
G04 #@! TO.P,P8,2*
G04 #@! TO.N,Net-(P8-Pad2)*
X100557000Y-53728800D03*
G04 #@! TO.P,P8,3*
G04 #@! TO.N,Net-(P8-Pad3)*
X102557000Y-53728800D03*
G04 #@! TO.P,P8,4*
G04 #@! TO.N,+5V*
X104557000Y-53728800D03*
G04 #@! TD*
D14*
G04 #@! TO.P,P12,1*
G04 #@! TO.N,Net-(P12-Pad1)*
X109733000Y-53728800D03*
D15*
G04 #@! TO.P,P12,2*
G04 #@! TO.N,Net-(P12-Pad2)*
X111733000Y-53728800D03*
G04 #@! TO.P,P12,3*
G04 #@! TO.N,Net-(P12-Pad3)*
X113733000Y-53728800D03*
G04 #@! TO.P,P12,4*
G04 #@! TO.N,+5V*
X115733000Y-53728800D03*
G04 #@! TD*
D14*
G04 #@! TO.P,P9,1*
G04 #@! TO.N,Net-(P9-Pad1)*
X120909000Y-53728800D03*
D15*
G04 #@! TO.P,P9,2*
G04 #@! TO.N,Net-(P9-Pad2)*
X122909000Y-53728800D03*
G04 #@! TO.P,P9,3*
G04 #@! TO.N,Net-(P9-Pad3)*
X124909000Y-53728800D03*
G04 #@! TO.P,P9,4*
G04 #@! TO.N,+5V*
X126909000Y-53728800D03*
G04 #@! TD*
D16*
G04 #@! TO.P,P11,1*
G04 #@! TO.N,Net-(P11-Pad1)*
X159009000Y-72632000D03*
D17*
G04 #@! TO.P,P11,2*
G04 #@! TO.N,Net-(P11-Pad2)*
X159009000Y-70632000D03*
G04 #@! TO.P,P11,3*
G04 #@! TO.N,Net-(P11-Pad3)*
X159009000Y-68632000D03*
G04 #@! TO.P,P11,4*
G04 #@! TO.N,+5V*
X159009000Y-66632000D03*
G04 #@! TD*
D14*
G04 #@! TO.P,P6,1*
G04 #@! TO.N,Net-(P6-Pad1)*
X160479411Y-96451671D03*
D15*
G04 #@! TO.P,P6,2*
G04 #@! TO.N,Net-(P6-Pad2)*
X158479411Y-96451671D03*
G04 #@! TO.P,P6,3*
G04 #@! TO.N,Net-(P6-Pad3)*
X156479411Y-96451671D03*
G04 #@! TO.P,P6,4*
G04 #@! TO.N,+5V*
X154479411Y-96451671D03*
G04 #@! TD*
D14*
G04 #@! TO.P,P5,1*
G04 #@! TO.N,Net-(P5-Pad1)*
X126951411Y-96451671D03*
D15*
G04 #@! TO.P,P5,2*
G04 #@! TO.N,Net-(P5-Pad2)*
X124951411Y-96451671D03*
G04 #@! TO.P,P5,3*
G04 #@! TO.N,Net-(P5-Pad3)*
X122951411Y-96451671D03*
G04 #@! TO.P,P5,4*
G04 #@! TO.N,+5V*
X120951411Y-96451671D03*
G04 #@! TD*
D18*
G04 #@! TO.N,GND*
X141991000Y-73490000D03*
X140975000Y-73490000D03*
X139705000Y-73490000D03*
X138562000Y-73490000D03*
X137419000Y-73490000D03*
X141991000Y-75776000D03*
X140975000Y-75776000D03*
X139705000Y-75776000D03*
X138562000Y-75776000D03*
X137419000Y-75776000D03*
X139705000Y-77046000D03*
X138562000Y-77046000D03*
X140848000Y-77046000D03*
X141991000Y-77046000D03*
X137419000Y-77046000D03*
X139705000Y-72474000D03*
X140975000Y-72474000D03*
X138562000Y-72474000D03*
X141991000Y-72474000D03*
X137419000Y-72474000D03*
D19*
X166375000Y-53424000D03*
X166375000Y-96604000D03*
X73411000Y-96604000D03*
X73411000Y-53424000D03*
D18*
X114051000Y-85428000D03*
X154437000Y-86698000D03*
X153167000Y-60790000D03*
X137419000Y-74510000D03*
X138562000Y-74510000D03*
X139705000Y-74510000D03*
X140975000Y-74510000D03*
X141991000Y-74510000D03*
X146055000Y-79840000D03*
X150754000Y-84031000D03*
X155453000Y-77046000D03*
X155199000Y-72347000D03*
X145293000Y-68410000D03*
X147960000Y-65997000D03*
X142880000Y-62441000D03*
X147579000Y-57742000D03*
X126624000Y-66886000D03*
X129291000Y-66886000D03*
X131450000Y-67013000D03*
X143007000Y-66378000D03*
X145166000Y-64219000D03*
X124973000Y-63711000D03*
X127640000Y-63838000D03*
X130307000Y-63711000D03*
X115575000Y-65235000D03*
X125100000Y-80221000D03*
X130561000Y-80729000D03*
X130942000Y-84793000D03*
X112146000Y-73617000D03*
X115956000Y-73744000D03*
X119258000Y-73871000D03*
X112019000Y-76157000D03*
X115702000Y-76157000D03*
X118877000Y-76411000D03*
X113035000Y-78570000D03*
X103637000Y-83142000D03*
X106431000Y-77300000D03*
X92334000Y-75268000D03*
X92080000Y-77427000D03*
X100081000Y-75014000D03*
X99954000Y-77554000D03*
X96652000Y-68791000D03*
X96398000Y-65235000D03*
X96144000Y-75141000D03*
X96398000Y-77300000D03*
X96144000Y-60663000D03*
X88377000Y-78844000D03*
X83952000Y-82380000D03*
X86111000Y-85174000D03*
X88270000Y-86825000D03*
X72268000Y-81491000D03*
X72649000Y-84412000D03*
X72776000Y-87714000D03*
X75062000Y-91651000D03*
X93985000Y-97493000D03*
X101478000Y-91143000D03*
X78491000Y-71204000D03*
X152913000Y-66505000D03*
X155580000Y-66632000D03*
X152024000Y-68664000D03*
X154818000Y-68664000D03*
X155326000Y-80729000D03*
X109479000Y-65636000D03*
G04 #@! TO.N,Net-(IC1-Pad13)*
X124465000Y-70442000D03*
X124465002Y-77554002D03*
G04 #@! TO.N,Net-(IC1-Pad14)*
X130306994Y-71712000D03*
X130306994Y-73998000D03*
G04 #@! TO.N,Net-(IC1-Pad15)*
X126751000Y-77807996D03*
X126764625Y-69485202D03*
G04 #@! TO.N,Net-(IC1-Pad16)*
X121671000Y-65108004D03*
X151389000Y-72473994D03*
G04 #@! TO.N,Net-(IC1-Pad17)*
X128529000Y-78824000D03*
X128529000Y-69680000D03*
G04 #@! TO.N,Net-(IC1-Pad24)*
X99065000Y-71560000D03*
X90810000Y-72855000D03*
G04 #@! TO.N,Net-(IC1-Pad25)*
X100335000Y-72360000D03*
X90175000Y-71585000D03*
G04 #@! TO.N,Net-(IC1-Pad26)*
X106050000Y-73160000D03*
X95255000Y-62060000D03*
G04 #@! TO.N,Net-(IC1-Pad27)*
X88905000Y-70315000D03*
X104945000Y-73960000D03*
G04 #@! TD*
D20*
G04 #@! TO.N,Net-(IC1-Pad13)*
X124465002Y-70442002D02*
X124465000Y-70442000D01*
X124465002Y-77554002D02*
X124465002Y-70442002D01*
G04 #@! TO.N,Net-(IC1-Pad14)*
X130306994Y-73998000D02*
X130306994Y-71712000D01*
G04 #@! TO.N,Net-(IC1-Pad15)*
X126764625Y-77794371D02*
X126751000Y-77807996D01*
X126764625Y-69485202D02*
X126764625Y-77794371D01*
G04 #@! TO.N,Net-(IC1-Pad16)*
X122095264Y-65108004D02*
X121671000Y-65108004D01*
X151389000Y-72473994D02*
X144023010Y-65108004D01*
X144023010Y-65108004D02*
X122095264Y-65108004D01*
G04 #@! TO.N,Net-(IC1-Pad17)*
X128529000Y-69680000D02*
X128529000Y-78824000D01*
G04 #@! TO.N,Net-(IC1-Pad24)*
X99065000Y-71560000D02*
X92105000Y-71560000D01*
X92105000Y-71560000D02*
X90810000Y-72855000D01*
X90810000Y-72855000D02*
X90810000Y-72855000D01*
D21*
G04 #@! TO.N,Net-(IC1-Pad25)*
X100335000Y-72360000D02*
X100335000Y-70950000D01*
X100317999Y-70932999D02*
X90827001Y-70932999D01*
X100335000Y-70950000D02*
X100317999Y-70932999D01*
X90827001Y-70932999D02*
X90175000Y-71585000D01*
X90175000Y-71585000D02*
X90175000Y-71585000D01*
G04 #@! TO.N,Net-(IC1-Pad26)*
X106050000Y-73160000D02*
X106050000Y-71585000D01*
X106050000Y-71585000D02*
X96525000Y-62060000D01*
X95255000Y-62060000D02*
X96525000Y-62060000D01*
G04 #@! TO.N,Net-(IC1-Pad27)*
X101300000Y-70315000D02*
X104945000Y-73960000D01*
X88905000Y-70315000D02*
X101300000Y-70315000D01*
G04 #@! TD*
G04 #@! TO.N,GND*
G36*
X169295670Y-50883673D02*
X169169330Y-99524673D01*
X70744000Y-99271326D01*
X70744000Y-96080035D01*
X97364411Y-96080035D01*
X97364411Y-96823306D01*
X97436067Y-97183543D01*
X97709026Y-97592056D01*
X98117538Y-97865015D01*
X98599411Y-97960866D01*
X99081283Y-97865015D01*
X99489796Y-97592056D01*
X99599411Y-97428005D01*
X99709026Y-97592056D01*
X100117538Y-97865015D01*
X100599411Y-97960866D01*
X101081283Y-97865015D01*
X101489796Y-97592056D01*
X101599411Y-97428005D01*
X101709026Y-97592056D01*
X102117538Y-97865015D01*
X102599411Y-97960866D01*
X103081283Y-97865015D01*
X103448271Y-97619802D01*
X103541602Y-97759480D01*
X103751646Y-97899828D01*
X103999411Y-97949111D01*
X105199411Y-97949111D01*
X105447176Y-97899828D01*
X105657220Y-97759480D01*
X105797568Y-97549436D01*
X105846851Y-97301671D01*
X105846851Y-96080035D01*
X108540411Y-96080035D01*
X108540411Y-96823306D01*
X108612067Y-97183543D01*
X108885026Y-97592056D01*
X109293538Y-97865015D01*
X109775411Y-97960866D01*
X110257283Y-97865015D01*
X110665796Y-97592056D01*
X110775411Y-97428005D01*
X110885026Y-97592056D01*
X111293538Y-97865015D01*
X111775411Y-97960866D01*
X112257283Y-97865015D01*
X112665796Y-97592056D01*
X112775411Y-97428005D01*
X112885026Y-97592056D01*
X113293538Y-97865015D01*
X113775411Y-97960866D01*
X114257283Y-97865015D01*
X114624271Y-97619802D01*
X114717602Y-97759480D01*
X114927646Y-97899828D01*
X115175411Y-97949111D01*
X116375411Y-97949111D01*
X116623176Y-97899828D01*
X116833220Y-97759480D01*
X116973568Y-97549436D01*
X117022851Y-97301671D01*
X117022851Y-96080035D01*
X119716411Y-96080035D01*
X119716411Y-96823306D01*
X119788067Y-97183543D01*
X120061026Y-97592056D01*
X120469538Y-97865015D01*
X120951411Y-97960866D01*
X121433283Y-97865015D01*
X121841796Y-97592056D01*
X121951411Y-97428005D01*
X122061026Y-97592056D01*
X122469538Y-97865015D01*
X122951411Y-97960866D01*
X123433283Y-97865015D01*
X123841796Y-97592056D01*
X123951411Y-97428005D01*
X124061026Y-97592056D01*
X124469538Y-97865015D01*
X124951411Y-97960866D01*
X125433283Y-97865015D01*
X125800271Y-97619802D01*
X125893602Y-97759480D01*
X126103646Y-97899828D01*
X126351411Y-97949111D01*
X127551411Y-97949111D01*
X127799176Y-97899828D01*
X128009220Y-97759480D01*
X128149568Y-97549436D01*
X128198851Y-97301671D01*
X128198851Y-96080035D01*
X130892411Y-96080035D01*
X130892411Y-96823306D01*
X130964067Y-97183543D01*
X131237026Y-97592056D01*
X131645538Y-97865015D01*
X132127411Y-97960866D01*
X132609283Y-97865015D01*
X133017796Y-97592056D01*
X133127411Y-97428005D01*
X133237026Y-97592056D01*
X133645538Y-97865015D01*
X134127411Y-97960866D01*
X134609283Y-97865015D01*
X135017796Y-97592056D01*
X135127411Y-97428005D01*
X135237026Y-97592056D01*
X135645538Y-97865015D01*
X136127411Y-97960866D01*
X136609283Y-97865015D01*
X136976271Y-97619802D01*
X137069602Y-97759480D01*
X137279646Y-97899828D01*
X137527411Y-97949111D01*
X138727411Y-97949111D01*
X138975176Y-97899828D01*
X139185220Y-97759480D01*
X139325568Y-97549436D01*
X139374851Y-97301671D01*
X139374851Y-96080035D01*
X142068411Y-96080035D01*
X142068411Y-96823306D01*
X142140067Y-97183543D01*
X142413026Y-97592056D01*
X142821538Y-97865015D01*
X143303411Y-97960866D01*
X143785283Y-97865015D01*
X144193796Y-97592056D01*
X144303411Y-97428005D01*
X144413026Y-97592056D01*
X144821538Y-97865015D01*
X145303411Y-97960866D01*
X145785283Y-97865015D01*
X146193796Y-97592056D01*
X146303411Y-97428005D01*
X146413026Y-97592056D01*
X146821538Y-97865015D01*
X147303411Y-97960866D01*
X147785283Y-97865015D01*
X148152271Y-97619802D01*
X148245602Y-97759480D01*
X148455646Y-97899828D01*
X148703411Y-97949111D01*
X149903411Y-97949111D01*
X150151176Y-97899828D01*
X150361220Y-97759480D01*
X150501568Y-97549436D01*
X150550851Y-97301671D01*
X150550851Y-96080035D01*
X153244411Y-96080035D01*
X153244411Y-96823306D01*
X153316067Y-97183543D01*
X153589026Y-97592056D01*
X153997538Y-97865015D01*
X154479411Y-97960866D01*
X154961283Y-97865015D01*
X155369796Y-97592056D01*
X155479411Y-97428005D01*
X155589026Y-97592056D01*
X155997538Y-97865015D01*
X156479411Y-97960866D01*
X156961283Y-97865015D01*
X157369796Y-97592056D01*
X157479411Y-97428005D01*
X157589026Y-97592056D01*
X157997538Y-97865015D01*
X158479411Y-97960866D01*
X158961283Y-97865015D01*
X159328271Y-97619802D01*
X159421602Y-97759480D01*
X159631646Y-97899828D01*
X159879411Y-97949111D01*
X161079411Y-97949111D01*
X161327176Y-97899828D01*
X161537220Y-97759480D01*
X161677568Y-97549436D01*
X161726851Y-97301671D01*
X161726851Y-95601671D01*
X161677568Y-95353906D01*
X161537220Y-95143862D01*
X161327176Y-95003514D01*
X161079411Y-94954231D01*
X159879411Y-94954231D01*
X159631646Y-95003514D01*
X159421602Y-95143862D01*
X159328271Y-95283540D01*
X158961284Y-95038327D01*
X158479411Y-94942476D01*
X157997539Y-95038327D01*
X157589027Y-95311286D01*
X157479411Y-95475337D01*
X157369796Y-95311286D01*
X156961284Y-95038327D01*
X156479411Y-94942476D01*
X155997539Y-95038327D01*
X155589027Y-95311286D01*
X155479411Y-95475337D01*
X155369796Y-95311286D01*
X154961284Y-95038327D01*
X154479411Y-94942476D01*
X153997539Y-95038327D01*
X153589027Y-95311286D01*
X153316067Y-95719798D01*
X153244411Y-96080035D01*
X150550851Y-96080035D01*
X150550851Y-95601671D01*
X150501568Y-95353906D01*
X150361220Y-95143862D01*
X150151176Y-95003514D01*
X149903411Y-94954231D01*
X148703411Y-94954231D01*
X148455646Y-95003514D01*
X148245602Y-95143862D01*
X148152271Y-95283540D01*
X147785284Y-95038327D01*
X147303411Y-94942476D01*
X146821539Y-95038327D01*
X146413027Y-95311286D01*
X146303411Y-95475337D01*
X146193796Y-95311286D01*
X145785284Y-95038327D01*
X145303411Y-94942476D01*
X144821539Y-95038327D01*
X144413027Y-95311286D01*
X144303411Y-95475337D01*
X144193796Y-95311286D01*
X143785284Y-95038327D01*
X143303411Y-94942476D01*
X142821539Y-95038327D01*
X142413027Y-95311286D01*
X142140067Y-95719798D01*
X142068411Y-96080035D01*
X139374851Y-96080035D01*
X139374851Y-95601671D01*
X139325568Y-95353906D01*
X139185220Y-95143862D01*
X138975176Y-95003514D01*
X138727411Y-94954231D01*
X137527411Y-94954231D01*
X137279646Y-95003514D01*
X137069602Y-95143862D01*
X136976271Y-95283540D01*
X136609284Y-95038327D01*
X136127411Y-94942476D01*
X135645539Y-95038327D01*
X135237027Y-95311286D01*
X135127411Y-95475337D01*
X135017796Y-95311286D01*
X134609284Y-95038327D01*
X134127411Y-94942476D01*
X133645539Y-95038327D01*
X133237027Y-95311286D01*
X133127411Y-95475337D01*
X133017796Y-95311286D01*
X132609284Y-95038327D01*
X132127411Y-94942476D01*
X131645539Y-95038327D01*
X131237027Y-95311286D01*
X130964067Y-95719798D01*
X130892411Y-96080035D01*
X128198851Y-96080035D01*
X128198851Y-95601671D01*
X128149568Y-95353906D01*
X128009220Y-95143862D01*
X127799176Y-95003514D01*
X127551411Y-94954231D01*
X126351411Y-94954231D01*
X126103646Y-95003514D01*
X125893602Y-95143862D01*
X125800271Y-95283540D01*
X125433284Y-95038327D01*
X124951411Y-94942476D01*
X124469539Y-95038327D01*
X124061027Y-95311286D01*
X123951411Y-95475337D01*
X123841796Y-95311286D01*
X123433284Y-95038327D01*
X122951411Y-94942476D01*
X122469539Y-95038327D01*
X122061027Y-95311286D01*
X121951411Y-95475337D01*
X121841796Y-95311286D01*
X121433284Y-95038327D01*
X120951411Y-94942476D01*
X120469539Y-95038327D01*
X120061027Y-95311286D01*
X119788067Y-95719798D01*
X119716411Y-96080035D01*
X117022851Y-96080035D01*
X117022851Y-95601671D01*
X116973568Y-95353906D01*
X116833220Y-95143862D01*
X116623176Y-95003514D01*
X116375411Y-94954231D01*
X115175411Y-94954231D01*
X114927646Y-95003514D01*
X114717602Y-95143862D01*
X114624271Y-95283540D01*
X114257284Y-95038327D01*
X113775411Y-94942476D01*
X113293539Y-95038327D01*
X112885027Y-95311286D01*
X112775411Y-95475337D01*
X112665796Y-95311286D01*
X112257284Y-95038327D01*
X111775411Y-94942476D01*
X111293539Y-95038327D01*
X110885027Y-95311286D01*
X110775411Y-95475337D01*
X110665796Y-95311286D01*
X110257284Y-95038327D01*
X109775411Y-94942476D01*
X109293539Y-95038327D01*
X108885027Y-95311286D01*
X108612067Y-95719798D01*
X108540411Y-96080035D01*
X105846851Y-96080035D01*
X105846851Y-95601671D01*
X105797568Y-95353906D01*
X105657220Y-95143862D01*
X105447176Y-95003514D01*
X105199411Y-94954231D01*
X103999411Y-94954231D01*
X103751646Y-95003514D01*
X103541602Y-95143862D01*
X103448271Y-95283540D01*
X103081284Y-95038327D01*
X102599411Y-94942476D01*
X102117539Y-95038327D01*
X101709027Y-95311286D01*
X101599411Y-95475337D01*
X101489796Y-95311286D01*
X101081284Y-95038327D01*
X100599411Y-94942476D01*
X100117539Y-95038327D01*
X99709027Y-95311286D01*
X99599411Y-95475337D01*
X99489796Y-95311286D01*
X99081284Y-95038327D01*
X98599411Y-94942476D01*
X98117539Y-95038327D01*
X97709027Y-95311286D01*
X97436067Y-95719798D01*
X97364411Y-96080035D01*
X70744000Y-96080035D01*
X70744000Y-91524000D01*
X77471041Y-91524000D01*
X77587350Y-92108725D01*
X77918570Y-92604430D01*
X78202281Y-92794000D01*
X77918570Y-92983570D01*
X77587350Y-93479275D01*
X77471041Y-94064000D01*
X77587350Y-94648725D01*
X77918570Y-95144430D01*
X78414275Y-95475650D01*
X78851402Y-95562600D01*
X79146598Y-95562600D01*
X79583725Y-95475650D01*
X80079430Y-95144430D01*
X80280854Y-94842979D01*
X80332179Y-94952490D01*
X80764053Y-95346688D01*
X81179974Y-95518958D01*
X81412000Y-95397817D01*
X81412000Y-94191000D01*
X81666000Y-94191000D01*
X81666000Y-95397817D01*
X81898026Y-95518958D01*
X82313947Y-95346688D01*
X82745821Y-94952490D01*
X82993968Y-94423027D01*
X82873469Y-94191000D01*
X81666000Y-94191000D01*
X81412000Y-94191000D01*
X81392000Y-94191000D01*
X81392000Y-93937000D01*
X81412000Y-93937000D01*
X81412000Y-93917000D01*
X81666000Y-93917000D01*
X81666000Y-93937000D01*
X82873469Y-93937000D01*
X82993968Y-93704973D01*
X82745821Y-93175510D01*
X82331174Y-92797037D01*
X82619430Y-92604430D01*
X82950650Y-92108725D01*
X83066959Y-91524000D01*
X82950650Y-90939275D01*
X82619430Y-90443570D01*
X82335719Y-90254000D01*
X82619430Y-90064430D01*
X82950650Y-89568725D01*
X83066959Y-88984000D01*
X82950650Y-88399275D01*
X82619430Y-87903570D01*
X82123725Y-87572350D01*
X81686598Y-87485400D01*
X81391402Y-87485400D01*
X80954275Y-87572350D01*
X80465932Y-87898651D01*
X80460757Y-87872635D01*
X80320409Y-87662591D01*
X80110365Y-87522243D01*
X79862600Y-87472960D01*
X78135400Y-87472960D01*
X77887635Y-87522243D01*
X77677591Y-87662591D01*
X77537243Y-87872635D01*
X77487960Y-88120400D01*
X77487960Y-89847600D01*
X77537243Y-90095365D01*
X77677591Y-90305409D01*
X77887635Y-90445757D01*
X77913651Y-90450932D01*
X77587350Y-90939275D01*
X77471041Y-91524000D01*
X70744000Y-91524000D01*
X70744000Y-76928364D01*
X71954000Y-76928364D01*
X71954000Y-77671635D01*
X72025656Y-78031872D01*
X72298615Y-78440385D01*
X72707127Y-78713344D01*
X73189000Y-78809195D01*
X73670872Y-78713344D01*
X74037860Y-78468131D01*
X74131191Y-78607809D01*
X74341235Y-78748157D01*
X74589000Y-78797440D01*
X75789000Y-78797440D01*
X76036765Y-78748157D01*
X76246809Y-78607809D01*
X76387157Y-78397765D01*
X76436440Y-78150000D01*
X76436440Y-76450000D01*
X76387157Y-76202235D01*
X76246809Y-75992191D01*
X76036765Y-75851843D01*
X75789000Y-75802560D01*
X74589000Y-75802560D01*
X74341235Y-75851843D01*
X74131191Y-75992191D01*
X74037860Y-76131869D01*
X73670873Y-75886656D01*
X73189000Y-75790805D01*
X72707128Y-75886656D01*
X72298616Y-76159615D01*
X72025656Y-76568127D01*
X71954000Y-76928364D01*
X70744000Y-76928364D01*
X70744000Y-68830000D01*
X71941560Y-68830000D01*
X71941560Y-70530000D01*
X71990843Y-70777765D01*
X72131191Y-70987809D01*
X72341235Y-71128157D01*
X72589000Y-71177440D01*
X73789000Y-71177440D01*
X74036765Y-71128157D01*
X74246809Y-70987809D01*
X74340140Y-70848130D01*
X74707128Y-71093344D01*
X75189000Y-71189195D01*
X75670873Y-71093344D01*
X76079385Y-70820385D01*
X76352344Y-70411872D01*
X76408607Y-70129017D01*
X87970000Y-70129017D01*
X87970000Y-70500983D01*
X88112345Y-70844635D01*
X88375365Y-71107655D01*
X88719017Y-71250000D01*
X89090983Y-71250000D01*
X89345371Y-71144629D01*
X89240000Y-71399017D01*
X89240000Y-71770983D01*
X89382345Y-72114635D01*
X89645365Y-72377655D01*
X89944383Y-72501512D01*
X89875000Y-72669017D01*
X89875000Y-73040983D01*
X90017345Y-73384635D01*
X90280365Y-73647655D01*
X90624017Y-73790000D01*
X90995983Y-73790000D01*
X91339635Y-73647655D01*
X91602655Y-73384635D01*
X91745000Y-73040983D01*
X91745000Y-72925788D01*
X92399589Y-72271200D01*
X98453910Y-72271200D01*
X98535365Y-72352655D01*
X98879017Y-72495000D01*
X99250983Y-72495000D01*
X99400000Y-72433275D01*
X99400000Y-72545983D01*
X99542345Y-72889635D01*
X99805365Y-73152655D01*
X100149017Y-73295000D01*
X100520983Y-73295000D01*
X100864635Y-73152655D01*
X101127655Y-72889635D01*
X101270000Y-72545983D01*
X101270000Y-72174017D01*
X101127655Y-71830365D01*
X101097000Y-71799710D01*
X101097000Y-71189630D01*
X104010000Y-74102631D01*
X104010000Y-74145983D01*
X104152345Y-74489635D01*
X104415365Y-74752655D01*
X104759017Y-74895000D01*
X105130983Y-74895000D01*
X105474635Y-74752655D01*
X105737655Y-74489635D01*
X105880000Y-74145983D01*
X105880000Y-74095000D01*
X106235983Y-74095000D01*
X106579635Y-73952655D01*
X106842655Y-73689635D01*
X106985000Y-73345983D01*
X106985000Y-72974017D01*
X106842655Y-72630365D01*
X106812000Y-72599710D01*
X106812000Y-71660042D01*
X106826927Y-71584999D01*
X106812000Y-71509956D01*
X106812000Y-71509952D01*
X106767788Y-71287683D01*
X106740817Y-71247317D01*
X106641882Y-71099251D01*
X106599371Y-71035629D01*
X106535749Y-70993118D01*
X105798648Y-70256017D01*
X123530000Y-70256017D01*
X123530000Y-70627983D01*
X123672345Y-70971635D01*
X123753803Y-71053093D01*
X123753802Y-76942912D01*
X123672347Y-77024367D01*
X123530002Y-77368019D01*
X123530002Y-77739985D01*
X123672347Y-78083637D01*
X123935367Y-78346657D01*
X124279019Y-78489002D01*
X124650985Y-78489002D01*
X124994637Y-78346657D01*
X125257657Y-78083637D01*
X125400002Y-77739985D01*
X125400002Y-77622013D01*
X125816000Y-77622013D01*
X125816000Y-77993979D01*
X125958345Y-78337631D01*
X126221365Y-78600651D01*
X126565017Y-78742996D01*
X126936983Y-78742996D01*
X127280635Y-78600651D01*
X127543655Y-78337631D01*
X127686000Y-77993979D01*
X127686000Y-77622013D01*
X127543655Y-77278361D01*
X127475825Y-77210531D01*
X127475825Y-70096292D01*
X127557280Y-70014837D01*
X127606469Y-69896085D01*
X127736345Y-70209635D01*
X127817800Y-70291090D01*
X127817801Y-78212909D01*
X127736345Y-78294365D01*
X127594000Y-78638017D01*
X127594000Y-79009983D01*
X127736345Y-79353635D01*
X127999365Y-79616655D01*
X128343017Y-79759000D01*
X128714983Y-79759000D01*
X129058635Y-79616655D01*
X129321655Y-79353635D01*
X129464000Y-79009983D01*
X129464000Y-78638017D01*
X129321655Y-78294365D01*
X129240200Y-78212910D01*
X129240200Y-77808000D01*
X157499805Y-77808000D01*
X157595656Y-78289873D01*
X157868615Y-78698385D01*
X158032665Y-78808000D01*
X157868615Y-78917615D01*
X157595656Y-79326127D01*
X157499805Y-79808000D01*
X157595656Y-80289873D01*
X157868615Y-80698385D01*
X158032665Y-80808000D01*
X157868615Y-80917615D01*
X157595656Y-81326127D01*
X157499805Y-81808000D01*
X157595656Y-82289873D01*
X157840869Y-82656860D01*
X157701191Y-82750191D01*
X157560843Y-82960235D01*
X157511560Y-83208000D01*
X157511560Y-84408000D01*
X157560843Y-84655765D01*
X157701191Y-84865809D01*
X157911235Y-85006157D01*
X158159000Y-85055440D01*
X159859000Y-85055440D01*
X160106765Y-85006157D01*
X160316809Y-84865809D01*
X160457157Y-84655765D01*
X160506440Y-84408000D01*
X160506440Y-83208000D01*
X160457157Y-82960235D01*
X160316809Y-82750191D01*
X160177131Y-82656860D01*
X160422344Y-82289873D01*
X160518195Y-81808000D01*
X160422344Y-81326127D01*
X160149385Y-80917615D01*
X159985335Y-80808000D01*
X160149385Y-80698385D01*
X160422344Y-80289873D01*
X160505464Y-79872000D01*
X164865805Y-79872000D01*
X164961656Y-80353873D01*
X165234615Y-80762385D01*
X165398665Y-80872000D01*
X165234615Y-80981615D01*
X164961656Y-81390127D01*
X164865805Y-81872000D01*
X164961656Y-82353873D01*
X165234615Y-82762385D01*
X165398665Y-82872000D01*
X165234615Y-82981615D01*
X164961656Y-83390127D01*
X164865805Y-83872000D01*
X164961656Y-84353873D01*
X165234615Y-84762385D01*
X165643127Y-85035344D01*
X166003364Y-85107000D01*
X166746636Y-85107000D01*
X167106873Y-85035344D01*
X167515385Y-84762385D01*
X167788344Y-84353873D01*
X167884195Y-83872000D01*
X167788344Y-83390127D01*
X167515385Y-82981615D01*
X167351335Y-82872000D01*
X167515385Y-82762385D01*
X167788344Y-82353873D01*
X167884195Y-81872000D01*
X167788344Y-81390127D01*
X167515385Y-80981615D01*
X167351335Y-80872000D01*
X167515385Y-80762385D01*
X167788344Y-80353873D01*
X167884195Y-79872000D01*
X167788344Y-79390127D01*
X167543131Y-79023140D01*
X167682809Y-78929809D01*
X167823157Y-78719765D01*
X167872440Y-78472000D01*
X167872440Y-77272000D01*
X167823157Y-77024235D01*
X167682809Y-76814191D01*
X167472765Y-76673843D01*
X167225000Y-76624560D01*
X165525000Y-76624560D01*
X165277235Y-76673843D01*
X165067191Y-76814191D01*
X164926843Y-77024235D01*
X164877560Y-77272000D01*
X164877560Y-78472000D01*
X164926843Y-78719765D01*
X165067191Y-78929809D01*
X165206869Y-79023140D01*
X164961656Y-79390127D01*
X164865805Y-79872000D01*
X160505464Y-79872000D01*
X160518195Y-79808000D01*
X160422344Y-79326127D01*
X160149385Y-78917615D01*
X159985335Y-78808000D01*
X160149385Y-78698385D01*
X160422344Y-78289873D01*
X160518195Y-77808000D01*
X160422344Y-77326127D01*
X160149385Y-76917615D01*
X159740873Y-76644656D01*
X159380636Y-76573000D01*
X158637364Y-76573000D01*
X158277127Y-76644656D01*
X157868615Y-76917615D01*
X157595656Y-77326127D01*
X157499805Y-77808000D01*
X129240200Y-77808000D01*
X129240200Y-71526017D01*
X129371994Y-71526017D01*
X129371994Y-71897983D01*
X129514339Y-72241635D01*
X129595795Y-72323091D01*
X129595794Y-73386910D01*
X129514339Y-73468365D01*
X129371994Y-73812017D01*
X129371994Y-74183983D01*
X129514339Y-74527635D01*
X129777359Y-74790655D01*
X130121011Y-74933000D01*
X130492977Y-74933000D01*
X130836629Y-74790655D01*
X131099649Y-74527635D01*
X131241994Y-74183983D01*
X131241994Y-73812017D01*
X131099649Y-73468365D01*
X131018194Y-73386910D01*
X131018194Y-72323090D01*
X131099649Y-72241635D01*
X131241994Y-71897983D01*
X131241994Y-71526017D01*
X131099649Y-71182365D01*
X130836629Y-70919345D01*
X130492977Y-70777000D01*
X130121011Y-70777000D01*
X129777359Y-70919345D01*
X129514339Y-71182365D01*
X129371994Y-71526017D01*
X129240200Y-71526017D01*
X129240200Y-70291090D01*
X129321655Y-70209635D01*
X129464000Y-69865983D01*
X129464000Y-69494017D01*
X129321655Y-69150365D01*
X129058635Y-68887345D01*
X128714983Y-68745000D01*
X128343017Y-68745000D01*
X127999365Y-68887345D01*
X127736345Y-69150365D01*
X127687156Y-69269117D01*
X127557280Y-68955567D01*
X127294260Y-68692547D01*
X126950608Y-68550202D01*
X126578642Y-68550202D01*
X126234990Y-68692547D01*
X125971970Y-68955567D01*
X125829625Y-69299219D01*
X125829625Y-69671185D01*
X125971970Y-70014837D01*
X126053425Y-70096292D01*
X126053426Y-77183280D01*
X125958345Y-77278361D01*
X125816000Y-77622013D01*
X125400002Y-77622013D01*
X125400002Y-77368019D01*
X125257657Y-77024367D01*
X125176202Y-76942912D01*
X125176202Y-71053088D01*
X125257655Y-70971635D01*
X125400000Y-70627983D01*
X125400000Y-70256017D01*
X125257655Y-69912365D01*
X124994635Y-69649345D01*
X124650983Y-69507000D01*
X124279017Y-69507000D01*
X123935365Y-69649345D01*
X123672345Y-69912365D01*
X123530000Y-70256017D01*
X105798648Y-70256017D01*
X100464652Y-64922021D01*
X120736000Y-64922021D01*
X120736000Y-65293987D01*
X120878345Y-65637639D01*
X121141365Y-65900659D01*
X121485017Y-66043004D01*
X121856983Y-66043004D01*
X122200635Y-65900659D01*
X122282090Y-65819204D01*
X143728422Y-65819204D01*
X150454000Y-72544783D01*
X150454000Y-72659977D01*
X150596345Y-73003629D01*
X150859365Y-73266649D01*
X151203017Y-73408994D01*
X151574983Y-73408994D01*
X151918635Y-73266649D01*
X152181655Y-73003629D01*
X152324000Y-72659977D01*
X152324000Y-72288011D01*
X152181655Y-71944359D01*
X151918635Y-71681339D01*
X151574983Y-71538994D01*
X151459789Y-71538994D01*
X146552795Y-66632000D01*
X157499805Y-66632000D01*
X157595656Y-67113873D01*
X157868615Y-67522385D01*
X158032665Y-67632000D01*
X157868615Y-67741615D01*
X157595656Y-68150127D01*
X157499805Y-68632000D01*
X157595656Y-69113873D01*
X157868615Y-69522385D01*
X158032665Y-69632000D01*
X157868615Y-69741615D01*
X157595656Y-70150127D01*
X157499805Y-70632000D01*
X157595656Y-71113873D01*
X157840869Y-71480860D01*
X157701191Y-71574191D01*
X157560843Y-71784235D01*
X157511560Y-72032000D01*
X157511560Y-73232000D01*
X157560843Y-73479765D01*
X157701191Y-73689809D01*
X157911235Y-73830157D01*
X158159000Y-73879440D01*
X159859000Y-73879440D01*
X160106765Y-73830157D01*
X160316809Y-73689809D01*
X160457157Y-73479765D01*
X160506440Y-73232000D01*
X160506440Y-72032000D01*
X160457157Y-71784235D01*
X160316809Y-71574191D01*
X160177131Y-71480860D01*
X160422344Y-71113873D01*
X160518195Y-70632000D01*
X160422344Y-70150127D01*
X160149385Y-69741615D01*
X159985335Y-69632000D01*
X160149385Y-69522385D01*
X160422344Y-69113873D01*
X160505464Y-68696000D01*
X164865805Y-68696000D01*
X164961656Y-69177873D01*
X165234615Y-69586385D01*
X165398665Y-69696000D01*
X165234615Y-69805615D01*
X164961656Y-70214127D01*
X164865805Y-70696000D01*
X164961656Y-71177873D01*
X165234615Y-71586385D01*
X165398665Y-71696000D01*
X165234615Y-71805615D01*
X164961656Y-72214127D01*
X164865805Y-72696000D01*
X164961656Y-73177873D01*
X165234615Y-73586385D01*
X165643127Y-73859344D01*
X166003364Y-73931000D01*
X166746636Y-73931000D01*
X167106873Y-73859344D01*
X167515385Y-73586385D01*
X167788344Y-73177873D01*
X167884195Y-72696000D01*
X167788344Y-72214127D01*
X167515385Y-71805615D01*
X167351335Y-71696000D01*
X167515385Y-71586385D01*
X167788344Y-71177873D01*
X167884195Y-70696000D01*
X167788344Y-70214127D01*
X167515385Y-69805615D01*
X167351335Y-69696000D01*
X167515385Y-69586385D01*
X167788344Y-69177873D01*
X167884195Y-68696000D01*
X167788344Y-68214127D01*
X167543131Y-67847140D01*
X167682809Y-67753809D01*
X167823157Y-67543765D01*
X167872440Y-67296000D01*
X167872440Y-66096000D01*
X167823157Y-65848235D01*
X167682809Y-65638191D01*
X167472765Y-65497843D01*
X167225000Y-65448560D01*
X165525000Y-65448560D01*
X165277235Y-65497843D01*
X165067191Y-65638191D01*
X164926843Y-65848235D01*
X164877560Y-66096000D01*
X164877560Y-67296000D01*
X164926843Y-67543765D01*
X165067191Y-67753809D01*
X165206869Y-67847140D01*
X164961656Y-68214127D01*
X164865805Y-68696000D01*
X160505464Y-68696000D01*
X160518195Y-68632000D01*
X160422344Y-68150127D01*
X160149385Y-67741615D01*
X159985335Y-67632000D01*
X160149385Y-67522385D01*
X160422344Y-67113873D01*
X160518195Y-66632000D01*
X160422344Y-66150127D01*
X160149385Y-65741615D01*
X159740873Y-65468656D01*
X159380636Y-65397000D01*
X158637364Y-65397000D01*
X158277127Y-65468656D01*
X157868615Y-65741615D01*
X157595656Y-66150127D01*
X157499805Y-66632000D01*
X146552795Y-66632000D01*
X144575434Y-64654640D01*
X144535756Y-64595258D01*
X144300506Y-64438068D01*
X144093056Y-64396804D01*
X144093051Y-64396804D01*
X144023010Y-64382872D01*
X143952969Y-64396804D01*
X122282090Y-64396804D01*
X122200635Y-64315349D01*
X121856983Y-64173004D01*
X121485017Y-64173004D01*
X121141365Y-64315349D01*
X120878345Y-64578369D01*
X120736000Y-64922021D01*
X100464652Y-64922021D01*
X97116883Y-61574253D01*
X97074371Y-61510629D01*
X96822317Y-61342212D01*
X96600048Y-61298000D01*
X96600043Y-61298000D01*
X96525000Y-61283073D01*
X96449957Y-61298000D01*
X95815290Y-61298000D01*
X95784635Y-61267345D01*
X95440983Y-61125000D01*
X95069017Y-61125000D01*
X94725365Y-61267345D01*
X94462345Y-61530365D01*
X94320000Y-61874017D01*
X94320000Y-62245983D01*
X94462345Y-62589635D01*
X94725365Y-62852655D01*
X95069017Y-62995000D01*
X95440983Y-62995000D01*
X95784635Y-62852655D01*
X95815290Y-62822000D01*
X96209370Y-62822000D01*
X105288001Y-71900632D01*
X105288000Y-72599710D01*
X105257345Y-72630365D01*
X105115000Y-72974017D01*
X105115000Y-73025000D01*
X105087631Y-73025000D01*
X101891883Y-69829253D01*
X101849371Y-69765629D01*
X101597317Y-69597212D01*
X101375048Y-69553000D01*
X101375043Y-69553000D01*
X101300000Y-69538073D01*
X101224957Y-69553000D01*
X89465290Y-69553000D01*
X89434635Y-69522345D01*
X89090983Y-69380000D01*
X88719017Y-69380000D01*
X88375365Y-69522345D01*
X88112345Y-69785365D01*
X87970000Y-70129017D01*
X76408607Y-70129017D01*
X76424000Y-70051635D01*
X76424000Y-69308364D01*
X76352344Y-68948127D01*
X76079385Y-68539615D01*
X75670872Y-68266656D01*
X75189000Y-68170805D01*
X74707127Y-68266656D01*
X74340140Y-68511869D01*
X74246809Y-68372191D01*
X74036765Y-68231843D01*
X73789000Y-68182560D01*
X72589000Y-68182560D01*
X72341235Y-68231843D01*
X72131191Y-68372191D01*
X71990843Y-68582235D01*
X71941560Y-68830000D01*
X70744000Y-68830000D01*
X70744000Y-63772710D01*
X72291252Y-63772710D01*
X72324901Y-63909662D01*
X72646794Y-64480601D01*
X73162673Y-64884897D01*
X73794000Y-65061000D01*
X74554000Y-65061000D01*
X74554000Y-63513000D01*
X74808000Y-63513000D01*
X74808000Y-65061000D01*
X75568000Y-65061000D01*
X76199327Y-64884897D01*
X76715206Y-64480601D01*
X77037099Y-63909662D01*
X77070748Y-63772710D01*
X76951922Y-63513000D01*
X74808000Y-63513000D01*
X74554000Y-63513000D01*
X72410078Y-63513000D01*
X72291252Y-63772710D01*
X70744000Y-63772710D01*
X70744000Y-62999290D01*
X72291252Y-62999290D01*
X72410078Y-63259000D01*
X74554000Y-63259000D01*
X74554000Y-61711000D01*
X74808000Y-61711000D01*
X74808000Y-63259000D01*
X76951922Y-63259000D01*
X77070748Y-62999290D01*
X77037099Y-62862338D01*
X76715206Y-62291399D01*
X76199327Y-61887103D01*
X75568000Y-61711000D01*
X74808000Y-61711000D01*
X74554000Y-61711000D01*
X73794000Y-61711000D01*
X73162673Y-61887103D01*
X72646794Y-62291399D01*
X72324901Y-62862338D01*
X72291252Y-62999290D01*
X70744000Y-62999290D01*
X70744000Y-57266000D01*
X72233560Y-57266000D01*
X72233560Y-59346000D01*
X72282843Y-59593765D01*
X72423191Y-59803809D01*
X72633235Y-59944157D01*
X72881000Y-59993440D01*
X76481000Y-59993440D01*
X76728765Y-59944157D01*
X76938809Y-59803809D01*
X77079157Y-59593765D01*
X77128440Y-59346000D01*
X77128440Y-57266000D01*
X77079157Y-57018235D01*
X76938809Y-56808191D01*
X76728765Y-56667843D01*
X76481000Y-56618560D01*
X72881000Y-56618560D01*
X72633235Y-56667843D01*
X72423191Y-56808191D01*
X72282843Y-57018235D01*
X72233560Y-57266000D01*
X70744000Y-57266000D01*
X70744000Y-52878800D01*
X97309560Y-52878800D01*
X97309560Y-54578800D01*
X97358843Y-54826565D01*
X97499191Y-55036609D01*
X97709235Y-55176957D01*
X97957000Y-55226240D01*
X99157000Y-55226240D01*
X99404765Y-55176957D01*
X99614809Y-55036609D01*
X99708140Y-54896930D01*
X100075128Y-55142144D01*
X100557000Y-55237995D01*
X101038873Y-55142144D01*
X101447385Y-54869185D01*
X101557000Y-54705134D01*
X101666616Y-54869185D01*
X102075128Y-55142144D01*
X102557000Y-55237995D01*
X103038873Y-55142144D01*
X103447385Y-54869185D01*
X103557000Y-54705134D01*
X103666616Y-54869185D01*
X104075128Y-55142144D01*
X104557000Y-55237995D01*
X105038873Y-55142144D01*
X105447385Y-54869185D01*
X105720344Y-54460672D01*
X105792000Y-54100435D01*
X105792000Y-53357164D01*
X105720344Y-52996927D01*
X105641415Y-52878800D01*
X108485560Y-52878800D01*
X108485560Y-54578800D01*
X108534843Y-54826565D01*
X108675191Y-55036609D01*
X108885235Y-55176957D01*
X109133000Y-55226240D01*
X110333000Y-55226240D01*
X110580765Y-55176957D01*
X110790809Y-55036609D01*
X110884140Y-54896930D01*
X111251128Y-55142144D01*
X111733000Y-55237995D01*
X112214873Y-55142144D01*
X112623385Y-54869185D01*
X112733000Y-54705134D01*
X112842616Y-54869185D01*
X113251128Y-55142144D01*
X113733000Y-55237995D01*
X114214873Y-55142144D01*
X114623385Y-54869185D01*
X114733000Y-54705134D01*
X114842616Y-54869185D01*
X115251128Y-55142144D01*
X115733000Y-55237995D01*
X116214873Y-55142144D01*
X116623385Y-54869185D01*
X116896344Y-54460672D01*
X116968000Y-54100435D01*
X116968000Y-53357164D01*
X116896344Y-52996927D01*
X116817415Y-52878800D01*
X119661560Y-52878800D01*
X119661560Y-54578800D01*
X119710843Y-54826565D01*
X119851191Y-55036609D01*
X120061235Y-55176957D01*
X120309000Y-55226240D01*
X121509000Y-55226240D01*
X121756765Y-55176957D01*
X121966809Y-55036609D01*
X122060140Y-54896930D01*
X122427128Y-55142144D01*
X122909000Y-55237995D01*
X123390873Y-55142144D01*
X123799385Y-54869185D01*
X123909000Y-54705134D01*
X124018616Y-54869185D01*
X124427128Y-55142144D01*
X124909000Y-55237995D01*
X125390873Y-55142144D01*
X125799385Y-54869185D01*
X125909000Y-54705134D01*
X126018616Y-54869185D01*
X126427128Y-55142144D01*
X126909000Y-55237995D01*
X127390873Y-55142144D01*
X127799385Y-54869185D01*
X128072344Y-54460672D01*
X128144000Y-54100435D01*
X128144000Y-53357164D01*
X128072344Y-52996927D01*
X127993415Y-52878800D01*
X130837560Y-52878800D01*
X130837560Y-54578800D01*
X130886843Y-54826565D01*
X131027191Y-55036609D01*
X131237235Y-55176957D01*
X131485000Y-55226240D01*
X132685000Y-55226240D01*
X132932765Y-55176957D01*
X133142809Y-55036609D01*
X133236140Y-54896930D01*
X133603128Y-55142144D01*
X134085000Y-55237995D01*
X134566873Y-55142144D01*
X134975385Y-54869185D01*
X135085000Y-54705134D01*
X135194616Y-54869185D01*
X135603128Y-55142144D01*
X136085000Y-55237995D01*
X136566873Y-55142144D01*
X136975385Y-54869185D01*
X137085000Y-54705134D01*
X137194616Y-54869185D01*
X137603128Y-55142144D01*
X138085000Y-55237995D01*
X138566873Y-55142144D01*
X138975385Y-54869185D01*
X139248344Y-54460672D01*
X139320000Y-54100435D01*
X139320000Y-53357164D01*
X139248344Y-52996927D01*
X139169415Y-52878800D01*
X142013560Y-52878800D01*
X142013560Y-54578800D01*
X142062843Y-54826565D01*
X142203191Y-55036609D01*
X142413235Y-55176957D01*
X142661000Y-55226240D01*
X143861000Y-55226240D01*
X144108765Y-55176957D01*
X144318809Y-55036609D01*
X144412140Y-54896930D01*
X144779128Y-55142144D01*
X145261000Y-55237995D01*
X145742873Y-55142144D01*
X146151385Y-54869185D01*
X146261000Y-54705134D01*
X146370616Y-54869185D01*
X146779128Y-55142144D01*
X147261000Y-55237995D01*
X147742873Y-55142144D01*
X148151385Y-54869185D01*
X148261000Y-54705134D01*
X148370616Y-54869185D01*
X148779128Y-55142144D01*
X149261000Y-55237995D01*
X149742873Y-55142144D01*
X150151385Y-54869185D01*
X150424344Y-54460672D01*
X150496000Y-54100435D01*
X150496000Y-53357164D01*
X150424344Y-52996927D01*
X150345415Y-52878800D01*
X153189560Y-52878800D01*
X153189560Y-54578800D01*
X153238843Y-54826565D01*
X153379191Y-55036609D01*
X153589235Y-55176957D01*
X153837000Y-55226240D01*
X155037000Y-55226240D01*
X155284765Y-55176957D01*
X155494809Y-55036609D01*
X155588140Y-54896930D01*
X155955128Y-55142144D01*
X156437000Y-55237995D01*
X156918873Y-55142144D01*
X157327385Y-54869185D01*
X157437000Y-54705134D01*
X157546616Y-54869185D01*
X157955128Y-55142144D01*
X158437000Y-55237995D01*
X158918873Y-55142144D01*
X159327385Y-54869185D01*
X159437000Y-54705134D01*
X159546616Y-54869185D01*
X159955128Y-55142144D01*
X160437000Y-55237995D01*
X160918873Y-55142144D01*
X161327385Y-54869185D01*
X161600344Y-54460672D01*
X161672000Y-54100435D01*
X161672000Y-53357164D01*
X161600344Y-52996927D01*
X161327385Y-52588415D01*
X160918872Y-52315456D01*
X160437000Y-52219605D01*
X159955127Y-52315456D01*
X159546615Y-52588415D01*
X159437000Y-52752466D01*
X159327385Y-52588415D01*
X158918872Y-52315456D01*
X158437000Y-52219605D01*
X157955127Y-52315456D01*
X157546615Y-52588415D01*
X157437000Y-52752466D01*
X157327385Y-52588415D01*
X156918872Y-52315456D01*
X156437000Y-52219605D01*
X155955127Y-52315456D01*
X155588140Y-52560669D01*
X155494809Y-52420991D01*
X155284765Y-52280643D01*
X155037000Y-52231360D01*
X153837000Y-52231360D01*
X153589235Y-52280643D01*
X153379191Y-52420991D01*
X153238843Y-52631035D01*
X153189560Y-52878800D01*
X150345415Y-52878800D01*
X150151385Y-52588415D01*
X149742872Y-52315456D01*
X149261000Y-52219605D01*
X148779127Y-52315456D01*
X148370615Y-52588415D01*
X148261000Y-52752466D01*
X148151385Y-52588415D01*
X147742872Y-52315456D01*
X147261000Y-52219605D01*
X146779127Y-52315456D01*
X146370615Y-52588415D01*
X146261000Y-52752466D01*
X146151385Y-52588415D01*
X145742872Y-52315456D01*
X145261000Y-52219605D01*
X144779127Y-52315456D01*
X144412140Y-52560669D01*
X144318809Y-52420991D01*
X144108765Y-52280643D01*
X143861000Y-52231360D01*
X142661000Y-52231360D01*
X142413235Y-52280643D01*
X142203191Y-52420991D01*
X142062843Y-52631035D01*
X142013560Y-52878800D01*
X139169415Y-52878800D01*
X138975385Y-52588415D01*
X138566872Y-52315456D01*
X138085000Y-52219605D01*
X137603127Y-52315456D01*
X137194615Y-52588415D01*
X137085000Y-52752466D01*
X136975385Y-52588415D01*
X136566872Y-52315456D01*
X136085000Y-52219605D01*
X135603127Y-52315456D01*
X135194615Y-52588415D01*
X135085000Y-52752466D01*
X134975385Y-52588415D01*
X134566872Y-52315456D01*
X134085000Y-52219605D01*
X133603127Y-52315456D01*
X133236140Y-52560669D01*
X133142809Y-52420991D01*
X132932765Y-52280643D01*
X132685000Y-52231360D01*
X131485000Y-52231360D01*
X131237235Y-52280643D01*
X131027191Y-52420991D01*
X130886843Y-52631035D01*
X130837560Y-52878800D01*
X127993415Y-52878800D01*
X127799385Y-52588415D01*
X127390872Y-52315456D01*
X126909000Y-52219605D01*
X126427127Y-52315456D01*
X126018615Y-52588415D01*
X125909000Y-52752466D01*
X125799385Y-52588415D01*
X125390872Y-52315456D01*
X124909000Y-52219605D01*
X124427127Y-52315456D01*
X124018615Y-52588415D01*
X123909000Y-52752466D01*
X123799385Y-52588415D01*
X123390872Y-52315456D01*
X122909000Y-52219605D01*
X122427127Y-52315456D01*
X122060140Y-52560669D01*
X121966809Y-52420991D01*
X121756765Y-52280643D01*
X121509000Y-52231360D01*
X120309000Y-52231360D01*
X120061235Y-52280643D01*
X119851191Y-52420991D01*
X119710843Y-52631035D01*
X119661560Y-52878800D01*
X116817415Y-52878800D01*
X116623385Y-52588415D01*
X116214872Y-52315456D01*
X115733000Y-52219605D01*
X115251127Y-52315456D01*
X114842615Y-52588415D01*
X114733000Y-52752466D01*
X114623385Y-52588415D01*
X114214872Y-52315456D01*
X113733000Y-52219605D01*
X113251127Y-52315456D01*
X112842615Y-52588415D01*
X112733000Y-52752466D01*
X112623385Y-52588415D01*
X112214872Y-52315456D01*
X111733000Y-52219605D01*
X111251127Y-52315456D01*
X110884140Y-52560669D01*
X110790809Y-52420991D01*
X110580765Y-52280643D01*
X110333000Y-52231360D01*
X109133000Y-52231360D01*
X108885235Y-52280643D01*
X108675191Y-52420991D01*
X108534843Y-52631035D01*
X108485560Y-52878800D01*
X105641415Y-52878800D01*
X105447385Y-52588415D01*
X105038872Y-52315456D01*
X104557000Y-52219605D01*
X104075127Y-52315456D01*
X103666615Y-52588415D01*
X103557000Y-52752466D01*
X103447385Y-52588415D01*
X103038872Y-52315456D01*
X102557000Y-52219605D01*
X102075127Y-52315456D01*
X101666615Y-52588415D01*
X101557000Y-52752466D01*
X101447385Y-52588415D01*
X101038872Y-52315456D01*
X100557000Y-52219605D01*
X100075127Y-52315456D01*
X99708140Y-52560669D01*
X99614809Y-52420991D01*
X99404765Y-52280643D01*
X99157000Y-52231360D01*
X97957000Y-52231360D01*
X97709235Y-52280643D01*
X97499191Y-52420991D01*
X97358843Y-52631035D01*
X97309560Y-52878800D01*
X70744000Y-52878800D01*
X70744000Y-50710000D01*
X101823658Y-50710000D01*
X169295670Y-50883673D01*
X169295670Y-50883673D01*
G37*
X169295670Y-50883673D02*
X169169330Y-99524673D01*
X70744000Y-99271326D01*
X70744000Y-96080035D01*
X97364411Y-96080035D01*
X97364411Y-96823306D01*
X97436067Y-97183543D01*
X97709026Y-97592056D01*
X98117538Y-97865015D01*
X98599411Y-97960866D01*
X99081283Y-97865015D01*
X99489796Y-97592056D01*
X99599411Y-97428005D01*
X99709026Y-97592056D01*
X100117538Y-97865015D01*
X100599411Y-97960866D01*
X101081283Y-97865015D01*
X101489796Y-97592056D01*
X101599411Y-97428005D01*
X101709026Y-97592056D01*
X102117538Y-97865015D01*
X102599411Y-97960866D01*
X103081283Y-97865015D01*
X103448271Y-97619802D01*
X103541602Y-97759480D01*
X103751646Y-97899828D01*
X103999411Y-97949111D01*
X105199411Y-97949111D01*
X105447176Y-97899828D01*
X105657220Y-97759480D01*
X105797568Y-97549436D01*
X105846851Y-97301671D01*
X105846851Y-96080035D01*
X108540411Y-96080035D01*
X108540411Y-96823306D01*
X108612067Y-97183543D01*
X108885026Y-97592056D01*
X109293538Y-97865015D01*
X109775411Y-97960866D01*
X110257283Y-97865015D01*
X110665796Y-97592056D01*
X110775411Y-97428005D01*
X110885026Y-97592056D01*
X111293538Y-97865015D01*
X111775411Y-97960866D01*
X112257283Y-97865015D01*
X112665796Y-97592056D01*
X112775411Y-97428005D01*
X112885026Y-97592056D01*
X113293538Y-97865015D01*
X113775411Y-97960866D01*
X114257283Y-97865015D01*
X114624271Y-97619802D01*
X114717602Y-97759480D01*
X114927646Y-97899828D01*
X115175411Y-97949111D01*
X116375411Y-97949111D01*
X116623176Y-97899828D01*
X116833220Y-97759480D01*
X116973568Y-97549436D01*
X117022851Y-97301671D01*
X117022851Y-96080035D01*
X119716411Y-96080035D01*
X119716411Y-96823306D01*
X119788067Y-97183543D01*
X120061026Y-97592056D01*
X120469538Y-97865015D01*
X120951411Y-97960866D01*
X121433283Y-97865015D01*
X121841796Y-97592056D01*
X121951411Y-97428005D01*
X122061026Y-97592056D01*
X122469538Y-97865015D01*
X122951411Y-97960866D01*
X123433283Y-97865015D01*
X123841796Y-97592056D01*
X123951411Y-97428005D01*
X124061026Y-97592056D01*
X124469538Y-97865015D01*
X124951411Y-97960866D01*
X125433283Y-97865015D01*
X125800271Y-97619802D01*
X125893602Y-97759480D01*
X126103646Y-97899828D01*
X126351411Y-97949111D01*
X127551411Y-97949111D01*
X127799176Y-97899828D01*
X128009220Y-97759480D01*
X128149568Y-97549436D01*
X128198851Y-97301671D01*
X128198851Y-96080035D01*
X130892411Y-96080035D01*
X130892411Y-96823306D01*
X130964067Y-97183543D01*
X131237026Y-97592056D01*
X131645538Y-97865015D01*
X132127411Y-97960866D01*
X132609283Y-97865015D01*
X133017796Y-97592056D01*
X133127411Y-97428005D01*
X133237026Y-97592056D01*
X133645538Y-97865015D01*
X134127411Y-97960866D01*
X134609283Y-97865015D01*
X135017796Y-97592056D01*
X135127411Y-97428005D01*
X135237026Y-97592056D01*
X135645538Y-97865015D01*
X136127411Y-97960866D01*
X136609283Y-97865015D01*
X136976271Y-97619802D01*
X137069602Y-97759480D01*
X137279646Y-97899828D01*
X137527411Y-97949111D01*
X138727411Y-97949111D01*
X138975176Y-97899828D01*
X139185220Y-97759480D01*
X139325568Y-97549436D01*
X139374851Y-97301671D01*
X139374851Y-96080035D01*
X142068411Y-96080035D01*
X142068411Y-96823306D01*
X142140067Y-97183543D01*
X142413026Y-97592056D01*
X142821538Y-97865015D01*
X143303411Y-97960866D01*
X143785283Y-97865015D01*
X144193796Y-97592056D01*
X144303411Y-97428005D01*
X144413026Y-97592056D01*
X144821538Y-97865015D01*
X145303411Y-97960866D01*
X145785283Y-97865015D01*
X146193796Y-97592056D01*
X146303411Y-97428005D01*
X146413026Y-97592056D01*
X146821538Y-97865015D01*
X147303411Y-97960866D01*
X147785283Y-97865015D01*
X148152271Y-97619802D01*
X148245602Y-97759480D01*
X148455646Y-97899828D01*
X148703411Y-97949111D01*
X149903411Y-97949111D01*
X150151176Y-97899828D01*
X150361220Y-97759480D01*
X150501568Y-97549436D01*
X150550851Y-97301671D01*
X150550851Y-96080035D01*
X153244411Y-96080035D01*
X153244411Y-96823306D01*
X153316067Y-97183543D01*
X153589026Y-97592056D01*
X153997538Y-97865015D01*
X154479411Y-97960866D01*
X154961283Y-97865015D01*
X155369796Y-97592056D01*
X155479411Y-97428005D01*
X155589026Y-97592056D01*
X155997538Y-97865015D01*
X156479411Y-97960866D01*
X156961283Y-97865015D01*
X157369796Y-97592056D01*
X157479411Y-97428005D01*
X157589026Y-97592056D01*
X157997538Y-97865015D01*
X158479411Y-97960866D01*
X158961283Y-97865015D01*
X159328271Y-97619802D01*
X159421602Y-97759480D01*
X159631646Y-97899828D01*
X159879411Y-97949111D01*
X161079411Y-97949111D01*
X161327176Y-97899828D01*
X161537220Y-97759480D01*
X161677568Y-97549436D01*
X161726851Y-97301671D01*
X161726851Y-95601671D01*
X161677568Y-95353906D01*
X161537220Y-95143862D01*
X161327176Y-95003514D01*
X161079411Y-94954231D01*
X159879411Y-94954231D01*
X159631646Y-95003514D01*
X159421602Y-95143862D01*
X159328271Y-95283540D01*
X158961284Y-95038327D01*
X158479411Y-94942476D01*
X157997539Y-95038327D01*
X157589027Y-95311286D01*
X157479411Y-95475337D01*
X157369796Y-95311286D01*
X156961284Y-95038327D01*
X156479411Y-94942476D01*
X155997539Y-95038327D01*
X155589027Y-95311286D01*
X155479411Y-95475337D01*
X155369796Y-95311286D01*
X154961284Y-95038327D01*
X154479411Y-94942476D01*
X153997539Y-95038327D01*
X153589027Y-95311286D01*
X153316067Y-95719798D01*
X153244411Y-96080035D01*
X150550851Y-96080035D01*
X150550851Y-95601671D01*
X150501568Y-95353906D01*
X150361220Y-95143862D01*
X150151176Y-95003514D01*
X149903411Y-94954231D01*
X148703411Y-94954231D01*
X148455646Y-95003514D01*
X148245602Y-95143862D01*
X148152271Y-95283540D01*
X147785284Y-95038327D01*
X147303411Y-94942476D01*
X146821539Y-95038327D01*
X146413027Y-95311286D01*
X146303411Y-95475337D01*
X146193796Y-95311286D01*
X145785284Y-95038327D01*
X145303411Y-94942476D01*
X144821539Y-95038327D01*
X144413027Y-95311286D01*
X144303411Y-95475337D01*
X144193796Y-95311286D01*
X143785284Y-95038327D01*
X143303411Y-94942476D01*
X142821539Y-95038327D01*
X142413027Y-95311286D01*
X142140067Y-95719798D01*
X142068411Y-96080035D01*
X139374851Y-96080035D01*
X139374851Y-95601671D01*
X139325568Y-95353906D01*
X139185220Y-95143862D01*
X138975176Y-95003514D01*
X138727411Y-94954231D01*
X137527411Y-94954231D01*
X137279646Y-95003514D01*
X137069602Y-95143862D01*
X136976271Y-95283540D01*
X136609284Y-95038327D01*
X136127411Y-94942476D01*
X135645539Y-95038327D01*
X135237027Y-95311286D01*
X135127411Y-95475337D01*
X135017796Y-95311286D01*
X134609284Y-95038327D01*
X134127411Y-94942476D01*
X133645539Y-95038327D01*
X133237027Y-95311286D01*
X133127411Y-95475337D01*
X133017796Y-95311286D01*
X132609284Y-95038327D01*
X132127411Y-94942476D01*
X131645539Y-95038327D01*
X131237027Y-95311286D01*
X130964067Y-95719798D01*
X130892411Y-96080035D01*
X128198851Y-96080035D01*
X128198851Y-95601671D01*
X128149568Y-95353906D01*
X128009220Y-95143862D01*
X127799176Y-95003514D01*
X127551411Y-94954231D01*
X126351411Y-94954231D01*
X126103646Y-95003514D01*
X125893602Y-95143862D01*
X125800271Y-95283540D01*
X125433284Y-95038327D01*
X124951411Y-94942476D01*
X124469539Y-95038327D01*
X124061027Y-95311286D01*
X123951411Y-95475337D01*
X123841796Y-95311286D01*
X123433284Y-95038327D01*
X122951411Y-94942476D01*
X122469539Y-95038327D01*
X122061027Y-95311286D01*
X121951411Y-95475337D01*
X121841796Y-95311286D01*
X121433284Y-95038327D01*
X120951411Y-94942476D01*
X120469539Y-95038327D01*
X120061027Y-95311286D01*
X119788067Y-95719798D01*
X119716411Y-96080035D01*
X117022851Y-96080035D01*
X117022851Y-95601671D01*
X116973568Y-95353906D01*
X116833220Y-95143862D01*
X116623176Y-95003514D01*
X116375411Y-94954231D01*
X115175411Y-94954231D01*
X114927646Y-95003514D01*
X114717602Y-95143862D01*
X114624271Y-95283540D01*
X114257284Y-95038327D01*
X113775411Y-94942476D01*
X113293539Y-95038327D01*
X112885027Y-95311286D01*
X112775411Y-95475337D01*
X112665796Y-95311286D01*
X112257284Y-95038327D01*
X111775411Y-94942476D01*
X111293539Y-95038327D01*
X110885027Y-95311286D01*
X110775411Y-95475337D01*
X110665796Y-95311286D01*
X110257284Y-95038327D01*
X109775411Y-94942476D01*
X109293539Y-95038327D01*
X108885027Y-95311286D01*
X108612067Y-95719798D01*
X108540411Y-96080035D01*
X105846851Y-96080035D01*
X105846851Y-95601671D01*
X105797568Y-95353906D01*
X105657220Y-95143862D01*
X105447176Y-95003514D01*
X105199411Y-94954231D01*
X103999411Y-94954231D01*
X103751646Y-95003514D01*
X103541602Y-95143862D01*
X103448271Y-95283540D01*
X103081284Y-95038327D01*
X102599411Y-94942476D01*
X102117539Y-95038327D01*
X101709027Y-95311286D01*
X101599411Y-95475337D01*
X101489796Y-95311286D01*
X101081284Y-95038327D01*
X100599411Y-94942476D01*
X100117539Y-95038327D01*
X99709027Y-95311286D01*
X99599411Y-95475337D01*
X99489796Y-95311286D01*
X99081284Y-95038327D01*
X98599411Y-94942476D01*
X98117539Y-95038327D01*
X97709027Y-95311286D01*
X97436067Y-95719798D01*
X97364411Y-96080035D01*
X70744000Y-96080035D01*
X70744000Y-91524000D01*
X77471041Y-91524000D01*
X77587350Y-92108725D01*
X77918570Y-92604430D01*
X78202281Y-92794000D01*
X77918570Y-92983570D01*
X77587350Y-93479275D01*
X77471041Y-94064000D01*
X77587350Y-94648725D01*
X77918570Y-95144430D01*
X78414275Y-95475650D01*
X78851402Y-95562600D01*
X79146598Y-95562600D01*
X79583725Y-95475650D01*
X80079430Y-95144430D01*
X80280854Y-94842979D01*
X80332179Y-94952490D01*
X80764053Y-95346688D01*
X81179974Y-95518958D01*
X81412000Y-95397817D01*
X81412000Y-94191000D01*
X81666000Y-94191000D01*
X81666000Y-95397817D01*
X81898026Y-95518958D01*
X82313947Y-95346688D01*
X82745821Y-94952490D01*
X82993968Y-94423027D01*
X82873469Y-94191000D01*
X81666000Y-94191000D01*
X81412000Y-94191000D01*
X81392000Y-94191000D01*
X81392000Y-93937000D01*
X81412000Y-93937000D01*
X81412000Y-93917000D01*
X81666000Y-93917000D01*
X81666000Y-93937000D01*
X82873469Y-93937000D01*
X82993968Y-93704973D01*
X82745821Y-93175510D01*
X82331174Y-92797037D01*
X82619430Y-92604430D01*
X82950650Y-92108725D01*
X83066959Y-91524000D01*
X82950650Y-90939275D01*
X82619430Y-90443570D01*
X82335719Y-90254000D01*
X82619430Y-90064430D01*
X82950650Y-89568725D01*
X83066959Y-88984000D01*
X82950650Y-88399275D01*
X82619430Y-87903570D01*
X82123725Y-87572350D01*
X81686598Y-87485400D01*
X81391402Y-87485400D01*
X80954275Y-87572350D01*
X80465932Y-87898651D01*
X80460757Y-87872635D01*
X80320409Y-87662591D01*
X80110365Y-87522243D01*
X79862600Y-87472960D01*
X78135400Y-87472960D01*
X77887635Y-87522243D01*
X77677591Y-87662591D01*
X77537243Y-87872635D01*
X77487960Y-88120400D01*
X77487960Y-89847600D01*
X77537243Y-90095365D01*
X77677591Y-90305409D01*
X77887635Y-90445757D01*
X77913651Y-90450932D01*
X77587350Y-90939275D01*
X77471041Y-91524000D01*
X70744000Y-91524000D01*
X70744000Y-76928364D01*
X71954000Y-76928364D01*
X71954000Y-77671635D01*
X72025656Y-78031872D01*
X72298615Y-78440385D01*
X72707127Y-78713344D01*
X73189000Y-78809195D01*
X73670872Y-78713344D01*
X74037860Y-78468131D01*
X74131191Y-78607809D01*
X74341235Y-78748157D01*
X74589000Y-78797440D01*
X75789000Y-78797440D01*
X76036765Y-78748157D01*
X76246809Y-78607809D01*
X76387157Y-78397765D01*
X76436440Y-78150000D01*
X76436440Y-76450000D01*
X76387157Y-76202235D01*
X76246809Y-75992191D01*
X76036765Y-75851843D01*
X75789000Y-75802560D01*
X74589000Y-75802560D01*
X74341235Y-75851843D01*
X74131191Y-75992191D01*
X74037860Y-76131869D01*
X73670873Y-75886656D01*
X73189000Y-75790805D01*
X72707128Y-75886656D01*
X72298616Y-76159615D01*
X72025656Y-76568127D01*
X71954000Y-76928364D01*
X70744000Y-76928364D01*
X70744000Y-68830000D01*
X71941560Y-68830000D01*
X71941560Y-70530000D01*
X71990843Y-70777765D01*
X72131191Y-70987809D01*
X72341235Y-71128157D01*
X72589000Y-71177440D01*
X73789000Y-71177440D01*
X74036765Y-71128157D01*
X74246809Y-70987809D01*
X74340140Y-70848130D01*
X74707128Y-71093344D01*
X75189000Y-71189195D01*
X75670873Y-71093344D01*
X76079385Y-70820385D01*
X76352344Y-70411872D01*
X76408607Y-70129017D01*
X87970000Y-70129017D01*
X87970000Y-70500983D01*
X88112345Y-70844635D01*
X88375365Y-71107655D01*
X88719017Y-71250000D01*
X89090983Y-71250000D01*
X89345371Y-71144629D01*
X89240000Y-71399017D01*
X89240000Y-71770983D01*
X89382345Y-72114635D01*
X89645365Y-72377655D01*
X89944383Y-72501512D01*
X89875000Y-72669017D01*
X89875000Y-73040983D01*
X90017345Y-73384635D01*
X90280365Y-73647655D01*
X90624017Y-73790000D01*
X90995983Y-73790000D01*
X91339635Y-73647655D01*
X91602655Y-73384635D01*
X91745000Y-73040983D01*
X91745000Y-72925788D01*
X92399589Y-72271200D01*
X98453910Y-72271200D01*
X98535365Y-72352655D01*
X98879017Y-72495000D01*
X99250983Y-72495000D01*
X99400000Y-72433275D01*
X99400000Y-72545983D01*
X99542345Y-72889635D01*
X99805365Y-73152655D01*
X100149017Y-73295000D01*
X100520983Y-73295000D01*
X100864635Y-73152655D01*
X101127655Y-72889635D01*
X101270000Y-72545983D01*
X101270000Y-72174017D01*
X101127655Y-71830365D01*
X101097000Y-71799710D01*
X101097000Y-71189630D01*
X104010000Y-74102631D01*
X104010000Y-74145983D01*
X104152345Y-74489635D01*
X104415365Y-74752655D01*
X104759017Y-74895000D01*
X105130983Y-74895000D01*
X105474635Y-74752655D01*
X105737655Y-74489635D01*
X105880000Y-74145983D01*
X105880000Y-74095000D01*
X106235983Y-74095000D01*
X106579635Y-73952655D01*
X106842655Y-73689635D01*
X106985000Y-73345983D01*
X106985000Y-72974017D01*
X106842655Y-72630365D01*
X106812000Y-72599710D01*
X106812000Y-71660042D01*
X106826927Y-71584999D01*
X106812000Y-71509956D01*
X106812000Y-71509952D01*
X106767788Y-71287683D01*
X106740817Y-71247317D01*
X106641882Y-71099251D01*
X106599371Y-71035629D01*
X106535749Y-70993118D01*
X105798648Y-70256017D01*
X123530000Y-70256017D01*
X123530000Y-70627983D01*
X123672345Y-70971635D01*
X123753803Y-71053093D01*
X123753802Y-76942912D01*
X123672347Y-77024367D01*
X123530002Y-77368019D01*
X123530002Y-77739985D01*
X123672347Y-78083637D01*
X123935367Y-78346657D01*
X124279019Y-78489002D01*
X124650985Y-78489002D01*
X124994637Y-78346657D01*
X125257657Y-78083637D01*
X125400002Y-77739985D01*
X125400002Y-77622013D01*
X125816000Y-77622013D01*
X125816000Y-77993979D01*
X125958345Y-78337631D01*
X126221365Y-78600651D01*
X126565017Y-78742996D01*
X126936983Y-78742996D01*
X127280635Y-78600651D01*
X127543655Y-78337631D01*
X127686000Y-77993979D01*
X127686000Y-77622013D01*
X127543655Y-77278361D01*
X127475825Y-77210531D01*
X127475825Y-70096292D01*
X127557280Y-70014837D01*
X127606469Y-69896085D01*
X127736345Y-70209635D01*
X127817800Y-70291090D01*
X127817801Y-78212909D01*
X127736345Y-78294365D01*
X127594000Y-78638017D01*
X127594000Y-79009983D01*
X127736345Y-79353635D01*
X127999365Y-79616655D01*
X128343017Y-79759000D01*
X128714983Y-79759000D01*
X129058635Y-79616655D01*
X129321655Y-79353635D01*
X129464000Y-79009983D01*
X129464000Y-78638017D01*
X129321655Y-78294365D01*
X129240200Y-78212910D01*
X129240200Y-77808000D01*
X157499805Y-77808000D01*
X157595656Y-78289873D01*
X157868615Y-78698385D01*
X158032665Y-78808000D01*
X157868615Y-78917615D01*
X157595656Y-79326127D01*
X157499805Y-79808000D01*
X157595656Y-80289873D01*
X157868615Y-80698385D01*
X158032665Y-80808000D01*
X157868615Y-80917615D01*
X157595656Y-81326127D01*
X157499805Y-81808000D01*
X157595656Y-82289873D01*
X157840869Y-82656860D01*
X157701191Y-82750191D01*
X157560843Y-82960235D01*
X157511560Y-83208000D01*
X157511560Y-84408000D01*
X157560843Y-84655765D01*
X157701191Y-84865809D01*
X157911235Y-85006157D01*
X158159000Y-85055440D01*
X159859000Y-85055440D01*
X160106765Y-85006157D01*
X160316809Y-84865809D01*
X160457157Y-84655765D01*
X160506440Y-84408000D01*
X160506440Y-83208000D01*
X160457157Y-82960235D01*
X160316809Y-82750191D01*
X160177131Y-82656860D01*
X160422344Y-82289873D01*
X160518195Y-81808000D01*
X160422344Y-81326127D01*
X160149385Y-80917615D01*
X159985335Y-80808000D01*
X160149385Y-80698385D01*
X160422344Y-80289873D01*
X160505464Y-79872000D01*
X164865805Y-79872000D01*
X164961656Y-80353873D01*
X165234615Y-80762385D01*
X165398665Y-80872000D01*
X165234615Y-80981615D01*
X164961656Y-81390127D01*
X164865805Y-81872000D01*
X164961656Y-82353873D01*
X165234615Y-82762385D01*
X165398665Y-82872000D01*
X165234615Y-82981615D01*
X164961656Y-83390127D01*
X164865805Y-83872000D01*
X164961656Y-84353873D01*
X165234615Y-84762385D01*
X165643127Y-85035344D01*
X166003364Y-85107000D01*
X166746636Y-85107000D01*
X167106873Y-85035344D01*
X167515385Y-84762385D01*
X167788344Y-84353873D01*
X167884195Y-83872000D01*
X167788344Y-83390127D01*
X167515385Y-82981615D01*
X167351335Y-82872000D01*
X167515385Y-82762385D01*
X167788344Y-82353873D01*
X167884195Y-81872000D01*
X167788344Y-81390127D01*
X167515385Y-80981615D01*
X167351335Y-80872000D01*
X167515385Y-80762385D01*
X167788344Y-80353873D01*
X167884195Y-79872000D01*
X167788344Y-79390127D01*
X167543131Y-79023140D01*
X167682809Y-78929809D01*
X167823157Y-78719765D01*
X167872440Y-78472000D01*
X167872440Y-77272000D01*
X167823157Y-77024235D01*
X167682809Y-76814191D01*
X167472765Y-76673843D01*
X167225000Y-76624560D01*
X165525000Y-76624560D01*
X165277235Y-76673843D01*
X165067191Y-76814191D01*
X164926843Y-77024235D01*
X164877560Y-77272000D01*
X164877560Y-78472000D01*
X164926843Y-78719765D01*
X165067191Y-78929809D01*
X165206869Y-79023140D01*
X164961656Y-79390127D01*
X164865805Y-79872000D01*
X160505464Y-79872000D01*
X160518195Y-79808000D01*
X160422344Y-79326127D01*
X160149385Y-78917615D01*
X159985335Y-78808000D01*
X160149385Y-78698385D01*
X160422344Y-78289873D01*
X160518195Y-77808000D01*
X160422344Y-77326127D01*
X160149385Y-76917615D01*
X159740873Y-76644656D01*
X159380636Y-76573000D01*
X158637364Y-76573000D01*
X158277127Y-76644656D01*
X157868615Y-76917615D01*
X157595656Y-77326127D01*
X157499805Y-77808000D01*
X129240200Y-77808000D01*
X129240200Y-71526017D01*
X129371994Y-71526017D01*
X129371994Y-71897983D01*
X129514339Y-72241635D01*
X129595795Y-72323091D01*
X129595794Y-73386910D01*
X129514339Y-73468365D01*
X129371994Y-73812017D01*
X129371994Y-74183983D01*
X129514339Y-74527635D01*
X129777359Y-74790655D01*
X130121011Y-74933000D01*
X130492977Y-74933000D01*
X130836629Y-74790655D01*
X131099649Y-74527635D01*
X131241994Y-74183983D01*
X131241994Y-73812017D01*
X131099649Y-73468365D01*
X131018194Y-73386910D01*
X131018194Y-72323090D01*
X131099649Y-72241635D01*
X131241994Y-71897983D01*
X131241994Y-71526017D01*
X131099649Y-71182365D01*
X130836629Y-70919345D01*
X130492977Y-70777000D01*
X130121011Y-70777000D01*
X129777359Y-70919345D01*
X129514339Y-71182365D01*
X129371994Y-71526017D01*
X129240200Y-71526017D01*
X129240200Y-70291090D01*
X129321655Y-70209635D01*
X129464000Y-69865983D01*
X129464000Y-69494017D01*
X129321655Y-69150365D01*
X129058635Y-68887345D01*
X128714983Y-68745000D01*
X128343017Y-68745000D01*
X127999365Y-68887345D01*
X127736345Y-69150365D01*
X127687156Y-69269117D01*
X127557280Y-68955567D01*
X127294260Y-68692547D01*
X126950608Y-68550202D01*
X126578642Y-68550202D01*
X126234990Y-68692547D01*
X125971970Y-68955567D01*
X125829625Y-69299219D01*
X125829625Y-69671185D01*
X125971970Y-70014837D01*
X126053425Y-70096292D01*
X126053426Y-77183280D01*
X125958345Y-77278361D01*
X125816000Y-77622013D01*
X125400002Y-77622013D01*
X125400002Y-77368019D01*
X125257657Y-77024367D01*
X125176202Y-76942912D01*
X125176202Y-71053088D01*
X125257655Y-70971635D01*
X125400000Y-70627983D01*
X125400000Y-70256017D01*
X125257655Y-69912365D01*
X124994635Y-69649345D01*
X124650983Y-69507000D01*
X124279017Y-69507000D01*
X123935365Y-69649345D01*
X123672345Y-69912365D01*
X123530000Y-70256017D01*
X105798648Y-70256017D01*
X100464652Y-64922021D01*
X120736000Y-64922021D01*
X120736000Y-65293987D01*
X120878345Y-65637639D01*
X121141365Y-65900659D01*
X121485017Y-66043004D01*
X121856983Y-66043004D01*
X122200635Y-65900659D01*
X122282090Y-65819204D01*
X143728422Y-65819204D01*
X150454000Y-72544783D01*
X150454000Y-72659977D01*
X150596345Y-73003629D01*
X150859365Y-73266649D01*
X151203017Y-73408994D01*
X151574983Y-73408994D01*
X151918635Y-73266649D01*
X152181655Y-73003629D01*
X152324000Y-72659977D01*
X152324000Y-72288011D01*
X152181655Y-71944359D01*
X151918635Y-71681339D01*
X151574983Y-71538994D01*
X151459789Y-71538994D01*
X146552795Y-66632000D01*
X157499805Y-66632000D01*
X157595656Y-67113873D01*
X157868615Y-67522385D01*
X158032665Y-67632000D01*
X157868615Y-67741615D01*
X157595656Y-68150127D01*
X157499805Y-68632000D01*
X157595656Y-69113873D01*
X157868615Y-69522385D01*
X158032665Y-69632000D01*
X157868615Y-69741615D01*
X157595656Y-70150127D01*
X157499805Y-70632000D01*
X157595656Y-71113873D01*
X157840869Y-71480860D01*
X157701191Y-71574191D01*
X157560843Y-71784235D01*
X157511560Y-72032000D01*
X157511560Y-73232000D01*
X157560843Y-73479765D01*
X157701191Y-73689809D01*
X157911235Y-73830157D01*
X158159000Y-73879440D01*
X159859000Y-73879440D01*
X160106765Y-73830157D01*
X160316809Y-73689809D01*
X160457157Y-73479765D01*
X160506440Y-73232000D01*
X160506440Y-72032000D01*
X160457157Y-71784235D01*
X160316809Y-71574191D01*
X160177131Y-71480860D01*
X160422344Y-71113873D01*
X160518195Y-70632000D01*
X160422344Y-70150127D01*
X160149385Y-69741615D01*
X159985335Y-69632000D01*
X160149385Y-69522385D01*
X160422344Y-69113873D01*
X160505464Y-68696000D01*
X164865805Y-68696000D01*
X164961656Y-69177873D01*
X165234615Y-69586385D01*
X165398665Y-69696000D01*
X165234615Y-69805615D01*
X164961656Y-70214127D01*
X164865805Y-70696000D01*
X164961656Y-71177873D01*
X165234615Y-71586385D01*
X165398665Y-71696000D01*
X165234615Y-71805615D01*
X164961656Y-72214127D01*
X164865805Y-72696000D01*
X164961656Y-73177873D01*
X165234615Y-73586385D01*
X165643127Y-73859344D01*
X166003364Y-73931000D01*
X166746636Y-73931000D01*
X167106873Y-73859344D01*
X167515385Y-73586385D01*
X167788344Y-73177873D01*
X167884195Y-72696000D01*
X167788344Y-72214127D01*
X167515385Y-71805615D01*
X167351335Y-71696000D01*
X167515385Y-71586385D01*
X167788344Y-71177873D01*
X167884195Y-70696000D01*
X167788344Y-70214127D01*
X167515385Y-69805615D01*
X167351335Y-69696000D01*
X167515385Y-69586385D01*
X167788344Y-69177873D01*
X167884195Y-68696000D01*
X167788344Y-68214127D01*
X167543131Y-67847140D01*
X167682809Y-67753809D01*
X167823157Y-67543765D01*
X167872440Y-67296000D01*
X167872440Y-66096000D01*
X167823157Y-65848235D01*
X167682809Y-65638191D01*
X167472765Y-65497843D01*
X167225000Y-65448560D01*
X165525000Y-65448560D01*
X165277235Y-65497843D01*
X165067191Y-65638191D01*
X164926843Y-65848235D01*
X164877560Y-66096000D01*
X164877560Y-67296000D01*
X164926843Y-67543765D01*
X165067191Y-67753809D01*
X165206869Y-67847140D01*
X164961656Y-68214127D01*
X164865805Y-68696000D01*
X160505464Y-68696000D01*
X160518195Y-68632000D01*
X160422344Y-68150127D01*
X160149385Y-67741615D01*
X159985335Y-67632000D01*
X160149385Y-67522385D01*
X160422344Y-67113873D01*
X160518195Y-66632000D01*
X160422344Y-66150127D01*
X160149385Y-65741615D01*
X159740873Y-65468656D01*
X159380636Y-65397000D01*
X158637364Y-65397000D01*
X158277127Y-65468656D01*
X157868615Y-65741615D01*
X157595656Y-66150127D01*
X157499805Y-66632000D01*
X146552795Y-66632000D01*
X144575434Y-64654640D01*
X144535756Y-64595258D01*
X144300506Y-64438068D01*
X144093056Y-64396804D01*
X144093051Y-64396804D01*
X144023010Y-64382872D01*
X143952969Y-64396804D01*
X122282090Y-64396804D01*
X122200635Y-64315349D01*
X121856983Y-64173004D01*
X121485017Y-64173004D01*
X121141365Y-64315349D01*
X120878345Y-64578369D01*
X120736000Y-64922021D01*
X100464652Y-64922021D01*
X97116883Y-61574253D01*
X97074371Y-61510629D01*
X96822317Y-61342212D01*
X96600048Y-61298000D01*
X96600043Y-61298000D01*
X96525000Y-61283073D01*
X96449957Y-61298000D01*
X95815290Y-61298000D01*
X95784635Y-61267345D01*
X95440983Y-61125000D01*
X95069017Y-61125000D01*
X94725365Y-61267345D01*
X94462345Y-61530365D01*
X94320000Y-61874017D01*
X94320000Y-62245983D01*
X94462345Y-62589635D01*
X94725365Y-62852655D01*
X95069017Y-62995000D01*
X95440983Y-62995000D01*
X95784635Y-62852655D01*
X95815290Y-62822000D01*
X96209370Y-62822000D01*
X105288001Y-71900632D01*
X105288000Y-72599710D01*
X105257345Y-72630365D01*
X105115000Y-72974017D01*
X105115000Y-73025000D01*
X105087631Y-73025000D01*
X101891883Y-69829253D01*
X101849371Y-69765629D01*
X101597317Y-69597212D01*
X101375048Y-69553000D01*
X101375043Y-69553000D01*
X101300000Y-69538073D01*
X101224957Y-69553000D01*
X89465290Y-69553000D01*
X89434635Y-69522345D01*
X89090983Y-69380000D01*
X88719017Y-69380000D01*
X88375365Y-69522345D01*
X88112345Y-69785365D01*
X87970000Y-70129017D01*
X76408607Y-70129017D01*
X76424000Y-70051635D01*
X76424000Y-69308364D01*
X76352344Y-68948127D01*
X76079385Y-68539615D01*
X75670872Y-68266656D01*
X75189000Y-68170805D01*
X74707127Y-68266656D01*
X74340140Y-68511869D01*
X74246809Y-68372191D01*
X74036765Y-68231843D01*
X73789000Y-68182560D01*
X72589000Y-68182560D01*
X72341235Y-68231843D01*
X72131191Y-68372191D01*
X71990843Y-68582235D01*
X71941560Y-68830000D01*
X70744000Y-68830000D01*
X70744000Y-63772710D01*
X72291252Y-63772710D01*
X72324901Y-63909662D01*
X72646794Y-64480601D01*
X73162673Y-64884897D01*
X73794000Y-65061000D01*
X74554000Y-65061000D01*
X74554000Y-63513000D01*
X74808000Y-63513000D01*
X74808000Y-65061000D01*
X75568000Y-65061000D01*
X76199327Y-64884897D01*
X76715206Y-64480601D01*
X77037099Y-63909662D01*
X77070748Y-63772710D01*
X76951922Y-63513000D01*
X74808000Y-63513000D01*
X74554000Y-63513000D01*
X72410078Y-63513000D01*
X72291252Y-63772710D01*
X70744000Y-63772710D01*
X70744000Y-62999290D01*
X72291252Y-62999290D01*
X72410078Y-63259000D01*
X74554000Y-63259000D01*
X74554000Y-61711000D01*
X74808000Y-61711000D01*
X74808000Y-63259000D01*
X76951922Y-63259000D01*
X77070748Y-62999290D01*
X77037099Y-62862338D01*
X76715206Y-62291399D01*
X76199327Y-61887103D01*
X75568000Y-61711000D01*
X74808000Y-61711000D01*
X74554000Y-61711000D01*
X73794000Y-61711000D01*
X73162673Y-61887103D01*
X72646794Y-62291399D01*
X72324901Y-62862338D01*
X72291252Y-62999290D01*
X70744000Y-62999290D01*
X70744000Y-57266000D01*
X72233560Y-57266000D01*
X72233560Y-59346000D01*
X72282843Y-59593765D01*
X72423191Y-59803809D01*
X72633235Y-59944157D01*
X72881000Y-59993440D01*
X76481000Y-59993440D01*
X76728765Y-59944157D01*
X76938809Y-59803809D01*
X77079157Y-59593765D01*
X77128440Y-59346000D01*
X77128440Y-57266000D01*
X77079157Y-57018235D01*
X76938809Y-56808191D01*
X76728765Y-56667843D01*
X76481000Y-56618560D01*
X72881000Y-56618560D01*
X72633235Y-56667843D01*
X72423191Y-56808191D01*
X72282843Y-57018235D01*
X72233560Y-57266000D01*
X70744000Y-57266000D01*
X70744000Y-52878800D01*
X97309560Y-52878800D01*
X97309560Y-54578800D01*
X97358843Y-54826565D01*
X97499191Y-55036609D01*
X97709235Y-55176957D01*
X97957000Y-55226240D01*
X99157000Y-55226240D01*
X99404765Y-55176957D01*
X99614809Y-55036609D01*
X99708140Y-54896930D01*
X100075128Y-55142144D01*
X100557000Y-55237995D01*
X101038873Y-55142144D01*
X101447385Y-54869185D01*
X101557000Y-54705134D01*
X101666616Y-54869185D01*
X102075128Y-55142144D01*
X102557000Y-55237995D01*
X103038873Y-55142144D01*
X103447385Y-54869185D01*
X103557000Y-54705134D01*
X103666616Y-54869185D01*
X104075128Y-55142144D01*
X104557000Y-55237995D01*
X105038873Y-55142144D01*
X105447385Y-54869185D01*
X105720344Y-54460672D01*
X105792000Y-54100435D01*
X105792000Y-53357164D01*
X105720344Y-52996927D01*
X105641415Y-52878800D01*
X108485560Y-52878800D01*
X108485560Y-54578800D01*
X108534843Y-54826565D01*
X108675191Y-55036609D01*
X108885235Y-55176957D01*
X109133000Y-55226240D01*
X110333000Y-55226240D01*
X110580765Y-55176957D01*
X110790809Y-55036609D01*
X110884140Y-54896930D01*
X111251128Y-55142144D01*
X111733000Y-55237995D01*
X112214873Y-55142144D01*
X112623385Y-54869185D01*
X112733000Y-54705134D01*
X112842616Y-54869185D01*
X113251128Y-55142144D01*
X113733000Y-55237995D01*
X114214873Y-55142144D01*
X114623385Y-54869185D01*
X114733000Y-54705134D01*
X114842616Y-54869185D01*
X115251128Y-55142144D01*
X115733000Y-55237995D01*
X116214873Y-55142144D01*
X116623385Y-54869185D01*
X116896344Y-54460672D01*
X116968000Y-54100435D01*
X116968000Y-53357164D01*
X116896344Y-52996927D01*
X116817415Y-52878800D01*
X119661560Y-52878800D01*
X119661560Y-54578800D01*
X119710843Y-54826565D01*
X119851191Y-55036609D01*
X120061235Y-55176957D01*
X120309000Y-55226240D01*
X121509000Y-55226240D01*
X121756765Y-55176957D01*
X121966809Y-55036609D01*
X122060140Y-54896930D01*
X122427128Y-55142144D01*
X122909000Y-55237995D01*
X123390873Y-55142144D01*
X123799385Y-54869185D01*
X123909000Y-54705134D01*
X124018616Y-54869185D01*
X124427128Y-55142144D01*
X124909000Y-55237995D01*
X125390873Y-55142144D01*
X125799385Y-54869185D01*
X125909000Y-54705134D01*
X126018616Y-54869185D01*
X126427128Y-55142144D01*
X126909000Y-55237995D01*
X127390873Y-55142144D01*
X127799385Y-54869185D01*
X128072344Y-54460672D01*
X128144000Y-54100435D01*
X128144000Y-53357164D01*
X128072344Y-52996927D01*
X127993415Y-52878800D01*
X130837560Y-52878800D01*
X130837560Y-54578800D01*
X130886843Y-54826565D01*
X131027191Y-55036609D01*
X131237235Y-55176957D01*
X131485000Y-55226240D01*
X132685000Y-55226240D01*
X132932765Y-55176957D01*
X133142809Y-55036609D01*
X133236140Y-54896930D01*
X133603128Y-55142144D01*
X134085000Y-55237995D01*
X134566873Y-55142144D01*
X134975385Y-54869185D01*
X135085000Y-54705134D01*
X135194616Y-54869185D01*
X135603128Y-55142144D01*
X136085000Y-55237995D01*
X136566873Y-55142144D01*
X136975385Y-54869185D01*
X137085000Y-54705134D01*
X137194616Y-54869185D01*
X137603128Y-55142144D01*
X138085000Y-55237995D01*
X138566873Y-55142144D01*
X138975385Y-54869185D01*
X139248344Y-54460672D01*
X139320000Y-54100435D01*
X139320000Y-53357164D01*
X139248344Y-52996927D01*
X139169415Y-52878800D01*
X142013560Y-52878800D01*
X142013560Y-54578800D01*
X142062843Y-54826565D01*
X142203191Y-55036609D01*
X142413235Y-55176957D01*
X142661000Y-55226240D01*
X143861000Y-55226240D01*
X144108765Y-55176957D01*
X144318809Y-55036609D01*
X144412140Y-54896930D01*
X144779128Y-55142144D01*
X145261000Y-55237995D01*
X145742873Y-55142144D01*
X146151385Y-54869185D01*
X146261000Y-54705134D01*
X146370616Y-54869185D01*
X146779128Y-55142144D01*
X147261000Y-55237995D01*
X147742873Y-55142144D01*
X148151385Y-54869185D01*
X148261000Y-54705134D01*
X148370616Y-54869185D01*
X148779128Y-55142144D01*
X149261000Y-55237995D01*
X149742873Y-55142144D01*
X150151385Y-54869185D01*
X150424344Y-54460672D01*
X150496000Y-54100435D01*
X150496000Y-53357164D01*
X150424344Y-52996927D01*
X150345415Y-52878800D01*
X153189560Y-52878800D01*
X153189560Y-54578800D01*
X153238843Y-54826565D01*
X153379191Y-55036609D01*
X153589235Y-55176957D01*
X153837000Y-55226240D01*
X155037000Y-55226240D01*
X155284765Y-55176957D01*
X155494809Y-55036609D01*
X155588140Y-54896930D01*
X155955128Y-55142144D01*
X156437000Y-55237995D01*
X156918873Y-55142144D01*
X157327385Y-54869185D01*
X157437000Y-54705134D01*
X157546616Y-54869185D01*
X157955128Y-55142144D01*
X158437000Y-55237995D01*
X158918873Y-55142144D01*
X159327385Y-54869185D01*
X159437000Y-54705134D01*
X159546616Y-54869185D01*
X159955128Y-55142144D01*
X160437000Y-55237995D01*
X160918873Y-55142144D01*
X161327385Y-54869185D01*
X161600344Y-54460672D01*
X161672000Y-54100435D01*
X161672000Y-53357164D01*
X161600344Y-52996927D01*
X161327385Y-52588415D01*
X160918872Y-52315456D01*
X160437000Y-52219605D01*
X159955127Y-52315456D01*
X159546615Y-52588415D01*
X159437000Y-52752466D01*
X159327385Y-52588415D01*
X158918872Y-52315456D01*
X158437000Y-52219605D01*
X157955127Y-52315456D01*
X157546615Y-52588415D01*
X157437000Y-52752466D01*
X157327385Y-52588415D01*
X156918872Y-52315456D01*
X156437000Y-52219605D01*
X155955127Y-52315456D01*
X155588140Y-52560669D01*
X155494809Y-52420991D01*
X155284765Y-52280643D01*
X155037000Y-52231360D01*
X153837000Y-52231360D01*
X153589235Y-52280643D01*
X153379191Y-52420991D01*
X153238843Y-52631035D01*
X153189560Y-52878800D01*
X150345415Y-52878800D01*
X150151385Y-52588415D01*
X149742872Y-52315456D01*
X149261000Y-52219605D01*
X148779127Y-52315456D01*
X148370615Y-52588415D01*
X148261000Y-52752466D01*
X148151385Y-52588415D01*
X147742872Y-52315456D01*
X147261000Y-52219605D01*
X146779127Y-52315456D01*
X146370615Y-52588415D01*
X146261000Y-52752466D01*
X146151385Y-52588415D01*
X145742872Y-52315456D01*
X145261000Y-52219605D01*
X144779127Y-52315456D01*
X144412140Y-52560669D01*
X144318809Y-52420991D01*
X144108765Y-52280643D01*
X143861000Y-52231360D01*
X142661000Y-52231360D01*
X142413235Y-52280643D01*
X142203191Y-52420991D01*
X142062843Y-52631035D01*
X142013560Y-52878800D01*
X139169415Y-52878800D01*
X138975385Y-52588415D01*
X138566872Y-52315456D01*
X138085000Y-52219605D01*
X137603127Y-52315456D01*
X137194615Y-52588415D01*
X137085000Y-52752466D01*
X136975385Y-52588415D01*
X136566872Y-52315456D01*
X136085000Y-52219605D01*
X135603127Y-52315456D01*
X135194615Y-52588415D01*
X135085000Y-52752466D01*
X134975385Y-52588415D01*
X134566872Y-52315456D01*
X134085000Y-52219605D01*
X133603127Y-52315456D01*
X133236140Y-52560669D01*
X133142809Y-52420991D01*
X132932765Y-52280643D01*
X132685000Y-52231360D01*
X131485000Y-52231360D01*
X131237235Y-52280643D01*
X131027191Y-52420991D01*
X130886843Y-52631035D01*
X130837560Y-52878800D01*
X127993415Y-52878800D01*
X127799385Y-52588415D01*
X127390872Y-52315456D01*
X126909000Y-52219605D01*
X126427127Y-52315456D01*
X126018615Y-52588415D01*
X125909000Y-52752466D01*
X125799385Y-52588415D01*
X125390872Y-52315456D01*
X124909000Y-52219605D01*
X124427127Y-52315456D01*
X124018615Y-52588415D01*
X123909000Y-52752466D01*
X123799385Y-52588415D01*
X123390872Y-52315456D01*
X122909000Y-52219605D01*
X122427127Y-52315456D01*
X122060140Y-52560669D01*
X121966809Y-52420991D01*
X121756765Y-52280643D01*
X121509000Y-52231360D01*
X120309000Y-52231360D01*
X120061235Y-52280643D01*
X119851191Y-52420991D01*
X119710843Y-52631035D01*
X119661560Y-52878800D01*
X116817415Y-52878800D01*
X116623385Y-52588415D01*
X116214872Y-52315456D01*
X115733000Y-52219605D01*
X115251127Y-52315456D01*
X114842615Y-52588415D01*
X114733000Y-52752466D01*
X114623385Y-52588415D01*
X114214872Y-52315456D01*
X113733000Y-52219605D01*
X113251127Y-52315456D01*
X112842615Y-52588415D01*
X112733000Y-52752466D01*
X112623385Y-52588415D01*
X112214872Y-52315456D01*
X111733000Y-52219605D01*
X111251127Y-52315456D01*
X110884140Y-52560669D01*
X110790809Y-52420991D01*
X110580765Y-52280643D01*
X110333000Y-52231360D01*
X109133000Y-52231360D01*
X108885235Y-52280643D01*
X108675191Y-52420991D01*
X108534843Y-52631035D01*
X108485560Y-52878800D01*
X105641415Y-52878800D01*
X105447385Y-52588415D01*
X105038872Y-52315456D01*
X104557000Y-52219605D01*
X104075127Y-52315456D01*
X103666615Y-52588415D01*
X103557000Y-52752466D01*
X103447385Y-52588415D01*
X103038872Y-52315456D01*
X102557000Y-52219605D01*
X102075127Y-52315456D01*
X101666615Y-52588415D01*
X101557000Y-52752466D01*
X101447385Y-52588415D01*
X101038872Y-52315456D01*
X100557000Y-52219605D01*
X100075127Y-52315456D01*
X99708140Y-52560669D01*
X99614809Y-52420991D01*
X99404765Y-52280643D01*
X99157000Y-52231360D01*
X97957000Y-52231360D01*
X97709235Y-52280643D01*
X97499191Y-52420991D01*
X97358843Y-52631035D01*
X97309560Y-52878800D01*
X70744000Y-52878800D01*
X70744000Y-50710000D01*
X101823658Y-50710000D01*
X169295670Y-50883673D01*
G04 #@! TD*
M02*
